<?xml version="1.0" encoding="UTF-8" standalone="no"?><svg xmlns="http://www.w3.org/2000/svg" xmlns:xlink="http://www.w3.org/1999/xlink" contentScriptType="application/ecmascript" contentStyleType="text/css" height="596px" preserveAspectRatio="none" style="width:602px;height:596px;" version="1.1" viewBox="0 0 602 596" width="602px" zoomAndPan="magnify"><defs><filter height="300%" id="f126hl4vmyqmyg" width="300%" x="-1" y="-1"><feGaussianBlur result="blurOut" stdDeviation="2.0"/><feColorMatrix in="blurOut" result="blurOut2" type="matrix" values="0 0 0 0 0 0 0 0 0 0 0 0 0 0 0 0 0 0 .4 0"/><feOffset dx="4.0" dy="4.0" in="blurOut2" result="blurOut3"/><feBlend in="SourceGraphic" in2="blurOut3" mode="normal"/></filter></defs><g><rect fill="#FEFECE" filter="url(#f126hl4vmyqmyg)" height="50" rx="12.5" ry="12.5" style="stroke: #A80036; stroke-width: 1.5;" width="152" x="217" y="89"/><line style="stroke: #A80036; stroke-width: 1.5;" x1="217" x2="369" y1="115.2969" y2="115.2969"/><text fill="#000000" font-family="sans-serif" font-size="14" lengthAdjust="spacingAndGlyphs" textLength="132" x="227" y="106.9951">Juego en ejecución</text><rect fill="#FEFECE" filter="url(#f126hl4vmyqmyg)" height="50" rx="12.5" ry="12.5" style="stroke: #A80036; stroke-width: 1.5;" width="144" x="97" y="216"/><line style="stroke: #A80036; stroke-width: 1.5;" x1="97" x2="241" y1="242.2969" y2="242.2969"/><text fill="#000000" font-family="sans-serif" font-size="14" lengthAdjust="spacingAndGlyphs" textLength="124" x="107" y="233.9951">Entrar en una sala</text><rect fill="#FEFECE" filter="url(#f126hl4vmyqmyg)" height="50" rx="12.5" ry="12.5" style="stroke: #A80036; stroke-width: 1.5;" width="172" x="6" y="89"/><line style="stroke: #A80036; stroke-width: 1.5;" x1="6" x2="178" y1="115.2969" y2="115.2969"/><text fill="#000000" font-family="sans-serif" font-size="14" lengthAdjust="spacingAndGlyphs" textLength="152" x="16" y="106.9951">Lograr resolver puzzle</text><rect fill="#FEFECE" filter="url(#f126hl4vmyqmyg)" height="50" rx="12.5" ry="12.5" style="stroke: #A80036; stroke-width: 1.5;" width="255" x="335.5" y="216"/><line style="stroke: #A80036; stroke-width: 1.5;" x1="335.5" x2="590.5" y1="242.2969" y2="242.2969"/><text fill="#000000" font-family="sans-serif" font-size="14" lengthAdjust="spacingAndGlyphs" textLength="235" x="345.5" y="233.9951">TimeOut/No lograr resolver puzzle</text><rect fill="#FEFECE" filter="url(#f126hl4vmyqmyg)" height="50" rx="12.5" ry="12.5" style="stroke: #A80036; stroke-width: 1.5;" width="108" x="293" y="327"/><line style="stroke: #A80036; stroke-width: 1.5;" x1="293" x2="401" y1="353.2969" y2="353.2969"/><text fill="#000000" font-family="sans-serif" font-size="14" lengthAdjust="spacingAndGlyphs" textLength="88" x="303" y="344.9951">Fin del juego</text><rect fill="#FEFECE" filter="url(#f126hl4vmyqmyg)" height="50" rx="12.5" ry="12.5" style="stroke: #A80036; stroke-width: 1.5;" width="116" x="289" y="438"/><line style="stroke: #A80036; stroke-width: 1.5;" x1="289" x2="405" y1="464.2969" y2="464.2969"/><text fill="#000000" font-family="sans-serif" font-size="14" lengthAdjust="spacingAndGlyphs" textLength="96" x="299" y="455.9951">Salir del juego</text><ellipse cx="293" cy="18" fill="#000000" filter="url(#f126hl4vmyqmyg)" rx="10" ry="10" style="stroke: none; stroke-width: 1.0;"/><ellipse cx="347" cy="575" fill="none" filter="url(#f126hl4vmyqmyg)" rx="10" ry="10" style="stroke: #000000; stroke-width: 1.0;"/><ellipse cx="347.5" cy="575.5" fill="#000000" rx="6" ry="6" style="stroke: none; stroke-width: 1.0;"/><!--link *start to JuegoEnEjecucion--><path d="M293,28.013 C293,40.698 293,64.409 293,83.57 " fill="none" id="*start-JuegoEnEjecucion" style="stroke: #A80036; stroke-width: 1.0;"/><polygon fill="#A80036" points="293,88.84,297,79.84,293,83.84,289,79.84,293,88.84" style="stroke: #A80036; stroke-width: 1.0;"/><!--link JuegoEnEjecucion to EntrarEnSala--><path d="M273.808,139.146 C262.206,153.272 246.832,171.185 232,186 C222.912,195.077 212.512,204.382 202.817,212.655 " fill="none" id="JuegoEnEjecucion-EntrarEnSala" style="stroke: #A80036; stroke-width: 1.0;"/><polygon fill="#A80036" points="198.998,215.892,208.45,213.1243,202.8123,212.6592,203.2774,207.0215,198.998,215.892" style="stroke: #A80036; stroke-width: 1.0;"/><text fill="#000000" font-family="sans-serif" font-size="13" lengthAdjust="spacingAndGlyphs" textLength="128" x="249" y="182.0669">menuMovimientos()</text><!--link Resolver to EntrarEnSala--><path d="M81.883,143.929 C78.9163,157.446 78.0752,173.316 85,186 C91.6461,198.173 102.3415,208.012 113.906,215.786 " fill="none" id="Resolver-EntrarEnSala" style="stroke: #A80036; stroke-width: 1.0;"/><polygon fill="#A80036" points="83.0617,139.066,77.0553,146.8713,81.8846,143.9255,84.8304,148.7547,83.0617,139.066" style="stroke: #A80036; stroke-width: 1.0;"/><text fill="#000000" font-family="sans-serif" font-size="13" lengthAdjust="spacingAndGlyphs" textLength="39" x="86" y="182.0669">//Éxito</text><!--link Resolver to EntrarEnSala--><path d="M109.799,139.074 C116.378,148.284 123.75,158.982 130,169 C138.486,182.603 147.148,198.17 154.146,211.255 " fill="none" id="Resolver-EntrarEnSala-1" style="stroke: #A80036; stroke-width: 1.0;"/><polygon fill="#A80036" points="156.646,215.955,155.9525,206.1306,154.2986,211.5403,148.8889,209.8864,156.646,215.955" style="stroke: #A80036; stroke-width: 1.0;"/><text fill="#000000" font-family="sans-serif" font-size="13" lengthAdjust="spacingAndGlyphs" textLength="82" x="141" y="182.0669">//Nuevo nivel</text><!--link EntrarEnSala to NoResolver--><path d="M241.297,241 C268.138,241 299.504,241 330.053,241 " fill="none" id="EntrarEnSala-NoResolver" style="stroke: #A80036; stroke-width: 1.0;"/><polygon fill="#A80036" points="335.346,241,326.346,237,330.346,241,326.346,245,335.346,241" style="stroke: #A80036; stroke-width: 1.0;"/><text fill="#000000" font-family="sans-serif" font-size="13" lengthAdjust="spacingAndGlyphs" textLength="58" x="259.25" y="234.0669">//Fracaso</text><!--link NoResolver to FinDelJuego--><path d="M437.256,266.191 C419.234,283.125 395.12,305.784 376.351,323.42 " fill="none" id="NoResolver-FinDelJuego" style="stroke: #A80036; stroke-width: 1.0;"/><polygon fill="#A80036" points="372.672,326.877,381.97,323.6293,376.3159,323.4532,376.4919,317.7991,372.672,326.877" style="stroke: #A80036; stroke-width: 1.0;"/><!--link FinDelJuego to EntrarEnSala--><path d="M307.606,326.877 C279.632,309.747 242.05,286.733 213.077,268.991 " fill="none" id="FinDelJuego-EntrarEnSala" style="stroke: #A80036; stroke-width: 1.0;"/><polygon fill="#A80036" points="208.504,266.191,214.0902,274.3024,212.768,268.8022,218.2681,267.48,208.504,266.191" style="stroke: #A80036; stroke-width: 1.0;"/><!--link FinDelJuego to SalirDelJuego--><path d="M347,377.191 C347,393.56 347,415.279 347,432.64 " fill="none" id="FinDelJuego-SalirDelJuego" style="stroke: #A80036; stroke-width: 1.0;"/><polygon fill="#A80036" points="347,437.877,351,428.877,347,432.877,343,428.877,347,437.877" style="stroke: #A80036; stroke-width: 1.0;"/><!--link SalirDelJuego to *end--><path d="M347,488.14 C347,510.0338 347,541.5738 347,559.7062 " fill="none" id="SalirDelJuego-*end" style="stroke: #A80036; stroke-width: 1.0;"/><polygon fill="#A80036" points="347,564.8775,351,555.8775,347,559.8775,343,555.8775,347,564.8775" style="stroke: #A80036; stroke-width: 1.0;"/><text fill="#000000" font-family="sans-serif" font-size="13" lengthAdjust="spacingAndGlyphs" textLength="71" x="348" y="531.0669">salirJuego()</text><!--
@startuml
state "Juego en ejecución" as JuegoEnEjecucion
state "Entrar en una sala" as EntrarEnSala
state "Lograr resolver puzzle" as Resolver
state "TimeOut/No lograr resolver puzzle" as NoResolver
state "Fin del juego" as FinDelJuego
state "Salir del juego" as SalirDelJuego

[*] - -> JuegoEnEjecucion
JuegoEnEjecucion - -> EntrarEnSala : menuMovimientos()
EntrarEnSala -left-> Resolver : //Éxito
Resolver - -> EntrarEnSala : //Nuevo nivel
EntrarEnSala -right-> NoResolver : //Fracaso
NoResolver - -> FinDelJuego
FinDelJuego -> EntrarEnSala
FinDelJuego -down-> SalirDelJuego



SalirDelJuego - -> [*] : salirJuego()
@enduml

PlantUML version 1.2019.07beta1(Unknown compile time)
(GPL source distribution)
Java Runtime: Java(TM) SE Runtime Environment
JVM: Java HotSpot(TM) 64-Bit Server VM
Java Version: 1.7.0_25-b15
Operating System: Linux
Default Encoding: UTF-8
Language: en
Country: US
--></g></svg>