<?xml version="1.0" encoding="UTF-8" standalone="no"?><svg xmlns="http://www.w3.org/2000/svg" xmlns:xlink="http://www.w3.org/1999/xlink" contentScriptType="application/ecmascript" contentStyleType="text/css" height="612px" preserveAspectRatio="none" style="width:573px;height:612px;" version="1.1" viewBox="0 0 573 612" width="573px" zoomAndPan="magnify"><defs><filter height="300%" id="f18717cs95rg8c" width="300%" x="-1" y="-1"><feGaussianBlur result="blurOut" stdDeviation="2.0"/><feColorMatrix in="blurOut" result="blurOut2" type="matrix" values="0 0 0 0 0 0 0 0 0 0 0 0 0 0 0 0 0 0 .4 0"/><feOffset dx="4.0" dy="4.0" in="blurOut2" result="blurOut3"/><feBlend in="SourceGraphic" in2="blurOut3" mode="normal"/></filter></defs><g><rect fill="#FEFECE" filter="url(#f18717cs95rg8c)" height="50" rx="12.5" ry="12.5" style="stroke: #A80036; stroke-width: 1.5;" width="152" x="213" y="89"/><line style="stroke: #A80036; stroke-width: 1.5;" x1="213" x2="365" y1="115.2969" y2="115.2969"/><text fill="#000000" font-family="sans-serif" font-size="14" lengthAdjust="spacingAndGlyphs" textLength="132" x="223" y="106.9951">Juego en ejecución</text><rect fill="#FEFECE" filter="url(#f18717cs95rg8c)" height="50" rx="12.5" ry="12.5" style="stroke: #A80036; stroke-width: 1.5;" width="144" x="20" y="216"/><line style="stroke: #A80036; stroke-width: 1.5;" x1="20" x2="164" y1="242.2969" y2="242.2969"/><text fill="#000000" font-family="sans-serif" font-size="14" lengthAdjust="spacingAndGlyphs" textLength="124" x="30" y="233.9951">Entrar en una sala</text><rect fill="#FEFECE" filter="url(#f18717cs95rg8c)" height="50" rx="12.5" ry="12.5" style="stroke: #A80036; stroke-width: 1.5;" width="172" x="6" y="89"/><line style="stroke: #A80036; stroke-width: 1.5;" x1="6" x2="178" y1="115.2969" y2="115.2969"/><text fill="#000000" font-family="sans-serif" font-size="14" lengthAdjust="spacingAndGlyphs" textLength="152" x="16" y="106.9951">Lograr resolver puzzle</text><rect fill="#FEFECE" filter="url(#f18717cs95rg8c)" height="50" rx="12.5" ry="12.5" style="stroke: #A80036; stroke-width: 1.5;" width="255" x="306.5" y="216"/><line style="stroke: #A80036; stroke-width: 1.5;" x1="306.5" x2="561.5" y1="242.2969" y2="242.2969"/><text fill="#000000" font-family="sans-serif" font-size="14" lengthAdjust="spacingAndGlyphs" textLength="235" x="316.5" y="233.9951">TimeOut/No lograr resolver puzzle</text><rect fill="#FEFECE" filter="url(#f18717cs95rg8c)" height="50" rx="12.5" ry="12.5" style="stroke: #A80036; stroke-width: 1.5;" width="108" x="235" y="343"/><line style="stroke: #A80036; stroke-width: 1.5;" x1="235" x2="343" y1="369.2969" y2="369.2969"/><text fill="#000000" font-family="sans-serif" font-size="14" lengthAdjust="spacingAndGlyphs" textLength="88" x="245" y="360.9951">Fin del juego</text><rect fill="#FEFECE" filter="url(#f18717cs95rg8c)" height="50" rx="12.5" ry="12.5" style="stroke: #A80036; stroke-width: 1.5;" width="116" x="231" y="470"/><line style="stroke: #A80036; stroke-width: 1.5;" x1="231" x2="347" y1="496.2969" y2="496.2969"/><text fill="#000000" font-family="sans-serif" font-size="14" lengthAdjust="spacingAndGlyphs" textLength="96" x="241" y="487.9951">Salir del juego</text><ellipse cx="289" cy="18" fill="#000000" filter="url(#f18717cs95rg8c)" rx="10" ry="10" style="stroke: none; stroke-width: 1.0;"/><ellipse cx="289" cy="591" fill="none" filter="url(#f18717cs95rg8c)" rx="10" ry="10" style="stroke: #000000; stroke-width: 1.0;"/><ellipse cx="289.5" cy="591.5" fill="#000000" rx="6" ry="6" style="stroke: none; stroke-width: 1.0;"/><!--link *start to JuegoEnEjecucion--><path d="M289,28.013 C289,40.698 289,64.409 289,83.57 " fill="none" id="*start-JuegoEnEjecucion" style="stroke: #A80036; stroke-width: 1.0;"/><polygon fill="#A80036" points="289,88.84,293,79.84,289,83.84,285,79.84,289,88.84" style="stroke: #A80036; stroke-width: 1.0;"/><!--link JuegoEnEjecucion to EntrarEnSala--><path d="M251.016,139.101 C217.631,160.285 169.102,191.077 134.448,213.066 " fill="none" id="JuegoEnEjecucion-EntrarEnSala" style="stroke: #A80036; stroke-width: 1.0;"/><polygon fill="#A80036" points="129.867,215.973,139.6096,214.5301,134.0892,213.2948,135.3245,207.7745,129.867,215.973" style="stroke: #A80036; stroke-width: 1.0;"/><text fill="#000000" font-family="sans-serif" font-size="13" lengthAdjust="spacingAndGlyphs" textLength="128" x="204" y="182.0669">menuMovimientos()</text><!--link Resolver to EntrarEnSala--><path d="M81.019,144.194 C78.4514,166.021 78.6788,195.503 81.7013,215.973 " fill="none" id="Resolver-EntrarEnSala" style="stroke: #A80036; stroke-width: 1.0;"/><polygon fill="#A80036" points="81.6904,139.101,76.5495,147.5017,81.0375,144.0582,84.481,148.5462,81.6904,139.101" style="stroke: #A80036; stroke-width: 1.0;"/><!--link Resolver to EntrarEnSala--><path d="M102.916,139.101 C106.109,159.593 106.343,189.076 103.6171,210.884 " fill="none" id="Resolver-EntrarEnSala-1" style="stroke: #A80036; stroke-width: 1.0;"/><polygon fill="#A80036" points="102.9045,215.973,108.1154,207.6156,103.5988,211.0214,100.1929,206.5048,102.9045,215.973" style="stroke: #A80036; stroke-width: 1.0;"/><!--link EntrarEnSala to NoResolver--><path d="M164.112,241 C203.914,241 254.607,241 301.287,241 " fill="none" id="EntrarEnSala-NoResolver" style="stroke: #A80036; stroke-width: 1.0;"/><polygon fill="#A80036" points="306.373,241,297.373,237,301.373,241,297.373,245,306.373,241" style="stroke: #A80036; stroke-width: 1.0;"/><text fill="#000000" font-family="sans-serif" font-size="13" lengthAdjust="spacingAndGlyphs" textLength="106" x="182.25" y="234.0669">EliminarPartida()</text><!--link NoResolver to FinDelJuego--><path d="M406.043,266.101 C381.67,287.112 346.333,317.575 320.87,339.526 " fill="none" id="NoResolver-FinDelJuego" style="stroke: #A80036; stroke-width: 1.0;"/><polygon fill="#A80036" points="316.872,342.973,326.3001,340.1251,320.6587,339.7079,321.0759,334.0664,316.872,342.973" style="stroke: #A80036; stroke-width: 1.0;"/><text fill="#000000" font-family="sans-serif" font-size="13" lengthAdjust="spacingAndGlyphs" textLength="106" x="371" y="309.0669">EliminarPartida()</text><!--link FinDelJuego to EntrarEnSala--><path d="M251.133,342.973 C217.783,321.812 169.256,291.02 134.569,269.011 " fill="none" id="FinDelJuego-EntrarEnSala" style="stroke: #A80036; stroke-width: 1.0;"/><polygon fill="#A80036" points="129.984,266.101,135.4415,274.2995,134.2062,268.7792,139.7266,267.5439,129.984,266.101" style="stroke: #A80036; stroke-width: 1.0;"/><text fill="#000000" font-family="sans-serif" font-size="13" lengthAdjust="spacingAndGlyphs" textLength="90" x="204" y="309.0669">CrearPartida()</text><!--link FinDelJuego to SalirDelJuego--><path d="M289,393.101 C289,413.593 289,443.076 289,464.884 " fill="none" id="FinDelJuego-SalirDelJuego" style="stroke: #A80036; stroke-width: 1.0;"/><polygon fill="#A80036" points="289,469.973,293,460.973,289,464.973,285,460.973,289,469.973" style="stroke: #A80036; stroke-width: 1.0;"/><text fill="#000000" font-family="sans-serif" font-size="13" lengthAdjust="spacingAndGlyphs" textLength="71" x="290" y="436.0669">salirJuego()</text><!--link SalirDelJuego to *end--><path d="M289,520.2073 C289,537.8423 289,561.1261 289,575.8351 " fill="none" id="SalirDelJuego-*end" style="stroke: #A80036; stroke-width: 1.0;"/><polygon fill="#A80036" points="289,580.8399,293,571.8399,289,575.8399,285,571.8399,289,580.8399" style="stroke: #A80036; stroke-width: 1.0;"/><!--
@startuml
state "Juego en ejecución" as JuegoEnEjecucion
state "Entrar en una sala" as EntrarEnSala
state "Lograr resolver puzzle" as Resolver
state "TimeOut/No lograr resolver puzzle" as NoResolver
state "Fin del juego" as FinDelJuego
state "Salir del juego" as SalirDelJuego

[*] - -> JuegoEnEjecucion
JuegoEnEjecucion - -> EntrarEnSala : menuMovimientos()
EntrarEnSala -left-> Resolver
Resolver - -> EntrarEnSala
EntrarEnSala -right-> NoResolver : EliminarPartida()
NoResolver - -> FinDelJuego : EliminarPartida()
FinDelJuego -> EntrarEnSala : CrearPartida()
FinDelJuego -down-> SalirDelJuego : salirJuego()



SalirDelJuego - -> [*]
@enduml

PlantUML version 1.2019.07beta1(Unknown compile time)
(GPL source distribution)
Java Runtime: Java(TM) SE Runtime Environment
JVM: Java HotSpot(TM) 64-Bit Server VM
Java Version: 1.7.0_25-b15
Operating System: Linux
Default Encoding: UTF-8
Language: en
Country: US
--></g></svg>