<?xml version="1.0" encoding="UTF-8" standalone="no"?>
<!-- Created with Inkscape (http://www.inkscape.org/) -->

<svg
   xmlns:dc="http://purl.org/dc/elements/1.1/"
   xmlns:cc="http://creativecommons.org/ns#"
   xmlns:rdf="http://www.w3.org/1999/02/22-rdf-syntax-ns#"
   xmlns:svg="http://www.w3.org/2000/svg"
   xmlns="http://www.w3.org/2000/svg"
   xmlns:sodipodi="http://sodipodi.sourceforge.net/DTD/sodipodi-0.dtd"
   xmlns:inkscape="http://www.inkscape.org/namespaces/inkscape"
   width="744.09448819"
   height="1052.3622047"
   id="svg2"
   version="1.1"
   inkscape:version="0.48.5 r10040"
   sodipodi:docname="New document 1">
  <defs
     id="defs4">
    <filter
       inkscape:collect="always"
       id="filter3980">
      <feGaussianBlur
         inkscape:collect="always"
         stdDeviation="0.67869141"
         id="feGaussianBlur3982" />
    </filter>
  </defs>
  <sodipodi:namedview
     id="base"
     pagecolor="#ffffff"
     bordercolor="#666666"
     borderopacity="1.0"
     inkscape:pageopacity="0.0"
     inkscape:pageshadow="2"
     inkscape:zoom="1.979899"
     inkscape:cx="453.8952"
     inkscape:cy="615.58988"
     inkscape:document-units="px"
     inkscape:current-layer="layer1"
     showgrid="false"
     inkscape:window-width="1588"
     inkscape:window-height="806"
     inkscape:window-x="0"
     inkscape:window-y="28"
     inkscape:window-maximized="1" />
  <metadata
     id="metadata7">
    <rdf:RDF>
      <cc:Work
         rdf:about="">
        <dc:format>image/svg+xml</dc:format>
        <dc:type
           rdf:resource="http://purl.org/dc/dcmitype/StillImage" />
        <dc:title></dc:title>
      </cc:Work>
    </rdf:RDF>
  </metadata>
  <g
     inkscape:label="Layer 1"
     inkscape:groupmode="layer"
     id="layer1">
    <path
       inkscape:connector-curvature="0"
       id="path3174"
       d="m 252.94125,460.79466 c -1.46055,-1.25501 -2.65554,-3.31396 -2.65554,-4.57545 0,-3.79268 5.99705,-40.46882 7.01355,-42.89271 0.83434,-1.98953 1.66046,-2.25 7.13627,-2.25 4.35905,0 6.73419,0.49004 8.02144,1.65499 1.70342,1.54157 1.96069,1.53557 3.75425,-0.0876 1.61299,-1.45975 2.99643,-1.62788 8.52399,-1.03592 6.04006,0.64683 6.87675,1.03172 9.88654,4.54799 l 3.28805,3.84135 2.62771,-2.99459 c 1.90866,-2.17515 3.25989,-2.86281 4.93796,-2.51301 1.27063,0.26487 4.83734,0.75508 7.92602,1.08936 6.64047,0.71867 9.49974,3.24033 12.4698,10.9974 l 1.91442,5 0.28609,-9.74001 c 0.33931,-11.55171 -0.0895,-11.23891 14.5008,-10.57796 8.07603,0.36584 9.74015,0.76868 13.48344,3.264 2.34868,1.56566 4.37368,2.66829 4.5,2.45031 0.12632,-0.21799 0.72602,-1.29634 1.33266,-2.39634 0.84599,-1.53398 2.3357,-2.07159 6.39335,-2.30723 4.76042,-0.27646 5.60934,0.002 8.47487,2.77932 l 3.18451,3.08656 2.57987,-2.02933 c 2.08219,-1.63784 4.05718,-2.02932 10.23788,-2.02932 8.62566,0 9.93973,0.50741 17.18602,6.63619 2.83772,2.4001 5.45247,4.36381 5.81055,4.36381 0.35809,0 0.34067,-3.15 -0.0387,-7 l -0.68976,-7 8.88943,0 c 8.02282,0 9.14435,0.23638 11.50438,2.42472 1.75165,1.62422 2.84372,3.9503 3.30791,7.04576 0.60739,4.05033 0.94207,4.54198 2.70991,3.98089 1.34854,-0.42801 2.7927,0.0886 4.35784,1.55901 1.28749,1.20954 2.74853,1.94723 3.24674,1.63931 0.49822,-0.30791 1.46795,-3.70519 2.15497,-7.54949 0.68701,-3.84431 1.79806,-7.44524 2.46899,-8.00206 0.84222,-0.69899 3.21642,-0.38049 7.66906,1.02878 5.16987,1.63627 7.903,1.91564 13.77799,1.40829 6.70182,-0.57875 7.7081,-0.41061 11.76242,1.96538 3.69803,2.16719 4.52921,2.34915 5.00981,1.09673 0.31691,-0.82585 0.30986,-1.93249 -0.0157,-2.45919 -0.32552,-0.52671 -0.31725,-1.67326 0.0184,-2.54789 0.51005,-1.32913 2.54459,-1.59024 12.39105,-1.59024 l 11.7808,0 5.0881,3.5 c 2.79846,1.925 5.29266,3.5 5.54266,3.5 0.25001,0 0.59836,-1.0125 0.77411,-2.25 0.28126,-1.98043 0.97851,-2.28366 5.81955,-2.53091 4.67075,-0.23856 5.89252,0.0863 8.10342,2.15455 2.2169,2.07388 2.70437,3.60024 3.28338,10.28091 0.9011,10.39683 1.64893,14.34545 2.71691,14.34545 0.49652,0 0.59922,-5.87801 0.23529,-13.46642 l -0.64584,-13.46642 2.71852,-1.03358 c 1.49519,-0.56847 5.95573,-1.03358 9.91232,-1.03358 7.05485,0 7.35203,0.10593 15.38552,5.4844 5.47677,3.66672 8.42654,5.10447 8.90021,4.33805 0.39188,-0.63408 -0.25423,-1.92592 -1.44583,-2.89081 -1.18487,-0.95946 -2.26897,-2.79908 -2.40911,-4.08805 -0.24808,-2.28188 -0.0218,-2.35124 8.5941,-2.63397 5.43871,-0.17847 9.36421,0.13731 10.18608,0.8194 0.95787,0.79497 1.904,0.80642 3.33537,0.0404 2.88626,-1.54468 5.82179,-1.31408 6.52267,0.51239 0.78221,2.0384 0.78221,7.79803 0,9.83643 -0.68473,1.78437 -5.90144,2.18617 -6.92302,0.53323 -0.43567,-0.70494 -1.15891,-0.62458 -2.20695,0.24521 -0.89798,0.74526 -4.14598,1.29581 -7.66097,1.29856 l -6.10207,0.005 -0.5,13.36226 -0.5,13.36227 -6,5.36347 -6,5.36347 -9.5,-0.008 c -6.77177,-0.005 -10.05431,-0.42687 -11.43017,-1.46772 -1.50174,-1.13607 -3.73612,-1.32136 -10.06645,-0.83478 -5.49526,0.4224 -8.85771,0.2393 -10.35884,-0.56408 -1.90697,-1.02057 -2.65393,-0.82652 -5.26028,1.36659 -3.89274,3.27552 -5.07086,3.21561 -8.73041,-0.44394 -3.36712,-3.36687 -4.15385,-3.65763 -4.15385,-1.53493 0,3.98753 -11.89369,4.97984 -16.47689,1.3747 -2.40369,-1.89074 -3.14728,-2.01559 -5.95585,-1 -1.76509,0.63826 -6.80116,1.16048 -11.19126,1.16048 -7.30139,0 -8.33095,-0.25663 -12.07451,-3.00967 l -4.09252,-3.00968 -2.07076,3.50968 c -1.80647,3.06173 -2.56996,3.50967 -5.98204,3.50967 -2.31779,0 -4.43692,-0.63336 -5.20148,-1.5546 -2.99564,-3.60952 -4.67015,-3.59284 -6.83012,0.068 -2.03235,3.44458 -2.1388,3.48613 -8.84084,3.4506 -9.54532,-0.0506 -11.65203,-1.94507 -13.30441,-11.96404 -1.71425,-10.39412 -2.83574,-12.85371 -2.91593,-6.39506 -0.0603,4.85312 -0.33175,5.35875 -5.50353,10.25 l -5.44014,5.1451 -9.1256,0 c -5.01908,0 -10.04433,-0.49169 -11.16722,-1.09264 -1.47648,-0.79019 -2.34407,-0.79019 -3.13426,0 -1.45493,1.45493 -16.21926,1.40522 -18.5695,-0.0625 -1.52625,-0.95316 -2.47789,-0.67603 -5.44198,1.58479 l -3.59227,2.73996 -3.54445,-2.70348 c -2.76217,-2.10684 -3.54444,-2.35402 -3.54444,-1.12 0,2.83209 -3.65409,3.65387 -16.24717,3.65387 -12.22143,0 -12.41091,-0.0349 -14.91915,-2.75 -1.39727,-1.5125 -2.81734,-3.5375 -3.1557,-4.5 -0.8993,-2.5581 -3.24347,-2.13036 -12.17798,2.22213 -7.22953,3.5219 -8.19262,3.7584 -10,2.45565 -1.1,-0.79287 -2.9,-2.083 -4,-2.86696 -3.16416,-2.25506 -7.5,-3.04662 -7.5,-1.36923 0,0.77463 -0.53386,1.94227 -1.18635,2.59476 -0.91513,0.91512 -1.61493,0.79848 -3.06105,-0.51024 -1.61849,-1.46472 -2.00093,-1.49702 -2.79834,-0.23635 -0.508,0.80313 -0.93053,2.24774 -0.93895,3.21024 -0.0134,1.5336 -1.10897,1.75 -8.85977,1.75 -7.76608,0 -9.16824,-0.27822 -11.5,-2.28184 z m 145.10147,-26.29449 c -0.98419,-0.98418 -2.75701,0.52669 -2.75701,2.34963 0,1.52648 0.13153,1.52374 1.69048,-0.0352 0.92976,-0.92976 1.4097,-1.97125 1.06653,-2.31442 z m -40.25701,-30.33394 c -5.42306,-0.68188 -9.5,-3.43171 -9.5,-6.4076 0,-2.36023 3.72496,-7.68213 5.37696,-7.68213 0.68243,0 2.08528,-0.61751 3.11745,-1.37225 1.76636,-1.2916 1.57187,-1.65302 -3.30887,-6.14896 -2.85205,-2.62718 -5.18554,-5.53834 -5.18554,-6.46923 0,-0.9309 2.91097,-4.48781 6.46883,-7.90424 l 6.46883,-6.21169 6.28117,0.68349 c 3.45464,0.37592 6.87439,1.15545 7.59945,1.73229 0.72505,0.57684 3.68341,0.93925 6.57414,0.80534 3.77603,-0.17491 5.62142,0.197 6.55417,1.32089 0.89681,1.08059 3.04152,1.56436 6.93531,1.56436 4.554,0 5.87697,-0.38425 6.88603,-2 1.09968,-1.76088 2.33202,-2 10.30727,-2 8.12142,0 9.39723,0.25856 12.33591,2.5 3.97469,3.03164 4.96284,3.06077 14.36176,0.42343 6.75485,-1.89541 7.55241,-1.93903 9.14252,-0.5 2.34307,2.12045 3.7446,1.98478 4.37436,-0.42343 0.47941,-1.83325 1.36401,-2 10.61028,-2 l 10.08728,0 8.11065,7.147 8.11064,7.147 -0.65191,4.07688 c -0.35856,2.24228 -1.3055,4.79906 -2.10431,5.68174 -2.01332,2.22469 -1.83452,3.23975 1.04762,5.94738 1.375,1.29174 2.5,2.7301 2.5,3.19634 0,1.21277 -9.07274,6.80366 -11.04079,6.80366 -0.90708,0 -2.46372,-0.9 -3.45921,-2 -0.99549,-1.1 -2.36275,-2 -3.03836,-2 -0.67561,0 -1.46373,0.9 -1.75139,2 -0.45099,1.72459 -1.36401,2 -6.6302,2 -3.35895,0 -6.89856,-0.49422 -7.86579,-1.09826 -1.30209,-0.81317 -4.58836,-0.67787 -12.65956,0.52122 l -10.90096,1.61949 -2.82687,-2.70832 c -1.55478,-1.48957 -2.82687,-3.55988 -2.82687,-4.60068 0,-1.61129 -0.48272,-1.78883 -3.25,-1.19531 -4.3119,0.92481 -4.75,1.2463 -4.75,3.48569 0,3.88351 -8.47275,5.43462 -12.86836,2.35582 -1.81215,-1.26928 -2.78118,-1.38148 -4.47251,-0.51788 -3.61022,1.84341 -10.80197,3.0356 -13.04394,2.16232 -1.16336,-0.45314 -3.79442,-1.97476 -5.8468,-3.38138 l -3.73162,-2.55748 -2.63707,3.45738 c -2.48959,3.26402 -2.95203,3.44951 -8.26839,3.31659 -3.09722,-0.0774 -7.88131,-0.4237 -10.63131,-0.76947 z m 19.5,-23.12112 c 0,-2.20154 -2.22721,-3.56426 -4.01726,-2.45795 -0.76521,0.47293 -0.57549,1.28186 0.6071,2.58862 2.22389,2.45736 3.41016,2.41191 3.41016,-0.13067 z"
       style="fill:#e4b825" />
    <path
       inkscape:connector-curvature="0"
       id="path3172"
       d="m 259.66515,462.34375 c -3.72563,-0.26396 -5.70442,-0.98427 -7.26379,-2.64415 l -2.14322,-2.28135 3.62523,-22.42087 c 1.99388,-12.33149 4.13758,-22.75149 4.76378,-23.15557 2.14088,-1.38146 11.32541,-0.84756 12.63856,0.73469 1.41635,1.7066 4.57671,1.99391 5.5,0.5 0.33992,-0.55 3.40398,-0.98382 6.80902,-0.96404 6.66245,0.0387 10.11063,1.91099 12.69309,6.89207 l 1.25881,2.42803 2.67806,-3.2813 2.67806,-3.28129 7.45123,0.69824 c 9.0824,0.85109 12.24776,3.13778 14.82042,10.70642 2.90222,8.5382 4.11131,7.32808 4.11131,-4.1148 l 0,-10.08333 10.80422,0 c 10.2868,0 11.03077,0.14367 15.53473,3 2.60178,1.65 4.95102,3 5.22053,3 0.26951,0 0.91775,-1.125 1.44052,-2.5 0.84838,-2.23141 1.5183,-2.5 6.23547,-2.5 4.33015,0 5.8008,0.4783 8.14013,2.64745 2.7606,2.55978 2.94752,2.5929 5.64407,1 2.00049,-1.18172 5.19001,-1.64745 11.28239,-1.64745 l 8.49347,0 7.16369,5.60521 c 3.94004,3.08286 7.41316,5.35575 7.71805,5.05085 0.30489,-0.30489 0.0638,-3.33898 -0.53566,-6.74243 -0.59951,-3.40345 -0.85007,-6.57634 -0.5568,-7.05086 0.29328,-0.47453 3.89989,-0.86277 8.0147,-0.86277 9.85279,0 12.84394,2.00213 14.434,9.66143 0.99219,4.77935 1.33892,5.2832 3.29742,4.79165 1.40894,-0.35362 2.97184,0.18033 4.38705,1.4988 3.77978,3.52141 3.82518,3.44332 6.80211,-11.70188 0.72243,-3.67537 1.50434,-3.8583 7.47991,-1.75 2.64272,0.93241 7.89324,1.50249 13.87573,1.50659 7.9224,0.005 10.15476,0.35792 12.62427,1.99341 4.27412,2.83063 5.3376,2.50353 5.68963,-1.75 l 0.31037,-3.75 12,0.29993 c 11.4806,0.28694 12.18903,0.4303 16.36721,3.31201 4.36324,3.00934 7.13279,3.21375 7.13279,0.52643 0,-3.31318 8.30304,-3.55331 12.18539,-0.35241 2.44138,2.01286 2.8059,3.25179 4.01157,13.63456 0.81286,7.00009 1.79472,11.57671 2.5367,11.82403 0.90148,0.3005 1.28147,-3.25339 1.48843,-13.92052 l 0.27791,-14.32403 9.55364,-0.28384 9.55364,-0.28385 7.71257,5.53385 c 4.24191,3.04361 7.93027,5.53384 8.19636,5.53384 1.51961,0 0.18989,-5.08693 -1.57689,-6.03248 -1.31832,-0.70554 -1.94876,-1.88904 -1.75,-3.28518 0.28315,-1.98895 0.97313,-2.20878 7.78606,-2.4807 4.51609,-0.18025 8.37246,0.18174 9.74146,0.91441 1.71762,0.91924 2.87034,0.93744 4.76277,0.0752 4.20726,-1.91696 5.52039,-0.62126 5.52039,5.44712 0,6.10175 -1.46803,7.51948 -5.53337,5.34377 -1.66904,-0.89324 -2.78897,-0.97056 -3.68254,-0.25423 -0.70625,0.56616 -3.8823,1.01971 -7.0579,1.00788 -3.17559,-0.0118 -6.10059,0.30398 -6.5,0.70179 -0.3994,0.39782 -0.87381,6.50505 -1.05424,13.57162 l -0.32806,12.84833 -5.20801,4.92551 -5.208,4.92552 -9.26839,0.72505 c -7.63169,0.59702 -9.69404,0.44616 -11.67876,-0.85428 -1.76151,-1.15419 -4.92333,-1.57933 -11.74555,-1.57933 -5.33633,0 -9.79663,-0.46145 -10.41242,-1.07724 -0.76964,-0.76964 -2.09783,-0.18113 -4.65159,2.06109 -3.9825,3.49668 -5.79711,3.21408 -9.48754,-1.47753 -2.44344,-3.10633 -3.94677,-3.19463 -4.36408,-0.25632 -0.28776,2.02618 -0.95273,2.27991 -6.68478,2.55071 -4.75837,0.2248 -6.81277,-0.10432 -8.1381,-1.30372 -0.97508,-0.88244 -2.61073,-1.54571 -3.63477,-1.47395 -1.02405,0.0718 -6.5044,0.35147 -12.17856,0.62157 -9.984,0.47525 -10.42894,0.40544 -13.79893,-2.16498 -3.53574,-2.69684 -6.38441,-2.73363 -6.38441,-0.0824 0,2.25663 -2.87392,4.60281 -5.63815,4.60281 -1.37241,0 -3.97024,-1.125 -5.77296,-2.5 -4.19365,-3.19865 -5.07954,-3.1439 -6.54945,0.40478 -1.36317,3.291 -3.36854,4.06207 -10.61513,4.08157 -7.52581,0.0202 -8.94325,-1.96181 -11.4767,-16.04827 -2.44794,-13.61097 -4.48895,-17.09631 -3.63448,-6.20644 l 0.56743,7.23165 -4.49522,5.51836 -4.49522,5.51835 -10.74506,0 c -6.57306,0 -11.17827,-0.43321 -11.86079,-1.11573 -0.82097,-0.82097 -1.72514,-0.68888 -3.42251,0.5 -3.10578,2.17537 -15.08418,2.25759 -16.86176,0.11573 -1.68202,-2.02671 -2.35885,-1.91037 -5.81763,1 -1.6341,1.375 -3.61518,2.5 -4.40241,2.5 -0.78723,0 -2.48821,-1.125 -3.77996,-2.5 -2.89909,-3.08594 -3.77028,-3.13804 -4.18045,-0.25 -0.27337,1.92487 -1.1143,2.34408 -5.81955,2.9011 -12.0746,1.42942 -19.16263,0.99527 -22.63884,-1.38667 -1.79442,-1.22956 -3.50485,-3.20079 -3.80094,-4.3805 -0.74743,-2.97801 -4.10558,-3.57609 -7.88056,-1.40353 -1.74881,1.00647 -5.46434,2.79456 -8.25673,3.97353 l -5.07707,2.14357 -5.27342,-3.54875 c -6.24959,-4.20567 -7.82169,-4.39601 -8.6618,-1.04875 -0.71905,2.86493 -1.18337,2.98689 -3.80796,1.00023 -2.34985,-1.7787 -3.60268,-1.09997 -3.60268,1.9518 0,2.59257 -1.81847,3.64122 -5.83179,3.36299 -1.46751,-0.10174 -4.97246,-0.34824 -7.78877,-0.54777 z m 177.21609,-6.38764 c 0.60254,-0.47746 1.90839,-2.67069 2.90188,-4.87386 0.99348,-2.20316 2.3532,-4.00575 3.02158,-4.00575 0.66838,0 2.40642,1.8 3.86231,4 2.73894,4.13881 6.35496,5.33265 8.32947,2.75 1.31434,-1.71915 10.28923,-31.81076 10.28923,-34.49841 0,-1.65987 -0.9245,-2.44829 -3.92493,-3.34724 -2.15871,-0.64677 -4.57042,-0.92824 -5.35936,-0.6255 -0.90317,0.34658 -2.09376,4.00793 -3.21465,9.8858 -2.63071,13.79538 -4.14356,15.74991 -7.21134,9.31672 -2.07904,-4.35981 -3.2678,-4.04712 -5.06055,1.33113 -0.76771,2.30312 -1.76802,4.1875 -2.22292,4.1875 -0.74078,0 -3.70293,-11.36925 -5.5272,-21.21437 -0.92847,-5.0107 -2.38041,-5.94936 -8.64787,-5.59071 -4.66412,0.26691 -5.37132,0.5878 -5.65198,2.56463 -0.43657,3.07492 5.87816,39.41755 7.12894,41.02861 1.07651,1.38659 9.21798,0.73126 11.28739,-0.90855 z M 342.0814,449.8265 c 0.16263,-3.7125 0.61263,-6.74064 1,-6.72919 0.38737,0.0114 2.61971,2.93644 4.96075,6.5 2.34104,3.56355 4.60101,6.47919 5.02216,6.47919 1.07945,0 8.2214,-5.9878 8.2214,-6.89281 0,-0.41095 -1.575,-2.58723 -3.5,-4.83616 -4.15567,-4.85496 -4.34384,-6.4881 -1,-8.67907 2.27091,-1.48796 2.5,-2.27684 2.5,-8.60874 l 0,-6.97068 -4.19675,-3.04011 c -4.0682,-2.94698 -4.48939,-3.03141 -13.75,-2.75627 l -9.55325,0.28384 0.0199,19 c 0.0232,22.10592 0.47818,23.79032 6.29546,23.30647 l 3.68464,-0.30647 0.29569,-6.75 z m 0.33123,-16.67156 c -0.77124,-0.47665 -1.14068,-2.3042 -0.94612,-4.68023 l 0.3192,-3.89821 4.4863,0 c 5.33928,0 6.41776,2.10027 2.81951,5.49079 -3.27663,3.08746 -5.22316,3.98734 -6.67889,3.08765 z m 34.18905,20.17156 c 0.2387,-0.4125 -0.62093,-8.625 -1.91029,-18.25 -1.28935,-9.625 -2.3581,-17.8375 -2.37498,-18.25 -0.0169,-0.4125 -1.6057,-0.75 -3.5307,-0.75 l -3.5,0 0,18.33333 c 0,10.08334 0.3,18.63334 0.66667,19 0.91667,0.91668 10.11226,0.84472 10.6493,-0.0833 z m 176.68403,-4.25 0,-4 -5.94098,0 c -3.26754,0 -6.24002,-0.48385 -6.60551,-1.07522 -0.36549,-0.59137 -1.40454,-7.00387 -2.30902,-14.25 -1.57005,-12.57837 -1.75254,-13.19006 -4.0314,-13.51227 -1.3128,-0.18562 -2.77696,0.26438 -3.25368,1 -0.95058,1.4668 -1.05326,34.3103 -0.11022,35.25334 0.32128,0.32128 5.45914,0.58415 11.41748,0.58415 l 10.83333,0 0,-4 z M 398.30577,436.55233 c 0.69572,-0.83829 0.95423,-1.83487 0.57448,-2.21463 -0.83409,-0.83408 -3.82031,0.9161 -4.36835,2.56024 -0.56969,1.70906 2.30606,1.44709 3.79387,-0.34561 z m 81,0 c 0.69572,-0.83829 0.98669,-1.80241 0.64661,-2.1425 -0.72629,-0.72629 -3.66667,1.51036 -3.66667,2.78912 0,1.37744 1.62985,1.02848 3.02006,-0.64662 z M 361.55439,404.15731 c -7.13408,-0.50339 -8.58068,-0.93071 -10.85215,-3.20569 -2.31359,-2.31716 -2.47656,-2.90331 -1.39018,-5 1.97069,-3.80338 4.14289,-5.87512 6.16002,-5.87512 3.97732,0 3.16258,-3.08377 -2.26739,-8.58204 l -5.35592,-5.42329 6.43958,-6.49733 c 6.39561,-6.45297 6.47774,-6.49734 12.02734,-6.49734 3.36502,0 6.35992,0.58403 7.52889,1.4682 1.1571,0.87519 4.21411,1.48104 7.56869,1.5 3.75058,0.0212 6.04276,0.5321 6.87244,1.5318 0.84662,1.02012 3.11399,1.5 7.08726,1.5 4.81892,0 6.02988,-0.35036 6.91274,-2 0.94846,-1.77222 2.09382,-2 10.05662,-2 7.9658,0 9.42524,0.2905 12.85197,2.55821 l 3.86571,2.5582 8.49067,-2.2269 8.49066,-2.22689 2.86597,2.25437 2.86596,2.25437 1.25909,-3.08568 c 1.25775,-3.08241 1.2675,-3.08568 9.19112,-3.08568 4.36262,0 8.97383,0.4001 10.24713,0.88911 1.27331,0.48902 5.3526,3.67888 9.0651,7.0886 6.1262,5.62655 6.75,6.56094 6.75,10.11088 0,2.57808 -0.68177,4.59318 -2,5.91141 -2.56971,2.56971 -2.52031,3.16257 0.5,6 1.375,1.29174 2.49954,2.83269 2.49898,3.42431 -5.6e-4,0.59163 -2.26056,2.34477 -5.02223,3.89587 l -5.02122,2.82019 -3.05449,-2.57019 c -3.73001,-3.13859 -4.16609,-3.16438 -5.41391,-0.32018 -0.81405,1.85548 -1.90873,2.30303 -6.24318,2.55247 -3.26193,0.18771 -5.99052,-0.21198 -7.19196,-1.0535 -1.63302,-1.14381 -3.64117,-1.12589 -12.83444,0.11454 -10.43056,1.40737 -11.01136,1.38819 -13.52661,-0.4465 -1.44545,-1.05436 -2.64223,-2.90295 -2.65952,-4.10799 -0.0439,-3.05885 -1.07596,-3.40077 -5.59754,-1.85437 -3.05243,1.04393 -4.00478,1.92796 -4.2503,3.94537 -0.29441,2.4191 -0.67156,2.59998 -5.42126,2.59998 -3.14285,0 -5.74428,-0.57869 -6.76858,-1.50567 -1.48121,-1.34048 -1.99457,-1.34063 -4.67918,-10e-4 -1.65849,0.82737 -5.07167,1.78614 -7.58485,2.13061 -4.01815,0.55075 -5.12802,0.24931 -9.19969,-2.49863 -2.54666,-1.71869 -5.00431,-3.12491 -5.46146,-3.12491 -0.45715,0 -2.03249,1.575 -3.50076,3.5 -1.46827,1.925 -3.43418,3.42386 -4.36869,3.33081 -0.93451,-0.0931 -5.40321,-0.43056 -9.93043,-0.75 z m 10.52599,-10.52039 3.29467,-4.9202 -6.68406,-6.73567 c -7.43054,-7.48792 -7.91951,-9.90455 -2.00405,-9.90455 2.58055,0 3.62516,-0.50779 4.09593,-1.99105 0.96355,-3.03589 -0.21214,-4.00895 -4.84377,-4.00895 -3.76408,0 -4.77368,0.55747 -9.19098,5.075 l -4.96241,5.075 5.25,4.86087 c 2.8875,2.67347 5.25,5.42322 5.25,6.11054 0,1.84677 -4.09747,5.87859 -5.97431,5.87859 -1.93403,0 -4.02569,1.8987 -4.02569,3.65431 0,1.09544 8.74071,2.20198 15,1.89894 0.825,-0.0399 2.9826,-2.28671 4.79467,-4.99283 z m 40.20299,1.47297 c 0.40332,-1.72491 1.46766,-2.64997 3.53954,-3.07636 3.86678,-0.79577 6.52758,-2.26614 8.95527,-4.94871 1.59747,-1.76518 1.91277,-3.33366 1.66701,-8.29253 -0.16669,-3.36358 -0.7562,-6.96226 -1.31002,-7.99707 -1.64402,-3.07188 -5.95311,-4.26281 -13.45526,-3.71872 l -6.8942,0.5 -0.2791,13.26136 c -0.31371,14.90563 0.38966,17.5372 4.55681,17.04857 1.85787,-0.21785 2.81456,-1.0428 3.21995,-2.77654 z m -0.5995,-11.43819 c -0.29649,-0.77265 -0.39487,-2.91015 -0.21862,-4.75 0.3101,-3.23706 0.46241,-3.3452 4.71147,-3.3452 3.15888,0 4.7022,0.50705 5.5,1.807 0.92149,1.50149 0.55685,2.30457 -2.15679,4.75 -3.49374,3.14843 -6.95726,3.82831 -7.83606,1.5382 z m -34.39816,-2.5952 c 0,-2.47619 -0.40741,-3 -2.33333,-3 -3.48813,0 -3.93257,1.08805 -1.5015,3.67581 2.90621,3.09353 3.83483,2.92988 3.83483,-0.67581 z m 75.2,-4.2 c -0.93333,-0.93333 -1.2,-0.66667 -1.2,1.2 0,1.86667 0.26667,2.13333 1.2,1.2 0.93333,-0.93333 0.93333,-1.46667 0,-2.4 z"
       style="fill:#02c4e0" />
    <path
       inkscape:connector-curvature="0"
       id="path3170"
       d="m 259.66515,462.34375 c -3.72563,-0.26396 -5.70442,-0.98427 -7.26379,-2.64415 l -2.14322,-2.28135 3.62523,-22.42087 c 1.99388,-12.33149 4.13758,-22.75149 4.76378,-23.15557 2.14088,-1.38146 11.32541,-0.84756 12.63856,0.73469 1.41635,1.7066 4.57671,1.99391 5.5,0.5 0.33992,-0.55 3.40398,-0.98382 6.80902,-0.96404 6.66245,0.0387 10.11063,1.91099 12.69309,6.89207 l 1.25881,2.42803 2.67806,-3.2813 2.67806,-3.28129 7.45123,0.69824 c 9.0824,0.85109 12.24776,3.13778 14.82042,10.70642 2.90222,8.5382 4.11131,7.32808 4.11131,-4.1148 l 0,-10.08333 10.80422,0 c 10.2868,0 11.03077,0.14367 15.53473,3 2.60178,1.65 4.95102,3 5.22053,3 0.26951,0 0.91775,-1.125 1.44052,-2.5 0.84838,-2.23141 1.5183,-2.5 6.23547,-2.5 4.33015,0 5.8008,0.4783 8.14013,2.64745 2.7606,2.55978 2.94752,2.5929 5.64407,1 2.00049,-1.18172 5.19001,-1.64745 11.28239,-1.64745 l 8.49347,0 7.16369,5.60521 c 3.94004,3.08286 7.41316,5.35575 7.71805,5.05085 0.30489,-0.30489 0.0638,-3.33898 -0.53566,-6.74243 -0.59951,-3.40345 -0.85007,-6.57634 -0.5568,-7.05086 0.29328,-0.47453 3.89989,-0.86277 8.0147,-0.86277 9.85279,0 12.84394,2.00213 14.434,9.66143 0.99219,4.77935 1.33892,5.2832 3.29742,4.79165 1.40894,-0.35362 2.97184,0.18033 4.38705,1.4988 3.77978,3.52141 3.82518,3.44332 6.80211,-11.70188 0.72243,-3.67537 1.50434,-3.8583 7.47991,-1.75 2.64272,0.93241 7.89324,1.50249 13.87573,1.50659 7.9224,0.005 10.15476,0.35792 12.62427,1.99341 4.27412,2.83063 5.3376,2.50353 5.68963,-1.75 l 0.31037,-3.75 12,0.29993 c 11.4806,0.28694 12.18903,0.4303 16.36721,3.31201 4.36324,3.00934 7.13279,3.21375 7.13279,0.52643 0,-3.31318 8.30304,-3.55331 12.18539,-0.35241 2.44138,2.01286 2.8059,3.25179 4.01157,13.63456 0.81286,7.00009 1.79472,11.57671 2.5367,11.82403 0.90148,0.3005 1.28147,-3.25339 1.48843,-13.92052 l 0.27791,-14.32403 9.55364,-0.28384 9.55364,-0.28385 7.71257,5.53385 c 4.24191,3.04361 7.93027,5.53384 8.19636,5.53384 1.51961,0 0.18989,-5.08693 -1.57689,-6.03248 -1.31832,-0.70554 -1.94876,-1.88904 -1.75,-3.28518 0.28315,-1.98895 0.97313,-2.20878 7.78606,-2.4807 4.51609,-0.18025 8.37246,0.18174 9.74146,0.91441 1.71762,0.91924 2.87034,0.93744 4.76277,0.0752 4.20726,-1.91696 5.52039,-0.62126 5.52039,5.44712 0,6.10175 -1.46803,7.51948 -5.53337,5.34377 -1.66904,-0.89324 -2.78897,-0.97056 -3.68254,-0.25423 -0.70625,0.56616 -3.8823,1.01971 -7.0579,1.00788 -3.17559,-0.0118 -6.10059,0.30398 -6.5,0.70179 -0.3994,0.39782 -0.87381,6.50505 -1.05424,13.57162 l -0.32806,12.84833 -5.20801,4.92551 -5.208,4.92552 -9.26839,0.72505 c -7.63169,0.59702 -9.69404,0.44616 -11.67876,-0.85428 -1.76151,-1.15419 -4.92333,-1.57933 -11.74555,-1.57933 -5.33633,0 -9.79663,-0.46145 -10.41242,-1.07724 -0.76964,-0.76964 -2.09783,-0.18113 -4.65159,2.06109 -3.9825,3.49668 -5.79711,3.21408 -9.48754,-1.47753 -2.44344,-3.10633 -3.94677,-3.19463 -4.36408,-0.25632 -0.28776,2.02618 -0.95273,2.27991 -6.68478,2.55071 -4.75837,0.2248 -6.81277,-0.10432 -8.1381,-1.30372 -0.97508,-0.88244 -2.61073,-1.54571 -3.63477,-1.47395 -1.02405,0.0718 -6.5044,0.35147 -12.17856,0.62157 -9.984,0.47525 -10.42894,0.40544 -13.79893,-2.16498 -3.53574,-2.69684 -6.38441,-2.73363 -6.38441,-0.0824 0,2.25663 -2.87392,4.60281 -5.63815,4.60281 -1.37241,0 -3.97024,-1.125 -5.77296,-2.5 -4.19365,-3.19865 -5.07954,-3.1439 -6.54945,0.40478 -1.36317,3.291 -3.36854,4.06207 -10.61513,4.08157 -7.52581,0.0202 -8.94325,-1.96181 -11.4767,-16.04827 -2.44794,-13.61097 -4.48895,-17.09631 -3.63448,-6.20644 l 0.56743,7.23165 -4.49522,5.51836 -4.49522,5.51835 -10.74506,0 c -6.57306,0 -11.17827,-0.43321 -11.86079,-1.11573 -0.82097,-0.82097 -1.72514,-0.68888 -3.42251,0.5 -3.10578,2.17537 -15.08418,2.25759 -16.86176,0.11573 -1.68202,-2.02671 -2.35885,-1.91037 -5.81763,1 -1.6341,1.375 -3.61518,2.5 -4.40241,2.5 -0.78723,0 -2.48821,-1.125 -3.77996,-2.5 -2.89909,-3.08594 -3.77028,-3.13804 -4.18045,-0.25 -0.27337,1.92487 -1.1143,2.34408 -5.81955,2.9011 -12.0746,1.42942 -19.16263,0.99527 -22.63884,-1.38667 -1.79442,-1.22956 -3.50485,-3.20079 -3.80094,-4.3805 -0.74743,-2.97801 -4.10558,-3.57609 -7.88056,-1.40353 -1.74881,1.00647 -5.46434,2.79456 -8.25673,3.97353 l -5.07707,2.14357 -5.27342,-3.54875 c -6.24959,-4.20567 -7.82169,-4.39601 -8.6618,-1.04875 -0.71905,2.86493 -1.18337,2.98689 -3.80796,1.00023 -2.34985,-1.7787 -3.60268,-1.09997 -3.60268,1.9518 0,2.59257 -1.81847,3.64122 -5.83179,3.36299 -1.46751,-0.10174 -4.97246,-0.34824 -7.78877,-0.54777 z m 177.21609,-6.38764 c 0.60254,-0.47746 1.90839,-2.67069 2.90188,-4.87386 0.99348,-2.20316 2.3532,-4.00575 3.02158,-4.00575 0.66838,0 2.40642,1.8 3.86231,4 2.73894,4.13881 6.35496,5.33265 8.32947,2.75 1.31434,-1.71915 10.28923,-31.81076 10.28923,-34.49841 0,-1.65987 -0.9245,-2.44829 -3.92493,-3.34724 -2.15871,-0.64677 -4.57042,-0.92824 -5.35936,-0.6255 -0.90317,0.34658 -2.09376,4.00793 -3.21465,9.8858 -2.63071,13.79538 -4.14356,15.74991 -7.21134,9.31672 -2.07904,-4.35981 -3.2678,-4.04712 -5.06055,1.33113 -0.76771,2.30312 -1.76802,4.1875 -2.22292,4.1875 -0.74078,0 -3.70293,-11.36925 -5.5272,-21.21437 -0.92847,-5.0107 -2.38041,-5.94936 -8.64787,-5.59071 -4.66412,0.26691 -5.37132,0.5878 -5.65198,2.56463 -0.43657,3.07492 5.87816,39.41755 7.12894,41.02861 1.07651,1.38659 9.21798,0.73126 11.28739,-0.90855 z M 330.25688,455.3265 c -0.0449,-2.72666 -11.67011,-34.37751 -13.18198,-35.88938 -0.77979,-0.77979 -4.02709,-1.45583 -7.70565,-1.60419 l -6.3579,-0.25643 -2.9706,4.7878 -2.97062,4.78781 2.22972,5.96219 c 1.22634,3.27921 2.73734,5.96219 3.35779,5.96217 0.62044,-2e-5 2.38475,-1.57502 3.9207,-3.5 1.82945,-2.29282 3.64019,-3.49997 5.25,-3.49997 2.27872,0 2.45737,0.35971 2.45737,4.94774 l 0,4.94774 -5.1714,0.30226 c -2.84427,0.16624 -5.33936,0.81253 -5.54464,1.43619 -0.65728,1.99684 2.60805,4.22733 7.19577,4.9153 4.8858,0.73267 5.91837,1.58561 6.90143,5.70077 0.62595,2.62025 0.93915,2.75 6.63789,2.75 5.04046,0 5.97642,-0.27518 5.95212,-1.75 z m 11.82452,-5.5 c 0.16263,-3.7125 0.61263,-6.74064 1,-6.72919 0.38737,0.0114 2.61971,2.93644 4.96075,6.5 2.34104,3.56355 4.60101,6.47919 5.02216,6.47919 1.07945,0 8.2214,-5.9878 8.2214,-6.89281 0,-0.41095 -1.575,-2.58723 -3.5,-4.83616 -4.15567,-4.85496 -4.34384,-6.4881 -1,-8.67907 2.27091,-1.48796 2.5,-2.27684 2.5,-8.60874 l 0,-6.97068 -4.19675,-3.04011 c -4.0682,-2.94698 -4.48939,-3.03141 -13.75,-2.75627 l -9.55325,0.28384 0.0199,19 c 0.0232,22.10592 0.47818,23.79032 6.29546,23.30647 l 3.68464,-0.30647 0.29569,-6.75 z m 0.33123,-16.67156 c -0.77124,-0.47665 -1.14068,-2.3042 -0.94612,-4.68023 l 0.3192,-3.89821 4.4863,0 c 5.33928,0 6.41776,2.10027 2.81951,5.49079 -3.27663,3.08746 -5.22316,3.98734 -6.67889,3.08765 z m 34.18905,20.17156 c 0.2387,-0.4125 -0.62093,-8.625 -1.91029,-18.25 -1.28935,-9.625 -2.3581,-17.8375 -2.37498,-18.25 -0.0169,-0.4125 -1.6057,-0.75 -3.5307,-0.75 l -3.5,0 0,18.33333 c 0,10.08334 0.3,18.63334 0.66667,19 0.91667,0.91668 10.11226,0.84472 10.6493,-0.0833 z m 115.10005,-5.24731 c 3.82197,-4.00693 5.55576,-6.57898 5.22418,-7.75 -0.27295,-0.96398 -0.80144,-4.59611 -1.1744,-8.07139 -0.66784,-6.22289 -0.76369,-6.38588 -6.32196,-10.74937 -5.36783,-4.21399 -5.96172,-4.42995 -12.14384,-4.41599 -3.575,0.008 -7.00688,0.34529 -7.62641,0.74937 -1.49933,0.97792 -9.52075,27.71438 -8.82328,29.40918 0.30002,0.72903 2.1714,2.56301 4.15862,4.07551 3.29998,2.51166 4.366,2.75 12.29988,2.75 l 8.68675,0 5.72046,-5.99731 z m -19.19316,-9.94632 c -1.77257,-1.61899 -3.22286,-3.28187 -3.22286,-3.69528 0,-1.56963 5.4561,-6.36109 7.24346,-6.36109 1.02811,0 3.18958,1.44554 4.80329,3.21232 l 2.934,3.21233 -3.18654,3.28767 c -1.7526,1.80823 -3.67298,3.28768 -4.26752,3.28768 -0.59453,0 -2.53126,-1.32463 -4.30383,-2.94363 z m 6.7972,-1.58054 c 0.69572,-0.83829 0.98669,-1.80241 0.64661,-2.1425 -0.72629,-0.72629 -3.66667,1.51036 -3.66667,2.78912 0,1.37744 1.62985,1.02848 3.02006,-0.64662 z m 73.97994,12.52417 0,-4 -5.94098,0 c -3.26754,0 -6.24002,-0.48385 -6.60551,-1.07522 -0.36549,-0.59137 -1.40454,-7.00387 -2.30902,-14.25 -1.57005,-12.57837 -1.75254,-13.19006 -4.0314,-13.51227 -1.3128,-0.18562 -2.77696,0.26438 -3.25368,1 -0.95058,1.4668 -1.05326,34.3103 -0.11022,35.25334 0.32128,0.32128 5.45914,0.58415 11.41748,0.58415 l 10.83333,0 0,-4 z M 398.30577,436.55233 c 0.69572,-0.83829 0.95423,-1.83487 0.57448,-2.21463 -0.83409,-0.83408 -3.82031,0.9161 -4.36835,2.56024 -0.56969,1.70906 2.30606,1.44709 3.79387,-0.34561 z m 190.97994,-17.91681 c 0,-1.34254 0.45734,-2.72364 1.01631,-3.0691 1.60824,-0.99395 0.0964,-2.48992 -2.51631,-2.48992 -2.61273,0 -4.12455,1.49597 -2.51631,2.48992 0.55897,0.34546 1.01631,1.72656 1.01631,3.0691 0,1.50309 0.57634,2.44098 1.5,2.44098 0.92366,0 1.5,-0.93789 1.5,-2.44098 z m 8.66813,-2.98148 c -1.04313,-2.71835 -2.66813,-1.72151 -2.66813,1.63675 0,2.97649 0.12109,3.0932 1.63674,1.57754 0.90021,-0.90021 1.36434,-2.34664 1.03139,-3.21429 z m 8.33187,1.98148 c 0,-2.32152 -1.58484,-4.30751 -2.6152,-3.27715 -0.76112,0.76111 0.73307,5.71813 1.72361,5.71813 0.49037,0 0.89159,-1.09844 0.89159,-2.44098 z M 361.55439,404.15731 c -7.13408,-0.50339 -8.58068,-0.93071 -10.85215,-3.20569 -2.31359,-2.31716 -2.47656,-2.90331 -1.39018,-5 1.97069,-3.80338 4.14289,-5.87512 6.16002,-5.87512 3.97732,0 3.16258,-3.08377 -2.26739,-8.58204 l -5.35592,-5.42329 6.43958,-6.49733 c 6.39561,-6.45297 6.47774,-6.49734 12.02734,-6.49734 3.36502,0 6.35992,0.58403 7.52889,1.4682 1.1571,0.87519 4.21411,1.48104 7.56869,1.5 3.75058,0.0212 6.04276,0.5321 6.87244,1.5318 0.84662,1.02012 3.11399,1.5 7.08726,1.5 4.81892,0 6.02988,-0.35036 6.91274,-2 0.94846,-1.77222 2.09382,-2 10.05662,-2 7.9658,0 9.42524,0.2905 12.85197,2.55821 l 3.86571,2.5582 8.49067,-2.2269 8.49066,-2.22689 2.86597,2.25437 2.86596,2.25437 1.25909,-3.08568 c 1.25775,-3.08241 1.2675,-3.08568 9.19112,-3.08568 4.36262,0 8.97383,0.4001 10.24713,0.88911 1.27331,0.48902 5.3526,3.67888 9.0651,7.0886 6.1262,5.62655 6.75,6.56094 6.75,10.11088 0,2.57808 -0.68177,4.59318 -2,5.91141 -2.56971,2.56971 -2.52031,3.16257 0.5,6 1.375,1.29174 2.49954,2.83269 2.49898,3.42431 -5.6e-4,0.59163 -2.26056,2.34477 -5.02223,3.89587 l -5.02122,2.82019 -3.05449,-2.57019 c -3.73001,-3.13859 -4.16609,-3.16438 -5.41391,-0.32018 -0.81405,1.85548 -1.90873,2.30303 -6.24318,2.55247 -3.26193,0.18771 -5.99052,-0.21198 -7.19196,-1.0535 -1.63302,-1.14381 -3.64117,-1.12589 -12.83444,0.11454 -10.43056,1.40737 -11.01136,1.38819 -13.52661,-0.4465 -1.44545,-1.05436 -2.64223,-2.90295 -2.65952,-4.10799 -0.0439,-3.05885 -1.07596,-3.40077 -5.59754,-1.85437 -3.05243,1.04393 -4.00478,1.92796 -4.2503,3.94537 -0.29441,2.4191 -0.67156,2.59998 -5.42126,2.59998 -3.14285,0 -5.74428,-0.57869 -6.76858,-1.50567 -1.48121,-1.34048 -1.99457,-1.34063 -4.67918,-10e-4 -1.65849,0.82737 -5.07167,1.78614 -7.58485,2.13061 -4.01815,0.55075 -5.12802,0.24931 -9.19969,-2.49863 -2.54666,-1.71869 -5.00431,-3.12491 -5.46146,-3.12491 -0.45715,0 -2.03249,1.575 -3.50076,3.5 -1.46827,1.925 -3.43418,3.42386 -4.36869,3.33081 -0.93451,-0.0931 -5.40321,-0.43056 -9.93043,-0.75 z m 10.52599,-10.52039 3.29467,-4.9202 -6.68406,-6.73567 c -7.43054,-7.48792 -7.91951,-9.90455 -2.00405,-9.90455 2.58055,0 3.62516,-0.50779 4.09593,-1.99105 0.96355,-3.03589 -0.21214,-4.00895 -4.84377,-4.00895 -3.76408,0 -4.77368,0.55747 -9.19098,5.075 l -4.96241,5.075 5.25,4.86087 c 2.8875,2.67347 5.25,5.42322 5.25,6.11054 0,1.84677 -4.09747,5.87859 -5.97431,5.87859 -1.93403,0 -4.02569,1.8987 -4.02569,3.65431 0,1.09544 8.74071,2.20198 15,1.89894 0.825,-0.0399 2.9826,-2.28671 4.79467,-4.99283 z m 24.93945,2.83083 c 2.96266,-1.87848 3.40706,-4.11443 3.05905,-15.39125 l -0.29317,-9.5 -3,0 -3,0 -0.29204,7.16245 c -0.30132,7.38994 -1.58932,9.89591 -4.51016,8.77508 -1.47305,-0.56526 -1.8206,-2.44465 -2.94729,-15.93753 -0.193,-2.31126 -0.79849,-3.07748 -2.63742,-3.33749 -1.3128,-0.18562 -2.76841,0.26438 -3.23469,1 -1.0146,1.60068 -1.10673,9.76884 -0.21652,19.19631 0.59322,6.2824 0.90778,7.01962 3.74289,8.77228 3.44588,2.13023 9.31673,1.80437 13.32935,-0.73985 z m 42.26588,1.60206 c 14.13571,-2.15642 13,-1.62888 13,-6.03862 0,-4.65622 -0.71072,-4.82786 -8.0357,-1.94062 -5.47176,2.15677 -6.9643,1.94713 -6.9643,-0.97819 0,-1.29424 1.27045,-2.24812 4.25,-3.19099 3.13504,-0.99207 4.25,-1.86958 4.25,-3.34489 0,-1.69658 -0.56891,-1.95551 -3.75,-1.70672 -3.23298,0.25285 -3.75,0.004 -3.75,-1.80103 0,-1.44827 1.07964,-2.54541 3.5,-3.5567 2.63721,-1.10189 3.5,-2.06081 3.5,-3.88995 0,-1.33516 -0.35285,-2.64564 -0.7841,-2.91217 -0.92229,-0.57001 -14.24238,2.99305 -15.35735,4.10802 -0.84187,0.84187 0.63197,23.62517 1.63309,25.24503 0.76,1.2297 0.49364,1.22948 8.50836,0.007 z m -27.00234,-2.95992 c 0.40332,-1.72491 1.46766,-2.64997 3.53954,-3.07636 3.86678,-0.79577 6.52758,-2.26614 8.95527,-4.94871 1.59747,-1.76518 1.91277,-3.33366 1.66701,-8.29253 -0.16669,-3.36358 -0.7562,-6.96226 -1.31002,-7.99707 -1.64402,-3.07188 -5.95311,-4.26281 -13.45526,-3.71872 l -6.8942,0.5 -0.2791,13.26136 c -0.31371,14.90563 0.38966,17.5372 4.55681,17.04857 1.85787,-0.21785 2.81456,-1.0428 3.21995,-2.77654 z m -0.5995,-11.43819 c -0.29649,-0.77265 -0.39487,-2.91015 -0.21862,-4.75 0.3101,-3.23706 0.46241,-3.3452 4.71147,-3.3452 3.15888,0 4.7022,0.50705 5.5,1.807 0.92149,1.50149 0.55685,2.30457 -2.15679,4.75 -3.49374,3.14843 -6.95726,3.82831 -7.83606,1.5382 z m -34.39816,-2.5952 c 0,-2.47619 -0.40741,-3 -2.33333,-3 -3.48813,0 -3.93257,1.08805 -1.5015,3.67581 2.90621,3.09353 3.83483,2.92988 3.83483,-0.67581 z m 75.2,-4.2 c -0.93333,-0.93333 -1.2,-0.66667 -1.2,1.2 0,1.86667 0.26667,2.13333 1.2,1.2 0.93333,-0.93333 0.93333,-1.46667 0,-2.4 z"
       style="fill:#02ba01" />
    <path
       inkscape:connector-curvature="0"
       id="path3168"
       d="m 259.66515,462.34375 c -3.72563,-0.26396 -5.70442,-0.98427 -7.26379,-2.64415 l -2.14322,-2.28135 3.62523,-22.42087 c 1.99388,-12.33149 4.13758,-22.75149 4.76378,-23.15557 2.14088,-1.38146 11.32541,-0.84756 12.63856,0.73469 1.41635,1.7066 4.57671,1.99391 5.5,0.5 0.33992,-0.55 3.40398,-0.98382 6.80902,-0.96404 6.66245,0.0387 10.11063,1.91099 12.69309,6.89207 l 1.25881,2.42803 2.67806,-3.2813 2.67806,-3.28129 7.45123,0.69824 c 9.0824,0.85109 12.24776,3.13778 14.82042,10.70642 2.90222,8.5382 4.11131,7.32808 4.11131,-4.1148 l 0,-10.08333 10.80422,0 c 10.2868,0 11.03077,0.14367 15.53473,3 2.60178,1.65 4.95102,3 5.22053,3 0.26951,0 0.91775,-1.125 1.44052,-2.5 0.84838,-2.23141 1.5183,-2.5 6.23547,-2.5 4.33015,0 5.8008,0.4783 8.14013,2.64745 2.7606,2.55978 2.94752,2.5929 5.64407,1 2.00049,-1.18172 5.19001,-1.64745 11.28239,-1.64745 l 8.49347,0 7.16369,5.60521 c 3.94004,3.08286 7.41316,5.35575 7.71805,5.05085 0.30489,-0.30489 0.0638,-3.33898 -0.53566,-6.74243 -0.59951,-3.40345 -0.85007,-6.57634 -0.5568,-7.05086 0.29328,-0.47453 3.89989,-0.86277 8.0147,-0.86277 9.85279,0 12.84394,2.00213 14.434,9.66143 0.99219,4.77935 1.33892,5.2832 3.29742,4.79165 1.40894,-0.35362 2.97184,0.18033 4.38705,1.4988 3.77978,3.52141 3.82518,3.44332 6.80211,-11.70188 0.72243,-3.67537 1.50434,-3.8583 7.47991,-1.75 2.64272,0.93241 7.89324,1.50249 13.87573,1.50659 7.9224,0.005 10.15476,0.35792 12.62427,1.99341 4.27412,2.83063 5.3376,2.50353 5.68963,-1.75 l 0.31037,-3.75 12,0.29993 c 11.4806,0.28694 12.18903,0.4303 16.36721,3.31201 4.36324,3.00934 7.13279,3.21375 7.13279,0.52643 0,-3.31318 8.30304,-3.55331 12.18539,-0.35241 2.44138,2.01286 2.8059,3.25179 4.01157,13.63456 0.81286,7.00009 1.79472,11.57671 2.5367,11.82403 0.90148,0.3005 1.28147,-3.25339 1.48843,-13.92052 l 0.27791,-14.32403 9.55364,-0.28384 9.55364,-0.28385 7.71257,5.53385 c 4.24191,3.04361 7.93027,5.53384 8.19636,5.53384 1.51961,0 0.18989,-5.08693 -1.57689,-6.03248 -1.31832,-0.70554 -1.94876,-1.88904 -1.75,-3.28518 0.28315,-1.98895 0.97313,-2.20878 7.78606,-2.4807 4.51609,-0.18025 8.37246,0.18174 9.74146,0.91441 1.71762,0.91924 2.87034,0.93744 4.76277,0.0752 4.20726,-1.91696 5.52039,-0.62126 5.52039,5.44712 0,6.10175 -1.46803,7.51948 -5.53337,5.34377 -1.66904,-0.89324 -2.78897,-0.97056 -3.68254,-0.25423 -0.70625,0.56616 -3.8823,1.01971 -7.0579,1.00788 -3.17559,-0.0118 -6.10059,0.30398 -6.5,0.70179 -0.3994,0.39782 -0.87381,6.50505 -1.05424,13.57162 l -0.32806,12.84833 -5.20801,4.92551 -5.208,4.92552 -9.26839,0.72505 c -7.63169,0.59702 -9.69404,0.44616 -11.67876,-0.85428 -1.76151,-1.15419 -4.92333,-1.57933 -11.74555,-1.57933 -5.33633,0 -9.79663,-0.46145 -10.41242,-1.07724 -0.76964,-0.76964 -2.09783,-0.18113 -4.65159,2.06109 -3.9825,3.49668 -5.79711,3.21408 -9.48754,-1.47753 -2.44344,-3.10633 -3.94677,-3.19463 -4.36408,-0.25632 -0.28776,2.02618 -0.95273,2.27991 -6.68478,2.55071 -4.75837,0.2248 -6.81277,-0.10432 -8.1381,-1.30372 -0.97508,-0.88244 -2.61073,-1.54571 -3.63477,-1.47395 -1.02405,0.0718 -6.5044,0.35147 -12.17856,0.62157 -9.984,0.47525 -10.42894,0.40544 -13.79893,-2.16498 -3.53574,-2.69684 -6.38441,-2.73363 -6.38441,-0.0824 0,2.25663 -2.87392,4.60281 -5.63815,4.60281 -1.37241,0 -3.97024,-1.125 -5.77296,-2.5 -4.19365,-3.19865 -5.07954,-3.1439 -6.54945,0.40478 -1.36317,3.291 -3.36854,4.06207 -10.61513,4.08157 -7.52581,0.0202 -8.94325,-1.96181 -11.4767,-16.04827 -2.44794,-13.61097 -4.48895,-17.09631 -3.63448,-6.20644 l 0.56743,7.23165 -4.49522,5.51836 -4.49522,5.51835 -10.74506,0 c -6.57306,0 -11.17827,-0.43321 -11.86079,-1.11573 -0.82097,-0.82097 -1.72514,-0.68888 -3.42251,0.5 -3.10578,2.17537 -15.08418,2.25759 -16.86176,0.11573 -1.68202,-2.02671 -2.35885,-1.91037 -5.81763,1 -1.6341,1.375 -3.61518,2.5 -4.40241,2.5 -0.78723,0 -2.48821,-1.125 -3.77996,-2.5 -2.89909,-3.08594 -3.77028,-3.13804 -4.18045,-0.25 -0.27337,1.92487 -1.1143,2.34408 -5.81955,2.9011 -12.0746,1.42942 -19.16263,0.99527 -22.63884,-1.38667 -1.79442,-1.22956 -3.50485,-3.20079 -3.80094,-4.3805 -0.74743,-2.97801 -4.10558,-3.57609 -7.88056,-1.40353 -1.74881,1.00647 -5.46434,2.79456 -8.25673,3.97353 l -5.07707,2.14357 -5.27342,-3.54875 c -6.24959,-4.20567 -7.82169,-4.39601 -8.6618,-1.04875 -0.71905,2.86493 -1.18337,2.98689 -3.80796,1.00023 -2.34985,-1.7787 -3.60268,-1.09997 -3.60268,1.9518 0,2.59257 -1.81847,3.64122 -5.83179,3.36299 -1.46751,-0.10174 -4.97246,-0.34824 -7.78877,-0.54777 z m 177.21609,-6.38764 c 0.60254,-0.47746 1.90839,-2.67069 2.90188,-4.87386 0.99348,-2.20316 2.3532,-4.00575 3.02158,-4.00575 0.66838,0 2.40642,1.8 3.86231,4 2.73894,4.13881 6.35496,5.33265 8.32947,2.75 1.31434,-1.71915 10.28923,-31.81076 10.28923,-34.49841 0,-1.65987 -0.9245,-2.44829 -3.92493,-3.34724 -2.15871,-0.64677 -4.57042,-0.92824 -5.35936,-0.6255 -0.90317,0.34658 -2.09376,4.00793 -3.21465,9.8858 -2.63071,13.79538 -4.14356,15.74991 -7.21134,9.31672 -2.07904,-4.35981 -3.2678,-4.04712 -5.06055,1.33113 -0.76771,2.30312 -1.76802,4.1875 -2.22292,4.1875 -0.74078,0 -3.70293,-11.36925 -5.5272,-21.21437 -0.92847,-5.0107 -2.38041,-5.94936 -8.64787,-5.59071 -4.66412,0.26691 -5.37132,0.5878 -5.65198,2.56463 -0.43657,3.07492 5.87816,39.41755 7.12894,41.02861 1.07651,1.38659 9.21798,0.73126 11.28739,-0.90855 z m -169.59553,-8.82059 c 0,-9.89941 1.12264,-13.28483 2.93985,-8.86541 3.87291,9.41882 5.1566,12.04328 5.64955,11.55033 0.31082,-0.31083 1.78425,-3.86787 3.27429,-7.90454 1.49004,-4.03667 3.14277,-7.3394 3.67274,-7.3394 0.52996,0 2.4429,4.26933 4.25096,9.48739 1.80807,5.21807 3.71166,9.91166 4.23021,10.43021 1.06322,1.06322 10.61934,-3.01091 11.29364,-4.8149 0.47453,-1.26955 -11.50325,-31.92421 -13.33733,-34.13414 -0.7661,-0.92309 -3.02549,-1.46856 -6.08293,-1.46856 -4.6138,0 -4.93941,0.18013 -6.32653,3.5 -1.81817,4.35148 -3.04643,4.41078 -5.1783,0.25 -0.91587,-1.7875 -2.16493,-3.58061 -2.77568,-3.98469 -1.46609,-0.96997 -6.78575,-0.94097 -8.33852,0.0455 -1.15556,0.73404 -7.27195,34.87901 -7.27195,40.59587 0,2.54411 0.13283,2.59332 7,2.59332 l 7,0 0,-9.94098 z m 62.97117,8.19098 c -0.0449,-2.72666 -11.67011,-34.37751 -13.18198,-35.88938 -0.77979,-0.77979 -4.02709,-1.45583 -7.70565,-1.60419 l -6.3579,-0.25643 -2.9706,4.7878 -2.97062,4.78781 2.22972,5.96219 c 1.22634,3.27921 2.73734,5.96219 3.35779,5.96217 0.62044,-2e-5 2.38475,-1.57502 3.9207,-3.5 1.82945,-2.29282 3.64019,-3.49997 5.25,-3.49997 2.27872,0 2.45737,0.35971 2.45737,4.94774 l 0,4.94774 -5.1714,0.30226 c -2.84427,0.16624 -5.33936,0.81253 -5.54464,1.43619 -0.65728,1.99684 2.60805,4.22733 7.19577,4.9153 4.8858,0.73267 5.91837,1.58561 6.90143,5.70077 0.62595,2.62025 0.93915,2.75 6.63789,2.75 5.04046,0 5.97642,-0.27518 5.95212,-1.75 z m 11.82452,-5.5 c 0.16263,-3.7125 0.61263,-6.74064 1,-6.72919 0.38737,0.0114 2.61971,2.93644 4.96075,6.5 2.34104,3.56355 4.60101,6.47919 5.02216,6.47919 1.07945,0 8.2214,-5.9878 8.2214,-6.89281 0,-0.41095 -1.575,-2.58723 -3.5,-4.83616 -4.15567,-4.85496 -4.34384,-6.4881 -1,-8.67907 2.27091,-1.48796 2.5,-2.27684 2.5,-8.60874 l 0,-6.97068 -4.19675,-3.04011 c -4.0682,-2.94698 -4.48939,-3.03141 -13.75,-2.75627 l -9.55325,0.28384 0.0199,19 c 0.0232,22.10592 0.47818,23.79032 6.29546,23.30647 l 3.68464,-0.30647 0.29569,-6.75 z m 0.33123,-16.67156 c -0.77124,-0.47665 -1.14068,-2.3042 -0.94612,-4.68023 l 0.3192,-3.89821 4.4863,0 c 5.33928,0 6.41776,2.10027 2.81951,5.49079 -3.27663,3.08746 -5.22316,3.98734 -6.67889,3.08765 z m 180.33828,20.81797 c 1.94414,-1.70698 3.5348,-3.57313 3.5348,-4.14701 0,-0.57388 -1.575,-2.9655 -3.5,-5.31471 -4.07037,-4.96735 -4.17388,-5.51487 -1.5,-7.93469 1.67564,-1.51644 2,-3.07997 2,-9.6408 l 0,-7.83082 -3.75,-2.40233 c -3.04651,-1.95167 -5.54857,-2.51009 -13.33747,-2.97673 -6.64883,-0.39833 -9.94379,-0.21806 -10.75,0.58815 -1.57991,1.57991 -1.46551,5.88496 0.22035,8.29185 0.76058,1.08589 1.92299,6.12999 2.58312,11.20911 1.14463,8.80684 1.10372,9.35748 -0.88288,11.88302 -2.14162,2.72263 -2.69151,6.87084 -1.2187,9.19342 0.53882,0.84969 2.39076,1.20348 5.23469,1 l 4.40089,-0.31487 0.29772,-6.25 c 0.16374,-3.4375 0.69014,-6.25 1.16977,-6.25 0.47962,0 3.16316,3.15 5.96342,7 2.80025,3.85 5.2957,7 5.54543,7 0.24974,0 2.04473,-1.39662 3.98886,-3.10359 z m -15.31644,-21.14765 c -0.63182,-0.63182 -1.14876,-2.85876 -1.14876,-4.94876 l 0,-3.8 4.94098,0 c 2.71754,0 5.23133,0.46979 5.5862,1.04398 1.75975,2.84734 -7.0216,10.0616 -9.37842,7.70478 z m 65.56958,19.21964 c 2.32009,-2.18987 4.68259,-4.84903 5.25,-5.90925 0.56741,-1.06022 1.03166,-6.60381 1.03166,-12.3191 0,-11.57533 0.01,-11.55606 -8.61639,-17.15646 -3.71767,-2.41366 -4.88003,-2.64401 -12,-2.37806 l -7.88361,0.29447 -0.29021,11.5 c -0.34525,13.68052 0.0447,15.75498 3.04186,16.18067 1.97898,0.28107 2.28158,0.97828 2.52573,5.81933 0.40259,7.98256 0.42055,8.0032 6.94124,7.975 5.35253,-0.0232 6.09429,-0.32035 9.99972,-4.0066 z m -11.31636,-15.36324 c -0.29439,-0.76716 -0.39276,-3.12966 -0.21861,-5.25 0.24656,-3.00206 0.77218,-3.92032 2.37524,-4.14963 2.63809,-0.37736 7.44139,3.37312 7.44139,5.81035 0,3.76282 -8.33529,6.87989 -9.59802,3.58928 z M 376.60168,453.3265 c 0.2387,-0.4125 -0.62093,-8.625 -1.91029,-18.25 -1.28935,-9.625 -2.3581,-17.8375 -2.37498,-18.25 -0.0169,-0.4125 -1.6057,-0.75 -3.5307,-0.75 l -3.5,0 0,18.33333 c 0,10.08334 0.3,18.63334 0.66667,19 0.91667,0.91668 10.11226,0.84472 10.6493,-0.0833 z m 31.64071,-3.81883 4.21139,-4.56882 -0.66239,-8.68118 c -0.87824,-11.50996 -0.93539,-11.6541 -6.21924,-15.68862 -4.3404,-3.31415 -4.98045,-3.49255 -12.53024,-3.49255 -7.77566,0 -8.03648,0.0803 -11.49401,3.53781 l -3.53782,3.53782 0.50889,11.53155 c 0.50427,11.4271 0.539,11.56264 3.83398,14.96219 3.3116,3.41671 3.36234,3.43063 12.50157,3.43063 l 9.17647,0 4.2114,-4.56883 z m -17.85297,-10.82416 c -3.63715,-3.75259 -3.46574,-5.06967 1.2315,-9.46277 l 2.51885,-2.35577 4.07297,3.27313 c 2.24013,1.80022 4.07297,3.8262 4.07297,4.50217 0,1.27838 -6.49107,7.43623 -7.83863,7.43623 -0.42297,0 -2.24891,-1.52685 -4.05766,-3.39299 z m 7.91635,-2.13118 c 0.69572,-0.83829 0.95423,-1.83487 0.57448,-2.21463 -0.83409,-0.83408 -3.82031,0.9161 -4.36835,2.56024 -0.56969,1.70906 2.30606,1.44709 3.79387,-0.34561 z m 93.39596,11.52686 c 3.82197,-4.00693 5.55576,-6.57898 5.22418,-7.75 -0.27295,-0.96398 -0.80144,-4.59611 -1.1744,-8.07139 -0.66784,-6.22289 -0.76369,-6.38588 -6.32196,-10.74937 -5.36783,-4.21399 -5.96172,-4.42995 -12.14384,-4.41599 -3.575,0.008 -7.00688,0.34529 -7.62641,0.74937 -1.49933,0.97792 -9.52075,27.71438 -8.82328,29.40918 0.30002,0.72903 2.1714,2.56301 4.15862,4.07551 3.29998,2.51166 4.366,2.75 12.29988,2.75 l 8.68675,0 5.72046,-5.99731 z m -19.19316,-9.94632 c -1.77257,-1.61899 -3.22286,-3.28187 -3.22286,-3.69528 0,-1.56963 5.4561,-6.36109 7.24346,-6.36109 1.02811,0 3.18958,1.44554 4.80329,3.21232 l 2.934,3.21233 -3.18654,3.28767 c -1.7526,1.80823 -3.67298,3.28768 -4.26752,3.28768 -0.59453,0 -2.53126,-1.32463 -4.30383,-2.94363 z m 6.7972,-1.58054 c 0.69572,-0.83829 0.98669,-1.80241 0.64661,-2.1425 -0.72629,-0.72629 -3.66667,1.51036 -3.66667,2.78912 0,1.37744 1.62985,1.02848 3.02006,-0.64662 z m 73.97994,12.52417 0,-4 -5.94098,0 c -3.26754,0 -6.24002,-0.48385 -6.60551,-1.07522 -0.36549,-0.59137 -1.40454,-7.00387 -2.30902,-14.25 -1.57005,-12.57837 -1.75254,-13.19006 -4.0314,-13.51227 -1.3128,-0.18562 -2.77696,0.26438 -3.25368,1 -0.95058,1.4668 -1.05326,34.3103 -0.11022,35.25334 0.32128,0.32128 5.45914,0.58415 11.41748,0.58415 l 10.83333,0 0,-4 z m 36,-30.44098 c 0,-1.34254 0.45734,-2.72364 1.01631,-3.0691 1.60824,-0.99395 0.0964,-2.48992 -2.51631,-2.48992 -2.61273,0 -4.12455,1.49597 -2.51631,2.48992 0.55897,0.34546 1.01631,1.72656 1.01631,3.0691 0,1.50309 0.57634,2.44098 1.5,2.44098 0.92366,0 1.5,-0.93789 1.5,-2.44098 z m 8.66813,-2.98148 c -1.04313,-2.71835 -2.66813,-1.72151 -2.66813,1.63675 0,2.97649 0.12109,3.0932 1.63674,1.57754 0.90021,-0.90021 1.36434,-2.34664 1.03139,-3.21429 z m 8.33187,1.98148 c 0,-2.32152 -1.58484,-4.30751 -2.6152,-3.27715 -0.76112,0.76111 0.73307,5.71813 1.72361,5.71813 0.49037,0 0.89159,-1.09844 0.89159,-2.44098 z M 361.55439,404.15731 c -7.13408,-0.50339 -8.58068,-0.93071 -10.85215,-3.20569 -2.31359,-2.31716 -2.47656,-2.90331 -1.39018,-5 1.97069,-3.80338 4.14289,-5.87512 6.16002,-5.87512 3.97732,0 3.16258,-3.08377 -2.26739,-8.58204 l -5.35592,-5.42329 6.43958,-6.49733 c 6.39561,-6.45297 6.47774,-6.49734 12.02734,-6.49734 3.36502,0 6.35992,0.58403 7.52889,1.4682 1.1571,0.87519 4.21411,1.48104 7.56869,1.5 3.75058,0.0212 6.04276,0.5321 6.87244,1.5318 0.84662,1.02012 3.11399,1.5 7.08726,1.5 4.81892,0 6.02988,-0.35036 6.91274,-2 0.94846,-1.77222 2.09382,-2 10.05662,-2 7.9658,0 9.42524,0.2905 12.85197,2.55821 l 3.86571,2.5582 8.49067,-2.2269 8.49066,-2.22689 2.86597,2.25437 2.86596,2.25437 1.25909,-3.08568 c 1.25775,-3.08241 1.2675,-3.08568 9.19112,-3.08568 4.36262,0 8.97383,0.4001 10.24713,0.88911 1.27331,0.48902 5.3526,3.67888 9.0651,7.0886 6.1262,5.62655 6.75,6.56094 6.75,10.11088 0,2.57808 -0.68177,4.59318 -2,5.91141 -2.56971,2.56971 -2.52031,3.16257 0.5,6 1.375,1.29174 2.49954,2.83269 2.49898,3.42431 -5.6e-4,0.59163 -2.26056,2.34477 -5.02223,3.89587 l -5.02122,2.82019 -3.05449,-2.57019 c -3.73001,-3.13859 -4.16609,-3.16438 -5.41391,-0.32018 -0.81405,1.85548 -1.90873,2.30303 -6.24318,2.55247 -3.26193,0.18771 -5.99052,-0.21198 -7.19196,-1.0535 -1.63302,-1.14381 -3.64117,-1.12589 -12.83444,0.11454 -10.43056,1.40737 -11.01136,1.38819 -13.52661,-0.4465 -1.44545,-1.05436 -2.64223,-2.90295 -2.65952,-4.10799 -0.0439,-3.05885 -1.07596,-3.40077 -5.59754,-1.85437 -3.05243,1.04393 -4.00478,1.92796 -4.2503,3.94537 -0.29441,2.4191 -0.67156,2.59998 -5.42126,2.59998 -3.14285,0 -5.74428,-0.57869 -6.76858,-1.50567 -1.48121,-1.34048 -1.99457,-1.34063 -4.67918,-10e-4 -1.65849,0.82737 -5.07167,1.78614 -7.58485,2.13061 -4.01815,0.55075 -5.12802,0.24931 -9.19969,-2.49863 -2.54666,-1.71869 -5.00431,-3.12491 -5.46146,-3.12491 -0.45715,0 -2.03249,1.575 -3.50076,3.5 -1.46827,1.925 -3.43418,3.42386 -4.36869,3.33081 -0.93451,-0.0931 -5.40321,-0.43056 -9.93043,-0.75 z m 10.52599,-10.52039 3.29467,-4.9202 -6.68406,-6.73567 c -7.43054,-7.48792 -7.91951,-9.90455 -2.00405,-9.90455 2.58055,0 3.62516,-0.50779 4.09593,-1.99105 0.96355,-3.03589 -0.21214,-4.00895 -4.84377,-4.00895 -3.76408,0 -4.77368,0.55747 -9.19098,5.075 l -4.96241,5.075 5.25,4.86087 c 2.8875,2.67347 5.25,5.42322 5.25,6.11054 0,1.84677 -4.09747,5.87859 -5.97431,5.87859 -1.93403,0 -4.02569,1.8987 -4.02569,3.65431 0,1.09544 8.74071,2.20198 15,1.89894 0.825,-0.0399 2.9826,-2.28671 4.79467,-4.99283 z m 24.93945,2.83083 c 2.96266,-1.87848 3.40706,-4.11443 3.05905,-15.39125 l -0.29317,-9.5 -3,0 -3,0 -0.29204,7.16245 c -0.30132,7.38994 -1.58932,9.89591 -4.51016,8.77508 -1.47305,-0.56526 -1.8206,-2.44465 -2.94729,-15.93753 -0.193,-2.31126 -0.79849,-3.07748 -2.63742,-3.33749 -1.3128,-0.18562 -2.76841,0.26438 -3.23469,1 -1.0146,1.60068 -1.10673,9.76884 -0.21652,19.19631 0.59322,6.2824 0.90778,7.01962 3.74289,8.77228 3.44588,2.13023 9.31673,1.80437 13.32935,-0.73985 z m 42.26588,1.60206 c 14.13571,-2.15642 13,-1.62888 13,-6.03862 0,-4.65622 -0.71072,-4.82786 -8.0357,-1.94062 -5.47176,2.15677 -6.9643,1.94713 -6.9643,-0.97819 0,-1.29424 1.27045,-2.24812 4.25,-3.19099 3.13504,-0.99207 4.25,-1.86958 4.25,-3.34489 0,-1.69658 -0.56891,-1.95551 -3.75,-1.70672 -3.23298,0.25285 -3.75,0.004 -3.75,-1.80103 0,-1.44827 1.07964,-2.54541 3.5,-3.5567 2.63721,-1.10189 3.5,-2.06081 3.5,-3.88995 0,-1.33516 -0.35285,-2.64564 -0.7841,-2.91217 -0.92229,-0.57001 -14.24238,2.99305 -15.35735,4.10802 -0.84187,0.84187 0.63197,23.62517 1.63309,25.24503 0.76,1.2297 0.49364,1.22948 8.50836,0.007 z m 24.41821,0.3997 c 1.11023,-0.42603 1.58179,-1.91664 1.58179,-5 0,-2.41616 0.32204,-4.39301 0.71565,-4.39301 0.39361,0 2.81267,2.06548 5.37569,4.58996 l 4.66003,4.58997 3.12432,-1.61565 c 3.77515,-1.9522 3.84133,-2.54205 0.62431,-5.56428 -3.10751,-2.91935 -3.12334,-3.89457 -0.10493,-6.46243 1.31729,-1.12067 2.68321,-3.30435 3.03538,-4.85264 0.56058,-2.4645 -0.0113,-3.41735 -4.59218,-7.65115 -5.31167,-4.90924 -8.20889,-5.99938 -16.00648,-6.02277 -6.99382,-0.021 -6.83179,-0.40351 -6.83179,16.1282 0,14.54339 0.0576,14.94838 2.25,15.82963 2.77056,1.11363 4.12822,1.20699 6.16821,0.42417 z m 1.58179,-18.37396 c 0,-3.3808 0.36601,-4.07281 2.42783,-4.59029 3.42037,-0.85846 6.57217,0.37213 6.57217,2.56605 0,2.2165 -4.5014,6.00519 -7.13486,6.00519 -1.50784,0 -1.86514,-0.76261 -1.86514,-3.98095 z m -53.00234,15.01434 c 0.40332,-1.72491 1.46766,-2.64997 3.53954,-3.07636 3.86678,-0.79577 6.52758,-2.26614 8.95527,-4.94871 1.59747,-1.76518 1.91277,-3.33366 1.66701,-8.29253 -0.16669,-3.36358 -0.7562,-6.96226 -1.31002,-7.99707 -1.64402,-3.07188 -5.95311,-4.26281 -13.45526,-3.71872 l -6.8942,0.5 -0.2791,13.26136 c -0.31371,14.90563 0.38966,17.5372 4.55681,17.04857 1.85787,-0.21785 2.81456,-1.0428 3.21995,-2.77654 z m -0.5995,-11.43819 c -0.29649,-0.77265 -0.39487,-2.91015 -0.21862,-4.75 0.3101,-3.23706 0.46241,-3.3452 4.71147,-3.3452 3.15888,0 4.7022,0.50705 5.5,1.807 0.92149,1.50149 0.55685,2.30457 -2.15679,4.75 -3.49374,3.14843 -6.95726,3.82831 -7.83606,1.5382 z m -34.39816,-2.5952 c 0,-2.47619 -0.40741,-3 -2.33333,-3 -3.48813,0 -3.93257,1.08805 -1.5015,3.67581 2.90621,3.09353 3.83483,2.92988 3.83483,-0.67581 z m 75.2,-4.2 c -0.93333,-0.93333 -1.2,-0.66667 -1.2,1.2 0,1.86667 0.26667,2.13333 1.2,1.2 0.93333,-0.93333 0.93333,-1.46667 0,-2.4 z"
       style="fill:#253925" />
    <text
       xml:space="preserve"
       style="font-size:56px;font-style:normal;font-weight:normal;line-height:125%;letter-spacing:0px;word-spacing:0px;fill:#000000;fill-opacity:1;stroke:none;font-family:Sans;filter:url(#filter3980)"
       x="461.42856"
       y="478.79077"
       id="text3183"
       sodipodi:linespacing="125%"><tspan
         sodipodi:role="line"
         id="tspan3185"
         x="461.42856"
         y="478.79077"
         style="font-size:24px;font-style:italic;font-variant:normal;font-weight:bold;font-stretch:normal;font-family:Junicode;-inkscape-font-specification:Junicode Bold Italic">UAB Edition</tspan></text>
    <text
       xml:space="preserve"
       style="font-size:56px;font-style:normal;font-weight:normal;line-height:125%;letter-spacing:0px;word-spacing:0px;fill:#a80000;fill-opacity:1;stroke:#000000;stroke-width:0.40000001;stroke-miterlimit:4;stroke-opacity:1;stroke-dasharray:none;font-family:Sans"
       x="461.03488"
       y="478.05975"
       id="text3183-0"
       sodipodi:linespacing="125%"><tspan
         sodipodi:role="line"
         id="tspan3185-6"
         x="461.03488"
         y="478.05975"
         style="font-size:24px;font-style:italic;font-variant:normal;font-weight:bold;font-stretch:normal;fill:#a80000;fill-opacity:1;stroke:#000000;stroke-width:0.40000001;stroke-miterlimit:4;stroke-opacity:1;stroke-dasharray:none;font-family:Junicode;-inkscape-font-specification:Junicode Bold Italic">UAB Edition</tspan></text>
  </g>
</svg>
