<?xml version="1.0" encoding="UTF-8" standalone="no"?><svg xmlns="http://www.w3.org/2000/svg" xmlns:xlink="http://www.w3.org/1999/xlink" contentScriptType="application/ecmascript" contentStyleType="text/css" height="514px" preserveAspectRatio="none" style="width:593px;height:514px;" version="1.1" viewBox="0 0 593 514" width="593px" zoomAndPan="magnify"><defs><filter height="300%" id="ftglylio4n7dh" width="300%" x="-1" y="-1"><feGaussianBlur result="blurOut" stdDeviation="2.0"/><feColorMatrix in="blurOut" result="blurOut2" type="matrix" values="0 0 0 0 0 0 0 0 0 0 0 0 0 0 0 0 0 0 .4 0"/><feOffset dx="4.0" dy="4.0" in="blurOut2" result="blurOut3"/><feBlend in="SourceGraphic" in2="blurOut3" mode="normal"/></filter></defs><g><text fill="#000000" font-family="sans-serif" font-size="14" font-weight="bold" lengthAdjust="spacingAndGlyphs" textLength="290" x="154" y="22.9951">Diagrama de secuencia - Crear mapa</text><rect fill="#FFFFFF" filter="url(#ftglylio4n7dh)" height="115.0977" style="stroke: #A80036; stroke-width: 1.0;" width="10" x="195" y="147.7266"/><rect fill="#FFFFFF" filter="url(#ftglylio4n7dh)" height="85.9648" style="stroke: #A80036; stroke-width: 1.0;" width="10" x="315" y="176.8594"/><rect fill="#FFFFFF" filter="url(#ftglylio4n7dh)" height="56.832" style="stroke: #A80036; stroke-width: 1.0;" width="10" x="454" y="205.9922"/><rect fill="#FFFFFF" filter="url(#ftglylio4n7dh)" height="104.5313" style="stroke: #000000; stroke-width: 2.0;" width="477.5" x="13" y="305.5234"/><line style="stroke: #A80036; stroke-width: 1.0; stroke-dasharray: 5.0,5.0;" x1="73" x2="73" y1="116.5938" y2="427.0547"/><line style="stroke: #A80036; stroke-width: 1.0; stroke-dasharray: 5.0,5.0;" x1="200" x2="200" y1="116.5938" y2="427.0547"/><line style="stroke: #A80036; stroke-width: 1.0; stroke-dasharray: 5.0,5.0;" x1="319.5" x2="319.5" y1="116.5938" y2="427.0547"/><line style="stroke: #A80036; stroke-width: 1.0; stroke-dasharray: 5.0,5.0;" x1="458.5" x2="458.5" y1="116.5938" y2="427.0547"/><text fill="#000000" font-family="sans-serif" font-size="14" lengthAdjust="spacingAndGlyphs" textLength="95" x="23" y="113.292">Administrador</text><ellipse cx="73.5" cy="43.2969" fill="#FEFECE" filter="url(#ftglylio4n7dh)" rx="8" ry="8" style="stroke: #A80036; stroke-width: 2.0;"/><path d="M73.5,51.2969 L73.5,78.2969 M60.5,59.2969 L86.5,59.2969 M73.5,78.2969 L60.5,93.2969 M73.5,78.2969 L86.5,93.2969 " fill="none" filter="url(#ftglylio4n7dh)" style="stroke: #A80036; stroke-width: 2.0;"/><text fill="#000000" font-family="sans-serif" font-size="14" lengthAdjust="spacingAndGlyphs" textLength="95" x="23" y="439.0498">Administrador</text><ellipse cx="73.5" cy="452.3516" fill="#FEFECE" filter="url(#ftglylio4n7dh)" rx="8" ry="8" style="stroke: #A80036; stroke-width: 2.0;"/><path d="M73.5,460.3516 L73.5,487.3516 M60.5,468.3516 L86.5,468.3516 M73.5,487.3516 L60.5,502.3516 M73.5,487.3516 L86.5,502.3516 " fill="none" filter="url(#ftglylio4n7dh)" style="stroke: #A80036; stroke-width: 2.0;"/><text fill="#000000" font-family="sans-serif" font-size="14" lengthAdjust="spacingAndGlyphs" textLength="126" x="134" y="113.292">InterfMenúUsuario</text><path d="M179.5,72.2969 L179.5,96.2969 M179.5,84.2969 L196.5,84.2969 " fill="none" filter="url(#ftglylio4n7dh)" style="stroke: #A80036; stroke-width: 2.0;"/><ellipse cx="208.5" cy="84.2969" fill="#FEFECE" filter="url(#ftglylio4n7dh)" rx="12" ry="12" style="stroke: #A80036; stroke-width: 2.0;"/><text fill="#000000" font-family="sans-serif" font-size="14" lengthAdjust="spacingAndGlyphs" textLength="126" x="134" y="439.0498">InterfMenúUsuario</text><path d="M179.5,446.3516 L179.5,470.3516 M179.5,458.3516 L196.5,458.3516 " fill="none" filter="url(#ftglylio4n7dh)" style="stroke: #A80036; stroke-width: 2.0;"/><ellipse cx="208.5" cy="458.3516" fill="#FEFECE" filter="url(#ftglylio4n7dh)" rx="12" ry="12" style="stroke: #A80036; stroke-width: 2.0;"/><text fill="#000000" font-family="sans-serif" font-size="14" lengthAdjust="spacingAndGlyphs" textLength="55" x="289.5" y="113.292">Sistema</text><ellipse cx="320" cy="84.2969" fill="#FEFECE" filter="url(#ftglylio4n7dh)" rx="12" ry="12" style="stroke: #A80036; stroke-width: 2.0;"/><polygon fill="#A80036" points="316,72.2969,322,67.2969,320,72.2969,322,77.2969,316,72.2969" style="stroke: #A80036; stroke-width: 1.0;"/><text fill="#000000" font-family="sans-serif" font-size="14" lengthAdjust="spacingAndGlyphs" textLength="55" x="289.5" y="439.0498">Sistema</text><ellipse cx="320" cy="458.3516" fill="#FEFECE" filter="url(#ftglylio4n7dh)" rx="12" ry="12" style="stroke: #A80036; stroke-width: 2.0;"/><polygon fill="#A80036" points="316,446.3516,322,441.3516,320,446.3516,322,451.3516,316,446.3516" style="stroke: #A80036; stroke-width: 1.0;"/><text fill="#000000" font-family="sans-serif" font-size="14" lengthAdjust="spacingAndGlyphs" textLength="37" x="437.5" y="113.292">Mapa</text><ellipse cx="459" cy="84.2969" fill="#FEFECE" filter="url(#ftglylio4n7dh)" rx="12" ry="12" style="stroke: #A80036; stroke-width: 2.0;"/><line style="stroke: #A80036; stroke-width: 2.0;" x1="447" x2="471" y1="98.2969" y2="98.2969"/><text fill="#000000" font-family="sans-serif" font-size="14" lengthAdjust="spacingAndGlyphs" textLength="37" x="437.5" y="439.0498">Mapa</text><ellipse cx="459" cy="458.3516" fill="#FEFECE" filter="url(#ftglylio4n7dh)" rx="12" ry="12" style="stroke: #A80036; stroke-width: 2.0;"/><line style="stroke: #A80036; stroke-width: 2.0;" x1="447" x2="471" y1="472.3516" y2="472.3516"/><rect fill="#FFFFFF" filter="url(#ftglylio4n7dh)" height="115.0977" style="stroke: #A80036; stroke-width: 1.0;" width="10" x="195" y="147.7266"/><rect fill="#FFFFFF" filter="url(#ftglylio4n7dh)" height="85.9648" style="stroke: #A80036; stroke-width: 1.0;" width="10" x="315" y="176.8594"/><rect fill="#FFFFFF" filter="url(#ftglylio4n7dh)" height="56.832" style="stroke: #A80036; stroke-width: 1.0;" width="10" x="454" y="205.9922"/><polygon fill="#A80036" points="183,143.7266,193,147.7266,183,151.7266,187,147.7266" style="stroke: #A80036; stroke-width: 1.0;"/><line style="stroke: #A80036; stroke-width: 1.0;" x1="73.5" x2="189" y1="147.7266" y2="147.7266"/><text fill="#000000" font-family="sans-serif" font-size="13" font-weight="bold" lengthAdjust="spacingAndGlyphs" textLength="9" x="80.5" y="142.6606">1</text><text fill="#000000" font-family="sans-serif" font-size="13" lengthAdjust="spacingAndGlyphs" textLength="78" x="93.5" y="142.6606">crearMapa()</text><polygon fill="#A80036" points="303,172.8594,313,176.8594,303,180.8594,307,176.8594" style="stroke: #A80036; stroke-width: 1.0;"/><line style="stroke: #A80036; stroke-width: 1.0;" x1="205" x2="309" y1="176.8594" y2="176.8594"/><text fill="#000000" font-family="sans-serif" font-size="13" font-weight="bold" lengthAdjust="spacingAndGlyphs" textLength="9" x="212" y="171.7935">2</text><text fill="#000000" font-family="sans-serif" font-size="13" lengthAdjust="spacingAndGlyphs" textLength="78" x="225" y="171.7935">crearMapa()</text><polygon fill="#A80036" points="442,201.9922,452,205.9922,442,209.9922,446,205.9922" style="stroke: #A80036; stroke-width: 1.0;"/><line style="stroke: #A80036; stroke-width: 1.0;" x1="325" x2="448" y1="205.9922" y2="205.9922"/><text fill="#000000" font-family="sans-serif" font-size="13" font-weight="bold" lengthAdjust="spacingAndGlyphs" textLength="9" x="332" y="200.9263">3</text><text fill="#000000" font-family="sans-serif" font-size="13" lengthAdjust="spacingAndGlyphs" textLength="79" x="345" y="200.9263">AñadirSala()</text><polygon fill="#FF0000" points="331,258.8242,321,262.8242,331,266.8242,327,262.8242" style="stroke: #FF0000; stroke-width: 1.0;"/><line style="stroke: #FF0000; stroke-width: 1.0;" x1="325" x2="458" y1="262.8242" y2="262.8242"/><text fill="#000000" font-family="sans-serif" font-size="13" font-weight="bold" lengthAdjust="spacingAndGlyphs" textLength="9" x="337" y="257.7583">4</text><text fill="#000000" font-family="sans-serif" font-size="13" lengthAdjust="spacingAndGlyphs" textLength="92" x="350" y="257.7583">confirmacion()</text><path d="M469,218.9922 L469,288.9922 L581,288.9922 L581,228.9922 L571,218.9922 L469,218.9922 " fill="#FBFB77" filter="url(#ftglylio4n7dh)" style="stroke: #A80036; stroke-width: 1.0;"/><path d="M571,218.9922 L571,228.9922 L581,228.9922 L571,218.9922 " fill="#FBFB77" style="stroke: #A80036; stroke-width: 1.0;"/><text fill="#000000" font-family="sans-serif" font-size="13" lengthAdjust="spacingAndGlyphs" textLength="91" x="475" y="236.0591">Se añaden las</text><text fill="#000000" font-family="sans-serif" font-size="13" lengthAdjust="spacingAndGlyphs" textLength="89" x="475" y="251.1919">salas al mapa</text><text fill="#000000" font-family="sans-serif" font-size="13" lengthAdjust="spacingAndGlyphs" textLength="73" x="475" y="266.3247">y retorna la</text><text fill="#000000" font-family="sans-serif" font-size="13" lengthAdjust="spacingAndGlyphs" textLength="82" x="475" y="281.4575">confirmación</text><path d="M13,305.5234 L77,305.5234 L77,312.5234 L67,322.5234 L13,322.5234 L13,305.5234 " fill="#EEEEEE" style="stroke: #000000; stroke-width: 1.0;"/><rect fill="none" height="104.5313" style="stroke: #000000; stroke-width: 2.0;" width="477.5" x="13" y="305.5234"/><text fill="#000000" font-family="sans-serif" font-size="13" font-weight="bold" lengthAdjust="spacingAndGlyphs" textLength="19" x="28" y="318.5903">alt</text><text fill="#000000" font-family="sans-serif" font-size="11" font-weight="bold" lengthAdjust="spacingAndGlyphs" textLength="121" x="92" y="317.7339">[MapaYaExistente]</text><polygon fill="#008000" points="331,339.7891,321,343.7891,331,347.7891,327,343.7891" style="stroke: #008000; stroke-width: 1.0;"/><line style="stroke: #008000; stroke-width: 1.0;" x1="325" x2="458" y1="343.7891" y2="343.7891"/><text fill="#000000" font-family="sans-serif" font-size="13" font-weight="bold" lengthAdjust="spacingAndGlyphs" textLength="9" x="337" y="338.7231">5</text><text fill="#000000" font-family="sans-serif" font-size="13" lengthAdjust="spacingAndGlyphs" textLength="92" x="350" y="338.7231">confirmacion()</text><polygon fill="#008000" points="211,368.9219,201,372.9219,211,376.9219,207,372.9219" style="stroke: #008000; stroke-width: 1.0;"/><line style="stroke: #008000; stroke-width: 1.0;" x1="205" x2="319" y1="372.9219" y2="372.9219"/><text fill="#000000" font-family="sans-serif" font-size="13" font-weight="bold" lengthAdjust="spacingAndGlyphs" textLength="9" x="217" y="367.856">6</text><text fill="#000000" font-family="sans-serif" font-size="13" lengthAdjust="spacingAndGlyphs" textLength="41" x="230" y="367.856">error()</text><polygon fill="#008000" points="84.5,398.0547,74.5,402.0547,84.5,406.0547,80.5,402.0547" style="stroke: #008000; stroke-width: 1.0;"/><line style="stroke: #008000; stroke-width: 1.0;" x1="78.5" x2="199" y1="402.0547" y2="402.0547"/><text fill="#000000" font-family="sans-serif" font-size="13" font-weight="bold" lengthAdjust="spacingAndGlyphs" textLength="9" x="90.5" y="396.9888">7</text><text fill="#000000" font-family="sans-serif" font-size="13" lengthAdjust="spacingAndGlyphs" textLength="41" x="103.5" y="396.9888">error()</text><!--
@startuml
title Diagrama de secuencia - Crear mapa
autonumber
actor Administrador
boundary InterfMenúUsuario
control Sistema
entity Mapa

Administrador -> InterfMenúUsuario : crearMapa()
activate InterfMenúUsuario
InterfMenúUsuario -> Sistema : crearMapa()
activate Sistema
Sistema -> Mapa : AñadirSala()
activate Mapa
Mapa -[#red]> Sistema : confirmacion()
note right 
Se añaden las
salas al mapa
y retorna la
confirmación
end note



deactivate Mapa
deactivate Sistema
deactivate InterfMenúUsuario
alt MapaYaExistente
Mapa -[#green]> Sistema : confirmacion()
Sistema -[#green]> InterfMenúUsuario : error()
InterfMenúUsuario -[#green]> Administrador : error()
end
@enduml

PlantUML version 1.2019.05(Sat Apr 20 16:45:36 UTC 2019)
(GPL source distribution)
Java Runtime: Java(TM) SE Runtime Environment
JVM: Java HotSpot(TM) 64-Bit Server VM
Java Version: 1.7.0_25-b15
Operating System: Linux
Default Encoding: UTF-8
Language: en
Country: US
--></g></svg>