<?xml version="1.0" encoding="UTF-8" standalone="no"?><svg xmlns="http://www.w3.org/2000/svg" xmlns:xlink="http://www.w3.org/1999/xlink" contentScriptType="application/ecmascript" contentStyleType="text/css" height="615px" preserveAspectRatio="none" style="width:680px;height:615px;" version="1.1" viewBox="0 0 680 615" width="680px" zoomAndPan="magnify"><defs><filter height="300%" id="f1c5669sal97go" width="300%" x="-1" y="-1"><feGaussianBlur result="blurOut" stdDeviation="2.0"/><feColorMatrix in="blurOut" result="blurOut2" type="matrix" values="0 0 0 0 0 0 0 0 0 0 0 0 0 0 0 0 0 0 .4 0"/><feOffset dx="4.0" dy="4.0" in="blurOut2" result="blurOut3"/><feBlend in="SourceGraphic" in2="blurOut3" mode="normal"/></filter></defs><g><text fill="#000000" font-family="sans-serif" font-size="14" font-weight="bold" lengthAdjust="spacingAndGlyphs" textLength="404" x="140.5" y="22.9951">Diagrama de secuencia - Modificar datos de cuenta</text><rect fill="#FFFFFF" filter="url(#f1c5669sal97go)" height="130.2305" style="stroke: #A80036; stroke-width: 1.0;" width="10" x="199" y="147.7266"/><rect fill="#FFFFFF" filter="url(#f1c5669sal97go)" height="101.0977" style="stroke: #A80036; stroke-width: 1.0;" width="10" x="356" y="176.8594"/><rect fill="#FFFFFF" filter="url(#f1c5669sal97go)" height="71.9648" style="stroke: #A80036; stroke-width: 1.0;" width="10" x="513" y="205.9922"/><rect fill="#FFFFFF" filter="url(#f1c5669sal97go)" height="175.0625" style="stroke: #000000; stroke-width: 2.0;" width="566.5" x="13" y="335.7891"/><line style="stroke: #A80036; stroke-width: 1.0; stroke-dasharray: 5.0,5.0;" x1="52" x2="52" y1="116.5938" y2="527.8516"/><line style="stroke: #A80036; stroke-width: 1.0; stroke-dasharray: 5.0,5.0;" x1="204" x2="204" y1="116.5938" y2="527.8516"/><line style="stroke: #A80036; stroke-width: 1.0; stroke-dasharray: 5.0,5.0;" x1="360.5" x2="360.5" y1="116.5938" y2="527.8516"/><line style="stroke: #A80036; stroke-width: 1.0; stroke-dasharray: 5.0,5.0;" x1="517.5" x2="517.5" y1="116.5938" y2="527.8516"/><text fill="#000000" font-family="sans-serif" font-size="14" lengthAdjust="spacingAndGlyphs" textLength="52" x="23" y="113.292">Jugador</text><ellipse cx="52" cy="43.2969" fill="#FEFECE" filter="url(#f1c5669sal97go)" rx="8" ry="8" style="stroke: #A80036; stroke-width: 2.0;"/><path d="M52,51.2969 L52,78.2969 M39,59.2969 L65,59.2969 M52,78.2969 L39,93.2969 M52,78.2969 L65,93.2969 " fill="none" filter="url(#f1c5669sal97go)" style="stroke: #A80036; stroke-width: 2.0;"/><text fill="#000000" font-family="sans-serif" font-size="14" lengthAdjust="spacingAndGlyphs" textLength="52" x="23" y="539.8467">Jugador</text><ellipse cx="52" cy="553.1484" fill="#FEFECE" filter="url(#f1c5669sal97go)" rx="8" ry="8" style="stroke: #A80036; stroke-width: 2.0;"/><path d="M52,561.1484 L52,588.1484 M39,569.1484 L65,569.1484 M52,588.1484 L39,603.1484 M52,588.1484 L65,603.1484 " fill="none" filter="url(#f1c5669sal97go)" style="stroke: #A80036; stroke-width: 2.0;"/><text fill="#000000" font-family="sans-serif" font-size="14" lengthAdjust="spacingAndGlyphs" textLength="126" x="138" y="113.292">InterfMenúUsuario</text><path d="M183.5,72.2969 L183.5,96.2969 M183.5,84.2969 L200.5,84.2969 " fill="none" filter="url(#f1c5669sal97go)" style="stroke: #A80036; stroke-width: 2.0;"/><ellipse cx="212.5" cy="84.2969" fill="#FEFECE" filter="url(#f1c5669sal97go)" rx="12" ry="12" style="stroke: #A80036; stroke-width: 2.0;"/><text fill="#000000" font-family="sans-serif" font-size="14" lengthAdjust="spacingAndGlyphs" textLength="126" x="138" y="539.8467">InterfMenúUsuario</text><path d="M183.5,547.1484 L183.5,571.1484 M183.5,559.1484 L200.5,559.1484 " fill="none" filter="url(#f1c5669sal97go)" style="stroke: #A80036; stroke-width: 2.0;"/><ellipse cx="212.5" cy="559.1484" fill="#FEFECE" filter="url(#f1c5669sal97go)" rx="12" ry="12" style="stroke: #A80036; stroke-width: 2.0;"/><text fill="#000000" font-family="sans-serif" font-size="14" lengthAdjust="spacingAndGlyphs" textLength="55" x="330.5" y="113.292">Sistema</text><ellipse cx="361" cy="84.2969" fill="#FEFECE" filter="url(#f1c5669sal97go)" rx="12" ry="12" style="stroke: #A80036; stroke-width: 2.0;"/><polygon fill="#A80036" points="357,72.2969,363,67.2969,361,72.2969,363,77.2969,357,72.2969" style="stroke: #A80036; stroke-width: 1.0;"/><text fill="#000000" font-family="sans-serif" font-size="14" lengthAdjust="spacingAndGlyphs" textLength="55" x="330.5" y="539.8467">Sistema</text><ellipse cx="361" cy="559.1484" fill="#FEFECE" filter="url(#f1c5669sal97go)" rx="12" ry="12" style="stroke: #A80036; stroke-width: 2.0;"/><polygon fill="#A80036" points="357,547.1484,363,542.1484,361,547.1484,363,552.1484,357,547.1484" style="stroke: #A80036; stroke-width: 1.0;"/><text fill="#000000" font-family="sans-serif" font-size="14" lengthAdjust="spacingAndGlyphs" textLength="97" x="466.5" y="113.292">entity_Jugador</text><ellipse cx="518" cy="84.2969" fill="#FEFECE" filter="url(#f1c5669sal97go)" rx="12" ry="12" style="stroke: #A80036; stroke-width: 2.0;"/><line style="stroke: #A80036; stroke-width: 2.0;" x1="506" x2="530" y1="98.2969" y2="98.2969"/><text fill="#000000" font-family="sans-serif" font-size="14" lengthAdjust="spacingAndGlyphs" textLength="97" x="466.5" y="539.8467">entity_Jugador</text><ellipse cx="518" cy="559.1484" fill="#FEFECE" filter="url(#f1c5669sal97go)" rx="12" ry="12" style="stroke: #A80036; stroke-width: 2.0;"/><line style="stroke: #A80036; stroke-width: 2.0;" x1="506" x2="530" y1="573.1484" y2="573.1484"/><rect fill="#FFFFFF" filter="url(#f1c5669sal97go)" height="130.2305" style="stroke: #A80036; stroke-width: 1.0;" width="10" x="199" y="147.7266"/><rect fill="#FFFFFF" filter="url(#f1c5669sal97go)" height="101.0977" style="stroke: #A80036; stroke-width: 1.0;" width="10" x="356" y="176.8594"/><rect fill="#FFFFFF" filter="url(#f1c5669sal97go)" height="71.9648" style="stroke: #A80036; stroke-width: 1.0;" width="10" x="513" y="205.9922"/><polygon fill="#A80036" points="187,143.7266,197,147.7266,187,151.7266,191,147.7266" style="stroke: #A80036; stroke-width: 1.0;"/><line style="stroke: #A80036; stroke-width: 1.0;" x1="52" x2="193" y1="147.7266" y2="147.7266"/><text fill="#000000" font-family="sans-serif" font-size="13" font-weight="bold" lengthAdjust="spacingAndGlyphs" textLength="9" x="59" y="142.6606">1</text><text fill="#000000" font-family="sans-serif" font-size="13" lengthAdjust="spacingAndGlyphs" textLength="115" x="72" y="142.6606">modificarCuenta()</text><polygon fill="#A80036" points="344,172.8594,354,176.8594,344,180.8594,348,176.8594" style="stroke: #A80036; stroke-width: 1.0;"/><line style="stroke: #A80036; stroke-width: 1.0;" x1="209" x2="350" y1="176.8594" y2="176.8594"/><text fill="#000000" font-family="sans-serif" font-size="13" font-weight="bold" lengthAdjust="spacingAndGlyphs" textLength="9" x="216" y="171.7935">2</text><text fill="#000000" font-family="sans-serif" font-size="13" lengthAdjust="spacingAndGlyphs" textLength="115" x="229" y="171.7935">modificarCuenta()</text><polygon fill="#A80036" points="501,201.9922,511,205.9922,501,209.9922,505,205.9922" style="stroke: #A80036; stroke-width: 1.0;"/><line style="stroke: #A80036; stroke-width: 1.0;" x1="366" x2="507" y1="205.9922" y2="205.9922"/><text fill="#000000" font-family="sans-serif" font-size="13" font-weight="bold" lengthAdjust="spacingAndGlyphs" textLength="9" x="373" y="200.9263">3</text><text fill="#000000" font-family="sans-serif" font-size="13" lengthAdjust="spacingAndGlyphs" textLength="115" x="386" y="200.9263">modificarCuenta()</text><polygon fill="#FF0000" points="372,273.957,362,277.957,372,281.957,368,277.957" style="stroke: #FF0000; stroke-width: 1.0;"/><line style="stroke: #FF0000; stroke-width: 1.0;" x1="366" x2="517" y1="277.957" y2="277.957"/><text fill="#000000" font-family="sans-serif" font-size="13" font-weight="bold" lengthAdjust="spacingAndGlyphs" textLength="9" x="378" y="272.8911">4</text><text fill="#000000" font-family="sans-serif" font-size="13" lengthAdjust="spacingAndGlyphs" textLength="92" x="391" y="272.8911">confirmacion()</text><path d="M528,218.9922 L528,318.9922 L668,318.9922 L668,228.9922 L658,218.9922 L528,218.9922 " fill="#FBFB77" filter="url(#f1c5669sal97go)" style="stroke: #A80036; stroke-width: 1.0;"/><path d="M658,218.9922 L658,228.9922 L668,228.9922 L658,218.9922 " fill="#FBFB77" style="stroke: #A80036; stroke-width: 1.0;"/><text fill="#000000" font-family="sans-serif" font-size="13" lengthAdjust="spacingAndGlyphs" textLength="114" x="534" y="236.0591">El sistema recoge</text><text fill="#000000" font-family="sans-serif" font-size="13" lengthAdjust="spacingAndGlyphs" textLength="119" x="534" y="251.1919">los datos recibidos</text><text fill="#000000" font-family="sans-serif" font-size="13" lengthAdjust="spacingAndGlyphs" textLength="85" x="534" y="266.3247">y los añade a</text><text fill="#000000" font-family="sans-serif" font-size="13" lengthAdjust="spacingAndGlyphs" textLength="106" x="534" y="281.4575">la entity_Jugador</text><text fill="#000000" font-family="sans-serif" font-size="13" lengthAdjust="spacingAndGlyphs" textLength="104" x="534" y="296.5903">sustituyendo los</text><text fill="#000000" font-family="sans-serif" font-size="13" lengthAdjust="spacingAndGlyphs" textLength="65" x="534" y="311.7231">anteriores</text><path d="M13,335.7891 L77,335.7891 L77,342.7891 L67,352.7891 L13,352.7891 L13,335.7891 " fill="#EEEEEE" style="stroke: #000000; stroke-width: 1.0;"/><rect fill="none" height="175.0625" style="stroke: #000000; stroke-width: 2.0;" width="566.5" x="13" y="335.7891"/><text fill="#000000" font-family="sans-serif" font-size="13" font-weight="bold" lengthAdjust="spacingAndGlyphs" textLength="19" x="28" y="348.856">alt</text><text fill="#000000" font-family="sans-serif" font-size="11" font-weight="bold" lengthAdjust="spacingAndGlyphs" textLength="88" x="92" y="347.9995">[NoPermitido]</text><polygon fill="#008000" points="372,370.0547,362,374.0547,372,378.0547,368,374.0547" style="stroke: #008000; stroke-width: 1.0;"/><line style="stroke: #008000; stroke-width: 1.0;" x1="366" x2="517" y1="374.0547" y2="374.0547"/><text fill="#000000" font-family="sans-serif" font-size="13" font-weight="bold" lengthAdjust="spacingAndGlyphs" textLength="9" x="378" y="368.9888">5</text><text fill="#000000" font-family="sans-serif" font-size="13" lengthAdjust="spacingAndGlyphs" textLength="92" x="391" y="368.9888">confirmacion()</text><polygon fill="#008000" points="215,434.4531,205,438.4531,215,442.4531,211,438.4531" style="stroke: #008000; stroke-width: 1.0;"/><line style="stroke: #008000; stroke-width: 1.0;" x1="209" x2="360" y1="438.4531" y2="438.4531"/><text fill="#000000" font-family="sans-serif" font-size="13" font-weight="bold" lengthAdjust="spacingAndGlyphs" textLength="9" x="221" y="433.3872">6</text><text fill="#000000" font-family="sans-serif" font-size="13" lengthAdjust="spacingAndGlyphs" textLength="41" x="234" y="433.3872">error()</text><path d="M366,387.0547 L366,472.0547 L498,472.0547 L498,397.0547 L488,387.0547 L366,387.0547 " fill="#FBFB77" filter="url(#f1c5669sal97go)" style="stroke: #A80036; stroke-width: 1.0;"/><path d="M488,387.0547 L488,397.0547 L498,397.0547 L488,387.0547 " fill="#FBFB77" style="stroke: #A80036; stroke-width: 1.0;"/><text fill="#000000" font-family="sans-serif" font-size="13" lengthAdjust="spacingAndGlyphs" textLength="90" x="372" y="404.1216">En caso de no</text><text fill="#000000" font-family="sans-serif" font-size="13" lengthAdjust="spacingAndGlyphs" textLength="97" x="372" y="419.2544">tener permisos</text><text fill="#000000" font-family="sans-serif" font-size="13" lengthAdjust="spacingAndGlyphs" textLength="111" x="372" y="434.3872">para un apartado</text><text fill="#000000" font-family="sans-serif" font-size="13" lengthAdjust="spacingAndGlyphs" textLength="67" x="372" y="449.52">específico,</text><text fill="#000000" font-family="sans-serif" font-size="13" lengthAdjust="spacingAndGlyphs" textLength="107" x="372" y="464.6528">devuelve el error</text><polygon fill="#008000" points="63,498.8516,53,502.8516,63,506.8516,59,502.8516" style="stroke: #008000; stroke-width: 1.0;"/><line style="stroke: #008000; stroke-width: 1.0;" x1="57" x2="203" y1="502.8516" y2="502.8516"/><text fill="#000000" font-family="sans-serif" font-size="13" font-weight="bold" lengthAdjust="spacingAndGlyphs" textLength="9" x="69" y="497.7856">7</text><text fill="#000000" font-family="sans-serif" font-size="13" lengthAdjust="spacingAndGlyphs" textLength="41" x="82" y="497.7856">error()</text><!--
@startuml
title Diagrama de secuencia - Modificar datos de cuenta
autonumber
actor Jugador
boundary InterfMenúUsuario
control Sistema
entity entity_Jugador

Jugador -> InterfMenúUsuario : modificarCuenta()
activate InterfMenúUsuario
InterfMenúUsuario -> Sistema : modificarCuenta()
activate Sistema
Sistema -> entity_Jugador : modificarCuenta()
activate entity_Jugador
entity_Jugador -[#red]> Sistema : confirmacion()
note right 
El sistema recoge 
los datos recibidos
y los añade a 
la entity_Jugador 
sustituyendo los 
anteriores
end note


deactivate entity_Jugador
deactivate Sistema
deactivate InterfMenúUsuario
alt NoPermitido
entity_Jugador -[#green]> Sistema : confirmacion()
Sistema -[#green]> InterfMenúUsuario : error()
note right 
En caso de no
tener permisos
para un apartado
específico,
devuelve el error
end note
InterfMenúUsuario -[#green]> Jugador : error()
end
@enduml

PlantUML version 1.2019.05(Sat Apr 20 16:45:36 UTC 2019)
(GPL source distribution)
Java Runtime: Java(TM) SE Runtime Environment
JVM: Java HotSpot(TM) 64-Bit Server VM
Java Version: 1.7.0_25-b15
Operating System: Linux
Default Encoding: UTF-8
Language: en
Country: US
--></g></svg>