<?xml version="1.0" encoding="UTF-8" standalone="no"?><svg xmlns="http://www.w3.org/2000/svg" xmlns:xlink="http://www.w3.org/1999/xlink" contentScriptType="application/ecmascript" contentStyleType="text/css" height="584px" preserveAspectRatio="none" style="width:684px;height:584px;" version="1.1" viewBox="0 0 684 584" width="684px" zoomAndPan="magnify"><defs><filter height="300%" id="fe367zvyf2zdf" width="300%" x="-1" y="-1"><feGaussianBlur result="blurOut" stdDeviation="2.0"/><feColorMatrix in="blurOut" result="blurOut2" type="matrix" values="0 0 0 0 0 0 0 0 0 0 0 0 0 0 0 0 0 0 .4 0"/><feOffset dx="4.0" dy="4.0" in="blurOut2" result="blurOut3"/><feBlend in="SourceGraphic" in2="blurOut3" mode="normal"/></filter></defs><g><text fill="#000000" font-family="sans-serif" font-size="14" font-weight="bold" lengthAdjust="spacingAndGlyphs" textLength="408" x="140.75" y="22.9951">Diagrama de secuencia - Eliminar cuenta de usuario</text><rect fill="#FFFFFF" filter="url(#fe367zvyf2zdf)" height="107.5313" style="stroke: #A80036; stroke-width: 1.0;" width="10" x="228.5" y="147.7266"/><rect fill="#FFFFFF" filter="url(#fe367zvyf2zdf)" height="78.3984" style="stroke: #A80036; stroke-width: 1.0;" width="10" x="393.5" y="176.8594"/><rect fill="#FFFFFF" filter="url(#fe367zvyf2zdf)" height="49.2656" style="stroke: #A80036; stroke-width: 1.0;" width="10" x="542.5" y="205.9922"/><rect fill="#FFFFFF" filter="url(#fe367zvyf2zdf)" height="190.1953" style="stroke: #000000; stroke-width: 2.0;" width="573.5" x="13" y="290.3906"/><line style="stroke: #A80036; stroke-width: 1.0; stroke-dasharray: 5.0,5.0;" x1="73" x2="73" y1="116.5938" y2="497.5859"/><line style="stroke: #A80036; stroke-width: 1.0; stroke-dasharray: 5.0,5.0;" x1="233.5" x2="233.5" y1="116.5938" y2="497.5859"/><line style="stroke: #A80036; stroke-width: 1.0; stroke-dasharray: 5.0,5.0;" x1="398" x2="398" y1="116.5938" y2="497.5859"/><line style="stroke: #A80036; stroke-width: 1.0; stroke-dasharray: 5.0,5.0;" x1="547.5" x2="547.5" y1="116.5938" y2="497.5859"/><text fill="#000000" font-family="sans-serif" font-size="14" lengthAdjust="spacingAndGlyphs" textLength="95" x="23" y="113.292">Administrador</text><ellipse cx="73.5" cy="43.2969" fill="#FEFECE" filter="url(#fe367zvyf2zdf)" rx="8" ry="8" style="stroke: #A80036; stroke-width: 2.0;"/><path d="M73.5,51.2969 L73.5,78.2969 M60.5,59.2969 L86.5,59.2969 M73.5,78.2969 L60.5,93.2969 M73.5,78.2969 L86.5,93.2969 " fill="none" filter="url(#fe367zvyf2zdf)" style="stroke: #A80036; stroke-width: 2.0;"/><text fill="#000000" font-family="sans-serif" font-size="14" lengthAdjust="spacingAndGlyphs" textLength="95" x="23" y="509.5811">Administrador</text><ellipse cx="73.5" cy="522.8828" fill="#FEFECE" filter="url(#fe367zvyf2zdf)" rx="8" ry="8" style="stroke: #A80036; stroke-width: 2.0;"/><path d="M73.5,530.8828 L73.5,557.8828 M60.5,538.8828 L86.5,538.8828 M73.5,557.8828 L60.5,572.8828 M73.5,557.8828 L86.5,572.8828 " fill="none" filter="url(#fe367zvyf2zdf)" style="stroke: #A80036; stroke-width: 2.0;"/><text fill="#000000" font-family="sans-serif" font-size="14" lengthAdjust="spacingAndGlyphs" textLength="126" x="167.5" y="113.292">InterfMenúUsuario</text><path d="M213,72.2969 L213,96.2969 M213,84.2969 L230,84.2969 " fill="none" filter="url(#fe367zvyf2zdf)" style="stroke: #A80036; stroke-width: 2.0;"/><ellipse cx="242" cy="84.2969" fill="#FEFECE" filter="url(#fe367zvyf2zdf)" rx="12" ry="12" style="stroke: #A80036; stroke-width: 2.0;"/><text fill="#000000" font-family="sans-serif" font-size="14" lengthAdjust="spacingAndGlyphs" textLength="126" x="167.5" y="509.5811">InterfMenúUsuario</text><path d="M213,516.8828 L213,540.8828 M213,528.8828 L230,528.8828 " fill="none" filter="url(#fe367zvyf2zdf)" style="stroke: #A80036; stroke-width: 2.0;"/><ellipse cx="242" cy="528.8828" fill="#FEFECE" filter="url(#fe367zvyf2zdf)" rx="12" ry="12" style="stroke: #A80036; stroke-width: 2.0;"/><text fill="#000000" font-family="sans-serif" font-size="14" lengthAdjust="spacingAndGlyphs" textLength="55" x="368" y="113.292">Sistema</text><ellipse cx="398.5" cy="84.2969" fill="#FEFECE" filter="url(#fe367zvyf2zdf)" rx="12" ry="12" style="stroke: #A80036; stroke-width: 2.0;"/><polygon fill="#A80036" points="394.5,72.2969,400.5,67.2969,398.5,72.2969,400.5,77.2969,394.5,72.2969" style="stroke: #A80036; stroke-width: 1.0;"/><text fill="#000000" font-family="sans-serif" font-size="14" lengthAdjust="spacingAndGlyphs" textLength="55" x="368" y="509.5811">Sistema</text><ellipse cx="398.5" cy="528.8828" fill="#FEFECE" filter="url(#fe367zvyf2zdf)" rx="12" ry="12" style="stroke: #A80036; stroke-width: 2.0;"/><polygon fill="#A80036" points="394.5,516.8828,400.5,511.8828,398.5,516.8828,400.5,521.8828,394.5,516.8828" style="stroke: #A80036; stroke-width: 1.0;"/><text fill="#000000" font-family="sans-serif" font-size="14" lengthAdjust="spacingAndGlyphs" textLength="52" x="518.5" y="113.292">Jugador</text><ellipse cx="547.5" cy="84.2969" fill="#FEFECE" filter="url(#fe367zvyf2zdf)" rx="12" ry="12" style="stroke: #A80036; stroke-width: 2.0;"/><line style="stroke: #A80036; stroke-width: 2.0;" x1="535.5" x2="559.5" y1="98.2969" y2="98.2969"/><text fill="#000000" font-family="sans-serif" font-size="14" lengthAdjust="spacingAndGlyphs" textLength="52" x="518.5" y="509.5811">Jugador</text><ellipse cx="547.5" cy="528.8828" fill="#FEFECE" filter="url(#fe367zvyf2zdf)" rx="12" ry="12" style="stroke: #A80036; stroke-width: 2.0;"/><line style="stroke: #A80036; stroke-width: 2.0;" x1="535.5" x2="559.5" y1="542.8828" y2="542.8828"/><rect fill="#FFFFFF" filter="url(#fe367zvyf2zdf)" height="107.5313" style="stroke: #A80036; stroke-width: 1.0;" width="10" x="228.5" y="147.7266"/><rect fill="#FFFFFF" filter="url(#fe367zvyf2zdf)" height="78.3984" style="stroke: #A80036; stroke-width: 1.0;" width="10" x="393.5" y="176.8594"/><rect fill="#FFFFFF" filter="url(#fe367zvyf2zdf)" height="49.2656" style="stroke: #A80036; stroke-width: 1.0;" width="10" x="542.5" y="205.9922"/><polygon fill="#A80036" points="216.5,143.7266,226.5,147.7266,216.5,151.7266,220.5,147.7266" style="stroke: #A80036; stroke-width: 1.0;"/><line style="stroke: #A80036; stroke-width: 1.0;" x1="73.5" x2="222.5" y1="147.7266" y2="147.7266"/><text fill="#000000" font-family="sans-serif" font-size="13" font-weight="bold" lengthAdjust="spacingAndGlyphs" textLength="9" x="80.5" y="142.6606">1</text><text fill="#000000" font-family="sans-serif" font-size="13" lengthAdjust="spacingAndGlyphs" textLength="123" x="93.5" y="142.6606">gestionarCuentas()</text><polygon fill="#A80036" points="381.5,172.8594,391.5,176.8594,381.5,180.8594,385.5,176.8594" style="stroke: #A80036; stroke-width: 1.0;"/><line style="stroke: #A80036; stroke-width: 1.0;" x1="238.5" x2="387.5" y1="176.8594" y2="176.8594"/><text fill="#000000" font-family="sans-serif" font-size="13" font-weight="bold" lengthAdjust="spacingAndGlyphs" textLength="9" x="245.5" y="171.7935">2</text><text fill="#000000" font-family="sans-serif" font-size="13" lengthAdjust="spacingAndGlyphs" textLength="123" x="258.5" y="171.7935">gestionarCuentas()</text><polygon fill="#A80036" points="530.5,201.9922,540.5,205.9922,530.5,209.9922,534.5,205.9922" style="stroke: #A80036; stroke-width: 1.0;"/><line style="stroke: #A80036; stroke-width: 1.0;" x1="403.5" x2="536.5" y1="205.9922" y2="205.9922"/><text fill="#000000" font-family="sans-serif" font-size="13" font-weight="bold" lengthAdjust="spacingAndGlyphs" textLength="9" x="410.5" y="200.9263">3</text><text fill="#000000" font-family="sans-serif" font-size="13" lengthAdjust="spacingAndGlyphs" textLength="107" x="423.5" y="200.9263">eliminarCuenta()</text><polygon fill="#FF0000" points="409.5,251.2578,399.5,255.2578,409.5,259.2578,405.5,255.2578" style="stroke: #FF0000; stroke-width: 1.0;"/><line style="stroke: #FF0000; stroke-width: 1.0;" x1="403.5" x2="546.5" y1="255.2578" y2="255.2578"/><text fill="#000000" font-family="sans-serif" font-size="13" font-weight="bold" lengthAdjust="spacingAndGlyphs" textLength="9" x="415.5" y="250.1919">4</text><text fill="#000000" font-family="sans-serif" font-size="13" lengthAdjust="spacingAndGlyphs" textLength="92" x="428.5" y="250.1919">confirmacion()</text><path d="M557,218.9922 L557,273.9922 L672,273.9922 L672,228.9922 L662,218.9922 L557,218.9922 " fill="#FBFB77" filter="url(#fe367zvyf2zdf)" style="stroke: #A80036; stroke-width: 1.0;"/><path d="M662,218.9922 L662,228.9922 L672,228.9922 L662,218.9922 " fill="#FBFB77" style="stroke: #A80036; stroke-width: 1.0;"/><text fill="#000000" font-family="sans-serif" font-size="13" lengthAdjust="spacingAndGlyphs" textLength="94" x="563" y="236.0591">Se comprueba</text><text fill="#000000" font-family="sans-serif" font-size="13" lengthAdjust="spacingAndGlyphs" textLength="73" x="563" y="251.1919">si la cuenta</text><text fill="#000000" font-family="sans-serif" font-size="13" lengthAdjust="spacingAndGlyphs" textLength="70" x="563" y="266.3247">existe o no</text><path d="M13,290.3906 L77,290.3906 L77,297.3906 L67,307.3906 L13,307.3906 L13,290.3906 " fill="#EEEEEE" style="stroke: #000000; stroke-width: 1.0;"/><rect fill="none" height="190.1953" style="stroke: #000000; stroke-width: 2.0;" width="573.5" x="13" y="290.3906"/><text fill="#000000" font-family="sans-serif" font-size="13" font-weight="bold" lengthAdjust="spacingAndGlyphs" textLength="19" x="28" y="303.4575">alt</text><text fill="#000000" font-family="sans-serif" font-size="11" font-weight="bold" lengthAdjust="spacingAndGlyphs" textLength="148" x="92" y="302.6011">[NoPermitido/NoExiste]</text><polygon fill="#008000" points="409.5,324.6563,399.5,328.6563,409.5,332.6563,405.5,328.6563" style="stroke: #008000; stroke-width: 1.0;"/><line style="stroke: #008000; stroke-width: 1.0;" x1="403.5" x2="546.5" y1="328.6563" y2="328.6563"/><text fill="#000000" font-family="sans-serif" font-size="13" font-weight="bold" lengthAdjust="spacingAndGlyphs" textLength="9" x="415.5" y="323.5903">5</text><text fill="#000000" font-family="sans-serif" font-size="13" lengthAdjust="spacingAndGlyphs" textLength="92" x="428.5" y="323.5903">confirmacion()</text><polygon fill="#008000" points="244.5,396.6211,234.5,400.6211,244.5,404.6211,240.5,400.6211" style="stroke: #008000; stroke-width: 1.0;"/><line style="stroke: #008000; stroke-width: 1.0;" x1="238.5" x2="397.5" y1="400.6211" y2="400.6211"/><text fill="#000000" font-family="sans-serif" font-size="13" font-weight="bold" lengthAdjust="spacingAndGlyphs" textLength="9" x="250.5" y="395.5552">6</text><text fill="#000000" font-family="sans-serif" font-size="13" lengthAdjust="spacingAndGlyphs" textLength="41" x="263.5" y="395.5552">error()</text><path d="M403,341.6563 L403,441.6563 L535,441.6563 L535,351.6563 L525,341.6563 L403,341.6563 " fill="#FBFB77" filter="url(#fe367zvyf2zdf)" style="stroke: #A80036; stroke-width: 1.0;"/><path d="M525,341.6563 L525,351.6563 L535,351.6563 L525,341.6563 " fill="#FBFB77" style="stroke: #A80036; stroke-width: 1.0;"/><text fill="#000000" font-family="sans-serif" font-size="13" lengthAdjust="spacingAndGlyphs" textLength="90" x="409" y="358.7231">En caso de no</text><text fill="#000000" font-family="sans-serif" font-size="13" lengthAdjust="spacingAndGlyphs" textLength="97" x="409" y="373.856">tener permisos</text><text fill="#000000" font-family="sans-serif" font-size="13" lengthAdjust="spacingAndGlyphs" textLength="111" x="409" y="388.9888">para un apartado</text><text fill="#000000" font-family="sans-serif" font-size="13" lengthAdjust="spacingAndGlyphs" textLength="99" x="409" y="404.1216">específico, o no</text><text fill="#000000" font-family="sans-serif" font-size="13" lengthAdjust="spacingAndGlyphs" textLength="99" x="409" y="419.2544">existir devuelve</text><text fill="#000000" font-family="sans-serif" font-size="13" lengthAdjust="spacingAndGlyphs" textLength="46" x="409" y="434.3872">el error</text><polygon fill="#008000" points="84.5,468.5859,74.5,472.5859,84.5,476.5859,80.5,472.5859" style="stroke: #008000; stroke-width: 1.0;"/><line style="stroke: #008000; stroke-width: 1.0;" x1="78.5" x2="232.5" y1="472.5859" y2="472.5859"/><text fill="#000000" font-family="sans-serif" font-size="13" font-weight="bold" lengthAdjust="spacingAndGlyphs" textLength="9" x="90.5" y="467.52">7</text><text fill="#000000" font-family="sans-serif" font-size="13" lengthAdjust="spacingAndGlyphs" textLength="41" x="103.5" y="467.52">error()</text><!--
@startuml
title Diagrama de secuencia - Eliminar cuenta de usuario
autonumber
actor Administrador
boundary InterfMenúUsuario
control Sistema
entity Jugador

Administrador -> InterfMenúUsuario : gestionarCuentas()
activate InterfMenúUsuario
InterfMenúUsuario -> Sistema : gestionarCuentas()
activate Sistema
Sistema -> Jugador : eliminarCuenta()
activate Jugador
Jugador -[#red]> Sistema : confirmacion()
note right 
Se comprueba
si la cuenta
existe o no
end note


deactivate Jugador
deactivate Sistema
deactivate InterfMenúUsuario
alt NoPermitido/NoExiste
Jugador -[#green]> Sistema : confirmacion()
Sistema -[#green]> InterfMenúUsuario : error()
note right 
En caso de no
tener permisos
para un apartado
específico, o no
existir devuelve 
el error
end note
InterfMenúUsuario -[#green]> Administrador : error()
end
@enduml

PlantUML version 1.2019.05(Sat Apr 20 16:45:36 UTC 2019)
(GPL source distribution)
Java Runtime: Java(TM) SE Runtime Environment
JVM: Java HotSpot(TM) 64-Bit Server VM
Java Version: 1.7.0_25-b15
Operating System: Linux
Default Encoding: UTF-8
Language: en
Country: US
--></g></svg>