<?xml version="1.0" encoding="UTF-8" standalone="no"?><svg xmlns="http://www.w3.org/2000/svg" xmlns:xlink="http://www.w3.org/1999/xlink" contentScriptType="application/ecmascript" contentStyleType="text/css" height="586px" preserveAspectRatio="none" style="width:743px;height:586px;" version="1.1" viewBox="0 0 743 586" width="743px" zoomAndPan="magnify"><defs><filter height="300%" id="fe4pes9pjcfge" width="300%" x="-1" y="-1"><feGaussianBlur result="blurOut" stdDeviation="2.0"/><feColorMatrix in="blurOut" result="blurOut2" type="matrix" values="0 0 0 0 0 0 0 0 0 0 0 0 0 0 0 0 0 0 .4 0"/><feOffset dx="4.0" dy="4.0" in="blurOut2" result="blurOut3"/><feBlend in="SourceGraphic" in2="blurOut3" mode="normal"/></filter></defs><g><text fill="#000000" font-family="sans-serif" font-size="14" font-weight="bold" lengthAdjust="spacingAndGlyphs" textLength="336" x="203.75" y="22.9951">Diagrama de secuencia - Crear una cuenta</text><rect fill="#FFFFFF" filter="url(#fe4pes9pjcfge)" height="215.0625" style="stroke: #A80036; stroke-width: 1.0;" width="10" x="208.5" y="147.7266"/><rect fill="#FFFFFF" filter="url(#fe4pes9pjcfge)" height="185.9297" style="stroke: #A80036; stroke-width: 1.0;" width="10" x="366.5" y="176.8594"/><rect fill="#FFFFFF" filter="url(#fe4pes9pjcfge)" height="156.7969" style="stroke: #A80036; stroke-width: 1.0;" width="10" x="522.5" y="205.9922"/><rect fill="#FFFFFF" filter="url(#fe4pes9pjcfge)" height="104.5313" style="stroke: #000000; stroke-width: 2.0;" width="576" x="13" y="377.7891"/><line style="stroke: #A80036; stroke-width: 1.0; stroke-dasharray: 5.0,5.0;" x1="73" x2="73" y1="116.5938" y2="499.3203"/><line style="stroke: #A80036; stroke-width: 1.0; stroke-dasharray: 5.0,5.0;" x1="213.5" x2="213.5" y1="116.5938" y2="499.3203"/><line style="stroke: #A80036; stroke-width: 1.0; stroke-dasharray: 5.0,5.0;" x1="371" x2="371" y1="116.5938" y2="499.3203"/><line style="stroke: #A80036; stroke-width: 1.0; stroke-dasharray: 5.0,5.0;" x1="527" x2="527" y1="116.5938" y2="499.3203"/><text fill="#000000" font-family="sans-serif" font-size="14" lengthAdjust="spacingAndGlyphs" textLength="95" x="23" y="113.292">Administrador</text><ellipse cx="73.5" cy="43.2969" fill="#FEFECE" filter="url(#fe4pes9pjcfge)" rx="8" ry="8" style="stroke: #A80036; stroke-width: 2.0;"/><path d="M73.5,51.2969 L73.5,78.2969 M60.5,59.2969 L86.5,59.2969 M73.5,78.2969 L60.5,93.2969 M73.5,78.2969 L86.5,93.2969 " fill="none" filter="url(#fe4pes9pjcfge)" style="stroke: #A80036; stroke-width: 2.0;"/><text fill="#000000" font-family="sans-serif" font-size="14" lengthAdjust="spacingAndGlyphs" textLength="95" x="23" y="511.3154">Administrador</text><ellipse cx="73.5" cy="524.6172" fill="#FEFECE" filter="url(#fe4pes9pjcfge)" rx="8" ry="8" style="stroke: #A80036; stroke-width: 2.0;"/><path d="M73.5,532.6172 L73.5,559.6172 M60.5,540.6172 L86.5,540.6172 M73.5,559.6172 L60.5,574.6172 M73.5,559.6172 L86.5,574.6172 " fill="none" filter="url(#fe4pes9pjcfge)" style="stroke: #A80036; stroke-width: 2.0;"/><text fill="#000000" font-family="sans-serif" font-size="14" lengthAdjust="spacingAndGlyphs" textLength="126" x="147.5" y="113.292">InterfMenúUsuario</text><path d="M193,72.2969 L193,96.2969 M193,84.2969 L210,84.2969 " fill="none" filter="url(#fe4pes9pjcfge)" style="stroke: #A80036; stroke-width: 2.0;"/><ellipse cx="222" cy="84.2969" fill="#FEFECE" filter="url(#fe4pes9pjcfge)" rx="12" ry="12" style="stroke: #A80036; stroke-width: 2.0;"/><text fill="#000000" font-family="sans-serif" font-size="14" lengthAdjust="spacingAndGlyphs" textLength="126" x="147.5" y="511.3154">InterfMenúUsuario</text><path d="M193,518.6172 L193,542.6172 M193,530.6172 L210,530.6172 " fill="none" filter="url(#fe4pes9pjcfge)" style="stroke: #A80036; stroke-width: 2.0;"/><ellipse cx="222" cy="530.6172" fill="#FEFECE" filter="url(#fe4pes9pjcfge)" rx="12" ry="12" style="stroke: #A80036; stroke-width: 2.0;"/><text fill="#000000" font-family="sans-serif" font-size="14" lengthAdjust="spacingAndGlyphs" textLength="55" x="341" y="113.292">Sistema</text><ellipse cx="371.5" cy="84.2969" fill="#FEFECE" filter="url(#fe4pes9pjcfge)" rx="12" ry="12" style="stroke: #A80036; stroke-width: 2.0;"/><polygon fill="#A80036" points="367.5,72.2969,373.5,67.2969,371.5,72.2969,373.5,77.2969,367.5,72.2969" style="stroke: #A80036; stroke-width: 1.0;"/><text fill="#000000" font-family="sans-serif" font-size="14" lengthAdjust="spacingAndGlyphs" textLength="55" x="341" y="511.3154">Sistema</text><ellipse cx="371.5" cy="530.6172" fill="#FEFECE" filter="url(#fe4pes9pjcfge)" rx="12" ry="12" style="stroke: #A80036; stroke-width: 2.0;"/><polygon fill="#A80036" points="367.5,518.6172,373.5,513.6172,371.5,518.6172,373.5,523.6172,367.5,518.6172" style="stroke: #A80036; stroke-width: 1.0;"/><text fill="#000000" font-family="sans-serif" font-size="14" lengthAdjust="spacingAndGlyphs" textLength="97" x="476" y="113.292">entity_Jugador</text><ellipse cx="527.5" cy="84.2969" fill="#FEFECE" filter="url(#fe4pes9pjcfge)" rx="12" ry="12" style="stroke: #A80036; stroke-width: 2.0;"/><line style="stroke: #A80036; stroke-width: 2.0;" x1="515.5" x2="539.5" y1="98.2969" y2="98.2969"/><text fill="#000000" font-family="sans-serif" font-size="14" lengthAdjust="spacingAndGlyphs" textLength="97" x="476" y="511.3154">entity_Jugador</text><ellipse cx="527.5" cy="530.6172" fill="#FEFECE" filter="url(#fe4pes9pjcfge)" rx="12" ry="12" style="stroke: #A80036; stroke-width: 2.0;"/><line style="stroke: #A80036; stroke-width: 2.0;" x1="515.5" x2="539.5" y1="544.6172" y2="544.6172"/><rect fill="#FFFFFF" filter="url(#fe4pes9pjcfge)" height="215.0625" style="stroke: #A80036; stroke-width: 1.0;" width="10" x="208.5" y="147.7266"/><rect fill="#FFFFFF" filter="url(#fe4pes9pjcfge)" height="185.9297" style="stroke: #A80036; stroke-width: 1.0;" width="10" x="366.5" y="176.8594"/><rect fill="#FFFFFF" filter="url(#fe4pes9pjcfge)" height="156.7969" style="stroke: #A80036; stroke-width: 1.0;" width="10" x="522.5" y="205.9922"/><polygon fill="#A80036" points="196.5,143.7266,206.5,147.7266,196.5,151.7266,200.5,147.7266" style="stroke: #A80036; stroke-width: 1.0;"/><line style="stroke: #A80036; stroke-width: 1.0;" x1="73.5" x2="202.5" y1="147.7266" y2="147.7266"/><text fill="#000000" font-family="sans-serif" font-size="13" font-weight="bold" lengthAdjust="spacingAndGlyphs" textLength="9" x="80.5" y="142.6606">1</text><text fill="#000000" font-family="sans-serif" font-size="13" lengthAdjust="spacingAndGlyphs" textLength="91" x="93.5" y="142.6606">CrearCuenta()</text><polygon fill="#A80036" points="354.5,172.8594,364.5,176.8594,354.5,180.8594,358.5,176.8594" style="stroke: #A80036; stroke-width: 1.0;"/><line style="stroke: #A80036; stroke-width: 1.0;" x1="218.5" x2="360.5" y1="176.8594" y2="176.8594"/><text fill="#000000" font-family="sans-serif" font-size="13" font-weight="bold" lengthAdjust="spacingAndGlyphs" textLength="9" x="225.5" y="171.7935">2</text><text fill="#000000" font-family="sans-serif" font-size="13" lengthAdjust="spacingAndGlyphs" textLength="116" x="238.5" y="171.7935">comprobarDispo()</text><polygon fill="#A80036" points="510.5,201.9922,520.5,205.9922,510.5,209.9922,514.5,205.9922" style="stroke: #A80036; stroke-width: 1.0;"/><line style="stroke: #A80036; stroke-width: 1.0;" x1="376.5" x2="516.5" y1="205.9922" y2="205.9922"/><text fill="#000000" font-family="sans-serif" font-size="13" font-weight="bold" lengthAdjust="spacingAndGlyphs" textLength="9" x="383.5" y="200.9263">3</text><text fill="#000000" font-family="sans-serif" font-size="13" lengthAdjust="spacingAndGlyphs" textLength="113" x="396.5" y="200.9263">realizarConsulta()</text><polygon fill="#FF0000" points="387.5,251.2578,377.5,255.2578,387.5,259.2578,383.5,255.2578" style="stroke: #FF0000; stroke-width: 1.0;"/><line style="stroke: #FF0000; stroke-width: 1.0;" x1="381.5" x2="521.5" y1="255.2578" y2="255.2578"/><text fill="#000000" font-family="sans-serif" font-size="13" font-weight="bold" lengthAdjust="spacingAndGlyphs" textLength="9" x="393.5" y="250.1919">4</text><text fill="#000000" font-family="sans-serif" font-size="13" lengthAdjust="spacingAndGlyphs" textLength="92" x="406.5" y="250.1919">confirmacion()</text><path d="M537,218.9922 L537,273.9922 L731,273.9922 L731,228.9922 L721,218.9922 L537,218.9922 " fill="#FBFB77" filter="url(#fe4pes9pjcfge)" style="stroke: #A80036; stroke-width: 1.0;"/><path d="M721,218.9922 L721,228.9922 L731,228.9922 L721,218.9922 " fill="#FBFB77" style="stroke: #A80036; stroke-width: 1.0;"/><text fill="#000000" font-family="sans-serif" font-size="13" lengthAdjust="spacingAndGlyphs" textLength="169" x="543" y="236.0591">Comprueba que el usuario</text><text fill="#000000" font-family="sans-serif" font-size="13" lengthAdjust="spacingAndGlyphs" textLength="130" x="543" y="251.1919">no existe y devuelve</text><text fill="#000000" font-family="sans-serif" font-size="13" lengthAdjust="spacingAndGlyphs" textLength="77" x="543" y="266.3247">True o False</text><polygon fill="#A80036" points="196.5,300.5234,206.5,304.5234,196.5,308.5234,200.5,304.5234" style="stroke: #A80036; stroke-width: 1.0;"/><line style="stroke: #A80036; stroke-width: 1.0;" x1="73.5" x2="202.5" y1="304.5234" y2="304.5234"/><text fill="#000000" font-family="sans-serif" font-size="13" font-weight="bold" lengthAdjust="spacingAndGlyphs" textLength="9" x="80.5" y="299.4575">5</text><text fill="#000000" font-family="sans-serif" font-size="13" lengthAdjust="spacingAndGlyphs" textLength="98" x="93.5" y="299.4575">datosRegistro()</text><polygon fill="#A80036" points="354.5,329.6563,364.5,333.6563,354.5,337.6563,358.5,333.6563" style="stroke: #A80036; stroke-width: 1.0;"/><line style="stroke: #A80036; stroke-width: 1.0;" x1="218.5" x2="360.5" y1="333.6563" y2="333.6563"/><text fill="#000000" font-family="sans-serif" font-size="13" font-weight="bold" lengthAdjust="spacingAndGlyphs" textLength="9" x="225.5" y="328.5903">6</text><text fill="#000000" font-family="sans-serif" font-size="13" lengthAdjust="spacingAndGlyphs" textLength="98" x="238.5" y="328.5903">datosRegistro()</text><polygon fill="#A80036" points="515.5,358.7891,525.5,362.7891,515.5,366.7891,519.5,362.7891" style="stroke: #A80036; stroke-width: 1.0;"/><line style="stroke: #A80036; stroke-width: 1.0;" x1="371.5" x2="521.5" y1="362.7891" y2="362.7891"/><text fill="#000000" font-family="sans-serif" font-size="13" font-weight="bold" lengthAdjust="spacingAndGlyphs" textLength="9" x="378.5" y="357.7231">7</text><text fill="#000000" font-family="sans-serif" font-size="13" lengthAdjust="spacingAndGlyphs" textLength="109" x="391.5" y="357.7231">realizarRegistro()</text><path d="M13,377.7891 L77,377.7891 L77,384.7891 L67,394.7891 L13,394.7891 L13,377.7891 " fill="#EEEEEE" style="stroke: #000000; stroke-width: 1.0;"/><rect fill="none" height="104.5313" style="stroke: #000000; stroke-width: 2.0;" width="576" x="13" y="377.7891"/><text fill="#000000" font-family="sans-serif" font-size="13" font-weight="bold" lengthAdjust="spacingAndGlyphs" textLength="19" x="28" y="390.856">alt</text><text fill="#000000" font-family="sans-serif" font-size="11" font-weight="bold" lengthAdjust="spacingAndGlyphs" textLength="98" x="92" y="389.9995">[UsuarioExiste]</text><polygon fill="#008000" points="382.5,412.0547,372.5,416.0547,382.5,420.0547,378.5,416.0547" style="stroke: #008000; stroke-width: 1.0;"/><line style="stroke: #008000; stroke-width: 1.0;" x1="376.5" x2="526.5" y1="416.0547" y2="416.0547"/><text fill="#000000" font-family="sans-serif" font-size="13" font-weight="bold" lengthAdjust="spacingAndGlyphs" textLength="9" x="388.5" y="410.9888">8</text><text fill="#000000" font-family="sans-serif" font-size="13" lengthAdjust="spacingAndGlyphs" textLength="92" x="401.5" y="410.9888">confirmacion()</text><polygon fill="#008000" points="224.5,441.1875,214.5,445.1875,224.5,449.1875,220.5,445.1875" style="stroke: #008000; stroke-width: 1.0;"/><line style="stroke: #008000; stroke-width: 1.0;" x1="218.5" x2="370.5" y1="445.1875" y2="445.1875"/><text fill="#000000" font-family="sans-serif" font-size="13" font-weight="bold" lengthAdjust="spacingAndGlyphs" textLength="9" x="230.5" y="440.1216">9</text><text fill="#000000" font-family="sans-serif" font-size="13" lengthAdjust="spacingAndGlyphs" textLength="41" x="243.5" y="440.1216">error()</text><polygon fill="#008000" points="84.5,470.3203,74.5,474.3203,84.5,478.3203,80.5,474.3203" style="stroke: #008000; stroke-width: 1.0;"/><line style="stroke: #008000; stroke-width: 1.0;" x1="78.5" x2="212.5" y1="474.3203" y2="474.3203"/><text fill="#000000" font-family="sans-serif" font-size="13" font-weight="bold" lengthAdjust="spacingAndGlyphs" textLength="18" x="90.5" y="469.2544">10</text><text fill="#000000" font-family="sans-serif" font-size="13" lengthAdjust="spacingAndGlyphs" textLength="41" x="112.5" y="469.2544">error()</text><!--
@startuml
title Diagrama de secuencia - Crear una cuenta
autonumber
actor Administrador
boundary InterfMenúUsuario
control Sistema
entity entity_Jugador

Administrador -> InterfMenúUsuario : CrearCuenta()
activate InterfMenúUsuario
InterfMenúUsuario -> Sistema : comprobarDispo()
activate Sistema
Sistema -> entity_Jugador : realizarConsulta()
activate entity_Jugador
entity_Jugador -[#red]> Sistema : confirmacion()
note right 
Comprueba que el usuario 
no existe y devuelve 
True o False
end note

Administrador -> InterfMenúUsuario : datosRegistro()
InterfMenúUsuario -> Sistema : datosRegistro()
Sistema -> entity_Jugador : realizarRegistro()
deactivate entity_Jugador
deactivate Sistema
deactivate InterfMenúUsuario
alt UsuarioExiste
entity_Jugador -[#green]> Sistema : confirmacion()
Sistema -[#green]> InterfMenúUsuario : error()
InterfMenúUsuario -[#green]> Administrador : error()
end
@enduml

PlantUML version 1.2019.05(Sat Apr 20 16:45:36 UTC 2019)
(GPL source distribution)
Java Runtime: Java(TM) SE Runtime Environment
JVM: Java HotSpot(TM) 64-Bit Server VM
Java Version: 1.7.0_25-b15
Operating System: Linux
Default Encoding: UTF-8
Language: en
Country: US
--></g></svg>