<?xml version="1.0" encoding="UTF-8" standalone="no"?><svg xmlns="http://www.w3.org/2000/svg" xmlns:xlink="http://www.w3.org/1999/xlink" contentScriptType="application/ecmascript" contentStyleType="text/css" height="1291px" preserveAspectRatio="none" style="width:816px;height:1291px;" version="1.1" viewBox="0 0 816 1291" width="816px" zoomAndPan="magnify"><defs><filter height="300%" id="f15y8b4yypv2pb" width="300%" x="-1" y="-1"><feGaussianBlur result="blurOut" stdDeviation="2.0"/><feColorMatrix in="blurOut" result="blurOut2" type="matrix" values="0 0 0 0 0 0 0 0 0 0 0 0 0 0 0 0 0 0 .4 0"/><feOffset dx="4.0" dy="4.0" in="blurOut2" result="blurOut3"/><feBlend in="SourceGraphic" in2="blurOut3" mode="normal"/></filter></defs><g><text fill="#000000" font-family="sans-serif" font-size="18" lengthAdjust="spacingAndGlyphs" textLength="207" x="310.5" y="16.708">Classes - Class Diagram</text><!--cluster Personas--><polygon fill="#FFFFFF" filter="url(#f15y8b4yypv2pb)" points="254,943.9531,334,943.9531,341,966.25,577,966.25,577,1279.9531,254,1279.9531,254,943.9531" style="stroke: #000000; stroke-width: 1.5;"/><line style="stroke: #000000; stroke-width: 1.5;" x1="254" x2="341" y1="966.25" y2="966.25"/><text fill="#000000" font-family="sans-serif" font-size="14" font-weight="bold" lengthAdjust="spacingAndGlyphs" textLength="74" x="258" y="958.9482">Personas</text><!--cluster ArtefactosJuego--><polygon fill="#FFFFFF" filter="url(#f15y8b4yypv2pb)" points="24.5,379.9531,157.5,379.9531,164.5,402.25,794,402.25,794,919.9531,24.5,919.9531,24.5,379.9531" style="stroke: #000000; stroke-width: 1.5;"/><line style="stroke: #000000; stroke-width: 1.5;" x1="24.5" x2="164.5" y1="402.25" y2="402.25"/><text fill="#000000" font-family="sans-serif" font-size="14" font-weight="bold" lengthAdjust="spacingAndGlyphs" textLength="127" x="28.5" y="394.9482">ArtefactosJuego</text><!--cluster Interfaces--><polygon fill="#FFFFFF" filter="url(#f15y8b4yypv2pb)" points="22,44.9531,108,44.9531,115,67.25,226,67.25,226,355.9531,22,355.9531,22,44.9531" style="stroke: #000000; stroke-width: 1.5;"/><line style="stroke: #000000; stroke-width: 1.5;" x1="22" x2="115" y1="67.25" y2="67.25"/><text fill="#000000" font-family="sans-serif" font-size="14" font-weight="bold" lengthAdjust="spacingAndGlyphs" textLength="80" x="26" y="59.9482">Interfaces</text><!--class Jugador--><rect fill="#FEFECE" filter="url(#f15y8b4yypv2pb)" height="143.5703" id="Jugador" style="stroke: #A80036; stroke-width: 1.5;" width="291" x="270" y="1119.9531"/><ellipse cx="387.25" cy="1138.9219" fill="#ADD1B2" rx="11" ry="11" style="stroke: #A80036; stroke-width: 1.0;"/><path d="M389.5938,1134.5938 L389.7656,1134.6719 C389.9844,1134.3594 390.1875,1134.2656 390.4844,1134.2656 C390.7813,1134.2656 391.0625,1134.4063 391.2188,1134.6719 C391.3125,1134.8281 391.3281,1134.9531 391.3281,1135.3906 L391.3281,1136.8125 C391.3281,1137.2344 391.2969,1137.4219 391.1875,1137.5781 C391.0156,1137.7969 390.75,1137.9375 390.4844,1137.9375 C390.2656,1137.9375 390.0313,1137.8281 389.8906,1137.6875 C389.75,1137.5625 389.7188,1137.4375 389.6563,1137.0313 C389.5625,1136.625 389.3906,1136.4063 388.9063,1136.125 C388.4375,1135.875 387.8281,1135.7188 387.25,1135.7188 C385.5156,1135.7188 384.2656,1137.0313 384.2656,1138.8125 L384.2656,1139.9063 C384.2656,1141.6094 385.5625,1142.7031 387.6094,1142.7031 C388.375,1142.7031 389.0625,1142.5781 389.4844,1142.3125 C389.6719,1142.2188 389.6719,1142.2188 390.125,1141.7344 C390.3125,1141.5469 390.5156,1141.4688 390.7344,1141.4688 C391.2031,1141.4688 391.5938,1141.8594 391.5938,1142.3125 C391.5938,1142.7031 391.2656,1143.1563 390.6875,1143.5625 C389.9375,1144.1094 388.7813,1144.4063 387.5625,1144.4063 C384.6719,1144.4063 382.5625,1142.5156 382.5625,1139.9375 L382.5625,1138.8125 C382.5625,1136.0938 384.5625,1134.0156 387.1875,1134.0156 C388.0625,1134.0156 388.6563,1134.1563 389.5938,1134.5938 Z "/><text fill="#000000" font-family="sans-serif" font-size="12" font-style="italic" lengthAdjust="spacingAndGlyphs" textLength="50" x="406.75" y="1136.0918">«entity»</text><text fill="#000000" font-family="sans-serif" font-size="12" lengthAdjust="spacingAndGlyphs" textLength="48" x="407.75" y="1150.0605">Jugador</text><line style="stroke: #A80036; stroke-width: 1.5;" x1="271" x2="560" y1="1157.8906" y2="1157.8906"/><ellipse cx="281" cy="1169.793" fill="none" rx="3" ry="3" style="stroke: #038048; stroke-width: 1.0;"/><text fill="#000000" font-family="sans-serif" font-size="11" lengthAdjust="spacingAndGlyphs" textLength="48" x="290" y="1172.1011">ID : char</text><ellipse cx="281" cy="1182.5977" fill="none" rx="3" ry="3" style="stroke: #038048; stroke-width: 1.0;"/><text fill="#000000" font-family="sans-serif" font-size="11" lengthAdjust="spacingAndGlyphs" textLength="89" x="290" y="1184.9058">Password: char</text><ellipse cx="281" cy="1195.4023" fill="none" rx="3" ry="3" style="stroke: #038048; stroke-width: 1.0;"/><text fill="#000000" font-family="sans-serif" font-size="11" lengthAdjust="spacingAndGlyphs" textLength="82" x="290" y="1197.7104">Nombre : char</text><line style="stroke: #A80036; stroke-width: 1.5;" x1="271" x2="560" y1="1204.3047" y2="1204.3047"/><ellipse cx="281" cy="1216.207" fill="#84BE84" rx="3" ry="3" style="stroke: #038048; stroke-width: 1.0;"/><text fill="#000000" font-family="sans-serif" font-size="11" lengthAdjust="spacingAndGlyphs" textLength="223" x="290" y="1218.5151">Login(ID : char, Password : char) : bool</text><ellipse cx="281" cy="1229.0117" fill="#84BE84" rx="3" ry="3" style="stroke: #038048; stroke-width: 1.0;"/><text fill="#000000" font-family="sans-serif" font-size="11" lengthAdjust="spacingAndGlyphs" textLength="265" x="290" y="1231.3198">CrearCuenta(ID : char, Password : char) : bool</text><ellipse cx="281" cy="1241.8164" fill="#84BE84" rx="3" ry="3" style="stroke: #038048; stroke-width: 1.0;"/><text fill="#000000" font-family="sans-serif" font-size="11" lengthAdjust="spacingAndGlyphs" textLength="134" x="290" y="1244.1245">ModificarCuenta() : void</text><ellipse cx="281" cy="1254.6211" fill="#84BE84" rx="3" ry="3" style="stroke: #038048; stroke-width: 1.0;"/><text fill="#000000" font-family="sans-serif" font-size="11" lengthAdjust="spacingAndGlyphs" textLength="95" x="290" y="1256.9292">salirJuego(): void</text><!--class Administrador--><rect fill="#FEFECE" filter="url(#f15y8b4yypv2pb)" height="105.1563" id="Administrador" style="stroke: #A80036; stroke-width: 1.5;" width="172" x="329.5" y="979.4531"/><ellipse cx="368.35" cy="998.4219" fill="#ADD1B2" rx="11" ry="11" style="stroke: #A80036; stroke-width: 1.0;"/><path d="M370.6938,994.0938 L370.8656,994.1719 C371.0844,993.8594 371.2875,993.7656 371.5844,993.7656 C371.8813,993.7656 372.1625,993.9063 372.3188,994.1719 C372.4125,994.3281 372.4281,994.4531 372.4281,994.8906 L372.4281,996.3125 C372.4281,996.7344 372.3969,996.9219 372.2875,997.0781 C372.1156,997.2969 371.85,997.4375 371.5844,997.4375 C371.3656,997.4375 371.1313,997.3281 370.9906,997.1875 C370.85,997.0625 370.8188,996.9375 370.7563,996.5313 C370.6625,996.125 370.4906,995.9063 370.0063,995.625 C369.5375,995.375 368.9281,995.2188 368.35,995.2188 C366.6156,995.2188 365.3656,996.5313 365.3656,998.3125 L365.3656,999.4063 C365.3656,1001.1094 366.6625,1002.2031 368.7094,1002.2031 C369.475,1002.2031 370.1625,1002.0781 370.5844,1001.8125 C370.7719,1001.7188 370.7719,1001.7188 371.225,1001.2344 C371.4125,1001.0469 371.6156,1000.9688 371.8344,1000.9688 C372.3031,1000.9688 372.6938,1001.3594 372.6938,1001.8125 C372.6938,1002.2031 372.3656,1002.6563 371.7875,1003.0625 C371.0375,1003.6094 369.8813,1003.9063 368.6625,1003.9063 C365.7719,1003.9063 363.6625,1002.0156 363.6625,999.4375 L363.6625,998.3125 C363.6625,995.5938 365.6625,993.5156 368.2875,993.5156 C369.1625,993.5156 369.7563,993.6563 370.6938,994.0938 Z "/><text fill="#000000" font-family="sans-serif" font-size="12" font-style="italic" lengthAdjust="spacingAndGlyphs" textLength="50" x="406.15" y="995.5918">«entity»</text><text fill="#000000" font-family="sans-serif" font-size="12" lengthAdjust="spacingAndGlyphs" textLength="87" x="387.65" y="1009.5605">Administrador</text><line style="stroke: #A80036; stroke-width: 1.5;" x1="330.5" x2="500.5" y1="1017.3906" y2="1017.3906"/><ellipse cx="340.5" cy="1029.293" fill="none" rx="3" ry="3" style="stroke: #038048; stroke-width: 1.0;"/><text fill="#000000" font-family="sans-serif" font-size="11" lengthAdjust="spacingAndGlyphs" textLength="92" x="349.5" y="1031.6011">Accesos : string</text><line style="stroke: #A80036; stroke-width: 1.5;" x1="330.5" x2="500.5" y1="1038.1953" y2="1038.1953"/><ellipse cx="340.5" cy="1050.0977" fill="#84BE84" rx="3" ry="3" style="stroke: #038048; stroke-width: 1.0;"/><text fill="#000000" font-family="sans-serif" font-size="11" lengthAdjust="spacingAndGlyphs" textLength="97" x="349.5" y="1052.4058">Actualizar() : void</text><ellipse cx="340.5" cy="1062.9023" fill="#84BE84" rx="3" ry="3" style="stroke: #038048; stroke-width: 1.0;"/><text fill="#000000" font-family="sans-serif" font-size="11" lengthAdjust="spacingAndGlyphs" textLength="146" x="349.5" y="1065.2104">GestionarCuentas() : void</text><ellipse cx="340.5" cy="1075.707" fill="#84BE84" rx="3" ry="3" style="stroke: #038048; stroke-width: 1.0;"/><text fill="#000000" font-family="sans-serif" font-size="11" lengthAdjust="spacingAndGlyphs" textLength="140" x="349.5" y="1078.0151">AdministrarJuego() : void</text><!--class Partida--><rect fill="#FEFECE" filter="url(#f15y8b4yypv2pb)" height="207.5938" id="Partida" style="stroke: #A80036; stroke-width: 1.5;" width="164" x="333.5" y="695.9531"/><ellipse cx="388.25" cy="714.9219" fill="#ADD1B2" rx="11" ry="11" style="stroke: #A80036; stroke-width: 1.0;"/><path d="M390.5938,710.5938 L390.7656,710.6719 C390.9844,710.3594 391.1875,710.2656 391.4844,710.2656 C391.7813,710.2656 392.0625,710.4063 392.2188,710.6719 C392.3125,710.8281 392.3281,710.9531 392.3281,711.3906 L392.3281,712.8125 C392.3281,713.2344 392.2969,713.4219 392.1875,713.5781 C392.0156,713.7969 391.75,713.9375 391.4844,713.9375 C391.2656,713.9375 391.0313,713.8281 390.8906,713.6875 C390.75,713.5625 390.7188,713.4375 390.6563,713.0313 C390.5625,712.625 390.3906,712.4063 389.9063,712.125 C389.4375,711.875 388.8281,711.7188 388.25,711.7188 C386.5156,711.7188 385.2656,713.0313 385.2656,714.8125 L385.2656,715.9063 C385.2656,717.6094 386.5625,718.7031 388.6094,718.7031 C389.375,718.7031 390.0625,718.5781 390.4844,718.3125 C390.6719,718.2188 390.6719,718.2188 391.125,717.7344 C391.3125,717.5469 391.5156,717.4688 391.7344,717.4688 C392.2031,717.4688 392.5938,717.8594 392.5938,718.3125 C392.5938,718.7031 392.2656,719.1563 391.6875,719.5625 C390.9375,720.1094 389.7813,720.4063 388.5625,720.4063 C385.6719,720.4063 383.5625,718.5156 383.5625,715.9375 L383.5625,714.8125 C383.5625,712.0938 385.5625,710.0156 388.1875,710.0156 C389.0625,710.0156 389.6563,710.1563 390.5938,710.5938 Z "/><text fill="#000000" font-family="sans-serif" font-size="12" font-style="italic" lengthAdjust="spacingAndGlyphs" textLength="50" x="406.75" y="712.0918">«entity»</text><text fill="#000000" font-family="sans-serif" font-size="12" lengthAdjust="spacingAndGlyphs" textLength="45" x="409.25" y="726.0605">Partida</text><line style="stroke: #A80036; stroke-width: 1.5;" x1="334.5" x2="496.5" y1="733.8906" y2="733.8906"/><ellipse cx="344.5" cy="745.793" fill="none" rx="3" ry="3" style="stroke: #038048; stroke-width: 1.0;"/><text fill="#000000" font-family="sans-serif" font-size="11" lengthAdjust="spacingAndGlyphs" textLength="78" x="353.5" y="748.1011">Dificultad : int</text><ellipse cx="344.5" cy="758.5977" fill="none" rx="3" ry="3" style="stroke: #038048; stroke-width: 1.0;"/><text fill="#000000" font-family="sans-serif" font-size="11" lengthAdjust="spacingAndGlyphs" textLength="129" x="353.5" y="760.9058">Personajes: personaje</text><ellipse cx="344.5" cy="771.4023" fill="none" rx="3" ry="3" style="stroke: #038048; stroke-width: 1.0;"/><text fill="#000000" font-family="sans-serif" font-size="11" lengthAdjust="spacingAndGlyphs" textLength="77" x="353.5" y="773.7104">Mapas: mapa</text><ellipse cx="344.5" cy="784.207" fill="none" rx="3" ry="3" style="stroke: #038048; stroke-width: 1.0;"/><text fill="#000000" font-family="sans-serif" font-size="11" lengthAdjust="spacingAndGlyphs" textLength="96" x="353.5" y="786.5151">SalaActual : Sala</text><line style="stroke: #A80036; stroke-width: 1.5;" x1="334.5" x2="496.5" y1="793.1094" y2="793.1094"/><ellipse cx="344.5" cy="805.0117" fill="#84BE84" rx="3" ry="3" style="stroke: #038048; stroke-width: 1.0;"/><text fill="#000000" font-family="sans-serif" font-size="11" lengthAdjust="spacingAndGlyphs" textLength="78" x="353.5" y="807.3198">Pausa() : void</text><ellipse cx="344.5" cy="817.8164" fill="#84BE84" rx="3" ry="3" style="stroke: #038048; stroke-width: 1.0;"/><text fill="#000000" font-family="sans-serif" font-size="11" lengthAdjust="spacingAndGlyphs" textLength="62" x="353.5" y="820.1245">Play(): void</text><ellipse cx="344.5" cy="830.6211" fill="#84BE84" rx="3" ry="3" style="stroke: #038048; stroke-width: 1.0;"/><text fill="#000000" font-family="sans-serif" font-size="11" lengthAdjust="spacingAndGlyphs" textLength="109" x="353.5" y="832.9292">AñadirMapa() : void</text><ellipse cx="344.5" cy="843.4258" fill="#84BE84" rx="3" ry="3" style="stroke: #038048; stroke-width: 1.0;"/><text fill="#000000" font-family="sans-serif" font-size="11" lengthAdjust="spacingAndGlyphs" textLength="119" x="353.5" y="845.7339">EliminarMapa() : void</text><ellipse cx="344.5" cy="856.2305" fill="#84BE84" rx="3" ry="3" style="stroke: #038048; stroke-width: 1.0;"/><text fill="#000000" font-family="sans-serif" font-size="11" lengthAdjust="spacingAndGlyphs" textLength="138" x="353.5" y="858.5386">ContinuarPartida() : void</text><ellipse cx="344.5" cy="869.0352" fill="#84BE84" rx="3" ry="3" style="stroke: #038048; stroke-width: 1.0;"/><text fill="#000000" font-family="sans-serif" font-size="11" lengthAdjust="spacingAndGlyphs" textLength="115" x="353.5" y="871.3433">CrearPartida() : void</text><ellipse cx="344.5" cy="881.8398" fill="#84BE84" rx="3" ry="3" style="stroke: #038048; stroke-width: 1.0;"/><text fill="#000000" font-family="sans-serif" font-size="11" lengthAdjust="spacingAndGlyphs" textLength="130" x="353.5" y="884.1479">GuardarPartida() : void</text><ellipse cx="344.5" cy="894.6445" fill="#84BE84" rx="3" ry="3" style="stroke: #038048; stroke-width: 1.0;"/><text fill="#000000" font-family="sans-serif" font-size="11" lengthAdjust="spacingAndGlyphs" textLength="129" x="353.5" y="896.9526">EliminarPartida() : void</text><!--class Mapa--><rect fill="#FEFECE" filter="url(#f15y8b4yypv2pb)" height="105.1563" id="Mapa" style="stroke: #A80036; stroke-width: 1.5;" width="146" x="626.5" y="747.4531"/><ellipse cx="672.25" cy="766.4219" fill="#ADD1B2" rx="11" ry="11" style="stroke: #A80036; stroke-width: 1.0;"/><path d="M674.5938,762.0938 L674.7656,762.1719 C674.9844,761.8594 675.1875,761.7656 675.4844,761.7656 C675.7813,761.7656 676.0625,761.9063 676.2188,762.1719 C676.3125,762.3281 676.3281,762.4531 676.3281,762.8906 L676.3281,764.3125 C676.3281,764.7344 676.2969,764.9219 676.1875,765.0781 C676.0156,765.2969 675.75,765.4375 675.4844,765.4375 C675.2656,765.4375 675.0313,765.3281 674.8906,765.1875 C674.75,765.0625 674.7188,764.9375 674.6563,764.5313 C674.5625,764.125 674.3906,763.9063 673.9063,763.625 C673.4375,763.375 672.8281,763.2188 672.25,763.2188 C670.5156,763.2188 669.2656,764.5313 669.2656,766.3125 L669.2656,767.4063 C669.2656,769.1094 670.5625,770.2031 672.6094,770.2031 C673.375,770.2031 674.0625,770.0781 674.4844,769.8125 C674.6719,769.7188 674.6719,769.7188 675.125,769.2344 C675.3125,769.0469 675.5156,768.9688 675.7344,768.9688 C676.2031,768.9688 676.5938,769.3594 676.5938,769.8125 C676.5938,770.2031 676.2656,770.6563 675.6875,771.0625 C674.9375,771.6094 673.7813,771.9063 672.5625,771.9063 C669.6719,771.9063 667.5625,770.0156 667.5625,767.4375 L667.5625,766.3125 C667.5625,763.5938 669.5625,761.5156 672.1875,761.5156 C673.0625,761.5156 673.6563,761.6563 674.5938,762.0938 Z "/><text fill="#000000" font-family="sans-serif" font-size="12" font-style="italic" lengthAdjust="spacingAndGlyphs" textLength="50" x="690.75" y="763.5918">«entity»</text><text fill="#000000" font-family="sans-serif" font-size="12" lengthAdjust="spacingAndGlyphs" textLength="34" x="698.75" y="777.5605">Mapa</text><line style="stroke: #A80036; stroke-width: 1.5;" x1="627.5" x2="771.5" y1="785.3906" y2="785.3906"/><ellipse cx="637.5" cy="797.293" fill="none" rx="3" ry="3" style="stroke: #038048; stroke-width: 1.0;"/><text fill="#000000" font-family="sans-serif" font-size="11" lengthAdjust="spacingAndGlyphs" textLength="67" x="646.5" y="799.6011">Sala : array</text><line style="stroke: #A80036; stroke-width: 1.5;" x1="627.5" x2="771.5" y1="806.1953" y2="806.1953"/><ellipse cx="637.5" cy="818.0977" fill="#84BE84" rx="3" ry="3" style="stroke: #038048; stroke-width: 1.0;"/><text fill="#000000" font-family="sans-serif" font-size="11" lengthAdjust="spacingAndGlyphs" textLength="104" x="646.5" y="820.4058">AñadirSala() : void</text><ellipse cx="637.5" cy="830.9023" fill="#84BE84" rx="3" ry="3" style="stroke: #038048; stroke-width: 1.0;"/><text fill="#000000" font-family="sans-serif" font-size="11" lengthAdjust="spacingAndGlyphs" textLength="114" x="646.5" y="833.2104">EliminarSala() : void</text><ellipse cx="637.5" cy="843.707" fill="#84BE84" rx="3" ry="3" style="stroke: #038048; stroke-width: 1.0;"/><text fill="#000000" font-family="sans-serif" font-size="11" lengthAdjust="spacingAndGlyphs" textLength="120" x="646.5" y="846.0151">GuardarMapa() : void</text><!--class Sala--><rect fill="#FEFECE" filter="url(#f15y8b4yypv2pb)" height="143.5703" id="Sala" style="stroke: #A80036; stroke-width: 1.5;" width="157" x="621" y="567.9531"/><ellipse cx="672.25" cy="586.9219" fill="#ADD1B2" rx="11" ry="11" style="stroke: #A80036; stroke-width: 1.0;"/><path d="M674.5938,582.5938 L674.7656,582.6719 C674.9844,582.3594 675.1875,582.2656 675.4844,582.2656 C675.7813,582.2656 676.0625,582.4063 676.2188,582.6719 C676.3125,582.8281 676.3281,582.9531 676.3281,583.3906 L676.3281,584.8125 C676.3281,585.2344 676.2969,585.4219 676.1875,585.5781 C676.0156,585.7969 675.75,585.9375 675.4844,585.9375 C675.2656,585.9375 675.0313,585.8281 674.8906,585.6875 C674.75,585.5625 674.7188,585.4375 674.6563,585.0313 C674.5625,584.625 674.3906,584.4063 673.9063,584.125 C673.4375,583.875 672.8281,583.7188 672.25,583.7188 C670.5156,583.7188 669.2656,585.0313 669.2656,586.8125 L669.2656,587.9063 C669.2656,589.6094 670.5625,590.7031 672.6094,590.7031 C673.375,590.7031 674.0625,590.5781 674.4844,590.3125 C674.6719,590.2188 674.6719,590.2188 675.125,589.7344 C675.3125,589.5469 675.5156,589.4688 675.7344,589.4688 C676.2031,589.4688 676.5938,589.8594 676.5938,590.3125 C676.5938,590.7031 676.2656,591.1563 675.6875,591.5625 C674.9375,592.1094 673.7813,592.4063 672.5625,592.4063 C669.6719,592.4063 667.5625,590.5156 667.5625,587.9375 L667.5625,586.8125 C667.5625,584.0938 669.5625,582.0156 672.1875,582.0156 C673.0625,582.0156 673.6563,582.1563 674.5938,582.5938 Z "/><text fill="#000000" font-family="sans-serif" font-size="12" font-style="italic" lengthAdjust="spacingAndGlyphs" textLength="50" x="690.75" y="584.0918">«entity»</text><text fill="#000000" font-family="sans-serif" font-size="12" lengthAdjust="spacingAndGlyphs" textLength="27" x="702.25" y="598.0605">Sala</text><line style="stroke: #A80036; stroke-width: 1.5;" x1="622" x2="777" y1="605.8906" y2="605.8906"/><ellipse cx="632" cy="617.793" fill="none" rx="3" ry="3" style="stroke: #038048; stroke-width: 1.0;"/><text fill="#000000" font-family="sans-serif" font-size="11" lengthAdjust="spacingAndGlyphs" textLength="90" x="641" y="620.1011">Nombre : string</text><ellipse cx="632" cy="630.5977" fill="none" rx="3" ry="3" style="stroke: #038048; stroke-width: 1.0;"/><text fill="#000000" font-family="sans-serif" font-size="11" lengthAdjust="spacingAndGlyphs" textLength="111" x="641" y="632.9058">Descripcion : string</text><ellipse cx="632" cy="643.4023" fill="none" rx="3" ry="3" style="stroke: #038048; stroke-width: 1.0;"/><text fill="#000000" font-family="sans-serif" font-size="11" lengthAdjust="spacingAndGlyphs" textLength="73" x="641" y="645.7104">Posicion : int</text><ellipse cx="632" cy="656.207" fill="none" rx="3" ry="3" style="stroke: #038048; stroke-width: 1.0;"/><text fill="#000000" font-family="sans-serif" font-size="11" lengthAdjust="spacingAndGlyphs" textLength="33" x="641" y="658.5151">ID: int</text><line style="stroke: #A80036; stroke-width: 1.5;" x1="622" x2="777" y1="665.1094" y2="665.1094"/><ellipse cx="632" cy="677.0117" fill="#84BE84" rx="3" ry="3" style="stroke: #038048; stroke-width: 1.0;"/><text fill="#000000" font-family="sans-serif" font-size="11" lengthAdjust="spacingAndGlyphs" textLength="131" x="641" y="679.3198">MostrarPuertas() : void</text><ellipse cx="632" cy="689.8164" fill="#84BE84" rx="3" ry="3" style="stroke: #038048; stroke-width: 1.0;"/><text fill="#000000" font-family="sans-serif" font-size="11" lengthAdjust="spacingAndGlyphs" textLength="122" x="641" y="692.1245">GuardarSalas() : void</text><ellipse cx="632" cy="702.6211" fill="#84BE84" rx="3" ry="3" style="stroke: #038048; stroke-width: 1.0;"/><text fill="#000000" font-family="sans-serif" font-size="11" lengthAdjust="spacingAndGlyphs" textLength="109" x="641" y="704.9292">SetPosicion() : void</text><!--class Ranking--><rect fill="#FEFECE" filter="url(#f15y8b4yypv2pb)" height="117.9609" id="Ranking" style="stroke: #A80036; stroke-width: 1.5;" width="167" x="40.5" y="763.9531"/><ellipse cx="94.75" cy="782.9219" fill="#ADD1B2" rx="11" ry="11" style="stroke: #A80036; stroke-width: 1.0;"/><path d="M97.0938,778.5938 L97.2656,778.6719 C97.4844,778.3594 97.6875,778.2656 97.9844,778.2656 C98.2813,778.2656 98.5625,778.4063 98.7188,778.6719 C98.8125,778.8281 98.8281,778.9531 98.8281,779.3906 L98.8281,780.8125 C98.8281,781.2344 98.7969,781.4219 98.6875,781.5781 C98.5156,781.7969 98.25,781.9375 97.9844,781.9375 C97.7656,781.9375 97.5313,781.8281 97.3906,781.6875 C97.25,781.5625 97.2188,781.4375 97.1563,781.0313 C97.0625,780.625 96.8906,780.4063 96.4063,780.125 C95.9375,779.875 95.3281,779.7188 94.75,779.7188 C93.0156,779.7188 91.7656,781.0313 91.7656,782.8125 L91.7656,783.9063 C91.7656,785.6094 93.0625,786.7031 95.1094,786.7031 C95.875,786.7031 96.5625,786.5781 96.9844,786.3125 C97.1719,786.2188 97.1719,786.2188 97.625,785.7344 C97.8125,785.5469 98.0156,785.4688 98.2344,785.4688 C98.7031,785.4688 99.0938,785.8594 99.0938,786.3125 C99.0938,786.7031 98.7656,787.1563 98.1875,787.5625 C97.4375,788.1094 96.2813,788.4063 95.0625,788.4063 C92.1719,788.4063 90.0625,786.5156 90.0625,783.9375 L90.0625,782.8125 C90.0625,780.0938 92.0625,778.0156 94.6875,778.0156 C95.5625,778.0156 96.1563,778.1563 97.0938,778.5938 Z "/><text fill="#000000" font-family="sans-serif" font-size="12" font-style="italic" lengthAdjust="spacingAndGlyphs" textLength="50" x="115.25" y="780.0918">«entity»</text><text fill="#000000" font-family="sans-serif" font-size="12" lengthAdjust="spacingAndGlyphs" textLength="50" x="115.25" y="794.0605">Ranking</text><line style="stroke: #A80036; stroke-width: 1.5;" x1="41.5" x2="206.5" y1="801.8906" y2="801.8906"/><ellipse cx="51.5" cy="813.793" fill="none" rx="3" ry="3" style="stroke: #038048; stroke-width: 1.0;"/><text fill="#000000" font-family="sans-serif" font-size="11" lengthAdjust="spacingAndGlyphs" textLength="71" x="60.5" y="816.1011">Position : int</text><ellipse cx="51.5" cy="826.5977" fill="none" rx="3" ry="3" style="stroke: #038048; stroke-width: 1.0;"/><text fill="#000000" font-family="sans-serif" font-size="11" lengthAdjust="spacingAndGlyphs" textLength="82" x="60.5" y="828.9058">Nombre : char</text><ellipse cx="51.5" cy="839.4023" fill="none" rx="3" ry="3" style="stroke: #038048; stroke-width: 1.0;"/><text fill="#000000" font-family="sans-serif" font-size="11" lengthAdjust="spacingAndGlyphs" textLength="88" x="60.5" y="841.7104">Puntuacion : int</text><line style="stroke: #A80036; stroke-width: 1.5;" x1="41.5" x2="206.5" y1="848.3047" y2="848.3047"/><ellipse cx="51.5" cy="860.207" fill="#84BE84" rx="3" ry="3" style="stroke: #038048; stroke-width: 1.0;"/><text fill="#000000" font-family="sans-serif" font-size="11" lengthAdjust="spacingAndGlyphs" textLength="106" x="60.5" y="862.5151">VerRanking() : void</text><ellipse cx="51.5" cy="873.0117" fill="#84BE84" rx="3" ry="3" style="stroke: #038048; stroke-width: 1.0;"/><text fill="#000000" font-family="sans-serif" font-size="11" lengthAdjust="spacingAndGlyphs" textLength="141" x="60.5" y="875.3198">ActualizarRanking() : void</text><!--class Sistema--><rect fill="#FEFECE" filter="url(#f15y8b4yypv2pb)" height="246.0078" id="Sistema" style="stroke: #A80036; stroke-width: 1.5;" width="170" x="330.5" y="414.9531"/><ellipse cx="384.25" cy="433.9219" fill="#ADD1B2" rx="11" ry="11" style="stroke: #A80036; stroke-width: 1.0;"/><path d="M386.5938,429.5938 L386.7656,429.6719 C386.9844,429.3594 387.1875,429.2656 387.4844,429.2656 C387.7813,429.2656 388.0625,429.4063 388.2188,429.6719 C388.3125,429.8281 388.3281,429.9531 388.3281,430.3906 L388.3281,431.8125 C388.3281,432.2344 388.2969,432.4219 388.1875,432.5781 C388.0156,432.7969 387.75,432.9375 387.4844,432.9375 C387.2656,432.9375 387.0313,432.8281 386.8906,432.6875 C386.75,432.5625 386.7188,432.4375 386.6563,432.0313 C386.5625,431.625 386.3906,431.4063 385.9063,431.125 C385.4375,430.875 384.8281,430.7188 384.25,430.7188 C382.5156,430.7188 381.2656,432.0313 381.2656,433.8125 L381.2656,434.9063 C381.2656,436.6094 382.5625,437.7031 384.6094,437.7031 C385.375,437.7031 386.0625,437.5781 386.4844,437.3125 C386.6719,437.2188 386.6719,437.2188 387.125,436.7344 C387.3125,436.5469 387.5156,436.4688 387.7344,436.4688 C388.2031,436.4688 388.5938,436.8594 388.5938,437.3125 C388.5938,437.7031 388.2656,438.1563 387.6875,438.5625 C386.9375,439.1094 385.7813,439.4063 384.5625,439.4063 C381.6719,439.4063 379.5625,437.5156 379.5625,434.9375 L379.5625,433.8125 C379.5625,431.0938 381.5625,429.0156 384.1875,429.0156 C385.0625,429.0156 385.6563,429.1563 386.5938,429.5938 Z "/><text fill="#000000" font-family="sans-serif" font-size="12" font-style="italic" lengthAdjust="spacingAndGlyphs" textLength="58" x="402.75" y="431.0918">«control»</text><text fill="#000000" font-family="sans-serif" font-size="12" lengthAdjust="spacingAndGlyphs" textLength="50" x="406.75" y="445.0605">Sistema</text><line style="stroke: #A80036; stroke-width: 1.5;" x1="331.5" x2="499.5" y1="452.8906" y2="452.8906"/><line style="stroke: #A80036; stroke-width: 1.5;" x1="331.5" x2="499.5" y1="460.8906" y2="460.8906"/><ellipse cx="341.5" cy="472.793" fill="#84BE84" rx="3" ry="3" style="stroke: #038048; stroke-width: 1.0;"/><text fill="#000000" font-family="sans-serif" font-size="11" lengthAdjust="spacingAndGlyphs" textLength="113" x="350.5" y="475.1011">crearCuenta() : void</text><ellipse cx="341.5" cy="485.5977" fill="#84BE84" rx="3" ry="3" style="stroke: #038048; stroke-width: 1.0;"/><text fill="#000000" font-family="sans-serif" font-size="11" lengthAdjust="spacingAndGlyphs" textLength="103" x="350.5" y="487.9058">crearMapa() : void</text><ellipse cx="341.5" cy="498.4023" fill="#84BE84" rx="3" ry="3" style="stroke: #038048; stroke-width: 1.0;"/><text fill="#000000" font-family="sans-serif" font-size="11" lengthAdjust="spacingAndGlyphs" textLength="113" x="350.5" y="500.7104">crearPartida() : void</text><ellipse cx="341.5" cy="511.207" fill="#84BE84" rx="3" ry="3" style="stroke: #038048; stroke-width: 1.0;"/><text fill="#000000" font-family="sans-serif" font-size="11" lengthAdjust="spacingAndGlyphs" textLength="140" x="350.5" y="513.5151">consultarRanking() : void</text><ellipse cx="341.5" cy="524.0117" fill="#84BE84" rx="3" ry="3" style="stroke: #038048; stroke-width: 1.0;"/><text fill="#000000" font-family="sans-serif" font-size="11" lengthAdjust="spacingAndGlyphs" textLength="136" x="350.5" y="526.3198">continuarPartida() : void</text><ellipse cx="341.5" cy="536.8164" fill="#84BE84" rx="3" ry="3" style="stroke: #038048; stroke-width: 1.0;"/><text fill="#000000" font-family="sans-serif" font-size="11" lengthAdjust="spacingAndGlyphs" textLength="137" x="350.5" y="539.1245">comprobarDispo() : void</text><ellipse cx="341.5" cy="549.6211" fill="#84BE84" rx="3" ry="3" style="stroke: #038048; stroke-width: 1.0;"/><text fill="#000000" font-family="sans-serif" font-size="11" lengthAdjust="spacingAndGlyphs" textLength="129" x="350.5" y="551.9292">eliminarPartida() : void</text><ellipse cx="341.5" cy="562.4258" fill="#84BE84" rx="3" ry="3" style="stroke: #038048; stroke-width: 1.0;"/><text fill="#000000" font-family="sans-serif" font-size="11" lengthAdjust="spacingAndGlyphs" textLength="128" x="350.5" y="564.7339">guardarPartida() : void</text><ellipse cx="341.5" cy="575.2305" fill="#84BE84" rx="3" ry="3" style="stroke: #038048; stroke-width: 1.0;"/><text fill="#000000" font-family="sans-serif" font-size="11" lengthAdjust="spacingAndGlyphs" textLength="136" x="350.5" y="577.5386">modificarCuenta() : void</text><ellipse cx="341.5" cy="588.0352" fill="#84BE84" rx="3" ry="3" style="stroke: #038048; stroke-width: 1.0;"/><text fill="#000000" font-family="sans-serif" font-size="11" lengthAdjust="spacingAndGlyphs" textLength="99" x="350.5" y="590.3433">salirJuego() : void</text><ellipse cx="341.5" cy="600.8398" fill="#84BE84" rx="3" ry="3" style="stroke: #038048; stroke-width: 1.0;"/><text fill="#000000" font-family="sans-serif" font-size="11" lengthAdjust="spacingAndGlyphs" textLength="144" x="350.5" y="603.1479">gestionarCuentas() : void</text><ellipse cx="341.5" cy="613.6445" fill="#84BE84" rx="3" ry="3" style="stroke: #038048; stroke-width: 1.0;"/><text fill="#000000" font-family="sans-serif" font-size="11" lengthAdjust="spacingAndGlyphs" textLength="136" x="350.5" y="615.9526">modificarCuenta() : void</text><ellipse cx="341.5" cy="626.4492" fill="#84BE84" rx="3" ry="3" style="stroke: #038048; stroke-width: 1.0;"/><text fill="#000000" font-family="sans-serif" font-size="11" lengthAdjust="spacingAndGlyphs" textLength="126" x="350.5" y="628.7573">modificarMapa() : void</text><ellipse cx="341.5" cy="639.2539" fill="#84BE84" rx="3" ry="3" style="stroke: #038048; stroke-width: 1.0;"/><text fill="#000000" font-family="sans-serif" font-size="11" lengthAdjust="spacingAndGlyphs" textLength="140" x="350.5" y="641.562">modificarRanking() : void</text><ellipse cx="341.5" cy="652.0586" fill="#84BE84" rx="3" ry="3" style="stroke: #038048; stroke-width: 1.0;"/><text fill="#000000" font-family="sans-serif" font-size="11" lengthAdjust="spacingAndGlyphs" textLength="87" x="350.5" y="654.3667">enLinea() : void</text><!--class MenúUsuario--><rect fill="#FEFECE" filter="url(#f15y8b4yypv2pb)" height="258.8125" id="MenúUsuario" style="stroke: #A80036; stroke-width: 1.5;" width="172" x="38" y="80.4531"/><ellipse cx="79.1" cy="99.4219" fill="#ADD1B2" rx="11" ry="11" style="stroke: #A80036; stroke-width: 1.0;"/><path d="M81.4438,95.0938 L81.6156,95.1719 C81.8344,94.8594 82.0375,94.7656 82.3344,94.7656 C82.6313,94.7656 82.9125,94.9063 83.0688,95.1719 C83.1625,95.3281 83.1781,95.4531 83.1781,95.8906 L83.1781,97.3125 C83.1781,97.7344 83.1469,97.9219 83.0375,98.0781 C82.8656,98.2969 82.6,98.4375 82.3344,98.4375 C82.1156,98.4375 81.8813,98.3281 81.7406,98.1875 C81.6,98.0625 81.5688,97.9375 81.5063,97.5313 C81.4125,97.125 81.2406,96.9063 80.7563,96.625 C80.2875,96.375 79.6781,96.2188 79.1,96.2188 C77.3656,96.2188 76.1156,97.5313 76.1156,99.3125 L76.1156,100.4063 C76.1156,102.1094 77.4125,103.2031 79.4594,103.2031 C80.225,103.2031 80.9125,103.0781 81.3344,102.8125 C81.5219,102.7188 81.5219,102.7188 81.975,102.2344 C82.1625,102.0469 82.3656,101.9688 82.5844,101.9688 C83.0531,101.9688 83.4438,102.3594 83.4438,102.8125 C83.4438,103.2031 83.1156,103.6563 82.5375,104.0625 C81.7875,104.6094 80.6313,104.9063 79.4125,104.9063 C76.5219,104.9063 74.4125,103.0156 74.4125,100.4375 L74.4125,99.3125 C74.4125,96.5938 76.4125,94.5156 79.0375,94.5156 C79.9125,94.5156 80.5063,94.6563 81.4438,95.0938 Z "/><text fill="#000000" font-family="sans-serif" font-size="12" font-style="italic" lengthAdjust="spacingAndGlyphs" textLength="74" x="102.9" y="96.5918">«boundary»</text><text fill="#000000" font-family="sans-serif" font-size="12" lengthAdjust="spacingAndGlyphs" textLength="82" x="98.9" y="110.5605">MenúUsuario</text><line style="stroke: #A80036; stroke-width: 1.5;" x1="39" x2="209" y1="118.3906" y2="118.3906"/><line style="stroke: #A80036; stroke-width: 1.5;" x1="39" x2="209" y1="126.3906" y2="126.3906"/><ellipse cx="49" cy="138.293" fill="#84BE84" rx="3" ry="3" style="stroke: #038048; stroke-width: 1.0;"/><text fill="#000000" font-family="sans-serif" font-size="11" lengthAdjust="spacingAndGlyphs" textLength="146" x="58" y="140.6011">menuMovimientos() : void</text><ellipse cx="49" cy="151.0977" fill="#84BE84" rx="3" ry="3" style="stroke: #038048; stroke-width: 1.0;"/><text fill="#000000" font-family="sans-serif" font-size="11" lengthAdjust="spacingAndGlyphs" textLength="113" x="58" y="153.4058">crearCuenta() : void</text><ellipse cx="49" cy="163.9023" fill="#84BE84" rx="3" ry="3" style="stroke: #038048; stroke-width: 1.0;"/><text fill="#000000" font-family="sans-serif" font-size="11" lengthAdjust="spacingAndGlyphs" textLength="103" x="58" y="166.2104">crearMapa() : void</text><ellipse cx="49" cy="176.707" fill="#84BE84" rx="3" ry="3" style="stroke: #038048; stroke-width: 1.0;"/><text fill="#000000" font-family="sans-serif" font-size="11" lengthAdjust="spacingAndGlyphs" textLength="113" x="58" y="179.0151">crearPartida() : void</text><ellipse cx="49" cy="189.5117" fill="#84BE84" rx="3" ry="3" style="stroke: #038048; stroke-width: 1.0;"/><text fill="#000000" font-family="sans-serif" font-size="11" lengthAdjust="spacingAndGlyphs" textLength="140" x="58" y="191.8198">consultarRanking() : void</text><ellipse cx="49" cy="202.3164" fill="#84BE84" rx="3" ry="3" style="stroke: #038048; stroke-width: 1.0;"/><text fill="#000000" font-family="sans-serif" font-size="11" lengthAdjust="spacingAndGlyphs" textLength="136" x="58" y="204.6245">continuarPartida() : void</text><ellipse cx="49" cy="215.1211" fill="#84BE84" rx="3" ry="3" style="stroke: #038048; stroke-width: 1.0;"/><text fill="#000000" font-family="sans-serif" font-size="11" lengthAdjust="spacingAndGlyphs" textLength="137" x="58" y="217.4292">comprobarDispo() : void</text><ellipse cx="49" cy="227.9258" fill="#84BE84" rx="3" ry="3" style="stroke: #038048; stroke-width: 1.0;"/><text fill="#000000" font-family="sans-serif" font-size="11" lengthAdjust="spacingAndGlyphs" textLength="129" x="58" y="230.2339">eliminarPartida() : void</text><ellipse cx="49" cy="240.7305" fill="#84BE84" rx="3" ry="3" style="stroke: #038048; stroke-width: 1.0;"/><text fill="#000000" font-family="sans-serif" font-size="11" lengthAdjust="spacingAndGlyphs" textLength="128" x="58" y="243.0386">guardarPartida() : void</text><ellipse cx="49" cy="253.5352" fill="#84BE84" rx="3" ry="3" style="stroke: #038048; stroke-width: 1.0;"/><text fill="#000000" font-family="sans-serif" font-size="11" lengthAdjust="spacingAndGlyphs" textLength="136" x="58" y="255.8433">modificarCuenta() : void</text><ellipse cx="49" cy="266.3398" fill="#84BE84" rx="3" ry="3" style="stroke: #038048; stroke-width: 1.0;"/><text fill="#000000" font-family="sans-serif" font-size="11" lengthAdjust="spacingAndGlyphs" textLength="99" x="58" y="268.6479">salirJuego() : void</text><rect fill="#F24D5C" height="6" style="stroke: #C82930; stroke-width: 1.0;" width="6" x="46" y="276.1445"/><text fill="#000000" font-family="sans-serif" font-size="11" lengthAdjust="spacingAndGlyphs" textLength="144" x="58" y="281.4526">gestionarCuentas() : void</text><rect fill="#F24D5C" height="6" style="stroke: #C82930; stroke-width: 1.0;" width="6" x="46" y="288.9492"/><text fill="#000000" font-family="sans-serif" font-size="11" lengthAdjust="spacingAndGlyphs" textLength="136" x="58" y="294.2573">modificarCuenta() : void</text><rect fill="#F24D5C" height="6" style="stroke: #C82930; stroke-width: 1.0;" width="6" x="46" y="301.7539"/><text fill="#000000" font-family="sans-serif" font-size="11" lengthAdjust="spacingAndGlyphs" textLength="126" x="58" y="307.062">modificarMapa() : void</text><rect fill="#F24D5C" height="6" style="stroke: #C82930; stroke-width: 1.0;" width="6" x="46" y="314.5586"/><text fill="#000000" font-family="sans-serif" font-size="11" lengthAdjust="spacingAndGlyphs" textLength="140" x="58" y="319.8667">modificarRanking() : void</text><rect fill="#F24D5C" height="6" style="stroke: #C82930; stroke-width: 1.0;" width="6" x="46" y="327.3633"/><text fill="#000000" font-family="sans-serif" font-size="11" lengthAdjust="spacingAndGlyphs" textLength="87" x="58" y="332.6714">enLinea() : void</text><!--link Jugador to Administrador--><path d="M415.5,1099.5381 C415.5,1094.6181 415.5,1089.6981 415.5,1084.7781 " fill="none" id="Jugador-Administrador" style="stroke: #A80036; stroke-width: 1.0;"/><polygon fill="none" points="422.5,1099.7661,415.5,1119.7651,408.5,1099.7651,422.5,1099.7661" style="stroke: #A80036; stroke-width: 1.0;"/><!--link Partida to Mapa--><path d="M502.954,799.9531 C542.362,799.9531 588.492,799.9531 626.048,799.9531 " fill="none" id="Partida-Mapa" style="stroke: #A80036; stroke-width: 1.0;"/><polygon fill="#A80036" points="497.688,799.9531,506.688,803.9531,502.688,799.9531,506.688,795.9531,497.688,799.9531" style="stroke: #A80036; stroke-width: 1.0;"/><text fill="#000000" font-family="sans-serif" font-size="13" lengthAdjust="spacingAndGlyphs" textLength="8" x="505.6335" y="812.7363">1</text><text fill="#000000" font-family="sans-serif" font-size="13" lengthAdjust="spacingAndGlyphs" textLength="8" x="610.4238" y="812.7571">1</text><!--link Mapa to Sala--><path d="M699.5,742.2171 C699.5,732.2051 699.5,722.1921 699.5,712.1801 " fill="none" id="Mapa-Sala" style="stroke: #A80036; stroke-width: 1.0;"/><polygon fill="#A80036" points="699.5,747.4531,703.5,738.4531,699.5,742.4531,695.5,738.4531,699.5,747.4531" style="stroke: #A80036; stroke-width: 1.0;"/><text fill="#000000" font-family="sans-serif" font-size="13" lengthAdjust="spacingAndGlyphs" textLength="8" x="690.9625" y="736.4559">1</text><text fill="#000000" font-family="sans-serif" font-size="13" lengthAdjust="spacingAndGlyphs" textLength="20" x="678.5781" y="731.6228">1...</text><!--link Partida to Jugador--><path d="M328.842,853.2711 C289.07,884.3591 248.77,927.8331 240,980.4531 C234.517,1013.3481 233.529,1087.3411 246,1101.9531 C253.138,1110.3161 261.252,1118.0191 269.972,1125.0921 " fill="none" id="Partida-Jugador" style="stroke: #A80036; stroke-width: 1.0;"/><polygon fill="#A80036" points="333.186,849.9221,323.616,852.2492,329.2261,852.9749,328.5004,858.585,333.186,849.9221" style="stroke: #A80036; stroke-width: 1.0;"/><text fill="#000000" font-family="sans-serif" font-size="13" lengthAdjust="spacingAndGlyphs" textLength="20" x="305.5412" y="866.7705">0...</text><text fill="#000000" font-family="sans-serif" font-size="13" lengthAdjust="spacingAndGlyphs" textLength="8" x="253.7947" y="1133.9281">1</text><!--link Ranking to Partida--><path d="M207.572,816.3931 C245.319,813.3941 290.03,809.8421 328.217,806.8081 " fill="none" id="Ranking-Partida" style="stroke: #A80036; stroke-width: 1.0;"/><polygon fill="#A80036" points="333.32,806.4031,324.0317,803.128,328.3357,806.7988,324.6648,811.1029,333.32,806.4031" style="stroke: #A80036; stroke-width: 1.0;"/><text fill="#000000" font-family="sans-serif" font-size="13" lengthAdjust="spacingAndGlyphs" textLength="8" x="215.3714" y="828.5514">1</text><text fill="#000000" font-family="sans-serif" font-size="13" lengthAdjust="spacingAndGlyphs" textLength="20" x="305.3983" y="819.692">0...</text><!--link Ranking to Jugador--><path d="M138.362,882.1741 C154.77,943.4561 187.852,1038.8701 246,1101.9531 C252.069,1108.5371 258.732,1114.7331 265.797,1120.5511 " fill="none" id="Ranking-Jugador" style="stroke: #A80036; stroke-width: 1.0;"/><polygon fill="#A80036" points="269.761,1123.7431,265.2597,1114.9831,265.8666,1120.6073,260.2424,1121.2142,269.761,1123.7431" style="stroke: #A80036; stroke-width: 1.0;"/><text fill="#000000" font-family="sans-serif" font-size="13" lengthAdjust="spacingAndGlyphs" textLength="8" x="131.5601" y="901.9656">1</text><text fill="#000000" font-family="sans-serif" font-size="13" lengthAdjust="spacingAndGlyphs" textLength="20" x="242.2174" y="1117.1564">0...</text><!--link Sistema to Partida--><path d="M415.5,660.9771 C415.5,670.8671 415.5,680.7571 415.5,690.6461 " fill="none" id="Sistema-Partida" style="stroke: #A80036; stroke-width: 1.0;"/><polygon fill="#A80036" points="415.5,695.8181,419.5,686.8181,415.5,690.8181,411.5,686.8181,415.5,695.8181" style="stroke: #A80036; stroke-width: 1.0;"/><text fill="#000000" font-family="sans-serif" font-size="13" lengthAdjust="spacingAndGlyphs" textLength="8" x="407.2563" y="681.0016">1</text><text fill="#000000" font-family="sans-serif" font-size="13" lengthAdjust="spacingAndGlyphs" textLength="8" x="407.2188" y="685.0546">1</text><!--link MenúUsuario to Sistema--><path d="M210.294,306.5901 C248.155,349.4861 292.584,399.8231 330.315,442.5721 " fill="none" id="MenúUsuario-Sistema" style="stroke: #A80036; stroke-width: 1.0;"/><text fill="#000000" font-family="sans-serif" font-size="13" lengthAdjust="spacingAndGlyphs" textLength="8" x="218.0536" y="327.6201">1</text><text fill="#000000" font-family="sans-serif" font-size="13" lengthAdjust="spacingAndGlyphs" textLength="8" x="314.372" y="446.8177">1</text><!--
@startuml
title Classes - Class Diagram

Package Personas {
class Jugador <<entity>> {
    +ID : char
    +Password: char
    +Nombre : char
    +Login(ID : char, Password : char) : bool
    +CrearCuenta(ID : char, Password : char) : bool
    +ModificarCuenta() : void
    +salirJuego(): void
}

Jugador <|- Administrador

class Administrador <<entity>>{
    +Accesos : string
    +Actualizar() : void
    +GestionarCuentas() : void
    +AdministrarJuego() : void
}
}
Package ArtefactosJuego {
class Partida <<entity>>{
  +Dificultad : int
  +Personajes: personaje
  +Mapas: mapa
  +SalaActual : Sala
  +Pausa() : void
  +Play(): void
  +AñadirMapa() : void
  +EliminarMapa() : void
  +ContinuarPartida() : void
  +CrearPartida() : void
  +GuardarPartida() : void
  +EliminarPartida() : void
}

Partida "1" <- - "1" Mapa

class Mapa <<entity>>{
    +Sala : array
    +AñadirSala() : void
    +EliminarSala() : void
    +GuardarMapa() : void
}

left to right direction
Mapa "1" <- "1..." Sala

class Sala <<entity>>{
    +Nombre : string
    +Descripcion : string
    +Posicion : int
    +ID: int
    +MostrarPuertas() : void
    +GuardarSalas() : void
    +SetPosicion() : void
}

Partida "0..." <- "1" Jugador


Ranking "1"- ->"0..." Partida
Ranking "1"->"0..." Jugador

class Ranking <<entity>>{
    +Position : int
    +Nombre : char
    +Puntuacion : int
    +VerRanking() : void
    +ActualizarRanking() : void
}

class Sistema <<control>>{
    +crearCuenta() : void
    +crearMapa() : void
    +crearPartida() : void
    +consultarRanking() : void
    +continuarPartida() : void
    +comprobarDispo() : void
    +eliminarPartida() : void
    +guardarPartida() : void
    +modificarCuenta() : void
    +salirJuego() : void
    +gestionarCuentas() : void
    +modificarCuenta() : void
    +modificarMapa() : void
    +modificarRanking() : void
    +enLinea() : void
}
Sistema "1" -> "1" Partida
}
Package Interfaces {
MenúUsuario "1"- -"1" Sistema
class MenúUsuario <<boundary>>{
    +menuMovimientos() : void
    +crearCuenta() : void
    +crearMapa() : void
    +crearPartida() : void
    +consultarRanking() : void
    +continuarPartida() : void
    +comprobarDispo() : void
    +eliminarPartida() : void
    +guardarPartida() : void
    +modificarCuenta() : void
    +salirJuego() : void
    -gestionarCuentas() : void
    -modificarCuenta() : void
    -modificarMapa() : void
    -modificarRanking() : void
    -enLinea() : void
    }
}
@enduml

PlantUML version 1.2019.05(Sat Apr 20 16:45:36 UTC 2019)
(GPL source distribution)
Java Runtime: Java(TM) SE Runtime Environment
JVM: Java HotSpot(TM) 64-Bit Server VM
Java Version: 1.7.0_25-b15
Operating System: Linux
Default Encoding: UTF-8
Language: en
Country: US
--></g></svg>