<?xml version="1.0" encoding="UTF-8" standalone="no"?><svg xmlns="http://www.w3.org/2000/svg" xmlns:xlink="http://www.w3.org/1999/xlink" contentScriptType="application/ecmascript" contentStyleType="text/css" height="732px" preserveAspectRatio="none" style="width:1131px;height:732px;" version="1.1" viewBox="0 0 1131 732" width="1131px" zoomAndPan="magnify"><defs><filter height="300%" id="f11i40hy33s7vm" width="300%" x="-1" y="-1"><feGaussianBlur result="blurOut" stdDeviation="2.0"/><feColorMatrix in="blurOut" result="blurOut2" type="matrix" values="0 0 0 0 0 0 0 0 0 0 0 0 0 0 0 0 0 0 .4 0"/><feOffset dx="4.0" dy="4.0" in="blurOut2" result="blurOut3"/><feBlend in="SourceGraphic" in2="blurOut3" mode="normal"/></filter></defs><g><text fill="#000000" font-family="sans-serif" font-size="18" lengthAdjust="spacingAndGlyphs" textLength="207" x="468" y="16.708">Classes - Class Diagram</text><!--cluster Personas--><polygon fill="#FFFFFF" filter="url(#f11i40hy33s7vm)" points="492,525.9531,572,525.9531,579,548.25,1109,548.25,1109,720.9531,492,720.9531,492,525.9531" style="stroke: #000000; stroke-width: 1.5;"/><line style="stroke: #000000; stroke-width: 1.5;" x1="492" x2="579" y1="548.25" y2="548.25"/><text fill="#000000" font-family="sans-serif" font-size="14" font-weight="bold" lengthAdjust="spacingAndGlyphs" textLength="74" x="496" y="540.9482">Personas</text><!--cluster ArtefactosJuego--><polygon fill="#FFFFFF" filter="url(#f11i40hy33s7vm)" points="259,51.9531,392,51.9531,399,74.25,1101.5,74.25,1101.5,501.9531,259,501.9531,259,51.9531" style="stroke: #000000; stroke-width: 1.5;"/><line style="stroke: #000000; stroke-width: 1.5;" x1="259" x2="399" y1="74.25" y2="74.25"/><text fill="#000000" font-family="sans-serif" font-size="14" font-weight="bold" lengthAdjust="spacingAndGlyphs" textLength="127" x="263" y="66.9482">ArtefactosJuego</text><!--cluster Interfaces--><polygon fill="#FFFFFF" filter="url(#f11i40hy33s7vm)" points="22,44.9531,108,44.9531,115,67.25,226,67.25,226,355.9531,22,355.9531,22,44.9531" style="stroke: #000000; stroke-width: 1.5;"/><line style="stroke: #000000; stroke-width: 1.5;" x1="22" x2="115" y1="67.25" y2="67.25"/><text fill="#000000" font-family="sans-serif" font-size="14" font-weight="bold" lengthAdjust="spacingAndGlyphs" textLength="80" x="26" y="59.9482">Interfaces</text><!--class Jugador--><rect fill="#FEFECE" filter="url(#f11i40hy33s7vm)" height="143.5703" id="Jugador" style="stroke: #A80036; stroke-width: 1.5;" width="291" x="508" y="560.9531"/><ellipse cx="625.25" cy="579.9219" fill="#ADD1B2" rx="11" ry="11" style="stroke: #A80036; stroke-width: 1.0;"/><path d="M627.5938,575.5938 L627.7656,575.6719 C627.9844,575.3594 628.1875,575.2656 628.4844,575.2656 C628.7813,575.2656 629.0625,575.4063 629.2188,575.6719 C629.3125,575.8281 629.3281,575.9531 629.3281,576.3906 L629.3281,577.8125 C629.3281,578.2344 629.2969,578.4219 629.1875,578.5781 C629.0156,578.7969 628.75,578.9375 628.4844,578.9375 C628.2656,578.9375 628.0313,578.8281 627.8906,578.6875 C627.75,578.5625 627.7188,578.4375 627.6563,578.0313 C627.5625,577.625 627.3906,577.4063 626.9063,577.125 C626.4375,576.875 625.8281,576.7188 625.25,576.7188 C623.5156,576.7188 622.2656,578.0313 622.2656,579.8125 L622.2656,580.9063 C622.2656,582.6094 623.5625,583.7031 625.6094,583.7031 C626.375,583.7031 627.0625,583.5781 627.4844,583.3125 C627.6719,583.2188 627.6719,583.2188 628.125,582.7344 C628.3125,582.5469 628.5156,582.4688 628.7344,582.4688 C629.2031,582.4688 629.5938,582.8594 629.5938,583.3125 C629.5938,583.7031 629.2656,584.1563 628.6875,584.5625 C627.9375,585.1094 626.7813,585.4063 625.5625,585.4063 C622.6719,585.4063 620.5625,583.5156 620.5625,580.9375 L620.5625,579.8125 C620.5625,577.0938 622.5625,575.0156 625.1875,575.0156 C626.0625,575.0156 626.6563,575.1563 627.5938,575.5938 Z "/><text fill="#000000" font-family="sans-serif" font-size="12" font-style="italic" lengthAdjust="spacingAndGlyphs" textLength="50" x="644.75" y="577.0918">«entity»</text><text fill="#000000" font-family="sans-serif" font-size="12" lengthAdjust="spacingAndGlyphs" textLength="48" x="645.75" y="591.0605">Jugador</text><line style="stroke: #A80036; stroke-width: 1.5;" x1="509" x2="798" y1="598.8906" y2="598.8906"/><ellipse cx="519" cy="610.793" fill="none" rx="3" ry="3" style="stroke: #038048; stroke-width: 1.0;"/><text fill="#000000" font-family="sans-serif" font-size="11" lengthAdjust="spacingAndGlyphs" textLength="48" x="528" y="613.1011">ID : char</text><ellipse cx="519" cy="623.5977" fill="none" rx="3" ry="3" style="stroke: #038048; stroke-width: 1.0;"/><text fill="#000000" font-family="sans-serif" font-size="11" lengthAdjust="spacingAndGlyphs" textLength="89" x="528" y="625.9058">Password: char</text><ellipse cx="519" cy="636.4023" fill="none" rx="3" ry="3" style="stroke: #038048; stroke-width: 1.0;"/><text fill="#000000" font-family="sans-serif" font-size="11" lengthAdjust="spacingAndGlyphs" textLength="82" x="528" y="638.7104">Nombre : char</text><line style="stroke: #A80036; stroke-width: 1.5;" x1="509" x2="798" y1="645.3047" y2="645.3047"/><ellipse cx="519" cy="657.207" fill="#84BE84" rx="3" ry="3" style="stroke: #038048; stroke-width: 1.0;"/><text fill="#000000" font-family="sans-serif" font-size="11" lengthAdjust="spacingAndGlyphs" textLength="223" x="528" y="659.5151">Login(ID : char, Password : char) : bool</text><ellipse cx="519" cy="670.0117" fill="#84BE84" rx="3" ry="3" style="stroke: #038048; stroke-width: 1.0;"/><text fill="#000000" font-family="sans-serif" font-size="11" lengthAdjust="spacingAndGlyphs" textLength="265" x="528" y="672.3198">CrearCuenta(ID : char, Password : char) : bool</text><ellipse cx="519" cy="682.8164" fill="#84BE84" rx="3" ry="3" style="stroke: #038048; stroke-width: 1.0;"/><text fill="#000000" font-family="sans-serif" font-size="11" lengthAdjust="spacingAndGlyphs" textLength="134" x="528" y="685.1245">ModificarCuenta() : void</text><ellipse cx="519" cy="695.6211" fill="#84BE84" rx="3" ry="3" style="stroke: #038048; stroke-width: 1.0;"/><text fill="#000000" font-family="sans-serif" font-size="11" lengthAdjust="spacingAndGlyphs" textLength="95" x="528" y="697.9292">salirJuego(): void</text><!--class Administrador--><rect fill="#FEFECE" filter="url(#f11i40hy33s7vm)" height="105.1563" id="Administrador" style="stroke: #A80036; stroke-width: 1.5;" width="172" x="921" y="580.4531"/><ellipse cx="959.85" cy="599.4219" fill="#ADD1B2" rx="11" ry="11" style="stroke: #A80036; stroke-width: 1.0;"/><path d="M962.1938,595.0938 L962.3656,595.1719 C962.5844,594.8594 962.7875,594.7656 963.0844,594.7656 C963.3813,594.7656 963.6625,594.9063 963.8188,595.1719 C963.9125,595.3281 963.9281,595.4531 963.9281,595.8906 L963.9281,597.3125 C963.9281,597.7344 963.8969,597.9219 963.7875,598.0781 C963.6156,598.2969 963.35,598.4375 963.0844,598.4375 C962.8656,598.4375 962.6313,598.3281 962.4906,598.1875 C962.35,598.0625 962.3188,597.9375 962.2563,597.5313 C962.1625,597.125 961.9906,596.9063 961.5063,596.625 C961.0375,596.375 960.4281,596.2188 959.85,596.2188 C958.1156,596.2188 956.8656,597.5313 956.8656,599.3125 L956.8656,600.4063 C956.8656,602.1094 958.1625,603.2031 960.2094,603.2031 C960.975,603.2031 961.6625,603.0781 962.0844,602.8125 C962.2719,602.7188 962.2719,602.7188 962.725,602.2344 C962.9125,602.0469 963.1156,601.9688 963.3344,601.9688 C963.8031,601.9688 964.1938,602.3594 964.1938,602.8125 C964.1938,603.2031 963.8656,603.6563 963.2875,604.0625 C962.5375,604.6094 961.3813,604.9063 960.1625,604.9063 C957.2719,604.9063 955.1625,603.0156 955.1625,600.4375 L955.1625,599.3125 C955.1625,596.5938 957.1625,594.5156 959.7875,594.5156 C960.6625,594.5156 961.2563,594.6563 962.1938,595.0938 Z "/><text fill="#000000" font-family="sans-serif" font-size="12" font-style="italic" lengthAdjust="spacingAndGlyphs" textLength="50" x="997.65" y="596.5918">«entity»</text><text fill="#000000" font-family="sans-serif" font-size="12" lengthAdjust="spacingAndGlyphs" textLength="87" x="979.15" y="610.5605">Administrador</text><line style="stroke: #A80036; stroke-width: 1.5;" x1="922" x2="1092" y1="618.3906" y2="618.3906"/><ellipse cx="932" cy="630.293" fill="none" rx="3" ry="3" style="stroke: #038048; stroke-width: 1.0;"/><text fill="#000000" font-family="sans-serif" font-size="11" lengthAdjust="spacingAndGlyphs" textLength="92" x="941" y="632.6011">Accesos : string</text><line style="stroke: #A80036; stroke-width: 1.5;" x1="922" x2="1092" y1="639.1953" y2="639.1953"/><ellipse cx="932" cy="651.0977" fill="#84BE84" rx="3" ry="3" style="stroke: #038048; stroke-width: 1.0;"/><text fill="#000000" font-family="sans-serif" font-size="11" lengthAdjust="spacingAndGlyphs" textLength="97" x="941" y="653.4058">Actualizar() : void</text><ellipse cx="932" cy="663.9023" fill="#84BE84" rx="3" ry="3" style="stroke: #038048; stroke-width: 1.0;"/><text fill="#000000" font-family="sans-serif" font-size="11" lengthAdjust="spacingAndGlyphs" textLength="146" x="941" y="666.2104">GestionarCuentas() : void</text><ellipse cx="932" cy="676.707" fill="#84BE84" rx="3" ry="3" style="stroke: #038048; stroke-width: 1.0;"/><text fill="#000000" font-family="sans-serif" font-size="11" lengthAdjust="spacingAndGlyphs" textLength="140" x="941" y="679.0151">AdministrarJuego() : void</text><!--class Partida--><rect fill="#FEFECE" filter="url(#f11i40hy33s7vm)" height="207.5938" id="Partida" style="stroke: #A80036; stroke-width: 1.5;" width="164" x="571.5" y="277.9531"/><ellipse cx="626.25" cy="296.9219" fill="#ADD1B2" rx="11" ry="11" style="stroke: #A80036; stroke-width: 1.0;"/><path d="M628.5938,292.5938 L628.7656,292.6719 C628.9844,292.3594 629.1875,292.2656 629.4844,292.2656 C629.7813,292.2656 630.0625,292.4063 630.2188,292.6719 C630.3125,292.8281 630.3281,292.9531 630.3281,293.3906 L630.3281,294.8125 C630.3281,295.2344 630.2969,295.4219 630.1875,295.5781 C630.0156,295.7969 629.75,295.9375 629.4844,295.9375 C629.2656,295.9375 629.0313,295.8281 628.8906,295.6875 C628.75,295.5625 628.7188,295.4375 628.6563,295.0313 C628.5625,294.625 628.3906,294.4063 627.9063,294.125 C627.4375,293.875 626.8281,293.7188 626.25,293.7188 C624.5156,293.7188 623.2656,295.0313 623.2656,296.8125 L623.2656,297.9063 C623.2656,299.6094 624.5625,300.7031 626.6094,300.7031 C627.375,300.7031 628.0625,300.5781 628.4844,300.3125 C628.6719,300.2188 628.6719,300.2188 629.125,299.7344 C629.3125,299.5469 629.5156,299.4688 629.7344,299.4688 C630.2031,299.4688 630.5938,299.8594 630.5938,300.3125 C630.5938,300.7031 630.2656,301.1563 629.6875,301.5625 C628.9375,302.1094 627.7813,302.4063 626.5625,302.4063 C623.6719,302.4063 621.5625,300.5156 621.5625,297.9375 L621.5625,296.8125 C621.5625,294.0938 623.5625,292.0156 626.1875,292.0156 C627.0625,292.0156 627.6563,292.1563 628.5938,292.5938 Z "/><text fill="#000000" font-family="sans-serif" font-size="12" font-style="italic" lengthAdjust="spacingAndGlyphs" textLength="50" x="644.75" y="294.0918">«entity»</text><text fill="#000000" font-family="sans-serif" font-size="12" lengthAdjust="spacingAndGlyphs" textLength="45" x="647.25" y="308.0605">Partida</text><line style="stroke: #A80036; stroke-width: 1.5;" x1="572.5" x2="734.5" y1="315.8906" y2="315.8906"/><ellipse cx="582.5" cy="327.793" fill="none" rx="3" ry="3" style="stroke: #038048; stroke-width: 1.0;"/><text fill="#000000" font-family="sans-serif" font-size="11" lengthAdjust="spacingAndGlyphs" textLength="78" x="591.5" y="330.1011">Dificultad : int</text><ellipse cx="582.5" cy="340.5977" fill="none" rx="3" ry="3" style="stroke: #038048; stroke-width: 1.0;"/><text fill="#000000" font-family="sans-serif" font-size="11" lengthAdjust="spacingAndGlyphs" textLength="129" x="591.5" y="342.9058">Personajes: personaje</text><ellipse cx="582.5" cy="353.4023" fill="none" rx="3" ry="3" style="stroke: #038048; stroke-width: 1.0;"/><text fill="#000000" font-family="sans-serif" font-size="11" lengthAdjust="spacingAndGlyphs" textLength="77" x="591.5" y="355.7104">Mapas: mapa</text><ellipse cx="582.5" cy="366.207" fill="none" rx="3" ry="3" style="stroke: #038048; stroke-width: 1.0;"/><text fill="#000000" font-family="sans-serif" font-size="11" lengthAdjust="spacingAndGlyphs" textLength="96" x="591.5" y="368.5151">SalaActual : Sala</text><line style="stroke: #A80036; stroke-width: 1.5;" x1="572.5" x2="734.5" y1="375.1094" y2="375.1094"/><ellipse cx="582.5" cy="387.0117" fill="#84BE84" rx="3" ry="3" style="stroke: #038048; stroke-width: 1.0;"/><text fill="#000000" font-family="sans-serif" font-size="11" lengthAdjust="spacingAndGlyphs" textLength="78" x="591.5" y="389.3198">Pausa() : void</text><ellipse cx="582.5" cy="399.8164" fill="#84BE84" rx="3" ry="3" style="stroke: #038048; stroke-width: 1.0;"/><text fill="#000000" font-family="sans-serif" font-size="11" lengthAdjust="spacingAndGlyphs" textLength="62" x="591.5" y="402.1245">Play(): void</text><ellipse cx="582.5" cy="412.6211" fill="#84BE84" rx="3" ry="3" style="stroke: #038048; stroke-width: 1.0;"/><text fill="#000000" font-family="sans-serif" font-size="11" lengthAdjust="spacingAndGlyphs" textLength="109" x="591.5" y="414.9292">AñadirMapa() : void</text><ellipse cx="582.5" cy="425.4258" fill="#84BE84" rx="3" ry="3" style="stroke: #038048; stroke-width: 1.0;"/><text fill="#000000" font-family="sans-serif" font-size="11" lengthAdjust="spacingAndGlyphs" textLength="119" x="591.5" y="427.7339">EliminarMapa() : void</text><ellipse cx="582.5" cy="438.2305" fill="#84BE84" rx="3" ry="3" style="stroke: #038048; stroke-width: 1.0;"/><text fill="#000000" font-family="sans-serif" font-size="11" lengthAdjust="spacingAndGlyphs" textLength="138" x="591.5" y="440.5386">ContinuarPartida() : void</text><ellipse cx="582.5" cy="451.0352" fill="#84BE84" rx="3" ry="3" style="stroke: #038048; stroke-width: 1.0;"/><text fill="#000000" font-family="sans-serif" font-size="11" lengthAdjust="spacingAndGlyphs" textLength="115" x="591.5" y="453.3433">CrearPartida() : void</text><ellipse cx="582.5" cy="463.8398" fill="#84BE84" rx="3" ry="3" style="stroke: #038048; stroke-width: 1.0;"/><text fill="#000000" font-family="sans-serif" font-size="11" lengthAdjust="spacingAndGlyphs" textLength="130" x="591.5" y="466.1479">GuardarPartida() : void</text><ellipse cx="582.5" cy="476.6445" fill="#84BE84" rx="3" ry="3" style="stroke: #038048; stroke-width: 1.0;"/><text fill="#000000" font-family="sans-serif" font-size="11" lengthAdjust="spacingAndGlyphs" textLength="129" x="591.5" y="478.9526">EliminarPartida() : void</text><!--class Mapa--><rect fill="#FEFECE" filter="url(#f11i40hy33s7vm)" height="105.1563" id="Mapa" style="stroke: #A80036; stroke-width: 1.5;" width="146" x="934" y="329.4531"/><ellipse cx="979.75" cy="348.4219" fill="#ADD1B2" rx="11" ry="11" style="stroke: #A80036; stroke-width: 1.0;"/><path d="M982.0938,344.0938 L982.2656,344.1719 C982.4844,343.8594 982.6875,343.7656 982.9844,343.7656 C983.2813,343.7656 983.5625,343.9063 983.7188,344.1719 C983.8125,344.3281 983.8281,344.4531 983.8281,344.8906 L983.8281,346.3125 C983.8281,346.7344 983.7969,346.9219 983.6875,347.0781 C983.5156,347.2969 983.25,347.4375 982.9844,347.4375 C982.7656,347.4375 982.5313,347.3281 982.3906,347.1875 C982.25,347.0625 982.2188,346.9375 982.1563,346.5313 C982.0625,346.125 981.8906,345.9063 981.4063,345.625 C980.9375,345.375 980.3281,345.2188 979.75,345.2188 C978.0156,345.2188 976.7656,346.5313 976.7656,348.3125 L976.7656,349.4063 C976.7656,351.1094 978.0625,352.2031 980.1094,352.2031 C980.875,352.2031 981.5625,352.0781 981.9844,351.8125 C982.1719,351.7188 982.1719,351.7188 982.625,351.2344 C982.8125,351.0469 983.0156,350.9688 983.2344,350.9688 C983.7031,350.9688 984.0938,351.3594 984.0938,351.8125 C984.0938,352.2031 983.7656,352.6563 983.1875,353.0625 C982.4375,353.6094 981.2813,353.9063 980.0625,353.9063 C977.1719,353.9063 975.0625,352.0156 975.0625,349.4375 L975.0625,348.3125 C975.0625,345.5938 977.0625,343.5156 979.6875,343.5156 C980.5625,343.5156 981.1563,343.6563 982.0938,344.0938 Z "/><text fill="#000000" font-family="sans-serif" font-size="12" font-style="italic" lengthAdjust="spacingAndGlyphs" textLength="50" x="998.25" y="345.5918">«entity»</text><text fill="#000000" font-family="sans-serif" font-size="12" lengthAdjust="spacingAndGlyphs" textLength="34" x="1006.25" y="359.5605">Mapa</text><line style="stroke: #A80036; stroke-width: 1.5;" x1="935" x2="1079" y1="367.3906" y2="367.3906"/><ellipse cx="945" cy="379.293" fill="none" rx="3" ry="3" style="stroke: #038048; stroke-width: 1.0;"/><text fill="#000000" font-family="sans-serif" font-size="11" lengthAdjust="spacingAndGlyphs" textLength="67" x="954" y="381.6011">Sala : array</text><line style="stroke: #A80036; stroke-width: 1.5;" x1="935" x2="1079" y1="388.1953" y2="388.1953"/><ellipse cx="945" cy="400.0977" fill="#84BE84" rx="3" ry="3" style="stroke: #038048; stroke-width: 1.0;"/><text fill="#000000" font-family="sans-serif" font-size="11" lengthAdjust="spacingAndGlyphs" textLength="104" x="954" y="402.4058">AñadirSala() : void</text><ellipse cx="945" cy="412.9023" fill="#84BE84" rx="3" ry="3" style="stroke: #038048; stroke-width: 1.0;"/><text fill="#000000" font-family="sans-serif" font-size="11" lengthAdjust="spacingAndGlyphs" textLength="114" x="954" y="415.2104">EliminarSala() : void</text><ellipse cx="945" cy="425.707" fill="#84BE84" rx="3" ry="3" style="stroke: #038048; stroke-width: 1.0;"/><text fill="#000000" font-family="sans-serif" font-size="11" lengthAdjust="spacingAndGlyphs" textLength="120" x="954" y="428.0151">GuardarMapa() : void</text><!--class Sala--><rect fill="#FEFECE" filter="url(#f11i40hy33s7vm)" height="143.5703" id="Sala" style="stroke: #A80036; stroke-width: 1.5;" width="157" x="928.5" y="149.9531"/><ellipse cx="979.75" cy="168.9219" fill="#ADD1B2" rx="11" ry="11" style="stroke: #A80036; stroke-width: 1.0;"/><path d="M982.0938,164.5938 L982.2656,164.6719 C982.4844,164.3594 982.6875,164.2656 982.9844,164.2656 C983.2813,164.2656 983.5625,164.4063 983.7188,164.6719 C983.8125,164.8281 983.8281,164.9531 983.8281,165.3906 L983.8281,166.8125 C983.8281,167.2344 983.7969,167.4219 983.6875,167.5781 C983.5156,167.7969 983.25,167.9375 982.9844,167.9375 C982.7656,167.9375 982.5313,167.8281 982.3906,167.6875 C982.25,167.5625 982.2188,167.4375 982.1563,167.0313 C982.0625,166.625 981.8906,166.4063 981.4063,166.125 C980.9375,165.875 980.3281,165.7188 979.75,165.7188 C978.0156,165.7188 976.7656,167.0313 976.7656,168.8125 L976.7656,169.9063 C976.7656,171.6094 978.0625,172.7031 980.1094,172.7031 C980.875,172.7031 981.5625,172.5781 981.9844,172.3125 C982.1719,172.2188 982.1719,172.2188 982.625,171.7344 C982.8125,171.5469 983.0156,171.4688 983.2344,171.4688 C983.7031,171.4688 984.0938,171.8594 984.0938,172.3125 C984.0938,172.7031 983.7656,173.1563 983.1875,173.5625 C982.4375,174.1094 981.2813,174.4063 980.0625,174.4063 C977.1719,174.4063 975.0625,172.5156 975.0625,169.9375 L975.0625,168.8125 C975.0625,166.0938 977.0625,164.0156 979.6875,164.0156 C980.5625,164.0156 981.1563,164.1563 982.0938,164.5938 Z "/><text fill="#000000" font-family="sans-serif" font-size="12" font-style="italic" lengthAdjust="spacingAndGlyphs" textLength="50" x="998.25" y="166.0918">«entity»</text><text fill="#000000" font-family="sans-serif" font-size="12" lengthAdjust="spacingAndGlyphs" textLength="27" x="1009.75" y="180.0605">Sala</text><line style="stroke: #A80036; stroke-width: 1.5;" x1="929.5" x2="1084.5" y1="187.8906" y2="187.8906"/><ellipse cx="939.5" cy="199.793" fill="none" rx="3" ry="3" style="stroke: #038048; stroke-width: 1.0;"/><text fill="#000000" font-family="sans-serif" font-size="11" lengthAdjust="spacingAndGlyphs" textLength="90" x="948.5" y="202.1011">Nombre : string</text><ellipse cx="939.5" cy="212.5977" fill="none" rx="3" ry="3" style="stroke: #038048; stroke-width: 1.0;"/><text fill="#000000" font-family="sans-serif" font-size="11" lengthAdjust="spacingAndGlyphs" textLength="111" x="948.5" y="214.9058">Descripcion : string</text><ellipse cx="939.5" cy="225.4023" fill="none" rx="3" ry="3" style="stroke: #038048; stroke-width: 1.0;"/><text fill="#000000" font-family="sans-serif" font-size="11" lengthAdjust="spacingAndGlyphs" textLength="73" x="948.5" y="227.7104">Posicion : int</text><ellipse cx="939.5" cy="238.207" fill="none" rx="3" ry="3" style="stroke: #038048; stroke-width: 1.0;"/><text fill="#000000" font-family="sans-serif" font-size="11" lengthAdjust="spacingAndGlyphs" textLength="33" x="948.5" y="240.5151">ID: int</text><line style="stroke: #A80036; stroke-width: 1.5;" x1="929.5" x2="1084.5" y1="247.1094" y2="247.1094"/><ellipse cx="939.5" cy="259.0117" fill="#84BE84" rx="3" ry="3" style="stroke: #038048; stroke-width: 1.0;"/><text fill="#000000" font-family="sans-serif" font-size="11" lengthAdjust="spacingAndGlyphs" textLength="131" x="948.5" y="261.3198">MostrarPuertas() : void</text><ellipse cx="939.5" cy="271.8164" fill="#84BE84" rx="3" ry="3" style="stroke: #038048; stroke-width: 1.0;"/><text fill="#000000" font-family="sans-serif" font-size="11" lengthAdjust="spacingAndGlyphs" textLength="122" x="948.5" y="274.1245">GuardarSalas() : void</text><ellipse cx="939.5" cy="284.6211" fill="#84BE84" rx="3" ry="3" style="stroke: #038048; stroke-width: 1.0;"/><text fill="#000000" font-family="sans-serif" font-size="11" lengthAdjust="spacingAndGlyphs" textLength="109" x="948.5" y="286.9292">SetPosicion() : void</text><!--class Ranking--><rect fill="#FEFECE" filter="url(#f11i40hy33s7vm)" height="117.9609" id="Ranking" style="stroke: #A80036; stroke-width: 1.5;" width="167" x="276.5" y="367.9531"/><ellipse cx="330.75" cy="386.9219" fill="#ADD1B2" rx="11" ry="11" style="stroke: #A80036; stroke-width: 1.0;"/><path d="M333.0938,382.5938 L333.2656,382.6719 C333.4844,382.3594 333.6875,382.2656 333.9844,382.2656 C334.2813,382.2656 334.5625,382.4063 334.7188,382.6719 C334.8125,382.8281 334.8281,382.9531 334.8281,383.3906 L334.8281,384.8125 C334.8281,385.2344 334.7969,385.4219 334.6875,385.5781 C334.5156,385.7969 334.25,385.9375 333.9844,385.9375 C333.7656,385.9375 333.5313,385.8281 333.3906,385.6875 C333.25,385.5625 333.2188,385.4375 333.1563,385.0313 C333.0625,384.625 332.8906,384.4063 332.4063,384.125 C331.9375,383.875 331.3281,383.7188 330.75,383.7188 C329.0156,383.7188 327.7656,385.0313 327.7656,386.8125 L327.7656,387.9063 C327.7656,389.6094 329.0625,390.7031 331.1094,390.7031 C331.875,390.7031 332.5625,390.5781 332.9844,390.3125 C333.1719,390.2188 333.1719,390.2188 333.625,389.7344 C333.8125,389.5469 334.0156,389.4688 334.2344,389.4688 C334.7031,389.4688 335.0938,389.8594 335.0938,390.3125 C335.0938,390.7031 334.7656,391.1563 334.1875,391.5625 C333.4375,392.1094 332.2813,392.4063 331.0625,392.4063 C328.1719,392.4063 326.0625,390.5156 326.0625,387.9375 L326.0625,386.8125 C326.0625,384.0938 328.0625,382.0156 330.6875,382.0156 C331.5625,382.0156 332.1563,382.1563 333.0938,382.5938 Z "/><text fill="#000000" font-family="sans-serif" font-size="12" font-style="italic" lengthAdjust="spacingAndGlyphs" textLength="50" x="351.25" y="384.0918">«entity»</text><text fill="#000000" font-family="sans-serif" font-size="12" lengthAdjust="spacingAndGlyphs" textLength="50" x="351.25" y="398.0605">Ranking</text><line style="stroke: #A80036; stroke-width: 1.5;" x1="277.5" x2="442.5" y1="405.8906" y2="405.8906"/><ellipse cx="287.5" cy="417.793" fill="none" rx="3" ry="3" style="stroke: #038048; stroke-width: 1.0;"/><text fill="#000000" font-family="sans-serif" font-size="11" lengthAdjust="spacingAndGlyphs" textLength="71" x="296.5" y="420.1011">Position : int</text><ellipse cx="287.5" cy="430.5977" fill="none" rx="3" ry="3" style="stroke: #038048; stroke-width: 1.0;"/><text fill="#000000" font-family="sans-serif" font-size="11" lengthAdjust="spacingAndGlyphs" textLength="82" x="296.5" y="432.9058">Nombre : char</text><ellipse cx="287.5" cy="443.4023" fill="none" rx="3" ry="3" style="stroke: #038048; stroke-width: 1.0;"/><text fill="#000000" font-family="sans-serif" font-size="11" lengthAdjust="spacingAndGlyphs" textLength="88" x="296.5" y="445.7104">Puntuacion : int</text><line style="stroke: #A80036; stroke-width: 1.5;" x1="277.5" x2="442.5" y1="452.3047" y2="452.3047"/><ellipse cx="287.5" cy="464.207" fill="#84BE84" rx="3" ry="3" style="stroke: #038048; stroke-width: 1.0;"/><text fill="#000000" font-family="sans-serif" font-size="11" lengthAdjust="spacingAndGlyphs" textLength="106" x="296.5" y="466.5151">VerRanking() : void</text><ellipse cx="287.5" cy="477.0117" fill="#84BE84" rx="3" ry="3" style="stroke: #038048; stroke-width: 1.0;"/><text fill="#000000" font-family="sans-serif" font-size="11" lengthAdjust="spacingAndGlyphs" textLength="141" x="296.5" y="479.3198">ActualizarRanking() : void</text><!--class Sistema--><rect fill="#FEFECE" filter="url(#f11i40hy33s7vm)" height="246.0078" id="Sistema" style="stroke: #A80036; stroke-width: 1.5;" width="170" x="275" y="86.9531"/><ellipse cx="328.75" cy="105.9219" fill="#ADD1B2" rx="11" ry="11" style="stroke: #A80036; stroke-width: 1.0;"/><path d="M331.0938,101.5938 L331.2656,101.6719 C331.4844,101.3594 331.6875,101.2656 331.9844,101.2656 C332.2813,101.2656 332.5625,101.4063 332.7188,101.6719 C332.8125,101.8281 332.8281,101.9531 332.8281,102.3906 L332.8281,103.8125 C332.8281,104.2344 332.7969,104.4219 332.6875,104.5781 C332.5156,104.7969 332.25,104.9375 331.9844,104.9375 C331.7656,104.9375 331.5313,104.8281 331.3906,104.6875 C331.25,104.5625 331.2188,104.4375 331.1563,104.0313 C331.0625,103.625 330.8906,103.4063 330.4063,103.125 C329.9375,102.875 329.3281,102.7188 328.75,102.7188 C327.0156,102.7188 325.7656,104.0313 325.7656,105.8125 L325.7656,106.9063 C325.7656,108.6094 327.0625,109.7031 329.1094,109.7031 C329.875,109.7031 330.5625,109.5781 330.9844,109.3125 C331.1719,109.2188 331.1719,109.2188 331.625,108.7344 C331.8125,108.5469 332.0156,108.4688 332.2344,108.4688 C332.7031,108.4688 333.0938,108.8594 333.0938,109.3125 C333.0938,109.7031 332.7656,110.1563 332.1875,110.5625 C331.4375,111.1094 330.2813,111.4063 329.0625,111.4063 C326.1719,111.4063 324.0625,109.5156 324.0625,106.9375 L324.0625,105.8125 C324.0625,103.0938 326.0625,101.0156 328.6875,101.0156 C329.5625,101.0156 330.1563,101.1563 331.0938,101.5938 Z "/><text fill="#000000" font-family="sans-serif" font-size="12" font-style="italic" lengthAdjust="spacingAndGlyphs" textLength="58" x="347.25" y="103.0918">«control»</text><text fill="#000000" font-family="sans-serif" font-size="12" lengthAdjust="spacingAndGlyphs" textLength="50" x="351.25" y="117.0605">Sistema</text><line style="stroke: #A80036; stroke-width: 1.5;" x1="276" x2="444" y1="124.8906" y2="124.8906"/><line style="stroke: #A80036; stroke-width: 1.5;" x1="276" x2="444" y1="132.8906" y2="132.8906"/><ellipse cx="286" cy="144.793" fill="#84BE84" rx="3" ry="3" style="stroke: #038048; stroke-width: 1.0;"/><text fill="#000000" font-family="sans-serif" font-size="11" lengthAdjust="spacingAndGlyphs" textLength="113" x="295" y="147.1011">crearCuenta() : void</text><ellipse cx="286" cy="157.5977" fill="#84BE84" rx="3" ry="3" style="stroke: #038048; stroke-width: 1.0;"/><text fill="#000000" font-family="sans-serif" font-size="11" lengthAdjust="spacingAndGlyphs" textLength="103" x="295" y="159.9058">crearMapa() : void</text><ellipse cx="286" cy="170.4023" fill="#84BE84" rx="3" ry="3" style="stroke: #038048; stroke-width: 1.0;"/><text fill="#000000" font-family="sans-serif" font-size="11" lengthAdjust="spacingAndGlyphs" textLength="113" x="295" y="172.7104">crearPartida() : void</text><ellipse cx="286" cy="183.207" fill="#84BE84" rx="3" ry="3" style="stroke: #038048; stroke-width: 1.0;"/><text fill="#000000" font-family="sans-serif" font-size="11" lengthAdjust="spacingAndGlyphs" textLength="140" x="295" y="185.5151">consultarRanking() : void</text><ellipse cx="286" cy="196.0117" fill="#84BE84" rx="3" ry="3" style="stroke: #038048; stroke-width: 1.0;"/><text fill="#000000" font-family="sans-serif" font-size="11" lengthAdjust="spacingAndGlyphs" textLength="136" x="295" y="198.3198">continuarPartida() : void</text><ellipse cx="286" cy="208.8164" fill="#84BE84" rx="3" ry="3" style="stroke: #038048; stroke-width: 1.0;"/><text fill="#000000" font-family="sans-serif" font-size="11" lengthAdjust="spacingAndGlyphs" textLength="137" x="295" y="211.1245">comprobarDispo() : void</text><ellipse cx="286" cy="221.6211" fill="#84BE84" rx="3" ry="3" style="stroke: #038048; stroke-width: 1.0;"/><text fill="#000000" font-family="sans-serif" font-size="11" lengthAdjust="spacingAndGlyphs" textLength="129" x="295" y="223.9292">eliminarPartida() : void</text><ellipse cx="286" cy="234.4258" fill="#84BE84" rx="3" ry="3" style="stroke: #038048; stroke-width: 1.0;"/><text fill="#000000" font-family="sans-serif" font-size="11" lengthAdjust="spacingAndGlyphs" textLength="128" x="295" y="236.7339">guardarPartida() : void</text><ellipse cx="286" cy="247.2305" fill="#84BE84" rx="3" ry="3" style="stroke: #038048; stroke-width: 1.0;"/><text fill="#000000" font-family="sans-serif" font-size="11" lengthAdjust="spacingAndGlyphs" textLength="136" x="295" y="249.5386">modificarCuenta() : void</text><ellipse cx="286" cy="260.0352" fill="#84BE84" rx="3" ry="3" style="stroke: #038048; stroke-width: 1.0;"/><text fill="#000000" font-family="sans-serif" font-size="11" lengthAdjust="spacingAndGlyphs" textLength="99" x="295" y="262.3433">salirJuego() : void</text><ellipse cx="286" cy="272.8398" fill="#84BE84" rx="3" ry="3" style="stroke: #038048; stroke-width: 1.0;"/><text fill="#000000" font-family="sans-serif" font-size="11" lengthAdjust="spacingAndGlyphs" textLength="144" x="295" y="275.1479">gestionarCuentas() : void</text><ellipse cx="286" cy="285.6445" fill="#84BE84" rx="3" ry="3" style="stroke: #038048; stroke-width: 1.0;"/><text fill="#000000" font-family="sans-serif" font-size="11" lengthAdjust="spacingAndGlyphs" textLength="136" x="295" y="287.9526">modificarCuenta() : void</text><ellipse cx="286" cy="298.4492" fill="#84BE84" rx="3" ry="3" style="stroke: #038048; stroke-width: 1.0;"/><text fill="#000000" font-family="sans-serif" font-size="11" lengthAdjust="spacingAndGlyphs" textLength="126" x="295" y="300.7573">modificarMapa() : void</text><ellipse cx="286" cy="311.2539" fill="#84BE84" rx="3" ry="3" style="stroke: #038048; stroke-width: 1.0;"/><text fill="#000000" font-family="sans-serif" font-size="11" lengthAdjust="spacingAndGlyphs" textLength="140" x="295" y="313.562">modificarRanking() : void</text><ellipse cx="286" cy="324.0586" fill="#84BE84" rx="3" ry="3" style="stroke: #038048; stroke-width: 1.0;"/><text fill="#000000" font-family="sans-serif" font-size="11" lengthAdjust="spacingAndGlyphs" textLength="87" x="295" y="326.3667">enLinea() : void</text><!--class MenúUsuario--><rect fill="#FEFECE" filter="url(#f11i40hy33s7vm)" height="258.8125" id="MenúUsuario" style="stroke: #A80036; stroke-width: 1.5;" width="172" x="38" y="80.4531"/><ellipse cx="79.1" cy="99.4219" fill="#ADD1B2" rx="11" ry="11" style="stroke: #A80036; stroke-width: 1.0;"/><path d="M81.4438,95.0938 L81.6156,95.1719 C81.8344,94.8594 82.0375,94.7656 82.3344,94.7656 C82.6313,94.7656 82.9125,94.9063 83.0688,95.1719 C83.1625,95.3281 83.1781,95.4531 83.1781,95.8906 L83.1781,97.3125 C83.1781,97.7344 83.1469,97.9219 83.0375,98.0781 C82.8656,98.2969 82.6,98.4375 82.3344,98.4375 C82.1156,98.4375 81.8813,98.3281 81.7406,98.1875 C81.6,98.0625 81.5688,97.9375 81.5063,97.5313 C81.4125,97.125 81.2406,96.9063 80.7563,96.625 C80.2875,96.375 79.6781,96.2188 79.1,96.2188 C77.3656,96.2188 76.1156,97.5313 76.1156,99.3125 L76.1156,100.4063 C76.1156,102.1094 77.4125,103.2031 79.4594,103.2031 C80.225,103.2031 80.9125,103.0781 81.3344,102.8125 C81.5219,102.7188 81.5219,102.7188 81.975,102.2344 C82.1625,102.0469 82.3656,101.9688 82.5844,101.9688 C83.0531,101.9688 83.4438,102.3594 83.4438,102.8125 C83.4438,103.2031 83.1156,103.6563 82.5375,104.0625 C81.7875,104.6094 80.6313,104.9063 79.4125,104.9063 C76.5219,104.9063 74.4125,103.0156 74.4125,100.4375 L74.4125,99.3125 C74.4125,96.5938 76.4125,94.5156 79.0375,94.5156 C79.9125,94.5156 80.5063,94.6563 81.4438,95.0938 Z "/><text fill="#000000" font-family="sans-serif" font-size="12" font-style="italic" lengthAdjust="spacingAndGlyphs" textLength="74" x="102.9" y="96.5918">«boundary»</text><text fill="#000000" font-family="sans-serif" font-size="12" lengthAdjust="spacingAndGlyphs" textLength="82" x="98.9" y="110.5605">MenúUsuario</text><line style="stroke: #A80036; stroke-width: 1.5;" x1="39" x2="209" y1="118.3906" y2="118.3906"/><line style="stroke: #A80036; stroke-width: 1.5;" x1="39" x2="209" y1="126.3906" y2="126.3906"/><ellipse cx="49" cy="138.293" fill="#84BE84" rx="3" ry="3" style="stroke: #038048; stroke-width: 1.0;"/><text fill="#000000" font-family="sans-serif" font-size="11" lengthAdjust="spacingAndGlyphs" textLength="146" x="58" y="140.6011">menuMovimientos() : void</text><ellipse cx="49" cy="151.0977" fill="#84BE84" rx="3" ry="3" style="stroke: #038048; stroke-width: 1.0;"/><text fill="#000000" font-family="sans-serif" font-size="11" lengthAdjust="spacingAndGlyphs" textLength="113" x="58" y="153.4058">crearCuenta() : void</text><ellipse cx="49" cy="163.9023" fill="#84BE84" rx="3" ry="3" style="stroke: #038048; stroke-width: 1.0;"/><text fill="#000000" font-family="sans-serif" font-size="11" lengthAdjust="spacingAndGlyphs" textLength="103" x="58" y="166.2104">crearMapa() : void</text><ellipse cx="49" cy="176.707" fill="#84BE84" rx="3" ry="3" style="stroke: #038048; stroke-width: 1.0;"/><text fill="#000000" font-family="sans-serif" font-size="11" lengthAdjust="spacingAndGlyphs" textLength="113" x="58" y="179.0151">crearPartida() : void</text><ellipse cx="49" cy="189.5117" fill="#84BE84" rx="3" ry="3" style="stroke: #038048; stroke-width: 1.0;"/><text fill="#000000" font-family="sans-serif" font-size="11" lengthAdjust="spacingAndGlyphs" textLength="140" x="58" y="191.8198">consultarRanking() : void</text><ellipse cx="49" cy="202.3164" fill="#84BE84" rx="3" ry="3" style="stroke: #038048; stroke-width: 1.0;"/><text fill="#000000" font-family="sans-serif" font-size="11" lengthAdjust="spacingAndGlyphs" textLength="136" x="58" y="204.6245">continuarPartida() : void</text><ellipse cx="49" cy="215.1211" fill="#84BE84" rx="3" ry="3" style="stroke: #038048; stroke-width: 1.0;"/><text fill="#000000" font-family="sans-serif" font-size="11" lengthAdjust="spacingAndGlyphs" textLength="137" x="58" y="217.4292">comprobarDispo() : void</text><ellipse cx="49" cy="227.9258" fill="#84BE84" rx="3" ry="3" style="stroke: #038048; stroke-width: 1.0;"/><text fill="#000000" font-family="sans-serif" font-size="11" lengthAdjust="spacingAndGlyphs" textLength="129" x="58" y="230.2339">eliminarPartida() : void</text><ellipse cx="49" cy="240.7305" fill="#84BE84" rx="3" ry="3" style="stroke: #038048; stroke-width: 1.0;"/><text fill="#000000" font-family="sans-serif" font-size="11" lengthAdjust="spacingAndGlyphs" textLength="128" x="58" y="243.0386">guardarPartida() : void</text><ellipse cx="49" cy="253.5352" fill="#84BE84" rx="3" ry="3" style="stroke: #038048; stroke-width: 1.0;"/><text fill="#000000" font-family="sans-serif" font-size="11" lengthAdjust="spacingAndGlyphs" textLength="136" x="58" y="255.8433">modificarCuenta() : void</text><ellipse cx="49" cy="266.3398" fill="#84BE84" rx="3" ry="3" style="stroke: #038048; stroke-width: 1.0;"/><text fill="#000000" font-family="sans-serif" font-size="11" lengthAdjust="spacingAndGlyphs" textLength="99" x="58" y="268.6479">salirJuego() : void</text><rect fill="#F24D5C" height="6" style="stroke: #C82930; stroke-width: 1.0;" width="6" x="46" y="276.1445"/><text fill="#000000" font-family="sans-serif" font-size="11" lengthAdjust="spacingAndGlyphs" textLength="144" x="58" y="281.4526">gestionarCuentas() : void</text><rect fill="#F24D5C" height="6" style="stroke: #C82930; stroke-width: 1.0;" width="6" x="46" y="288.9492"/><text fill="#000000" font-family="sans-serif" font-size="11" lengthAdjust="spacingAndGlyphs" textLength="136" x="58" y="294.2573">modificarCuenta() : void</text><rect fill="#F24D5C" height="6" style="stroke: #C82930; stroke-width: 1.0;" width="6" x="46" y="301.7539"/><text fill="#000000" font-family="sans-serif" font-size="11" lengthAdjust="spacingAndGlyphs" textLength="126" x="58" y="307.062">modificarMapa() : void</text><rect fill="#F24D5C" height="6" style="stroke: #C82930; stroke-width: 1.0;" width="6" x="46" y="314.5586"/><text fill="#000000" font-family="sans-serif" font-size="11" lengthAdjust="spacingAndGlyphs" textLength="140" x="58" y="319.8667">modificarRanking() : void</text><rect fill="#F24D5C" height="6" style="stroke: #C82930; stroke-width: 1.0;" width="6" x="46" y="327.3633"/><text fill="#000000" font-family="sans-serif" font-size="11" lengthAdjust="spacingAndGlyphs" textLength="87" x="58" y="332.6714">enLinea() : void</text><!--link Jugador to Administrador--><path d="M819.253,632.9531 C854.408,632.9531 890.153,632.9531 920.83,632.9531 " fill="none" id="Jugador-Administrador" style="stroke: #A80036; stroke-width: 1.0;"/><polygon fill="none" points="819.244,639.953,799.244,632.9531,819.244,625.9531,819.244,639.953" style="stroke: #A80036; stroke-width: 1.0;"/><text fill="#000000" font-family="sans-serif" font-size="13" lengthAdjust="spacingAndGlyphs" textLength="60" x="830" y="629.02">«Extend»</text><!--link Partida to Mapa--><path d="M740.901,381.9531 C800.211,381.9531 878.015,381.9531 933.974,381.9531 " fill="none" id="Partida-Mapa" style="stroke: #A80036; stroke-width: 1.0;"/><polygon fill="#A80036" points="735.583,381.9531,744.583,385.9531,740.583,381.9531,744.583,377.9531,735.583,381.9531" style="stroke: #A80036; stroke-width: 1.0;"/><text fill="#000000" font-family="sans-serif" font-size="13" lengthAdjust="spacingAndGlyphs" textLength="8" x="743.5188" y="394.7363">1</text><text fill="#000000" font-family="sans-serif" font-size="13" lengthAdjust="spacingAndGlyphs" textLength="8" x="918.0307" y="394.7922">1</text><!--link Mapa to Sala--><path d="M1007,324.2171 C1007,314.2051 1007,304.1921 1007,294.1801 " fill="none" id="Mapa-Sala" style="stroke: #A80036; stroke-width: 1.0;"/><polygon fill="#A80036" points="1007,329.4531,1011,320.4531,1007,324.4531,1003,320.4531,1007,329.4531" style="stroke: #A80036; stroke-width: 1.0;"/><text fill="#000000" font-family="sans-serif" font-size="13" lengthAdjust="spacingAndGlyphs" textLength="8" x="998.4625" y="318.4559">1</text><text fill="#000000" font-family="sans-serif" font-size="13" lengthAdjust="spacingAndGlyphs" textLength="20" x="986.0781" y="313.6228">1...</text><!--link Partida to Jugador--><path d="M653.5,491.3581 C653.5,514.5351 653.5,537.7121 653.5,560.8891 " fill="none" id="Partida-Jugador" style="stroke: #A80036; stroke-width: 1.0;"/><polygon fill="#A80036" points="653.5,486.0991,649.5,495.0991,653.5,491.0991,657.5,495.0991,653.5,486.0991" style="stroke: #A80036; stroke-width: 1.0;"/><text fill="#000000" font-family="sans-serif" font-size="13" lengthAdjust="spacingAndGlyphs" textLength="20" x="632.8281" y="505.6853">0...</text><text fill="#000000" font-family="sans-serif" font-size="13" lengthAdjust="spacingAndGlyphs" textLength="8" x="645.0875" y="549.78">1</text><!--link Ranking to Partida--><path d="M443.752,414.1781 C482.011,408.2721 527.44,401.2591 566.134,395.2861 " fill="none" id="Ranking-Partida" style="stroke: #A80036; stroke-width: 1.0;"/><polygon fill="#A80036" points="571.304,394.4881,561.7991,391.9081,566.3625,395.251,563.0197,399.8144,571.304,394.4881" style="stroke: #A80036; stroke-width: 1.0;"/><text fill="#000000" font-family="sans-serif" font-size="13" lengthAdjust="spacingAndGlyphs" textLength="8" x="451.5674" y="425.7829">1</text><text fill="#000000" font-family="sans-serif" font-size="13" lengthAdjust="spacingAndGlyphs" textLength="20" x="543.3809" y="408.2999">0...</text><!--link Ranking to Jugador--><path d="M443.752,485.4331 C475.697,508.0081 512.642,534.1171 546.49,558.0371 " fill="none" id="Ranking-Jugador" style="stroke: #A80036; stroke-width: 1.0;"/><polygon fill="#A80036" points="550.602,560.9431,545.5592,552.4832,546.5182,558.0582,540.9433,559.0173,550.602,560.9431" style="stroke: #A80036; stroke-width: 1.0;"/><text fill="#000000" font-family="sans-serif" font-size="13" lengthAdjust="spacingAndGlyphs" textLength="8" x="451.5674" y="503.384">1</text><text fill="#000000" font-family="sans-serif" font-size="13" lengthAdjust="spacingAndGlyphs" textLength="20" x="518.9594" y="549.8396">0...</text><!--link Sistema to Partida--><path d="M445.314,259.7031 C483.446,282.2031 528.446,308.7551 566.749,331.3551 " fill="none" id="Sistema-Partida" style="stroke: #A80036; stroke-width: 1.0;"/><polygon fill="#A80036" points="571.386,334.0911,565.6675,326.0725,567.0797,331.5502,561.602,332.9625,571.386,334.0911" style="stroke: #A80036; stroke-width: 1.0;"/><text fill="#000000" font-family="sans-serif" font-size="13" lengthAdjust="spacingAndGlyphs" textLength="8" x="452.9894" y="276.6953">1</text><text fill="#000000" font-family="sans-serif" font-size="13" lengthAdjust="spacingAndGlyphs" textLength="8" x="555.4474" y="342.462">1</text><!--link MenúUsuario to Sistema--><path d="M210.141,209.9531 C229.372,209.9531 249.846,209.9531 269.26,209.9531 " fill="none" id="MenúUsuario-Sistema" style="stroke: #A80036; stroke-width: 1.0;"/><polygon fill="#A80036" points="274.705,209.9531,265.705,205.9531,269.705,209.9531,265.705,213.9531,274.705,209.9531" style="stroke: #A80036; stroke-width: 1.0;"/><text fill="#000000" font-family="sans-serif" font-size="13" lengthAdjust="spacingAndGlyphs" textLength="8" x="217.8875" y="222.6783">1</text><text fill="#000000" font-family="sans-serif" font-size="13" lengthAdjust="spacingAndGlyphs" textLength="8" x="259.0312" y="222.6699">1</text><!--
@startuml
title Classes - Class Diagram

Package Personas {
class Jugador <<entity>> {
    +ID : char
    +Password: char
    +Nombre : char
    +Login(ID : char, Password : char) : bool
    +CrearCuenta(ID : char, Password : char) : bool
    +ModificarCuenta() : void
    +salirJuego(): void
}

Jugador <|-down- Administrador : <<Extend>>

class Administrador <<entity>>{
    +Accesos : string
    +Actualizar() : void
    +GestionarCuentas() : void
    +AdministrarJuego() : void
}
}
Package ArtefactosJuego {
class Partida <<entity>>{
  +Dificultad : int
  +Personajes: personaje
  +Mapas: mapa
  +SalaActual : Sala
  +Pausa() : void
  +Play(): void
  +AñadirMapa() : void
  +EliminarMapa() : void
  +ContinuarPartida() : void
  +CrearPartida() : void
  +GuardarPartida() : void
  +EliminarPartida() : void
}

Partida "1" <- - "1" Mapa

class Mapa <<entity>>{
    +Sala : array
    +AñadirSala() : void
    +EliminarSala() : void
    +GuardarMapa() : void
}

left to right direction
Mapa "1" <- "1..." Sala

class Sala <<entity>>{
    +Nombre : string
    +Descripcion : string
    +Posicion : int
    +ID: int
    +MostrarPuertas() : void
    +GuardarSalas() : void
    +SetPosicion() : void
}

Partida "0..." <- "1" Jugador


Ranking "1"- ->"0..." Partida
Ranking "1"- ->"0..." Jugador

class Ranking <<entity>>{
    +Position : int
    +Nombre : char
    +Puntuacion : int
    +VerRanking() : void
    +ActualizarRanking() : void
}

class Sistema <<control>>{
    +crearCuenta() : void
    +crearMapa() : void
    +crearPartida() : void
    +consultarRanking() : void
    +continuarPartida() : void
    +comprobarDispo() : void
    +eliminarPartida() : void
    +guardarPartida() : void
    +modificarCuenta() : void
    +salirJuego() : void
    +gestionarCuentas() : void
    +modificarCuenta() : void
    +modificarMapa() : void
    +modificarRanking() : void
    +enLinea() : void
}
Sistema "1" - -> "1" Partida
}
Package Interfaces {
MenúUsuario "1"- ->"1" Sistema
class MenúUsuario <<boundary>>{
    +menuMovimientos() : void
    +crearCuenta() : void
    +crearMapa() : void
    +crearPartida() : void
    +consultarRanking() : void
    +continuarPartida() : void
    +comprobarDispo() : void
    +eliminarPartida() : void
    +guardarPartida() : void
    +modificarCuenta() : void
    +salirJuego() : void
    -gestionarCuentas() : void
    -modificarCuenta() : void
    -modificarMapa() : void
    -modificarRanking() : void
    -enLinea() : void
    }
}
@enduml

PlantUML version 1.2019.05(Sat Apr 20 16:45:36 UTC 2019)
(GPL source distribution)
Java Runtime: Java(TM) SE Runtime Environment
JVM: Java HotSpot(TM) 64-Bit Server VM
Java Version: 1.7.0_25-b15
Operating System: Linux
Default Encoding: UTF-8
Language: en
Country: US
--></g></svg>