<?xml version="1.0" encoding="UTF-8" standalone="no"?><svg xmlns="http://www.w3.org/2000/svg" xmlns:xlink="http://www.w3.org/1999/xlink" contentScriptType="application/ecmascript" contentStyleType="text/css" height="523px" preserveAspectRatio="none" style="width:710px;height:523px;" version="1.1" viewBox="0 0 710 523" width="710px" zoomAndPan="magnify"><defs><filter height="300%" id="fs1zl5r77n85r" width="300%" x="-1" y="-1"><feGaussianBlur result="blurOut" stdDeviation="2.0"/><feColorMatrix in="blurOut" result="blurOut2" type="matrix" values="0 0 0 0 0 0 0 0 0 0 0 0 0 0 0 0 0 0 .4 0"/><feOffset dx="4.0" dy="4.0" in="blurOut2" result="blurOut3"/><feBlend in="SourceGraphic" in2="blurOut3" mode="normal"/></filter></defs><g><text fill="#000000" font-family="sans-serif" font-size="18" lengthAdjust="spacingAndGlyphs" textLength="207" x="255" y="16.708">Classes - Class Diagram</text><!--class Partida--><rect fill="#FEFECE" filter="url(#fs1zl5r77n85r)" height="150.4375" id="Partida" style="stroke: #A80036; stroke-width: 1.5;" width="155" x="280" y="29.4531"/><ellipse cx="330.75" cy="45.4531" fill="#ADD1B2" rx="11" ry="11" style="stroke: #A80036; stroke-width: 1.0;"/><path d="M333.0938,41.125 L333.2656,41.2031 C333.4844,40.8906 333.6875,40.7969 333.9844,40.7969 C334.2813,40.7969 334.5625,40.9375 334.7188,41.2031 C334.8125,41.3594 334.8281,41.4844 334.8281,41.9219 L334.8281,43.3438 C334.8281,43.7656 334.7969,43.9531 334.6875,44.1094 C334.5156,44.3281 334.25,44.4688 333.9844,44.4688 C333.7656,44.4688 333.5313,44.3594 333.3906,44.2188 C333.25,44.0938 333.2188,43.9688 333.1563,43.5625 C333.0625,43.1563 332.8906,42.9375 332.4063,42.6563 C331.9375,42.4063 331.3281,42.25 330.75,42.25 C329.0156,42.25 327.7656,43.5625 327.7656,45.3438 L327.7656,46.4375 C327.7656,48.1406 329.0625,49.2344 331.1094,49.2344 C331.875,49.2344 332.5625,49.1094 332.9844,48.8438 C333.1719,48.75 333.1719,48.75 333.625,48.2656 C333.8125,48.0781 334.0156,48 334.2344,48 C334.7031,48 335.0938,48.3906 335.0938,48.8438 C335.0938,49.2344 334.7656,49.6875 334.1875,50.0938 C333.4375,50.6406 332.2813,50.9375 331.0625,50.9375 C328.1719,50.9375 326.0625,49.0469 326.0625,46.4688 L326.0625,45.3438 C326.0625,42.625 328.0625,40.5469 330.6875,40.5469 C331.5625,40.5469 332.1563,40.6875 333.0938,41.125 Z "/><text fill="#000000" font-family="sans-serif" font-size="12" lengthAdjust="spacingAndGlyphs" textLength="45" x="351.25" y="49.6074">Partida</text><line style="stroke: #A80036; stroke-width: 1.5;" x1="281" x2="434" y1="61.4531" y2="61.4531"/><ellipse cx="291" cy="73.3555" fill="none" rx="3" ry="3" style="stroke: #038048; stroke-width: 1.0;"/><text fill="#000000" font-family="sans-serif" font-size="11" lengthAdjust="spacingAndGlyphs" textLength="78" x="300" y="75.6636">Dificultad : int</text><ellipse cx="291" cy="86.1602" fill="none" rx="3" ry="3" style="stroke: #038048; stroke-width: 1.0;"/><text fill="#000000" font-family="sans-serif" font-size="11" lengthAdjust="spacingAndGlyphs" textLength="129" x="300" y="88.4683">Personajes: personaje</text><ellipse cx="291" cy="98.9648" fill="none" rx="3" ry="3" style="stroke: #038048; stroke-width: 1.0;"/><text fill="#000000" font-family="sans-serif" font-size="11" lengthAdjust="spacingAndGlyphs" textLength="77" x="300" y="101.2729">Mapas: mapa</text><ellipse cx="291" cy="111.7695" fill="none" rx="3" ry="3" style="stroke: #038048; stroke-width: 1.0;"/><text fill="#000000" font-family="sans-serif" font-size="11" lengthAdjust="spacingAndGlyphs" textLength="96" x="300" y="114.0776">SalaActual : Sala</text><line style="stroke: #A80036; stroke-width: 1.5;" x1="281" x2="434" y1="120.6719" y2="120.6719"/><ellipse cx="291" cy="132.5742" fill="#84BE84" rx="3" ry="3" style="stroke: #038048; stroke-width: 1.0;"/><text fill="#000000" font-family="sans-serif" font-size="11" lengthAdjust="spacingAndGlyphs" textLength="78" x="300" y="134.8823">Pausa() : void</text><ellipse cx="291" cy="145.3789" fill="#84BE84" rx="3" ry="3" style="stroke: #038048; stroke-width: 1.0;"/><text fill="#000000" font-family="sans-serif" font-size="11" lengthAdjust="spacingAndGlyphs" textLength="62" x="300" y="147.687">Play(): void</text><ellipse cx="291" cy="158.1836" fill="#84BE84" rx="3" ry="3" style="stroke: #038048; stroke-width: 1.0;"/><text fill="#000000" font-family="sans-serif" font-size="11" lengthAdjust="spacingAndGlyphs" textLength="109" x="300" y="160.4917">A単adirMapa() : void</text><ellipse cx="291" cy="170.9883" fill="#84BE84" rx="3" ry="3" style="stroke: #038048; stroke-width: 1.0;"/><text fill="#000000" font-family="sans-serif" font-size="11" lengthAdjust="spacingAndGlyphs" textLength="119" x="300" y="173.2964">EliminarMapa() : void</text><!--class Mapa--><rect fill="#FEFECE" filter="url(#fs1zl5r77n85r)" height="99.2188" id="Mapa" style="stroke: #A80036; stroke-width: 1.5;" width="146" x="547.5" y="54.9531"/><ellipse cx="599.25" cy="70.9531" fill="#ADD1B2" rx="11" ry="11" style="stroke: #A80036; stroke-width: 1.0;"/><path d="M601.5938,66.625 L601.7656,66.7031 C601.9844,66.3906 602.1875,66.2969 602.4844,66.2969 C602.7813,66.2969 603.0625,66.4375 603.2188,66.7031 C603.3125,66.8594 603.3281,66.9844 603.3281,67.4219 L603.3281,68.8438 C603.3281,69.2656 603.2969,69.4531 603.1875,69.6094 C603.0156,69.8281 602.75,69.9688 602.4844,69.9688 C602.2656,69.9688 602.0313,69.8594 601.8906,69.7188 C601.75,69.5938 601.7188,69.4688 601.6563,69.0625 C601.5625,68.6563 601.3906,68.4375 600.9063,68.1563 C600.4375,67.9063 599.8281,67.75 599.25,67.75 C597.5156,67.75 596.2656,69.0625 596.2656,70.8438 L596.2656,71.9375 C596.2656,73.6406 597.5625,74.7344 599.6094,74.7344 C600.375,74.7344 601.0625,74.6094 601.4844,74.3438 C601.6719,74.25 601.6719,74.25 602.125,73.7656 C602.3125,73.5781 602.5156,73.5 602.7344,73.5 C603.2031,73.5 603.5938,73.8906 603.5938,74.3438 C603.5938,74.7344 603.2656,75.1875 602.6875,75.5938 C601.9375,76.1406 600.7813,76.4375 599.5625,76.4375 C596.6719,76.4375 594.5625,74.5469 594.5625,71.9688 L594.5625,70.8438 C594.5625,68.125 596.5625,66.0469 599.1875,66.0469 C600.0625,66.0469 600.6563,66.1875 601.5938,66.625 Z "/><text fill="#000000" font-family="sans-serif" font-size="12" lengthAdjust="spacingAndGlyphs" textLength="34" x="619.75" y="75.1074">Mapa</text><line style="stroke: #A80036; stroke-width: 1.5;" x1="548.5" x2="692.5" y1="86.9531" y2="86.9531"/><ellipse cx="558.5" cy="98.8555" fill="none" rx="3" ry="3" style="stroke: #038048; stroke-width: 1.0;"/><text fill="#000000" font-family="sans-serif" font-size="11" lengthAdjust="spacingAndGlyphs" textLength="67" x="567.5" y="101.1636">Sala : array</text><line style="stroke: #A80036; stroke-width: 1.5;" x1="548.5" x2="692.5" y1="107.7578" y2="107.7578"/><ellipse cx="558.5" cy="119.6602" fill="#84BE84" rx="3" ry="3" style="stroke: #038048; stroke-width: 1.0;"/><text fill="#000000" font-family="sans-serif" font-size="11" lengthAdjust="spacingAndGlyphs" textLength="104" x="567.5" y="121.9683">A単adirSala() : void</text><ellipse cx="558.5" cy="132.4648" fill="#84BE84" rx="3" ry="3" style="stroke: #038048; stroke-width: 1.0;"/><text fill="#000000" font-family="sans-serif" font-size="11" lengthAdjust="spacingAndGlyphs" textLength="114" x="567.5" y="134.7729">EliminarSala() : void</text><ellipse cx="558.5" cy="145.2695" fill="#84BE84" rx="3" ry="3" style="stroke: #038048; stroke-width: 1.0;"/><text fill="#000000" font-family="sans-serif" font-size="11" lengthAdjust="spacingAndGlyphs" textLength="120" x="567.5" y="147.5776">GuardarMapa() : void</text><!--class Sala--><rect fill="#FEFECE" filter="url(#fs1zl5r77n85r)" height="137.6328" id="Sala" style="stroke: #A80036; stroke-width: 1.5;" width="157" x="542" y="189.4531"/><ellipse cx="602.75" cy="205.4531" fill="#ADD1B2" rx="11" ry="11" style="stroke: #A80036; stroke-width: 1.0;"/><path d="M605.0938,201.125 L605.2656,201.2031 C605.4844,200.8906 605.6875,200.7969 605.9844,200.7969 C606.2813,200.7969 606.5625,200.9375 606.7188,201.2031 C606.8125,201.3594 606.8281,201.4844 606.8281,201.9219 L606.8281,203.3438 C606.8281,203.7656 606.7969,203.9531 606.6875,204.1094 C606.5156,204.3281 606.25,204.4688 605.9844,204.4688 C605.7656,204.4688 605.5313,204.3594 605.3906,204.2188 C605.25,204.0938 605.2188,203.9688 605.1563,203.5625 C605.0625,203.1563 604.8906,202.9375 604.4063,202.6563 C603.9375,202.4063 603.3281,202.25 602.75,202.25 C601.0156,202.25 599.7656,203.5625 599.7656,205.3438 L599.7656,206.4375 C599.7656,208.1406 601.0625,209.2344 603.1094,209.2344 C603.875,209.2344 604.5625,209.1094 604.9844,208.8438 C605.1719,208.75 605.1719,208.75 605.625,208.2656 C605.8125,208.0781 606.0156,208 606.2344,208 C606.7031,208 607.0938,208.3906 607.0938,208.8438 C607.0938,209.2344 606.7656,209.6875 606.1875,210.0938 C605.4375,210.6406 604.2813,210.9375 603.0625,210.9375 C600.1719,210.9375 598.0625,209.0469 598.0625,206.4688 L598.0625,205.3438 C598.0625,202.625 600.0625,200.5469 602.6875,200.5469 C603.5625,200.5469 604.1563,200.6875 605.0938,201.125 Z "/><text fill="#000000" font-family="sans-serif" font-size="12" lengthAdjust="spacingAndGlyphs" textLength="27" x="623.25" y="209.6074">Sala</text><line style="stroke: #A80036; stroke-width: 1.5;" x1="543" x2="698" y1="221.4531" y2="221.4531"/><ellipse cx="553" cy="233.3555" fill="none" rx="3" ry="3" style="stroke: #038048; stroke-width: 1.0;"/><text fill="#000000" font-family="sans-serif" font-size="11" lengthAdjust="spacingAndGlyphs" textLength="90" x="562" y="235.6636">Nombre : string</text><ellipse cx="553" cy="246.1602" fill="none" rx="3" ry="3" style="stroke: #038048; stroke-width: 1.0;"/><text fill="#000000" font-family="sans-serif" font-size="11" lengthAdjust="spacingAndGlyphs" textLength="111" x="562" y="248.4683">Descripcion : string</text><ellipse cx="553" cy="258.9648" fill="none" rx="3" ry="3" style="stroke: #038048; stroke-width: 1.0;"/><text fill="#000000" font-family="sans-serif" font-size="11" lengthAdjust="spacingAndGlyphs" textLength="73" x="562" y="261.2729">Posicion : int</text><ellipse cx="553" cy="271.7695" fill="none" rx="3" ry="3" style="stroke: #038048; stroke-width: 1.0;"/><text fill="#000000" font-family="sans-serif" font-size="11" lengthAdjust="spacingAndGlyphs" textLength="33" x="562" y="274.0776">ID: int</text><line style="stroke: #A80036; stroke-width: 1.5;" x1="543" x2="698" y1="280.6719" y2="280.6719"/><ellipse cx="553" cy="292.5742" fill="#84BE84" rx="3" ry="3" style="stroke: #038048; stroke-width: 1.0;"/><text fill="#000000" font-family="sans-serif" font-size="11" lengthAdjust="spacingAndGlyphs" textLength="131" x="562" y="294.8823">MostrarPuertas() : void</text><ellipse cx="553" cy="305.3789" fill="#84BE84" rx="3" ry="3" style="stroke: #038048; stroke-width: 1.0;"/><text fill="#000000" font-family="sans-serif" font-size="11" lengthAdjust="spacingAndGlyphs" textLength="122" x="562" y="307.687">GuardarSalas() : void</text><ellipse cx="553" cy="318.1836" fill="#84BE84" rx="3" ry="3" style="stroke: #038048; stroke-width: 1.0;"/><text fill="#000000" font-family="sans-serif" font-size="11" lengthAdjust="spacingAndGlyphs" textLength="109" x="562" y="320.4917">SetPosicion() : void</text><!--class Jugador--><rect fill="#FEFECE" filter="url(#fs1zl5r77n85r)" height="163.2422" id="Jugador" style="stroke: #A80036; stroke-width: 1.5;" width="249" x="233" y="214.9531"/><ellipse cx="329.25" cy="230.9531" fill="#ADD1B2" rx="11" ry="11" style="stroke: #A80036; stroke-width: 1.0;"/><path d="M331.5938,226.625 L331.7656,226.7031 C331.9844,226.3906 332.1875,226.2969 332.4844,226.2969 C332.7813,226.2969 333.0625,226.4375 333.2188,226.7031 C333.3125,226.8594 333.3281,226.9844 333.3281,227.4219 L333.3281,228.8438 C333.3281,229.2656 333.2969,229.4531 333.1875,229.6094 C333.0156,229.8281 332.75,229.9688 332.4844,229.9688 C332.2656,229.9688 332.0313,229.8594 331.8906,229.7188 C331.75,229.5938 331.7188,229.4688 331.6563,229.0625 C331.5625,228.6563 331.3906,228.4375 330.9063,228.1563 C330.4375,227.9063 329.8281,227.75 329.25,227.75 C327.5156,227.75 326.2656,229.0625 326.2656,230.8438 L326.2656,231.9375 C326.2656,233.6406 327.5625,234.7344 329.6094,234.7344 C330.375,234.7344 331.0625,234.6094 331.4844,234.3438 C331.6719,234.25 331.6719,234.25 332.125,233.7656 C332.3125,233.5781 332.5156,233.5 332.7344,233.5 C333.2031,233.5 333.5938,233.8906 333.5938,234.3438 C333.5938,234.7344 333.2656,235.1875 332.6875,235.5938 C331.9375,236.1406 330.7813,236.4375 329.5625,236.4375 C326.6719,236.4375 324.5625,234.5469 324.5625,231.9688 L324.5625,230.8438 C324.5625,228.125 326.5625,226.0469 329.1875,226.0469 C330.0625,226.0469 330.6563,226.1875 331.5938,226.625 Z "/><text fill="#000000" font-family="sans-serif" font-size="12" lengthAdjust="spacingAndGlyphs" textLength="48" x="349.75" y="235.1074">Jugador</text><line style="stroke: #A80036; stroke-width: 1.5;" x1="234" x2="481" y1="246.9531" y2="246.9531"/><ellipse cx="244" cy="258.8555" fill="none" rx="3" ry="3" style="stroke: #038048; stroke-width: 1.0;"/><text fill="#000000" font-family="sans-serif" font-size="11" lengthAdjust="spacingAndGlyphs" textLength="48" x="253" y="261.1636">ID : char</text><ellipse cx="244" cy="271.6602" fill="none" rx="3" ry="3" style="stroke: #038048; stroke-width: 1.0;"/><text fill="#000000" font-family="sans-serif" font-size="11" lengthAdjust="spacingAndGlyphs" textLength="89" x="253" y="273.9683">Password: char</text><ellipse cx="244" cy="284.4648" fill="none" rx="3" ry="3" style="stroke: #038048; stroke-width: 1.0;"/><text fill="#000000" font-family="sans-serif" font-size="11" lengthAdjust="spacingAndGlyphs" textLength="82" x="253" y="286.7729">Nombre : char</text><line style="stroke: #A80036; stroke-width: 1.5;" x1="234" x2="481" y1="293.3672" y2="293.3672"/><ellipse cx="244" cy="305.2695" fill="#84BE84" rx="3" ry="3" style="stroke: #038048; stroke-width: 1.0;"/><text fill="#000000" font-family="sans-serif" font-size="11" lengthAdjust="spacingAndGlyphs" textLength="223" x="253" y="307.5776">Login(ID : char, Password : char) : bool</text><ellipse cx="244" cy="318.0742" fill="#84BE84" rx="3" ry="3" style="stroke: #038048; stroke-width: 1.0;"/><text fill="#000000" font-family="sans-serif" font-size="11" lengthAdjust="spacingAndGlyphs" textLength="100" x="253" y="320.3823">EditProfile() : void</text><ellipse cx="244" cy="330.8789" fill="#84BE84" rx="3" ry="3" style="stroke: #038048; stroke-width: 1.0;"/><text fill="#000000" font-family="sans-serif" font-size="11" lengthAdjust="spacingAndGlyphs" textLength="93" x="253" y="333.187">Continue() : void</text><ellipse cx="244" cy="343.6836" fill="#84BE84" rx="3" ry="3" style="stroke: #038048; stroke-width: 1.0;"/><text fill="#000000" font-family="sans-serif" font-size="11" lengthAdjust="spacingAndGlyphs" textLength="115" x="253" y="345.9917">CrearPartida() : void</text><ellipse cx="244" cy="356.4883" fill="#84BE84" rx="3" ry="3" style="stroke: #038048; stroke-width: 1.0;"/><text fill="#000000" font-family="sans-serif" font-size="11" lengthAdjust="spacingAndGlyphs" textLength="130" x="253" y="358.7964">GuardarPartida() : void</text><ellipse cx="244" cy="369.293" fill="#84BE84" rx="3" ry="3" style="stroke: #038048; stroke-width: 1.0;"/><text fill="#000000" font-family="sans-serif" font-size="11" lengthAdjust="spacingAndGlyphs" textLength="129" x="253" y="371.6011">EliminarPartida() : void</text><!--class Ranking--><rect fill="#FEFECE" filter="url(#fs1zl5r77n85r)" height="112.0234" id="Ranking" style="stroke: #A80036; stroke-width: 1.5;" width="167" x="6" y="144.4531"/><ellipse cx="60.25" cy="160.4531" fill="#ADD1B2" rx="11" ry="11" style="stroke: #A80036; stroke-width: 1.0;"/><path d="M62.5938,156.125 L62.7656,156.2031 C62.9844,155.8906 63.1875,155.7969 63.4844,155.7969 C63.7813,155.7969 64.0625,155.9375 64.2188,156.2031 C64.3125,156.3594 64.3281,156.4844 64.3281,156.9219 L64.3281,158.3438 C64.3281,158.7656 64.2969,158.9531 64.1875,159.1094 C64.0156,159.3281 63.75,159.4688 63.4844,159.4688 C63.2656,159.4688 63.0313,159.3594 62.8906,159.2188 C62.75,159.0938 62.7188,158.9688 62.6563,158.5625 C62.5625,158.1563 62.3906,157.9375 61.9063,157.6563 C61.4375,157.4063 60.8281,157.25 60.25,157.25 C58.5156,157.25 57.2656,158.5625 57.2656,160.3438 L57.2656,161.4375 C57.2656,163.1406 58.5625,164.2344 60.6094,164.2344 C61.375,164.2344 62.0625,164.1094 62.4844,163.8438 C62.6719,163.75 62.6719,163.75 63.125,163.2656 C63.3125,163.0781 63.5156,163 63.7344,163 C64.2031,163 64.5938,163.3906 64.5938,163.8438 C64.5938,164.2344 64.2656,164.6875 63.6875,165.0938 C62.9375,165.6406 61.7813,165.9375 60.5625,165.9375 C57.6719,165.9375 55.5625,164.0469 55.5625,161.4688 L55.5625,160.3438 C55.5625,157.625 57.5625,155.5469 60.1875,155.5469 C61.0625,155.5469 61.6563,155.6875 62.5938,156.125 Z "/><text fill="#000000" font-family="sans-serif" font-size="12" lengthAdjust="spacingAndGlyphs" textLength="50" x="80.75" y="164.6074">Ranking</text><line style="stroke: #A80036; stroke-width: 1.5;" x1="7" x2="172" y1="176.4531" y2="176.4531"/><ellipse cx="17" cy="188.3555" fill="none" rx="3" ry="3" style="stroke: #038048; stroke-width: 1.0;"/><text fill="#000000" font-family="sans-serif" font-size="11" lengthAdjust="spacingAndGlyphs" textLength="71" x="26" y="190.6636">Position : int</text><ellipse cx="17" cy="201.1602" fill="none" rx="3" ry="3" style="stroke: #038048; stroke-width: 1.0;"/><text fill="#000000" font-family="sans-serif" font-size="11" lengthAdjust="spacingAndGlyphs" textLength="82" x="26" y="203.4683">Nombre : char</text><ellipse cx="17" cy="213.9648" fill="none" rx="3" ry="3" style="stroke: #038048; stroke-width: 1.0;"/><text fill="#000000" font-family="sans-serif" font-size="11" lengthAdjust="spacingAndGlyphs" textLength="88" x="26" y="216.2729">Puntuacion : int</text><line style="stroke: #A80036; stroke-width: 1.5;" x1="7" x2="172" y1="222.8672" y2="222.8672"/><ellipse cx="17" cy="234.7695" fill="#84BE84" rx="3" ry="3" style="stroke: #038048; stroke-width: 1.0;"/><text fill="#000000" font-family="sans-serif" font-size="11" lengthAdjust="spacingAndGlyphs" textLength="106" x="26" y="237.0776">VerRanking() : void</text><ellipse cx="17" cy="247.5742" fill="#84BE84" rx="3" ry="3" style="stroke: #038048; stroke-width: 1.0;"/><text fill="#000000" font-family="sans-serif" font-size="11" lengthAdjust="spacingAndGlyphs" textLength="141" x="26" y="249.8823">ActualizarRanking() : void</text><!--class Administrador--><rect fill="#FEFECE" filter="url(#fs1zl5r77n85r)" height="99.2188" id="Administrador" style="stroke: #A80036; stroke-width: 1.5;" width="172" x="271.5" y="412.9531"/><ellipse cx="310.35" cy="428.9531" fill="#ADD1B2" rx="11" ry="11" style="stroke: #A80036; stroke-width: 1.0;"/><path d="M312.6938,424.625 L312.8656,424.7031 C313.0844,424.3906 313.2875,424.2969 313.5844,424.2969 C313.8813,424.2969 314.1625,424.4375 314.3188,424.7031 C314.4125,424.8594 314.4281,424.9844 314.4281,425.4219 L314.4281,426.8438 C314.4281,427.2656 314.3969,427.4531 314.2875,427.6094 C314.1156,427.8281 313.85,427.9688 313.5844,427.9688 C313.3656,427.9688 313.1313,427.8594 312.9906,427.7188 C312.85,427.5938 312.8188,427.4688 312.7563,427.0625 C312.6625,426.6563 312.4906,426.4375 312.0063,426.1563 C311.5375,425.9063 310.9281,425.75 310.35,425.75 C308.6156,425.75 307.3656,427.0625 307.3656,428.8438 L307.3656,429.9375 C307.3656,431.6406 308.6625,432.7344 310.7094,432.7344 C311.475,432.7344 312.1625,432.6094 312.5844,432.3438 C312.7719,432.25 312.7719,432.25 313.225,431.7656 C313.4125,431.5781 313.6156,431.5 313.8344,431.5 C314.3031,431.5 314.6938,431.8906 314.6938,432.3438 C314.6938,432.7344 314.3656,433.1875 313.7875,433.5938 C313.0375,434.1406 311.8813,434.4375 310.6625,434.4375 C307.7719,434.4375 305.6625,432.5469 305.6625,429.9688 L305.6625,428.8438 C305.6625,426.125 307.6625,424.0469 310.2875,424.0469 C311.1625,424.0469 311.7563,424.1875 312.6938,424.625 Z "/><text fill="#000000" font-family="sans-serif" font-size="12" lengthAdjust="spacingAndGlyphs" textLength="87" x="329.65" y="433.1074">Administrador</text><line style="stroke: #A80036; stroke-width: 1.5;" x1="272.5" x2="442.5" y1="444.9531" y2="444.9531"/><ellipse cx="282.5" cy="456.8555" fill="none" rx="3" ry="3" style="stroke: #038048; stroke-width: 1.0;"/><text fill="#000000" font-family="sans-serif" font-size="11" lengthAdjust="spacingAndGlyphs" textLength="92" x="291.5" y="459.1636">Accesos : string</text><line style="stroke: #A80036; stroke-width: 1.5;" x1="272.5" x2="442.5" y1="465.7578" y2="465.7578"/><ellipse cx="282.5" cy="477.6602" fill="#84BE84" rx="3" ry="3" style="stroke: #038048; stroke-width: 1.0;"/><text fill="#000000" font-family="sans-serif" font-size="11" lengthAdjust="spacingAndGlyphs" textLength="97" x="291.5" y="479.9683">Actualizar() : void</text><ellipse cx="282.5" cy="490.4648" fill="#84BE84" rx="3" ry="3" style="stroke: #038048; stroke-width: 1.0;"/><text fill="#000000" font-family="sans-serif" font-size="11" lengthAdjust="spacingAndGlyphs" textLength="146" x="291.5" y="492.7729">GestionarCuentas() : void</text><ellipse cx="282.5" cy="503.2695" fill="#84BE84" rx="3" ry="3" style="stroke: #038048; stroke-width: 1.0;"/><text fill="#000000" font-family="sans-serif" font-size="11" lengthAdjust="spacingAndGlyphs" textLength="140" x="291.5" y="505.5776">AdministrarJuego() : void</text><!--link Partida to Mapa--><path d="M440.078,104.4531 C474.462,104.4531 514.144,104.4531 547.433,104.4531 " fill="none" id="Partida-Mapa" style="stroke: #A80036; stroke-width: 1.0;"/><polygon fill="#A80036" points="435.045,104.4531,444.045,108.4531,440.045,104.4531,444.045,100.4531,435.045,104.4531" style="stroke: #A80036; stroke-width: 1.0;"/><!--link Mapa to Sala--><path d="M620.5,159.3661 C620.5,169.3351 620.5,179.3041 620.5,189.2731 " fill="none" id="Mapa-Sala" style="stroke: #A80036; stroke-width: 1.0;"/><polygon fill="#A80036" points="620.5,154.1521,616.5,163.1521,620.5,159.1521,624.5,163.1521,620.5,154.1521" style="stroke: #A80036; stroke-width: 1.0;"/><!--link Partida to Jugador--><path d="M357.5,184.9971 C357.5,194.8991 357.5,204.8011 357.5,214.7031 " fill="none" id="Partida-Jugador" style="stroke: #A80036; stroke-width: 1.0;"/><polygon fill="#A80036" points="357.5,179.8191,353.5,188.8191,357.5,184.8191,361.5,188.8191,357.5,179.8191" style="stroke: #A80036; stroke-width: 1.0;"/><!--link Ranking to Partida--><path d="M173.206,170.6041 C205.621,158.9051 242.711,145.5201 275.008,133.8641 " fill="none" id="Ranking-Partida" style="stroke: #A80036; stroke-width: 1.0;"/><polygon fill="#A80036" points="279.737,132.1571,269.9136,131.4497,275.0339,133.8544,272.6292,138.9747,279.737,132.1571" style="stroke: #A80036; stroke-width: 1.0;"/><!--link Ranking to Jugador--><path d="M173.206,230.3021 C190.64,236.5941 209.426,243.3731 228.091,250.1101 " fill="none" id="Ranking-Jugador" style="stroke: #A80036; stroke-width: 1.0;"/><polygon fill="#A80036" points="232.833,251.8211,225.727,245.0017,228.1303,250.1226,223.0094,252.526,232.833,251.8211" style="stroke: #A80036; stroke-width: 1.0;"/><!--link Jugador to Administrador--><path d="M357.5,398.5401 C357.5,403.3091 357.5,408.0781 357.5,412.8476 " fill="none" id="Jugador-Administrador" style="stroke: #A80036; stroke-width: 1.0;"/><polygon fill="none" points="350.5,398.2931,357.5,378.2931,364.5,398.2931,350.5,398.2931" style="stroke: #A80036; stroke-width: 1.0;"/><!--
@startuml
title Classes - Class Diagram

class Partida {
  +Dificultad : int
  +Personajes: personaje
  +Mapas: mapa
  +SalaActual : Sala
  +Pausa() : void
  +Play(): void
  +A単adirMapa() : void
  +EliminarMapa() : void
}

Partida <- - Mapa

class Mapa {
    +Sala : array
    +A単adirSala() : void
    +EliminarSala() : void
    +GuardarMapa() : void
}

left to right direction
Mapa <- Sala

class Sala {
    +Nombre : string
    +Descripcion : string
    +Posicion : int
    +ID: int
    +MostrarPuertas() : void
    +GuardarSalas() : void
    +SetPosicion() : void
}

Partida <- Jugador

class Jugador {
    +ID : char
    +Password: char
    +Nombre : char
    +Login(ID : char, Password : char) : bool
    +EditProfile() : void
    +Continue() : void
    +CrearPartida() : void
    +GuardarPartida() : void
    +EliminarPartida() : void
}

Ranking - -> Partida
Ranking -> Jugador

class Ranking {
    +Position : int
    +Nombre : char
    +Puntuacion : int
    +VerRanking() : void
    +ActualizarRanking() : void
}

Jugador <|- Administrador

class Administrador {
    +Accesos : string
    +Actualizar() : void
    +GestionarCuentas() : void
    +AdministrarJuego() : void
}
@enduml

PlantUML version 1.2019.05beta2(Unknown compile time)
(GPL source distribution)
Java Runtime: Java(TM) SE Runtime Environment
JVM: Java HotSpot(TM) 64-Bit Server VM
Java Version: 1.7.0_25-b15
Operating System: Linux
Default Encoding: UTF-8
Language: en
Country: US
--></g></svg>