<?xml version="1.0" encoding="UTF-8" standalone="no"?><svg xmlns="http://www.w3.org/2000/svg" xmlns:xlink="http://www.w3.org/1999/xlink" contentScriptType="application/ecmascript" contentStyleType="text/css" height="803px" preserveAspectRatio="none" style="width:985px;height:803px;" version="1.1" viewBox="0 0 985 803" width="985px" zoomAndPan="magnify"><defs><filter height="300%" id="fwj2othj8j5pk" width="300%" x="-1" y="-1"><feGaussianBlur result="blurOut" stdDeviation="2.0"/><feColorMatrix in="blurOut" result="blurOut2" type="matrix" values="0 0 0 0 0 0 0 0 0 0 0 0 0 0 0 0 0 0 .4 0"/><feOffset dx="4.0" dy="4.0" in="blurOut2" result="blurOut3"/><feBlend in="SourceGraphic" in2="blurOut3" mode="normal"/></filter></defs><g><text fill="#000000" font-family="sans-serif" font-size="18" lengthAdjust="spacingAndGlyphs" textLength="207" x="395" y="16.708">Classes - Class Diagram</text><!--cluster Personas--><polygon fill="#FFFFFF" filter="url(#fwj2othj8j5pk)" points="423,404.9531,503,404.9531,510,427.25,746,427.25,746,791.9531,423,791.9531,423,404.9531" style="stroke: #000000; stroke-width: 1.5;"/><line style="stroke: #000000; stroke-width: 1.5;" x1="423" x2="510" y1="427.25" y2="427.25"/><text fill="#000000" font-family="sans-serif" font-size="14" font-weight="bold" lengthAdjust="spacingAndGlyphs" textLength="74" x="427" y="419.9482">Personas</text><!--cluster ArtefactosJuego--><polygon fill="#FFFFFF" filter="url(#fwj2othj8j5pk)" points="196,44.9531,329,44.9531,336,67.25,963,67.25,963,380.9531,196,380.9531,196,44.9531" style="stroke: #000000; stroke-width: 1.5;"/><line style="stroke: #000000; stroke-width: 1.5;" x1="196" x2="336" y1="67.25" y2="67.25"/><text fill="#000000" font-family="sans-serif" font-size="14" font-weight="bold" lengthAdjust="spacingAndGlyphs" textLength="127" x="200" y="59.9482">ArtefactosJuego</text><!--cluster Interfaces--><polygon fill="#FFFFFF" filter="url(#fwj2othj8j5pk)" points="22,275.9531,108,275.9531,115,298.25,168,298.25,168,380.9531,22,380.9531,22,275.9531" style="stroke: #000000; stroke-width: 1.5;"/><line style="stroke: #000000; stroke-width: 1.5;" x1="22" x2="115" y1="298.25" y2="298.25"/><text fill="#000000" font-family="sans-serif" font-size="14" font-weight="bold" lengthAdjust="spacingAndGlyphs" textLength="80" x="26" y="290.9482">Interfaces</text><!--class Jugador--><rect fill="#FEFECE" filter="url(#fwj2othj8j5pk)" height="194.7891" id="Jugador" style="stroke: #A80036; stroke-width: 1.5;" width="291" x="439" y="580.4531"/><ellipse cx="556.25" cy="599.4219" fill="#ADD1B2" rx="11" ry="11" style="stroke: #A80036; stroke-width: 1.0;"/><path d="M558.5938,595.0938 L558.7656,595.1719 C558.9844,594.8594 559.1875,594.7656 559.4844,594.7656 C559.7813,594.7656 560.0625,594.9063 560.2188,595.1719 C560.3125,595.3281 560.3281,595.4531 560.3281,595.8906 L560.3281,597.3125 C560.3281,597.7344 560.2969,597.9219 560.1875,598.0781 C560.0156,598.2969 559.75,598.4375 559.4844,598.4375 C559.2656,598.4375 559.0313,598.3281 558.8906,598.1875 C558.75,598.0625 558.7188,597.9375 558.6563,597.5313 C558.5625,597.125 558.3906,596.9063 557.9063,596.625 C557.4375,596.375 556.8281,596.2188 556.25,596.2188 C554.5156,596.2188 553.2656,597.5313 553.2656,599.3125 L553.2656,600.4063 C553.2656,602.1094 554.5625,603.2031 556.6094,603.2031 C557.375,603.2031 558.0625,603.0781 558.4844,602.8125 C558.6719,602.7188 558.6719,602.7188 559.125,602.2344 C559.3125,602.0469 559.5156,601.9688 559.7344,601.9688 C560.2031,601.9688 560.5938,602.3594 560.5938,602.8125 C560.5938,603.2031 560.2656,603.6563 559.6875,604.0625 C558.9375,604.6094 557.7813,604.9063 556.5625,604.9063 C553.6719,604.9063 551.5625,603.0156 551.5625,600.4375 L551.5625,599.3125 C551.5625,596.5938 553.5625,594.5156 556.1875,594.5156 C557.0625,594.5156 557.6563,594.6563 558.5938,595.0938 Z "/><text fill="#000000" font-family="sans-serif" font-size="12" font-style="italic" lengthAdjust="spacingAndGlyphs" textLength="50" x="575.75" y="596.5918">«entity»</text><text fill="#000000" font-family="sans-serif" font-size="12" lengthAdjust="spacingAndGlyphs" textLength="48" x="576.75" y="610.5605">Jugador</text><line style="stroke: #A80036; stroke-width: 1.5;" x1="440" x2="729" y1="618.3906" y2="618.3906"/><ellipse cx="450" cy="630.293" fill="none" rx="3" ry="3" style="stroke: #038048; stroke-width: 1.0;"/><text fill="#000000" font-family="sans-serif" font-size="11" lengthAdjust="spacingAndGlyphs" textLength="48" x="459" y="632.6011">ID : char</text><ellipse cx="450" cy="643.0977" fill="none" rx="3" ry="3" style="stroke: #038048; stroke-width: 1.0;"/><text fill="#000000" font-family="sans-serif" font-size="11" lengthAdjust="spacingAndGlyphs" textLength="89" x="459" y="645.4058">Password: char</text><ellipse cx="450" cy="655.9023" fill="none" rx="3" ry="3" style="stroke: #038048; stroke-width: 1.0;"/><text fill="#000000" font-family="sans-serif" font-size="11" lengthAdjust="spacingAndGlyphs" textLength="82" x="459" y="658.2104">Nombre : char</text><line style="stroke: #A80036; stroke-width: 1.5;" x1="440" x2="729" y1="664.8047" y2="664.8047"/><ellipse cx="450" cy="676.707" fill="#84BE84" rx="3" ry="3" style="stroke: #038048; stroke-width: 1.0;"/><text fill="#000000" font-family="sans-serif" font-size="11" lengthAdjust="spacingAndGlyphs" textLength="223" x="459" y="679.0151">Login(ID : char, Password : char) : bool</text><ellipse cx="450" cy="689.5117" fill="#84BE84" rx="3" ry="3" style="stroke: #038048; stroke-width: 1.0;"/><text fill="#000000" font-family="sans-serif" font-size="11" lengthAdjust="spacingAndGlyphs" textLength="265" x="459" y="691.8198">CrearCuenta(ID : char, Password : char) : bool</text><ellipse cx="450" cy="702.3164" fill="#84BE84" rx="3" ry="3" style="stroke: #038048; stroke-width: 1.0;"/><text fill="#000000" font-family="sans-serif" font-size="11" lengthAdjust="spacingAndGlyphs" textLength="134" x="459" y="704.6245">ModificarCuenta() : void</text><ellipse cx="450" cy="715.1211" fill="#84BE84" rx="3" ry="3" style="stroke: #038048; stroke-width: 1.0;"/><text fill="#000000" font-family="sans-serif" font-size="11" lengthAdjust="spacingAndGlyphs" textLength="138" x="459" y="717.4292">ContinuarPartida() : void</text><ellipse cx="450" cy="727.9258" fill="#84BE84" rx="3" ry="3" style="stroke: #038048; stroke-width: 1.0;"/><text fill="#000000" font-family="sans-serif" font-size="11" lengthAdjust="spacingAndGlyphs" textLength="115" x="459" y="730.2339">CrearPartida() : void</text><ellipse cx="450" cy="740.7305" fill="#84BE84" rx="3" ry="3" style="stroke: #038048; stroke-width: 1.0;"/><text fill="#000000" font-family="sans-serif" font-size="11" lengthAdjust="spacingAndGlyphs" textLength="130" x="459" y="743.0386">GuardarPartida() : void</text><ellipse cx="450" cy="753.5352" fill="#84BE84" rx="3" ry="3" style="stroke: #038048; stroke-width: 1.0;"/><text fill="#000000" font-family="sans-serif" font-size="11" lengthAdjust="spacingAndGlyphs" textLength="129" x="459" y="755.8433">EliminarPartida() : void</text><ellipse cx="450" cy="766.3398" fill="#84BE84" rx="3" ry="3" style="stroke: #038048; stroke-width: 1.0;"/><text fill="#000000" font-family="sans-serif" font-size="11" lengthAdjust="spacingAndGlyphs" textLength="95" x="459" y="768.6479">salirJuego(): void</text><!--class Administrador--><rect fill="#FEFECE" filter="url(#fwj2othj8j5pk)" height="105.1563" id="Administrador" style="stroke: #A80036; stroke-width: 1.5;" width="172" x="498.5" y="440.4531"/><ellipse cx="537.35" cy="459.4219" fill="#ADD1B2" rx="11" ry="11" style="stroke: #A80036; stroke-width: 1.0;"/><path d="M539.6938,455.0938 L539.8656,455.1719 C540.0844,454.8594 540.2875,454.7656 540.5844,454.7656 C540.8813,454.7656 541.1625,454.9063 541.3188,455.1719 C541.4125,455.3281 541.4281,455.4531 541.4281,455.8906 L541.4281,457.3125 C541.4281,457.7344 541.3969,457.9219 541.2875,458.0781 C541.1156,458.2969 540.85,458.4375 540.5844,458.4375 C540.3656,458.4375 540.1313,458.3281 539.9906,458.1875 C539.85,458.0625 539.8188,457.9375 539.7563,457.5313 C539.6625,457.125 539.4906,456.9063 539.0063,456.625 C538.5375,456.375 537.9281,456.2188 537.35,456.2188 C535.6156,456.2188 534.3656,457.5313 534.3656,459.3125 L534.3656,460.4063 C534.3656,462.1094 535.6625,463.2031 537.7094,463.2031 C538.475,463.2031 539.1625,463.0781 539.5844,462.8125 C539.7719,462.7188 539.7719,462.7188 540.225,462.2344 C540.4125,462.0469 540.6156,461.9688 540.8344,461.9688 C541.3031,461.9688 541.6938,462.3594 541.6938,462.8125 C541.6938,463.2031 541.3656,463.6563 540.7875,464.0625 C540.0375,464.6094 538.8813,464.9063 537.6625,464.9063 C534.7719,464.9063 532.6625,463.0156 532.6625,460.4375 L532.6625,459.3125 C532.6625,456.5938 534.6625,454.5156 537.2875,454.5156 C538.1625,454.5156 538.7563,454.6563 539.6938,455.0938 Z "/><text fill="#000000" font-family="sans-serif" font-size="12" font-style="italic" lengthAdjust="spacingAndGlyphs" textLength="50" x="575.15" y="456.5918">«entity»</text><text fill="#000000" font-family="sans-serif" font-size="12" lengthAdjust="spacingAndGlyphs" textLength="87" x="556.65" y="470.5605">Administrador</text><line style="stroke: #A80036; stroke-width: 1.5;" x1="499.5" x2="669.5" y1="478.3906" y2="478.3906"/><ellipse cx="509.5" cy="490.293" fill="none" rx="3" ry="3" style="stroke: #038048; stroke-width: 1.0;"/><text fill="#000000" font-family="sans-serif" font-size="11" lengthAdjust="spacingAndGlyphs" textLength="92" x="518.5" y="492.6011">Accesos : string</text><line style="stroke: #A80036; stroke-width: 1.5;" x1="499.5" x2="669.5" y1="499.1953" y2="499.1953"/><ellipse cx="509.5" cy="511.0977" fill="#84BE84" rx="3" ry="3" style="stroke: #038048; stroke-width: 1.0;"/><text fill="#000000" font-family="sans-serif" font-size="11" lengthAdjust="spacingAndGlyphs" textLength="97" x="518.5" y="513.4058">Actualizar() : void</text><ellipse cx="509.5" cy="523.9023" fill="#84BE84" rx="3" ry="3" style="stroke: #038048; stroke-width: 1.0;"/><text fill="#000000" font-family="sans-serif" font-size="11" lengthAdjust="spacingAndGlyphs" textLength="146" x="518.5" y="526.2104">GestionarCuentas() : void</text><ellipse cx="509.5" cy="536.707" fill="#84BE84" rx="3" ry="3" style="stroke: #038048; stroke-width: 1.0;"/><text fill="#000000" font-family="sans-serif" font-size="11" lengthAdjust="spacingAndGlyphs" textLength="140" x="518.5" y="539.0151">AdministrarJuego() : void</text><!--class Partida--><rect fill="#FEFECE" filter="url(#fwj2othj8j5pk)" height="156.375" id="Partida" style="stroke: #A80036; stroke-width: 1.5;" width="155" x="507" y="208.9531"/><ellipse cx="557.25" cy="227.9219" fill="#ADD1B2" rx="11" ry="11" style="stroke: #A80036; stroke-width: 1.0;"/><path d="M559.5938,223.5938 L559.7656,223.6719 C559.9844,223.3594 560.1875,223.2656 560.4844,223.2656 C560.7813,223.2656 561.0625,223.4063 561.2188,223.6719 C561.3125,223.8281 561.3281,223.9531 561.3281,224.3906 L561.3281,225.8125 C561.3281,226.2344 561.2969,226.4219 561.1875,226.5781 C561.0156,226.7969 560.75,226.9375 560.4844,226.9375 C560.2656,226.9375 560.0313,226.8281 559.8906,226.6875 C559.75,226.5625 559.7188,226.4375 559.6563,226.0313 C559.5625,225.625 559.3906,225.4063 558.9063,225.125 C558.4375,224.875 557.8281,224.7188 557.25,224.7188 C555.5156,224.7188 554.2656,226.0313 554.2656,227.8125 L554.2656,228.9063 C554.2656,230.6094 555.5625,231.7031 557.6094,231.7031 C558.375,231.7031 559.0625,231.5781 559.4844,231.3125 C559.6719,231.2188 559.6719,231.2188 560.125,230.7344 C560.3125,230.5469 560.5156,230.4688 560.7344,230.4688 C561.2031,230.4688 561.5938,230.8594 561.5938,231.3125 C561.5938,231.7031 561.2656,232.1563 560.6875,232.5625 C559.9375,233.1094 558.7813,233.4063 557.5625,233.4063 C554.6719,233.4063 552.5625,231.5156 552.5625,228.9375 L552.5625,227.8125 C552.5625,225.0938 554.5625,223.0156 557.1875,223.0156 C558.0625,223.0156 558.6563,223.1563 559.5938,223.5938 Z "/><text fill="#000000" font-family="sans-serif" font-size="12" font-style="italic" lengthAdjust="spacingAndGlyphs" textLength="50" x="575.75" y="225.0918">«entity»</text><text fill="#000000" font-family="sans-serif" font-size="12" lengthAdjust="spacingAndGlyphs" textLength="45" x="578.25" y="239.0605">Partida</text><line style="stroke: #A80036; stroke-width: 1.5;" x1="508" x2="661" y1="246.8906" y2="246.8906"/><ellipse cx="518" cy="258.793" fill="none" rx="3" ry="3" style="stroke: #038048; stroke-width: 1.0;"/><text fill="#000000" font-family="sans-serif" font-size="11" lengthAdjust="spacingAndGlyphs" textLength="78" x="527" y="261.1011">Dificultad : int</text><ellipse cx="518" cy="271.5977" fill="none" rx="3" ry="3" style="stroke: #038048; stroke-width: 1.0;"/><text fill="#000000" font-family="sans-serif" font-size="11" lengthAdjust="spacingAndGlyphs" textLength="129" x="527" y="273.9058">Personajes: personaje</text><ellipse cx="518" cy="284.4023" fill="none" rx="3" ry="3" style="stroke: #038048; stroke-width: 1.0;"/><text fill="#000000" font-family="sans-serif" font-size="11" lengthAdjust="spacingAndGlyphs" textLength="77" x="527" y="286.7104">Mapas: mapa</text><ellipse cx="518" cy="297.207" fill="none" rx="3" ry="3" style="stroke: #038048; stroke-width: 1.0;"/><text fill="#000000" font-family="sans-serif" font-size="11" lengthAdjust="spacingAndGlyphs" textLength="96" x="527" y="299.5151">SalaActual : Sala</text><line style="stroke: #A80036; stroke-width: 1.5;" x1="508" x2="661" y1="306.1094" y2="306.1094"/><ellipse cx="518" cy="318.0117" fill="#84BE84" rx="3" ry="3" style="stroke: #038048; stroke-width: 1.0;"/><text fill="#000000" font-family="sans-serif" font-size="11" lengthAdjust="spacingAndGlyphs" textLength="78" x="527" y="320.3198">Pausa() : void</text><ellipse cx="518" cy="330.8164" fill="#84BE84" rx="3" ry="3" style="stroke: #038048; stroke-width: 1.0;"/><text fill="#000000" font-family="sans-serif" font-size="11" lengthAdjust="spacingAndGlyphs" textLength="62" x="527" y="333.1245">Play(): void</text><ellipse cx="518" cy="343.6211" fill="#84BE84" rx="3" ry="3" style="stroke: #038048; stroke-width: 1.0;"/><text fill="#000000" font-family="sans-serif" font-size="11" lengthAdjust="spacingAndGlyphs" textLength="109" x="527" y="345.9292">AñadirMapa() : void</text><ellipse cx="518" cy="356.4258" fill="#84BE84" rx="3" ry="3" style="stroke: #038048; stroke-width: 1.0;"/><text fill="#000000" font-family="sans-serif" font-size="11" lengthAdjust="spacingAndGlyphs" textLength="119" x="527" y="358.7339">EliminarMapa() : void</text><!--class Mapa--><rect fill="#FEFECE" filter="url(#fwj2othj8j5pk)" height="105.1563" id="Mapa" style="stroke: #A80036; stroke-width: 1.5;" width="146" x="795.5" y="259.4531"/><ellipse cx="841.25" cy="278.4219" fill="#ADD1B2" rx="11" ry="11" style="stroke: #A80036; stroke-width: 1.0;"/><path d="M843.5938,274.0938 L843.7656,274.1719 C843.9844,273.8594 844.1875,273.7656 844.4844,273.7656 C844.7813,273.7656 845.0625,273.9063 845.2188,274.1719 C845.3125,274.3281 845.3281,274.4531 845.3281,274.8906 L845.3281,276.3125 C845.3281,276.7344 845.2969,276.9219 845.1875,277.0781 C845.0156,277.2969 844.75,277.4375 844.4844,277.4375 C844.2656,277.4375 844.0313,277.3281 843.8906,277.1875 C843.75,277.0625 843.7188,276.9375 843.6563,276.5313 C843.5625,276.125 843.3906,275.9063 842.9063,275.625 C842.4375,275.375 841.8281,275.2188 841.25,275.2188 C839.5156,275.2188 838.2656,276.5313 838.2656,278.3125 L838.2656,279.4063 C838.2656,281.1094 839.5625,282.2031 841.6094,282.2031 C842.375,282.2031 843.0625,282.0781 843.4844,281.8125 C843.6719,281.7188 843.6719,281.7188 844.125,281.2344 C844.3125,281.0469 844.5156,280.9688 844.7344,280.9688 C845.2031,280.9688 845.5938,281.3594 845.5938,281.8125 C845.5938,282.2031 845.2656,282.6563 844.6875,283.0625 C843.9375,283.6094 842.7813,283.9063 841.5625,283.9063 C838.6719,283.9063 836.5625,282.0156 836.5625,279.4375 L836.5625,278.3125 C836.5625,275.5938 838.5625,273.5156 841.1875,273.5156 C842.0625,273.5156 842.6563,273.6563 843.5938,274.0938 Z "/><text fill="#000000" font-family="sans-serif" font-size="12" font-style="italic" lengthAdjust="spacingAndGlyphs" textLength="50" x="859.75" y="275.5918">«entity»</text><text fill="#000000" font-family="sans-serif" font-size="12" lengthAdjust="spacingAndGlyphs" textLength="34" x="867.75" y="289.5605">Mapa</text><line style="stroke: #A80036; stroke-width: 1.5;" x1="796.5" x2="940.5" y1="297.3906" y2="297.3906"/><ellipse cx="806.5" cy="309.293" fill="none" rx="3" ry="3" style="stroke: #038048; stroke-width: 1.0;"/><text fill="#000000" font-family="sans-serif" font-size="11" lengthAdjust="spacingAndGlyphs" textLength="67" x="815.5" y="311.6011">Sala : array</text><line style="stroke: #A80036; stroke-width: 1.5;" x1="796.5" x2="940.5" y1="318.1953" y2="318.1953"/><ellipse cx="806.5" cy="330.0977" fill="#84BE84" rx="3" ry="3" style="stroke: #038048; stroke-width: 1.0;"/><text fill="#000000" font-family="sans-serif" font-size="11" lengthAdjust="spacingAndGlyphs" textLength="104" x="815.5" y="332.4058">AñadirSala() : void</text><ellipse cx="806.5" cy="342.9023" fill="#84BE84" rx="3" ry="3" style="stroke: #038048; stroke-width: 1.0;"/><text fill="#000000" font-family="sans-serif" font-size="11" lengthAdjust="spacingAndGlyphs" textLength="114" x="815.5" y="345.2104">EliminarSala() : void</text><ellipse cx="806.5" cy="355.707" fill="#84BE84" rx="3" ry="3" style="stroke: #038048; stroke-width: 1.0;"/><text fill="#000000" font-family="sans-serif" font-size="11" lengthAdjust="spacingAndGlyphs" textLength="120" x="815.5" y="358.0151">GuardarMapa() : void</text><!--class Sala--><rect fill="#FEFECE" filter="url(#fwj2othj8j5pk)" height="143.5703" id="Sala" style="stroke: #A80036; stroke-width: 1.5;" width="157" x="790" y="79.9531"/><ellipse cx="841.25" cy="98.9219" fill="#ADD1B2" rx="11" ry="11" style="stroke: #A80036; stroke-width: 1.0;"/><path d="M843.5938,94.5938 L843.7656,94.6719 C843.9844,94.3594 844.1875,94.2656 844.4844,94.2656 C844.7813,94.2656 845.0625,94.4063 845.2188,94.6719 C845.3125,94.8281 845.3281,94.9531 845.3281,95.3906 L845.3281,96.8125 C845.3281,97.2344 845.2969,97.4219 845.1875,97.5781 C845.0156,97.7969 844.75,97.9375 844.4844,97.9375 C844.2656,97.9375 844.0313,97.8281 843.8906,97.6875 C843.75,97.5625 843.7188,97.4375 843.6563,97.0313 C843.5625,96.625 843.3906,96.4063 842.9063,96.125 C842.4375,95.875 841.8281,95.7188 841.25,95.7188 C839.5156,95.7188 838.2656,97.0313 838.2656,98.8125 L838.2656,99.9063 C838.2656,101.6094 839.5625,102.7031 841.6094,102.7031 C842.375,102.7031 843.0625,102.5781 843.4844,102.3125 C843.6719,102.2188 843.6719,102.2188 844.125,101.7344 C844.3125,101.5469 844.5156,101.4688 844.7344,101.4688 C845.2031,101.4688 845.5938,101.8594 845.5938,102.3125 C845.5938,102.7031 845.2656,103.1563 844.6875,103.5625 C843.9375,104.1094 842.7813,104.4063 841.5625,104.4063 C838.6719,104.4063 836.5625,102.5156 836.5625,99.9375 L836.5625,98.8125 C836.5625,96.0938 838.5625,94.0156 841.1875,94.0156 C842.0625,94.0156 842.6563,94.1563 843.5938,94.5938 Z "/><text fill="#000000" font-family="sans-serif" font-size="12" font-style="italic" lengthAdjust="spacingAndGlyphs" textLength="50" x="859.75" y="96.0918">«entity»</text><text fill="#000000" font-family="sans-serif" font-size="12" lengthAdjust="spacingAndGlyphs" textLength="27" x="871.25" y="110.0605">Sala</text><line style="stroke: #A80036; stroke-width: 1.5;" x1="791" x2="946" y1="117.8906" y2="117.8906"/><ellipse cx="801" cy="129.793" fill="none" rx="3" ry="3" style="stroke: #038048; stroke-width: 1.0;"/><text fill="#000000" font-family="sans-serif" font-size="11" lengthAdjust="spacingAndGlyphs" textLength="90" x="810" y="132.1011">Nombre : string</text><ellipse cx="801" cy="142.5977" fill="none" rx="3" ry="3" style="stroke: #038048; stroke-width: 1.0;"/><text fill="#000000" font-family="sans-serif" font-size="11" lengthAdjust="spacingAndGlyphs" textLength="111" x="810" y="144.9058">Descripcion : string</text><ellipse cx="801" cy="155.4023" fill="none" rx="3" ry="3" style="stroke: #038048; stroke-width: 1.0;"/><text fill="#000000" font-family="sans-serif" font-size="11" lengthAdjust="spacingAndGlyphs" textLength="73" x="810" y="157.7104">Posicion : int</text><ellipse cx="801" cy="168.207" fill="none" rx="3" ry="3" style="stroke: #038048; stroke-width: 1.0;"/><text fill="#000000" font-family="sans-serif" font-size="11" lengthAdjust="spacingAndGlyphs" textLength="33" x="810" y="170.5151">ID: int</text><line style="stroke: #A80036; stroke-width: 1.5;" x1="791" x2="946" y1="177.1094" y2="177.1094"/><ellipse cx="801" cy="189.0117" fill="#84BE84" rx="3" ry="3" style="stroke: #038048; stroke-width: 1.0;"/><text fill="#000000" font-family="sans-serif" font-size="11" lengthAdjust="spacingAndGlyphs" textLength="131" x="810" y="191.3198">MostrarPuertas() : void</text><ellipse cx="801" cy="201.8164" fill="#84BE84" rx="3" ry="3" style="stroke: #038048; stroke-width: 1.0;"/><text fill="#000000" font-family="sans-serif" font-size="11" lengthAdjust="spacingAndGlyphs" textLength="122" x="810" y="204.1245">GuardarSalas() : void</text><ellipse cx="801" cy="214.6211" fill="#84BE84" rx="3" ry="3" style="stroke: #038048; stroke-width: 1.0;"/><text fill="#000000" font-family="sans-serif" font-size="11" lengthAdjust="spacingAndGlyphs" textLength="109" x="810" y="216.9292">SetPosicion() : void</text><!--class Ranking--><rect fill="#FEFECE" filter="url(#fwj2othj8j5pk)" height="117.9609" id="Ranking" style="stroke: #A80036; stroke-width: 1.5;" width="167" x="212" y="157.9531"/><ellipse cx="266.25" cy="176.9219" fill="#ADD1B2" rx="11" ry="11" style="stroke: #A80036; stroke-width: 1.0;"/><path d="M268.5938,172.5938 L268.7656,172.6719 C268.9844,172.3594 269.1875,172.2656 269.4844,172.2656 C269.7813,172.2656 270.0625,172.4063 270.2188,172.6719 C270.3125,172.8281 270.3281,172.9531 270.3281,173.3906 L270.3281,174.8125 C270.3281,175.2344 270.2969,175.4219 270.1875,175.5781 C270.0156,175.7969 269.75,175.9375 269.4844,175.9375 C269.2656,175.9375 269.0313,175.8281 268.8906,175.6875 C268.75,175.5625 268.7188,175.4375 268.6563,175.0313 C268.5625,174.625 268.3906,174.4063 267.9063,174.125 C267.4375,173.875 266.8281,173.7188 266.25,173.7188 C264.5156,173.7188 263.2656,175.0313 263.2656,176.8125 L263.2656,177.9063 C263.2656,179.6094 264.5625,180.7031 266.6094,180.7031 C267.375,180.7031 268.0625,180.5781 268.4844,180.3125 C268.6719,180.2188 268.6719,180.2188 269.125,179.7344 C269.3125,179.5469 269.5156,179.4688 269.7344,179.4688 C270.2031,179.4688 270.5938,179.8594 270.5938,180.3125 C270.5938,180.7031 270.2656,181.1563 269.6875,181.5625 C268.9375,182.1094 267.7813,182.4063 266.5625,182.4063 C263.6719,182.4063 261.5625,180.5156 261.5625,177.9375 L261.5625,176.8125 C261.5625,174.0938 263.5625,172.0156 266.1875,172.0156 C267.0625,172.0156 267.6563,172.1563 268.5938,172.5938 Z "/><text fill="#000000" font-family="sans-serif" font-size="12" font-style="italic" lengthAdjust="spacingAndGlyphs" textLength="50" x="286.75" y="174.0918">«entity»</text><text fill="#000000" font-family="sans-serif" font-size="12" lengthAdjust="spacingAndGlyphs" textLength="50" x="286.75" y="188.0605">Ranking</text><line style="stroke: #A80036; stroke-width: 1.5;" x1="213" x2="378" y1="195.8906" y2="195.8906"/><ellipse cx="223" cy="207.793" fill="none" rx="3" ry="3" style="stroke: #038048; stroke-width: 1.0;"/><text fill="#000000" font-family="sans-serif" font-size="11" lengthAdjust="spacingAndGlyphs" textLength="71" x="232" y="210.1011">Position : int</text><ellipse cx="223" cy="220.5977" fill="none" rx="3" ry="3" style="stroke: #038048; stroke-width: 1.0;"/><text fill="#000000" font-family="sans-serif" font-size="11" lengthAdjust="spacingAndGlyphs" textLength="82" x="232" y="222.9058">Nombre : char</text><ellipse cx="223" cy="233.4023" fill="none" rx="3" ry="3" style="stroke: #038048; stroke-width: 1.0;"/><text fill="#000000" font-family="sans-serif" font-size="11" lengthAdjust="spacingAndGlyphs" textLength="88" x="232" y="235.7104">Puntuacion : int</text><line style="stroke: #A80036; stroke-width: 1.5;" x1="213" x2="378" y1="242.3047" y2="242.3047"/><ellipse cx="223" cy="254.207" fill="#84BE84" rx="3" ry="3" style="stroke: #038048; stroke-width: 1.0;"/><text fill="#000000" font-family="sans-serif" font-size="11" lengthAdjust="spacingAndGlyphs" textLength="106" x="232" y="256.5151">VerRanking() : void</text><ellipse cx="223" cy="267.0117" fill="#84BE84" rx="3" ry="3" style="stroke: #038048; stroke-width: 1.0;"/><text fill="#000000" font-family="sans-serif" font-size="11" lengthAdjust="spacingAndGlyphs" textLength="141" x="232" y="269.3198">ActualizarRanking() : void</text><!--class Sistema--><rect fill="#FEFECE" filter="url(#fwj2othj8j5pk)" height="53.9375" id="Sistema" style="stroke: #A80036; stroke-width: 1.5;" width="86" x="252.5" y="310.9531"/><ellipse cx="267.5" cy="329.9219" fill="#ADD1B2" rx="11" ry="11" style="stroke: #A80036; stroke-width: 1.0;"/><path d="M269.8438,325.5938 L270.0156,325.6719 C270.2344,325.3594 270.4375,325.2656 270.7344,325.2656 C271.0313,325.2656 271.3125,325.4063 271.4688,325.6719 C271.5625,325.8281 271.5781,325.9531 271.5781,326.3906 L271.5781,327.8125 C271.5781,328.2344 271.5469,328.4219 271.4375,328.5781 C271.2656,328.7969 271,328.9375 270.7344,328.9375 C270.5156,328.9375 270.2813,328.8281 270.1406,328.6875 C270,328.5625 269.9688,328.4375 269.9063,328.0313 C269.8125,327.625 269.6406,327.4063 269.1563,327.125 C268.6875,326.875 268.0781,326.7188 267.5,326.7188 C265.7656,326.7188 264.5156,328.0313 264.5156,329.8125 L264.5156,330.9063 C264.5156,332.6094 265.8125,333.7031 267.8594,333.7031 C268.625,333.7031 269.3125,333.5781 269.7344,333.3125 C269.9219,333.2188 269.9219,333.2188 270.375,332.7344 C270.5625,332.5469 270.7656,332.4688 270.9844,332.4688 C271.4531,332.4688 271.8438,332.8594 271.8438,333.3125 C271.8438,333.7031 271.5156,334.1563 270.9375,334.5625 C270.1875,335.1094 269.0313,335.4063 267.8125,335.4063 C264.9219,335.4063 262.8125,333.5156 262.8125,330.9375 L262.8125,329.8125 C262.8125,327.0938 264.8125,325.0156 267.4375,325.0156 C268.3125,325.0156 268.9063,325.1563 269.8438,325.5938 Z "/><text fill="#000000" font-family="sans-serif" font-size="12" font-style="italic" lengthAdjust="spacingAndGlyphs" textLength="58" x="279.5" y="327.0918">«control»</text><text fill="#000000" font-family="sans-serif" font-size="12" lengthAdjust="spacingAndGlyphs" textLength="50" x="283.5" y="341.0605">Sistema</text><line style="stroke: #A80036; stroke-width: 1.5;" x1="253.5" x2="337.5" y1="348.8906" y2="348.8906"/><line style="stroke: #A80036; stroke-width: 1.5;" x1="253.5" x2="337.5" y1="356.8906" y2="356.8906"/><!--class MenúUsuario--><rect fill="#FEFECE" filter="url(#fwj2othj8j5pk)" height="53.9375" id="MenúUsuario" style="stroke: #A80036; stroke-width: 1.5;" width="114" x="38" y="310.9531"/><ellipse cx="53" cy="329.9219" fill="#ADD1B2" rx="11" ry="11" style="stroke: #A80036; stroke-width: 1.0;"/><path d="M55.3438,325.5938 L55.5156,325.6719 C55.7344,325.3594 55.9375,325.2656 56.2344,325.2656 C56.5313,325.2656 56.8125,325.4063 56.9688,325.6719 C57.0625,325.8281 57.0781,325.9531 57.0781,326.3906 L57.0781,327.8125 C57.0781,328.2344 57.0469,328.4219 56.9375,328.5781 C56.7656,328.7969 56.5,328.9375 56.2344,328.9375 C56.0156,328.9375 55.7813,328.8281 55.6406,328.6875 C55.5,328.5625 55.4688,328.4375 55.4063,328.0313 C55.3125,327.625 55.1406,327.4063 54.6563,327.125 C54.1875,326.875 53.5781,326.7188 53,326.7188 C51.2656,326.7188 50.0156,328.0313 50.0156,329.8125 L50.0156,330.9063 C50.0156,332.6094 51.3125,333.7031 53.3594,333.7031 C54.125,333.7031 54.8125,333.5781 55.2344,333.3125 C55.4219,333.2188 55.4219,333.2188 55.875,332.7344 C56.0625,332.5469 56.2656,332.4688 56.4844,332.4688 C56.9531,332.4688 57.3438,332.8594 57.3438,333.3125 C57.3438,333.7031 57.0156,334.1563 56.4375,334.5625 C55.6875,335.1094 54.5313,335.4063 53.3125,335.4063 C50.4219,335.4063 48.3125,333.5156 48.3125,330.9375 L48.3125,329.8125 C48.3125,327.0938 50.3125,325.0156 52.9375,325.0156 C53.8125,325.0156 54.4063,325.1563 55.3438,325.5938 Z "/><text fill="#000000" font-family="sans-serif" font-size="12" font-style="italic" lengthAdjust="spacingAndGlyphs" textLength="74" x="71" y="327.0918">«boundary»</text><text fill="#000000" font-family="sans-serif" font-size="12" lengthAdjust="spacingAndGlyphs" textLength="82" x="67" y="341.0605">MenúUsuario</text><line style="stroke: #A80036; stroke-width: 1.5;" x1="39" x2="151" y1="348.8906" y2="348.8906"/><line style="stroke: #A80036; stroke-width: 1.5;" x1="39" x2="151" y1="356.8906" y2="356.8906"/><!--link Jugador to Administrador--><path d="M584.5,560.2531 C584.5,555.3531 584.5,550.4541 584.5,545.5541 " fill="none" id="Jugador-Administrador" style="stroke: #A80036; stroke-width: 1.0;"/><polygon fill="none" points="591.5,560.3941,584.5,580.3941,577.5,560.3941,591.5,560.3941" style="stroke: #A80036; stroke-width: 1.0;"/><!--link Partida to Mapa--><path d="M667.576,294.2291 C707.963,297.8101 756.216,302.0871 795.197,305.5431 " fill="none" id="Partida-Mapa" style="stroke: #A80036; stroke-width: 1.0;"/><polygon fill="#A80036" points="662.185,293.7511,670.7967,298.5301,667.1655,294.1926,671.503,290.5614,662.185,293.7511" style="stroke: #A80036; stroke-width: 1.0;"/><text fill="#000000" font-family="sans-serif" font-size="13" lengthAdjust="spacingAndGlyphs" textLength="8" x="669.9706" y="307.1693">1</text><text fill="#000000" font-family="sans-serif" font-size="13" lengthAdjust="spacingAndGlyphs" textLength="8" x="779.5875" y="317.7162">1</text><!--link Mapa to Sala--><path d="M868.5,253.9201 C868.5,243.9361 868.5,233.9531 868.5,223.9701 " fill="none" id="Mapa-Sala" style="stroke: #A80036; stroke-width: 1.0;"/><polygon fill="#A80036" points="868.5,259.1411,872.5,250.1411,868.5,254.1411,864.5,250.1411,868.5,259.1411" style="stroke: #A80036; stroke-width: 1.0;"/><text fill="#000000" font-family="sans-serif" font-size="13" lengthAdjust="spacingAndGlyphs" textLength="8" x="859.9875" y="248.479">1</text><text fill="#000000" font-family="sans-serif" font-size="13" lengthAdjust="spacingAndGlyphs" textLength="20" x="847.5469" y="243.6428">1...</text><!--link Partida to Jugador--><path d="M502.575,329.4061 C461.97,355.5301 417.352,393.2811 397,441.4531 C379.011,484.0311 379.011,502.8751 397,545.4531 C406.23,567.3001 421.298,586.1491 438.992,602.2141 " fill="none" id="Partida-Jugador" style="stroke: #A80036; stroke-width: 1.0;"/><polygon fill="#A80036" points="506.996,326.5971,497.2546,328.0477,502.7759,329.2786,501.545,334.7999,506.996,326.5971" style="stroke: #A80036; stroke-width: 1.0;"/><text fill="#000000" font-family="sans-serif" font-size="13" lengthAdjust="spacingAndGlyphs" textLength="20" x="478.9292" y="342.9989">0...</text><text fill="#000000" font-family="sans-serif" font-size="13" lengthAdjust="spacingAndGlyphs" textLength="8" x="422.8158" y="610.5586">1</text><!--link Ranking to Partida--><path d="M379.127,237.1061 C417.638,246.4991 463.329,257.6431 501.732,267.0101 " fill="none" id="Ranking-Partida" style="stroke: #A80036; stroke-width: 1.0;"/><polygon fill="#A80036" points="506.86,268.2601,499.065,262.2404,502.0026,267.0747,497.1683,270.0123,506.86,268.2601" style="stroke: #A80036; stroke-width: 1.0;"/><text fill="#000000" font-family="sans-serif" font-size="13" lengthAdjust="spacingAndGlyphs" textLength="8" x="386.9313" y="251.6435">1</text><text fill="#000000" font-family="sans-serif" font-size="13" lengthAdjust="spacingAndGlyphs" textLength="20" x="479.0546" y="279.3194">0...</text><!--link Ranking to Jugador--><path d="M367.764,276.4051 C372.028,281.9931 375.855,287.8591 379,293.9531 C434.321,401.1411 351.698,460.2771 415,562.9531 C420.75,572.2801 427.572,581.0321 435.121,589.2121 " fill="none" id="Ranking-Jugador" style="stroke: #A80036; stroke-width: 1.0;"/><polygon fill="#A80036" points="438.884,593.1821,435.5986,583.8974,435.4455,589.5522,429.7907,589.399,438.884,593.1821" style="stroke: #A80036; stroke-width: 1.0;"/><text fill="#000000" font-family="sans-serif" font-size="13" lengthAdjust="spacingAndGlyphs" textLength="8" x="367.2304" y="295.8043">1</text><text fill="#000000" font-family="sans-serif" font-size="13" lengthAdjust="spacingAndGlyphs" textLength="20" x="410.8601" y="585.5002">0...</text><!--link MenúUsuario to Sistema--><path d="M152.086,337.9531 C183.958,337.9531 223.205,337.9531 252.421,337.9531 " fill="none" id="MenúUsuario-Sistema" style="stroke: #A80036; stroke-width: 1.0;"/><text fill="#000000" font-family="sans-serif" font-size="13" lengthAdjust="spacingAndGlyphs" textLength="8" x="159.9126" y="350.9935">1</text><text fill="#000000" font-family="sans-serif" font-size="13" lengthAdjust="spacingAndGlyphs" textLength="8" x="236.6235" y="351.2784">1</text><!--
@startuml
title Classes - Class Diagram

Package Personas {
class Jugador <<entity>> {
    +ID : char
    +Password: char
    +Nombre : char
    +Login(ID : char, Password : char) : bool
    +CrearCuenta(ID : char, Password : char) : bool
    +ModificarCuenta() : void
    +ContinuarPartida() : void
    +CrearPartida() : void
    +GuardarPartida() : void
    +EliminarPartida() : void
    +salirJuego(): void
}

Jugador <|- Administrador

class Administrador <<entity>>{
    +Accesos : string
    +Actualizar() : void
    +GestionarCuentas() : void
    +AdministrarJuego() : void
}
}
Package ArtefactosJuego {
class Partida <<entity>>{
  +Dificultad : int
  +Personajes: personaje
  +Mapas: mapa
  +SalaActual : Sala
  +Pausa() : void
  +Play(): void
  +AñadirMapa() : void
  +EliminarMapa() : void
}

Partida "1" <- - "1" Mapa

class Mapa <<entity>>{
    +Sala : array
    +AñadirSala() : void
    +EliminarSala() : void
    +GuardarMapa() : void
}

left to right direction
Mapa "1" <- "1..." Sala

class Sala <<entity>>{
    +Nombre : string
    +Descripcion : string
    +Posicion : int
    +ID: int
    +MostrarPuertas() : void
    +GuardarSalas() : void
    +SetPosicion() : void
}

Partida "0..." <- "1" Jugador


Ranking "1"- ->"0..." Partida
Ranking "1"->"0..." Jugador

class Ranking <<entity>>{
    +Position : int
    +Nombre : char
    +Puntuacion : int
    +VerRanking() : void
    +ActualizarRanking() : void
}

class Sistema <<control>>{
}
}
Package Interfaces {
MenúUsuario "1"- -"1" Sistema
class MenúUsuario <<boundary>>{
}
}
@enduml

PlantUML version 1.2019.05(Sat Apr 20 16:45:36 UTC 2019)
(GPL source distribution)
Java Runtime: Java(TM) SE Runtime Environment
JVM: Java HotSpot(TM) 64-Bit Server VM
Java Version: 1.7.0_25-b15
Operating System: Linux
Default Encoding: UTF-8
Language: en
Country: US
--></g></svg>