<?xml version="1.0" encoding="UTF-8" standalone="no"?><svg xmlns="http://www.w3.org/2000/svg" xmlns:xlink="http://www.w3.org/1999/xlink" contentScriptType="application/ecmascript" contentStyleType="text/css" height="327px" preserveAspectRatio="none" style="width:891px;height:327px;" version="1.1" viewBox="0 0 891 327" width="891px" zoomAndPan="magnify"><defs><filter height="300%" id="f1xgh2ojrgsuo2" width="300%" x="-1" y="-1"><feGaussianBlur result="blurOut" stdDeviation="2.0"/><feColorMatrix in="blurOut" result="blurOut2" type="matrix" values="0 0 0 0 0 0 0 0 0 0 0 0 0 0 0 0 0 0 .4 0"/><feOffset dx="4.0" dy="4.0" in="blurOut2" result="blurOut3"/><feBlend in="SourceGraphic" in2="blurOut3" mode="normal"/></filter></defs><g><ellipse cx="603.4752" cy="35.495" fill="#FEFECE" filter="url(#f1xgh2ojrgsuo2)" rx="125.4752" ry="27.495" style="stroke: #A80036; stroke-width: 1.5;"/><text fill="#000000" font-family="sans-serif" font-size="14" lengthAdjust="spacingAndGlyphs" textLength="231" x="487.9752" y="40.1435">Añadir/borrar o modificar usuarios</text><!--entity Administrador--><ellipse cx="557.5" cy="133" fill="#FEFECE" filter="url(#f1xgh2ojrgsuo2)" rx="8" ry="8" style="stroke: #A80036; stroke-width: 2.0;"/><path d="M557.5,141 L557.5,168 M544.5,149 L570.5,149 M557.5,168 L544.5,183 M557.5,168 L570.5,183 " fill="none" filter="url(#f1xgh2ojrgsuo2)" style="stroke: #A80036; stroke-width: 2.0;"/><text fill="#000000" font-family="sans-serif" font-size="14" lengthAdjust="spacingAndGlyphs" textLength="95" x="510" y="202.9951">Administrador</text><ellipse cx="760.3027" cy="164.4605" fill="#FEFECE" filter="url(#f1xgh2ojrgsuo2)" rx="120.3027" ry="26.4605" style="stroke: #A80036; stroke-width: 1.5;"/><text fill="#000000" font-family="sans-serif" font-size="14" lengthAdjust="spacingAndGlyphs" textLength="220" x="650.3027" y="169.109">Añadir/borrar o modificar niveles</text><ellipse cx="557.7303" cy="291.2461" fill="#FEFECE" filter="url(#f1xgh2ojrgsuo2)" rx="114.2303" ry="25.2461" style="stroke: #A80036; stroke-width: 1.5;"/><text fill="#000000" font-family="sans-serif" font-size="14" lengthAdjust="spacingAndGlyphs" textLength="207" x="454.2303" y="295.8945">Añadir/borrar o modificar salas</text><!--entity Usuario--><ellipse cx="230.5" cy="133" fill="#FEFECE" filter="url(#f1xgh2ojrgsuo2)" rx="8" ry="8" style="stroke: #A80036; stroke-width: 2.0;"/><path d="M230.5,141 L230.5,168 M217.5,149 L243.5,149 M230.5,168 L217.5,183 M230.5,168 L243.5,183 " fill="none" filter="url(#f1xgh2ojrgsuo2)" style="stroke: #A80036; stroke-width: 2.0;"/><text fill="#000000" font-family="sans-serif" font-size="14" lengthAdjust="spacingAndGlyphs" textLength="52" x="204.5" y="202.9951">Usuario</text><ellipse cx="42.4914" cy="35.5236" fill="#FEFECE" filter="url(#f1xgh2ojrgsuo2)" rx="31.9914" ry="14.5236" style="stroke: #A80036; stroke-width: 1.5;"/><text fill="#000000" font-family="sans-serif" font-size="14" lengthAdjust="spacingAndGlyphs" textLength="41" x="21.9914" y="40.1721">Log in</text><ellipse cx="185.5253" cy="35.5051" fill="#FEFECE" filter="url(#f1xgh2ojrgsuo2)" rx="75.5253" ry="17.5051" style="stroke: #A80036; stroke-width: 1.5;"/><text fill="#000000" font-family="sans-serif" font-size="14" lengthAdjust="spacingAndGlyphs" textLength="120" x="125.5253" y="40.1535">Administrar datos</text><ellipse cx="87.4151" cy="164.683" fill="#FEFECE" filter="url(#f1xgh2ojrgsuo2)" rx="81.4151" ry="18.683" style="stroke: #A80036; stroke-width: 1.5;"/><text fill="#000000" font-family="sans-serif" font-size="14" lengthAdjust="spacingAndGlyphs" textLength="134" x="20.4151" y="169.3315">Crear nueva partida</text><ellipse cx="369.4711" cy="35.5942" fill="#FEFECE" filter="url(#f1xgh2ojrgsuo2)" rx="73.4711" ry="17.0942" style="stroke: #A80036; stroke-width: 1.5;"/><text fill="#000000" font-family="sans-serif" font-size="14" lengthAdjust="spacingAndGlyphs" textLength="115" x="311.9711" y="40.2427">Recuperar datos</text><ellipse cx="170.6543" cy="291.0236" fill="#FEFECE" filter="url(#f1xgh2ojrgsuo2)" rx="58.1543" ry="14.5236" style="stroke: #A80036; stroke-width: 1.5;"/><text fill="#000000" font-family="sans-serif" font-size="14" lengthAdjust="spacingAndGlyphs" textLength="78" x="131.6543" y="295.6721">Ver ranking</text><ellipse cx="290.5416" cy="291.0236" fill="#FEFECE" filter="url(#f1xgh2ojrgsuo2)" rx="27.0416" ry="14.5236" style="stroke: #A80036; stroke-width: 1.5;"/><text fill="#000000" font-family="sans-serif" font-size="14" lengthAdjust="spacingAndGlyphs" textLength="34" x="273.5416" y="295.6721">Jugar</text><!--link Añadir/borrar o modificar usuarios to Administrador--><path d="M592.043,68.132 C586.042,84.7 578.626,105.175 572.205,122.9 " fill="none" id="Añadir/borrar o modificar usuarios-Administrador" style="stroke: #A80036; stroke-width: 1.0;"/><polygon fill="#A80036" points="593.857,63.123,587.0324,70.224,592.1551,67.8244,594.5546,72.9471,593.857,63.123" style="stroke: #A80036; stroke-width: 1.0;"/><!--link Administrador to Añadir/borrar o modificar niveles--><path d="M605.078,164.5 C614.987,164.5 624.896,164.5 634.805,164.5 " fill="none" id="Administrador-Añadir/borrar o modificar niveles" style="stroke: #A80036; stroke-width: 1.0;"/><polygon fill="#A80036" points="639.987,164.5,630.987,160.5,634.987,164.5,630.987,168.5,639.987,164.5" style="stroke: #A80036; stroke-width: 1.0;"/><!--link Administrador to Añadir/borrar o modificar salas--><path d="M557.5,206.266 C557.5,223.9786 557.5,244.3363 557.5,260.5433 " fill="none" id="Administrador-Añadir/borrar o modificar salas" style="stroke: #A80036; stroke-width: 1.0;"/><polygon fill="#A80036" points="557.5,265.8706,561.5,256.8706,557.5,260.8706,553.5,256.8706,557.5,265.8706" style="stroke: #A80036; stroke-width: 1.0;"/><!--link Usuario to Administrador--><path d="M276.963,164.5 C354.612,164.5 432.261,164.5 509.91,164.5 " fill="none" id="Usuario-Administrador" style="stroke: #A80036; stroke-width: 1.0;"/><polygon fill="none" points="276.686,171.5,256.686,164.5,276.686,157.5,276.686,171.5" style="stroke: #A80036; stroke-width: 1.0;"/><!--link Log in to Usuario--><path d="M67.4377,49.459 C96.9467,65.244 147.049,93.476 186.5,123 C192.485,127.479 198.584,132.642 204.259,137.75 " fill="none" id="Log in-Usuario" style="stroke: #A80036; stroke-width: 1.0;"/><polygon fill="#A80036" points="62.8833,47.035,68.9473,54.7956,67.2966,49.385,72.7073,47.7343,62.8833,47.035" style="stroke: #A80036; stroke-width: 1.0;"/><!--link Administrar datos to Usuario--><path d="M193.074,57.876 C199.347,75.581 208.441,101.245 216.093,122.842 " fill="none" id="Administrar datos-Usuario" style="stroke: #A80036; stroke-width: 1.0;"/><polygon fill="#A80036" points="191.383,53.103,190.6187,62.9222,193.053,57.8159,198.1593,60.2502,191.383,53.103" style="stroke: #A80036; stroke-width: 1.0;"/><!--link Crear nueva partida to Usuario--><path d="M174.256,164.5 C184.203,164.5 194.151,164.5 204.098,164.5 " fill="none" id="Crear nueva partida-Usuario" style="stroke: #A80036; stroke-width: 1.0;"/><polygon fill="#A80036" points="169.055,164.5,178.055,168.5,174.055,164.5,178.055,160.5,169.055,164.5" style="stroke: #A80036; stroke-width: 1.0;"/><!--link Recuperar datos to Usuario--><path d="M348.663,55.538 C324.13,77.953 283.359,115.204 256.706,139.556 " fill="none" id="Recuperar datos-Usuario" style="stroke: #A80036; stroke-width: 1.0;"/><polygon fill="#A80036" points="352.456,52.073,343.1137,55.1908,348.7648,55.4457,348.5099,61.0968,352.456,52.073" style="stroke: #A80036; stroke-width: 1.0;"/><!--link Usuario to Ver ranking--><path d="M210.854,206.266 C200.17,228.4352 187.489,254.7481 179.232,271.8803 " fill="none" id="Usuario-Ver ranking" style="stroke: #A80036; stroke-width: 1.0;"/><polygon fill="#A80036" points="177.026,276.4579,184.5366,270.0868,179.1967,271.9537,177.3299,266.6137,177.026,276.4579" style="stroke: #A80036; stroke-width: 1.0;"/><!--link Usuario to Jugar--><path d="M250.146,206.266 C260.893,228.5649 273.66,255.056 281.912,272.1799 " fill="none" id="Usuario-Jugar" style="stroke: #A80036; stroke-width: 1.0;"/><polygon fill="#A80036" points="284.114,276.75,283.8099,266.9058,281.9432,272.2458,276.6032,270.3791,284.114,276.75" style="stroke: #A80036; stroke-width: 1.0;"/><!--
@startuml
(Añadir/borrar o modificar usuarios) <- - Administrador
Administrador -> (Añadir/borrar o modificar niveles)
Administrador - -> (Añadir/borrar o modificar salas)
Usuario <|- Administrador
(Log in) <- - Usuario
(Administrar datos) <- - Usuario
(Crear nueva partida) <- Usuario
(Recuperar datos) <- - Usuario
Usuario - -> (Ver ranking)
Usuario - -> (Jugar)
@enduml

PlantUML version 1.2019.05beta2(Unknown compile time)
(GPL source distribution)
Java Runtime: Java(TM) SE Runtime Environment
JVM: Java HotSpot(TM) 64-Bit Server VM
Java Version: 1.7.0_25-b15
Operating System: Linux
Default Encoding: UTF-8
Language: en
Country: US
--></g></svg>