<?xml version="1.0" encoding="UTF-8" standalone="no"?><svg xmlns="http://www.w3.org/2000/svg" xmlns:xlink="http://www.w3.org/1999/xlink" contentScriptType="application/ecmascript" contentStyleType="text/css" height="320px" preserveAspectRatio="none" style="width:673px;height:320px;" version="1.1" viewBox="0 0 673 320" width="673px" zoomAndPan="magnify"><defs><filter height="300%" id="fg0ix647tcrqh" width="300%" x="-1" y="-1"><feGaussianBlur result="blurOut" stdDeviation="2.0"/><feColorMatrix in="blurOut" result="blurOut2" type="matrix" values="0 0 0 0 0 0 0 0 0 0 0 0 0 0 0 0 0 0 .4 0"/><feOffset dx="4.0" dy="4.0" in="blurOut2" result="blurOut3"/><feBlend in="SourceGraphic" in2="blurOut3" mode="normal"/></filter></defs><g><!--entity Server--><ellipse cx="368.5" cy="18" fill="#FEFECE" filter="url(#fg0ix647tcrqh)" rx="8" ry="8" style="stroke: #A80036; stroke-width: 2.0;"/><path d="M368.5,26 L368.5,53 M355.5,34 L381.5,34 M368.5,53 L355.5,68 M368.5,53 L381.5,68 " fill="none" filter="url(#fg0ix647tcrqh)" style="stroke: #A80036; stroke-width: 2.0;"/><text fill="#000000" font-family="sans-serif" font-size="14" lengthAdjust="spacingAndGlyphs" textLength="44" x="346.5" y="87.9951">Server</text><ellipse cx="136.6751" cy="179.535" fill="#FEFECE" filter="url(#fg0ix647tcrqh)" rx="130.6751" ry="28.535" style="stroke: #A80036; stroke-width: 1.5;"/><text fill="#000000" font-family="sans-serif" font-size="14" lengthAdjust="spacingAndGlyphs" textLength="242" x="15.6751" y="184.1835">Aceptar/Enviar mensajes de cliente</text><ellipse cx="368.7254" cy="179.7451" fill="#FEFECE" filter="url(#fg0ix647tcrqh)" rx="66.7254" ry="15.7451" style="stroke: #A80036; stroke-width: 1.5;"/><text fill="#000000" font-family="sans-serif" font-size="14" lengthAdjust="spacingAndGlyphs" textLength="98" x="319.7254" y="184.3935">Guardar datos</text><ellipse cx="191.2548" cy="289.0236" fill="#FEFECE" filter="url(#fg0ix647tcrqh)" rx="48.2548" ry="14.5236" style="stroke: #A80036; stroke-width: 1.5;"/><text fill="#000000" font-family="sans-serif" font-size="14" lengthAdjust="spacingAndGlyphs" textLength="64" x="159.2548" y="293.6721">Rankings</text><ellipse cx="368.2771" cy="288.9554" fill="#FEFECE" filter="url(#fg0ix647tcrqh)" rx="92.7771" ry="20.9554" style="stroke: #A80036; stroke-width: 1.5;"/><text fill="#000000" font-family="sans-serif" font-size="14" lengthAdjust="spacingAndGlyphs" textLength="160" x="288.2771" y="293.6039">Informacion del usuario</text><ellipse cx="579.6307" cy="289.0261" fill="#FEFECE" filter="url(#fg0ix647tcrqh)" rx="83.1307" ry="19.0261" style="stroke: #A80036; stroke-width: 1.5;"/><text fill="#000000" font-family="sans-serif" font-size="14" lengthAdjust="spacingAndGlyphs" textLength="138" x="510.6307" y="293.6746">Personajes y mapas</text><ellipse cx="554.4934" cy="179.6987" fill="#FEFECE" filter="url(#fg0ix647tcrqh)" rx="83.9934" ry="19.1987" style="stroke: #A80036; stroke-width: 1.5;"/><text fill="#000000" font-family="sans-serif" font-size="14" lengthAdjust="spacingAndGlyphs" textLength="140" x="484.4934" y="184.3471">Gestionar seguridad</text><!--link Server to Aceptar/Enviar mensajes de cliente--><path d="M346.255,62.773 C309.925,82.817 236.949,123.08 187.403,150.416 " fill="none" id="Server-Aceptar/Enviar mensajes de cliente" style="stroke: #A80036; stroke-width: 1.0;"/><polygon fill="#A80036" points="182.982,152.855,192.7944,152.0083,187.3596,150.439,188.9289,145.0042,182.982,152.855" style="stroke: #A80036; stroke-width: 1.0;"/><!--link Server to Guardar datos--><path d="M368.5,91.352 C368.5,113.763 368.5,140.551 368.5,158.457 " fill="none" id="Server-Guardar datos" style="stroke: #A80036; stroke-width: 1.0;"/><polygon fill="#A80036" points="368.5,163.714,372.5,154.714,368.5,158.714,364.5,154.714,368.5,163.714" style="stroke: #A80036; stroke-width: 1.0;"/><!--link Guardar datos to Rankings--><path d="M346.083,194.115 C312.876,214.283 250.83,251.9662 216.301,272.9372 " fill="none" id="Guardar datos-Rankings" style="stroke: #A80036; stroke-width: 1.0; stroke-dasharray: 7.0,7.0;"/><polygon fill="#A80036" points="211.822,275.6577,221.5908,274.4043,216.0955,273.062,217.4377,267.5667,211.822,275.6577" style="stroke: #A80036; stroke-width: 1.0;"/><!--link Guardar datos to Informacion del usuario--><path d="M368.5,195.447 C368.5,212.7855 368.5,241.6576 368.5,262.5497 " fill="none" id="Guardar datos-Informacion del usuario" style="stroke: #A80036; stroke-width: 1.0; stroke-dasharray: 7.0,7.0;"/><polygon fill="#A80036" points="368.5,267.6774,372.5,258.6774,368.5,262.6774,364.5,258.6774,368.5,267.6774" style="stroke: #A80036; stroke-width: 1.0;"/><!--link Guardar datos to Personajes y mapas--><path d="M394.797,193.898 C431.996,212.85 500.157,247.5762 542.463,269.1305 " fill="none" id="Guardar datos-Personajes y mapas" style="stroke: #A80036; stroke-width: 1.0; stroke-dasharray: 7.0,7.0;"/><polygon fill="#A80036" points="546.982,271.4327,540.7789,263.7828,542.527,269.1628,537.147,270.9108,546.982,271.4327" style="stroke: #A80036; stroke-width: 1.0;"/><!--link Server to Gestionar seguridad--><path d="M390.567,65.686 C424.041,88.722 487.702,132.531 525.079,158.253 " fill="none" id="Server-Gestionar seguridad" style="stroke: #A80036; stroke-width: 1.0;"/><polygon fill="#A80036" points="529.503,161.298,524.3552,152.9016,525.3836,158.4641,519.821,159.4926,529.503,161.298" style="stroke: #A80036; stroke-width: 1.0;"/><!--
@startuml
Server - -> (Aceptar/Enviar mensajes de cliente)
Server - -> (Guardar datos)
(Guardar datos) ..> (Rankings)
(Guardar datos) ..> (Informacion del usuario)
(Guardar datos) ..> (Personajes y mapas)
Server - -> (Gestionar seguridad)
@enduml

PlantUML version 1.2019.05beta2(Unknown compile time)
(GPL source distribution)
Java Runtime: Java(TM) SE Runtime Environment
JVM: Java HotSpot(TM) 64-Bit Server VM
Java Version: 1.7.0_25-b15
Operating System: Linux
Default Encoding: UTF-8
Language: en
Country: US
--></g></svg>