<?xml version="1.0" encoding="UTF-8" standalone="no"?><svg xmlns="http://www.w3.org/2000/svg" xmlns:xlink="http://www.w3.org/1999/xlink" contentScriptType="application/ecmascript" contentStyleType="text/css" height="199px" preserveAspectRatio="none" style="width:888px;height:199px;" version="1.1" viewBox="0 0 888 199" width="888px" zoomAndPan="magnify"><defs><filter height="300%" id="fvnlizzr4f2tr" width="300%" x="-1" y="-1"><feGaussianBlur result="blurOut" stdDeviation="2.0"/><feColorMatrix in="blurOut" result="blurOut2" type="matrix" values="0 0 0 0 0 0 0 0 0 0 0 0 0 0 0 0 0 0 .4 0"/><feOffset dx="4.0" dy="4.0" in="blurOut2" result="blurOut3"/><feBlend in="SourceGraphic" in2="blurOut3" mode="normal"/></filter></defs><g><!--entity Usuario--><ellipse cx="468" cy="18" fill="#FEFECE" filter="url(#fvnlizzr4f2tr)" rx="8" ry="8" style="stroke: #A80036; stroke-width: 2.0;"/><path d="M468,26 L468,53 M455,34 L481,34 M468,53 L455,68 M468,53 L481,68 " fill="none" filter="url(#fvnlizzr4f2tr)" style="stroke: #A80036; stroke-width: 2.0;"/><text fill="#000000" font-family="sans-serif" font-size="14" lengthAdjust="spacingAndGlyphs" textLength="52" x="442" y="87.9951">Usuario</text><ellipse cx="37.9914" cy="169.5236" fill="#FEFECE" filter="url(#fvnlizzr4f2tr)" rx="31.9914" ry="14.5236" style="stroke: #A80036; stroke-width: 1.5;"/><text fill="#000000" font-family="sans-serif" font-size="14" lengthAdjust="spacingAndGlyphs" textLength="41" x="17.4914" y="174.1721">Log in</text><ellipse cx="181.0253" cy="169.5051" fill="#FEFECE" filter="url(#fvnlizzr4f2tr)" rx="75.5253" ry="17.5051" style="stroke: #A80036; stroke-width: 1.5;"/><text fill="#000000" font-family="sans-serif" font-size="14" lengthAdjust="spacingAndGlyphs" textLength="120" x="121.0253" y="174.1535">Administrar datos</text><ellipse cx="372.9151" cy="169.683" fill="#FEFECE" filter="url(#fvnlizzr4f2tr)" rx="81.4151" ry="18.683" style="stroke: #A80036; stroke-width: 1.5;"/><text fill="#000000" font-family="sans-serif" font-size="14" lengthAdjust="spacingAndGlyphs" textLength="134" x="305.9151" y="174.3315">Crear nueva partida</text><ellipse cx="562.9711" cy="169.5942" fill="#FEFECE" filter="url(#fvnlizzr4f2tr)" rx="73.4711" ry="17.0942" style="stroke: #A80036; stroke-width: 1.5;"/><text fill="#000000" font-family="sans-serif" font-size="14" lengthAdjust="spacingAndGlyphs" textLength="115" x="505.4711" y="174.2427">Recuperar datos</text><ellipse cx="730.1543" cy="169.5236" fill="#FEFECE" filter="url(#fvnlizzr4f2tr)" rx="58.1543" ry="14.5236" style="stroke: #A80036; stroke-width: 1.5;"/><text fill="#000000" font-family="sans-serif" font-size="14" lengthAdjust="spacingAndGlyphs" textLength="78" x="691.1543" y="174.1721">Ver ranking</text><ellipse cx="850.0416" cy="169.5236" fill="#FEFECE" filter="url(#fvnlizzr4f2tr)" rx="27.0416" ry="14.5236" style="stroke: #A80036; stroke-width: 1.5;"/><text fill="#000000" font-family="sans-serif" font-size="14" lengthAdjust="spacingAndGlyphs" textLength="34" x="833.0416" y="174.1721">Jugar</text><!--link Usuario to Log in--><path d="M441.54,56.743 C379.399,71.568 219.46,110.6781 88,151 C80.9989,153.1474 73.5158,155.652 66.5279,158.0838 " fill="none" id="Usuario-Log in" style="stroke: #A80036; stroke-width: 1.0;"/><polygon fill="#A80036" points="61.7813,159.7504,71.5982,160.5427,66.4989,158.0939,68.9478,152.9945,61.7813,159.7504" style="stroke: #A80036; stroke-width: 1.0;"/><!--link Usuario to Administrar datos--><path d="M441.77,61.285 C391.432,81.981 280.986,127.3907 221.256,151.9487 " fill="none" id="Usuario-Administrar datos" style="stroke: #A80036; stroke-width: 1.0;"/><polygon fill="#A80036" points="216.341,153.9694,226.186,154.2464,220.9654,152.068,223.1437,146.8474,216.341,153.9694" style="stroke: #A80036; stroke-width: 1.0;"/><!--link Usuario to Crear nueva partida--><path d="M441.789,83.056 C425.348,103.4779 404.617,129.2286 390.232,147.0955 " fill="none" id="Usuario-Crear nueva partida" style="stroke: #A80036; stroke-width: 1.0;"/><polygon fill="#A80036" points="387.082,151.0083,395.8419,146.5068,390.2177,147.1138,389.6107,141.4896,387.082,151.0083" style="stroke: #A80036; stroke-width: 1.0;"/><!--link Usuario to Recuperar datos--><path d="M494.211,83.056 C511.162,104.1121 532.675,130.8332 547.089,148.7369 " fill="none" id="Usuario-Recuperar datos" style="stroke: #A80036; stroke-width: 1.0;"/><polygon fill="#A80036" points="550.233,152.6415,547.7043,143.1228,547.0973,148.747,541.4731,148.14,550.233,152.6415" style="stroke: #A80036; stroke-width: 1.0;"/><!--link Usuario to Ver ranking--><path d="M494.079,62.246 C542.577,84.088 646.441,130.8666 698.662,154.3859 " fill="none" id="Usuario-Ver ranking" style="stroke: #A80036; stroke-width: 1.0;"/><polygon fill="#A80036" points="703.246,156.4505,696.6838,149.1063,698.6874,154.3964,693.3973,156.4,703.246,156.4505" style="stroke: #A80036; stroke-width: 1.0;"/><!--link Usuario to Jugar--><path d="M494.119,57.407 C551.207,72.692 691.186,111.1879 806,151 C812.068,153.1041 818.53,155.5538 824.581,157.9422 " fill="none" id="Usuario-Jugar" style="stroke: #A80036; stroke-width: 1.0;"/><polygon fill="#A80036" points="829.549,159.9251,822.6721,152.8747,824.905,158.0722,819.7075,160.3051,829.549,159.9251" style="stroke: #A80036; stroke-width: 1.0;"/><!--
@startuml
Usuario - -> (Log in)
Usuario - -> (Administrar datos)
Usuario - -> (Crear nueva partida)
Usuario - -> (Recuperar datos)
Usuario - -> (Ver ranking)
Usuario - -> (Jugar)
@enduml

PlantUML version 1.2019.05beta2(Unknown compile time)
(GPL source distribution)
Java Runtime: Java(TM) SE Runtime Environment
JVM: Java HotSpot(TM) 64-Bit Server VM
Java Version: 1.7.0_25-b15
Operating System: Linux
Default Encoding: UTF-8
Language: en
Country: US
--></g></svg>