<?xml version="1.0" encoding="UTF-8" standalone="no"?><svg xmlns="http://www.w3.org/2000/svg" xmlns:xlink="http://www.w3.org/1999/xlink" contentScriptType="application/ecmascript" contentStyleType="text/css" height="340px" preserveAspectRatio="none" style="width:536px;height:340px;" version="1.1" viewBox="0 0 536 340" width="536px" zoomAndPan="magnify"><defs><filter height="300%" id="f8d3su4wuava6" width="300%" x="-1" y="-1"><feGaussianBlur result="blurOut" stdDeviation="2.0"/><feColorMatrix in="blurOut" result="blurOut2" type="matrix" values="0 0 0 0 0 0 0 0 0 0 0 0 0 0 0 0 0 0 .4 0"/><feOffset dx="4.0" dy="4.0" in="blurOut2" result="blurOut3"/><feBlend in="SourceGraphic" in2="blurOut3" mode="normal"/></filter></defs><g><text fill="#000000" font-family="sans-serif" font-size="14" font-weight="bold" lengthAdjust="spacingAndGlyphs" textLength="336" x="101.25" y="22.9951">Diagrama de secuencia - Continuar partida</text><rect fill="#FFFFFF" filter="url(#f8d3su4wuava6)" height="87.3984" style="stroke: #A80036; stroke-width: 1.0;" width="10" x="184" y="147.7266"/><rect fill="#FFFFFF" filter="url(#f8d3su4wuava6)" height="58.2656" style="stroke: #A80036; stroke-width: 1.0;" width="10" x="341" y="176.8594"/><rect fill="#FFFFFF" filter="url(#f8d3su4wuava6)" height="29.1328" style="stroke: #A80036; stroke-width: 1.0;" width="10" x="499" y="205.9922"/><line style="stroke: #A80036; stroke-width: 1.0; stroke-dasharray: 5.0,5.0;" x1="37" x2="37" y1="116.5938" y2="253.125"/><line style="stroke: #A80036; stroke-width: 1.0; stroke-dasharray: 5.0,5.0;" x1="189" x2="189" y1="116.5938" y2="253.125"/><line style="stroke: #A80036; stroke-width: 1.0; stroke-dasharray: 5.0,5.0;" x1="345.5" x2="345.5" y1="116.5938" y2="253.125"/><line style="stroke: #A80036; stroke-width: 1.0; stroke-dasharray: 5.0,5.0;" x1="503.5" x2="503.5" y1="116.5938" y2="253.125"/><text fill="#000000" font-family="sans-serif" font-size="14" lengthAdjust="spacingAndGlyphs" textLength="52" x="8" y="113.292">Jugador</text><ellipse cx="37" cy="43.2969" fill="#FEFECE" filter="url(#f8d3su4wuava6)" rx="8" ry="8" style="stroke: #A80036; stroke-width: 2.0;"/><path d="M37,51.2969 L37,78.2969 M24,59.2969 L50,59.2969 M37,78.2969 L24,93.2969 M37,78.2969 L50,93.2969 " fill="none" filter="url(#f8d3su4wuava6)" style="stroke: #A80036; stroke-width: 2.0;"/><text fill="#000000" font-family="sans-serif" font-size="14" lengthAdjust="spacingAndGlyphs" textLength="52" x="8" y="265.1201">Jugador</text><ellipse cx="37" cy="278.4219" fill="#FEFECE" filter="url(#f8d3su4wuava6)" rx="8" ry="8" style="stroke: #A80036; stroke-width: 2.0;"/><path d="M37,286.4219 L37,313.4219 M24,294.4219 L50,294.4219 M37,313.4219 L24,328.4219 M37,313.4219 L50,328.4219 " fill="none" filter="url(#f8d3su4wuava6)" style="stroke: #A80036; stroke-width: 2.0;"/><text fill="#000000" font-family="sans-serif" font-size="14" lengthAdjust="spacingAndGlyphs" textLength="126" x="123" y="113.292">InterfMenúUsuario</text><path d="M168.5,72.2969 L168.5,96.2969 M168.5,84.2969 L185.5,84.2969 " fill="none" filter="url(#f8d3su4wuava6)" style="stroke: #A80036; stroke-width: 2.0;"/><ellipse cx="197.5" cy="84.2969" fill="#FEFECE" filter="url(#f8d3su4wuava6)" rx="12" ry="12" style="stroke: #A80036; stroke-width: 2.0;"/><text fill="#000000" font-family="sans-serif" font-size="14" lengthAdjust="spacingAndGlyphs" textLength="126" x="123" y="265.1201">InterfMenúUsuario</text><path d="M168.5,272.4219 L168.5,296.4219 M168.5,284.4219 L185.5,284.4219 " fill="none" filter="url(#f8d3su4wuava6)" style="stroke: #A80036; stroke-width: 2.0;"/><ellipse cx="197.5" cy="284.4219" fill="#FEFECE" filter="url(#f8d3su4wuava6)" rx="12" ry="12" style="stroke: #A80036; stroke-width: 2.0;"/><text fill="#000000" font-family="sans-serif" font-size="14" lengthAdjust="spacingAndGlyphs" textLength="55" x="315.5" y="113.292">Sistema</text><ellipse cx="346" cy="84.2969" fill="#FEFECE" filter="url(#f8d3su4wuava6)" rx="12" ry="12" style="stroke: #A80036; stroke-width: 2.0;"/><polygon fill="#A80036" points="342,72.2969,348,67.2969,346,72.2969,348,77.2969,342,72.2969" style="stroke: #A80036; stroke-width: 1.0;"/><text fill="#000000" font-family="sans-serif" font-size="14" lengthAdjust="spacingAndGlyphs" textLength="55" x="315.5" y="265.1201">Sistema</text><ellipse cx="346" cy="284.4219" fill="#FEFECE" filter="url(#f8d3su4wuava6)" rx="12" ry="12" style="stroke: #A80036; stroke-width: 2.0;"/><polygon fill="#A80036" points="342,272.4219,348,267.4219,346,272.4219,348,277.4219,342,272.4219" style="stroke: #A80036; stroke-width: 1.0;"/><text fill="#000000" font-family="sans-serif" font-size="14" lengthAdjust="spacingAndGlyphs" textLength="47" x="477.5" y="113.292">Partida</text><ellipse cx="504" cy="84.2969" fill="#FEFECE" filter="url(#f8d3su4wuava6)" rx="12" ry="12" style="stroke: #A80036; stroke-width: 2.0;"/><line style="stroke: #A80036; stroke-width: 2.0;" x1="492" x2="516" y1="98.2969" y2="98.2969"/><text fill="#000000" font-family="sans-serif" font-size="14" lengthAdjust="spacingAndGlyphs" textLength="47" x="477.5" y="265.1201">Partida</text><ellipse cx="504" cy="284.4219" fill="#FEFECE" filter="url(#f8d3su4wuava6)" rx="12" ry="12" style="stroke: #A80036; stroke-width: 2.0;"/><line style="stroke: #A80036; stroke-width: 2.0;" x1="492" x2="516" y1="298.4219" y2="298.4219"/><rect fill="#FFFFFF" filter="url(#f8d3su4wuava6)" height="87.3984" style="stroke: #A80036; stroke-width: 1.0;" width="10" x="184" y="147.7266"/><rect fill="#FFFFFF" filter="url(#f8d3su4wuava6)" height="58.2656" style="stroke: #A80036; stroke-width: 1.0;" width="10" x="341" y="176.8594"/><rect fill="#FFFFFF" filter="url(#f8d3su4wuava6)" height="29.1328" style="stroke: #A80036; stroke-width: 1.0;" width="10" x="499" y="205.9922"/><polygon fill="#A80036" points="172,143.7266,182,147.7266,172,151.7266,176,147.7266" style="stroke: #A80036; stroke-width: 1.0;"/><line style="stroke: #A80036; stroke-width: 1.0;" x1="37" x2="178" y1="147.7266" y2="147.7266"/><text fill="#000000" font-family="sans-serif" font-size="13" font-weight="bold" lengthAdjust="spacingAndGlyphs" textLength="9" x="44" y="142.6606">1</text><text fill="#000000" font-family="sans-serif" font-size="13" lengthAdjust="spacingAndGlyphs" textLength="115" x="57" y="142.6606">continuarPartida()</text><polygon fill="#A80036" points="329,172.8594,339,176.8594,329,180.8594,333,176.8594" style="stroke: #A80036; stroke-width: 1.0;"/><line style="stroke: #A80036; stroke-width: 1.0;" x1="194" x2="335" y1="176.8594" y2="176.8594"/><text fill="#000000" font-family="sans-serif" font-size="13" font-weight="bold" lengthAdjust="spacingAndGlyphs" textLength="9" x="201" y="171.7935">2</text><text fill="#000000" font-family="sans-serif" font-size="13" lengthAdjust="spacingAndGlyphs" textLength="115" x="214" y="171.7935">continuarPartida()</text><polygon fill="#A80036" points="487,201.9922,497,205.9922,487,209.9922,491,205.9922" style="stroke: #A80036; stroke-width: 1.0;"/><line style="stroke: #A80036; stroke-width: 1.0;" x1="351" x2="493" y1="205.9922" y2="205.9922"/><text fill="#000000" font-family="sans-serif" font-size="13" font-weight="bold" lengthAdjust="spacingAndGlyphs" textLength="9" x="358" y="200.9263">3</text><text fill="#000000" font-family="sans-serif" font-size="13" lengthAdjust="spacingAndGlyphs" textLength="116" x="371" y="200.9263">comprobarDispo()</text><polygon fill="#A80036" points="357,231.125,347,235.125,357,239.125,353,235.125" style="stroke: #A80036; stroke-width: 1.0;"/><line style="stroke: #A80036; stroke-width: 1.0;" x1="351" x2="503" y1="235.125" y2="235.125"/><text fill="#000000" font-family="sans-serif" font-size="13" font-weight="bold" lengthAdjust="spacingAndGlyphs" textLength="9" x="363" y="230.0591">4</text><text fill="#000000" font-family="sans-serif" font-size="13" lengthAdjust="spacingAndGlyphs" textLength="91" x="376" y="230.0591">datosPartida()</text><!--
@startuml
title Diagrama de secuencia - Continuar partida
autonumber
actor Jugador
boundary InterfMenúUsuario
control Sistema
entity Partida

Jugador -> InterfMenúUsuario : continuarPartida()
activate InterfMenúUsuario
InterfMenúUsuario -> Sistema : continuarPartida()
activate Sistema
Sistema -> Partida : comprobarDispo()
activate Partida
Partida -> Sistema : datosPartida()
deactivate Partida
deactivate Sistema
deactivate InterfMenúUsuario
@enduml

PlantUML version 1.2019.05(Sat Apr 20 16:45:36 UTC 2019)
(GPL source distribution)
Java Runtime: Java(TM) SE Runtime Environment
JVM: Java HotSpot(TM) 64-Bit Server VM
Java Version: 1.7.0_25-b15
Operating System: Linux
Default Encoding: UTF-8
Language: en
Country: US
--></g></svg>