<?xml version="1.0" encoding="UTF-8" standalone="no"?><svg xmlns="http://www.w3.org/2000/svg" xmlns:xlink="http://www.w3.org/1999/xlink" contentScriptType="application/ecmascript" contentStyleType="text/css" height="369px" preserveAspectRatio="none" style="width:472px;height:369px;" version="1.1" viewBox="0 0 472 369" width="472px" zoomAndPan="magnify"><defs><filter height="300%" id="f1p47f3bu5hsux" width="300%" x="-1" y="-1"><feGaussianBlur result="blurOut" stdDeviation="2.0"/><feColorMatrix in="blurOut" result="blurOut2" type="matrix" values="0 0 0 0 0 0 0 0 0 0 0 0 0 0 0 0 0 0 .4 0"/><feOffset dx="4.0" dy="4.0" in="blurOut2" result="blurOut3"/><feBlend in="SourceGraphic" in2="blurOut3" mode="normal"/></filter></defs><g><text fill="#000000" font-family="sans-serif" font-size="14" font-weight="bold" lengthAdjust="spacingAndGlyphs" textLength="327" x="73.75" y="22.9951">Diagrama de secuencia - Empezar partida</text><rect fill="#FFFFFF" filter="url(#f1p47f3bu5hsux)" height="116.5313" style="stroke: #A80036; stroke-width: 1.0;" width="10" x="157" y="147.7266"/><rect fill="#FFFFFF" filter="url(#f1p47f3bu5hsux)" height="87.3984" style="stroke: #A80036; stroke-width: 1.0;" width="10" x="287" y="176.8594"/><rect fill="#FFFFFF" filter="url(#f1p47f3bu5hsux)" height="58.2656" style="stroke: #A80036; stroke-width: 1.0;" width="10" x="435" y="205.9922"/><line style="stroke: #A80036; stroke-width: 1.0; stroke-dasharray: 5.0,5.0;" x1="37" x2="37" y1="116.5938" y2="282.2578"/><line style="stroke: #A80036; stroke-width: 1.0; stroke-dasharray: 5.0,5.0;" x1="162" x2="162" y1="116.5938" y2="282.2578"/><line style="stroke: #A80036; stroke-width: 1.0; stroke-dasharray: 5.0,5.0;" x1="291.5" x2="291.5" y1="116.5938" y2="282.2578"/><line style="stroke: #A80036; stroke-width: 1.0; stroke-dasharray: 5.0,5.0;" x1="439.5" x2="439.5" y1="116.5938" y2="282.2578"/><text fill="#000000" font-family="sans-serif" font-size="14" lengthAdjust="spacingAndGlyphs" textLength="52" x="8" y="113.292">Jugador</text><ellipse cx="37" cy="43.2969" fill="#FEFECE" filter="url(#f1p47f3bu5hsux)" rx="8" ry="8" style="stroke: #A80036; stroke-width: 2.0;"/><path d="M37,51.2969 L37,78.2969 M24,59.2969 L50,59.2969 M37,78.2969 L24,93.2969 M37,78.2969 L50,93.2969 " fill="none" filter="url(#f1p47f3bu5hsux)" style="stroke: #A80036; stroke-width: 2.0;"/><text fill="#000000" font-family="sans-serif" font-size="14" lengthAdjust="spacingAndGlyphs" textLength="52" x="8" y="294.2529">Jugador</text><ellipse cx="37" cy="307.5547" fill="#FEFECE" filter="url(#f1p47f3bu5hsux)" rx="8" ry="8" style="stroke: #A80036; stroke-width: 2.0;"/><path d="M37,315.5547 L37,342.5547 M24,323.5547 L50,323.5547 M37,342.5547 L24,357.5547 M37,342.5547 L50,357.5547 " fill="none" filter="url(#f1p47f3bu5hsux)" style="stroke: #A80036; stroke-width: 2.0;"/><text fill="#000000" font-family="sans-serif" font-size="14" lengthAdjust="spacingAndGlyphs" textLength="126" x="96" y="113.292">InterfMenúUsuario</text><path d="M141.5,72.2969 L141.5,96.2969 M141.5,84.2969 L158.5,84.2969 " fill="none" filter="url(#f1p47f3bu5hsux)" style="stroke: #A80036; stroke-width: 2.0;"/><ellipse cx="170.5" cy="84.2969" fill="#FEFECE" filter="url(#f1p47f3bu5hsux)" rx="12" ry="12" style="stroke: #A80036; stroke-width: 2.0;"/><text fill="#000000" font-family="sans-serif" font-size="14" lengthAdjust="spacingAndGlyphs" textLength="126" x="96" y="294.2529">InterfMenúUsuario</text><path d="M141.5,301.5547 L141.5,325.5547 M141.5,313.5547 L158.5,313.5547 " fill="none" filter="url(#f1p47f3bu5hsux)" style="stroke: #A80036; stroke-width: 2.0;"/><ellipse cx="170.5" cy="313.5547" fill="#FEFECE" filter="url(#f1p47f3bu5hsux)" rx="12" ry="12" style="stroke: #A80036; stroke-width: 2.0;"/><text fill="#000000" font-family="sans-serif" font-size="14" lengthAdjust="spacingAndGlyphs" textLength="55" x="261.5" y="113.292">Sistema</text><ellipse cx="292" cy="84.2969" fill="#FEFECE" filter="url(#f1p47f3bu5hsux)" rx="12" ry="12" style="stroke: #A80036; stroke-width: 2.0;"/><polygon fill="#A80036" points="288,72.2969,294,67.2969,292,72.2969,294,77.2969,288,72.2969" style="stroke: #A80036; stroke-width: 1.0;"/><text fill="#000000" font-family="sans-serif" font-size="14" lengthAdjust="spacingAndGlyphs" textLength="55" x="261.5" y="294.2529">Sistema</text><ellipse cx="292" cy="313.5547" fill="#FEFECE" filter="url(#f1p47f3bu5hsux)" rx="12" ry="12" style="stroke: #A80036; stroke-width: 2.0;"/><polygon fill="#A80036" points="288,301.5547,294,296.5547,292,301.5547,294,306.5547,288,301.5547" style="stroke: #A80036; stroke-width: 1.0;"/><text fill="#000000" font-family="sans-serif" font-size="14" lengthAdjust="spacingAndGlyphs" textLength="47" x="413.5" y="113.292">Partida</text><ellipse cx="440" cy="84.2969" fill="#FEFECE" filter="url(#f1p47f3bu5hsux)" rx="12" ry="12" style="stroke: #A80036; stroke-width: 2.0;"/><line style="stroke: #A80036; stroke-width: 2.0;" x1="428" x2="452" y1="98.2969" y2="98.2969"/><text fill="#000000" font-family="sans-serif" font-size="14" lengthAdjust="spacingAndGlyphs" textLength="47" x="413.5" y="294.2529">Partida</text><ellipse cx="440" cy="313.5547" fill="#FEFECE" filter="url(#f1p47f3bu5hsux)" rx="12" ry="12" style="stroke: #A80036; stroke-width: 2.0;"/><line style="stroke: #A80036; stroke-width: 2.0;" x1="428" x2="452" y1="327.5547" y2="327.5547"/><rect fill="#FFFFFF" filter="url(#f1p47f3bu5hsux)" height="116.5313" style="stroke: #A80036; stroke-width: 1.0;" width="10" x="157" y="147.7266"/><rect fill="#FFFFFF" filter="url(#f1p47f3bu5hsux)" height="87.3984" style="stroke: #A80036; stroke-width: 1.0;" width="10" x="287" y="176.8594"/><rect fill="#FFFFFF" filter="url(#f1p47f3bu5hsux)" height="58.2656" style="stroke: #A80036; stroke-width: 1.0;" width="10" x="435" y="205.9922"/><polygon fill="#A80036" points="145,143.7266,155,147.7266,145,151.7266,149,147.7266" style="stroke: #A80036; stroke-width: 1.0;"/><line style="stroke: #A80036; stroke-width: 1.0;" x1="37" x2="151" y1="147.7266" y2="147.7266"/><text fill="#000000" font-family="sans-serif" font-size="13" font-weight="bold" lengthAdjust="spacingAndGlyphs" textLength="9" x="44" y="142.6606">1</text><text fill="#000000" font-family="sans-serif" font-size="13" lengthAdjust="spacingAndGlyphs" textLength="88" x="57" y="142.6606">crearPartida()</text><polygon fill="#A80036" points="275,172.8594,285,176.8594,275,180.8594,279,176.8594" style="stroke: #A80036; stroke-width: 1.0;"/><line style="stroke: #A80036; stroke-width: 1.0;" x1="167" x2="281" y1="176.8594" y2="176.8594"/><text fill="#000000" font-family="sans-serif" font-size="13" font-weight="bold" lengthAdjust="spacingAndGlyphs" textLength="9" x="174" y="171.7935">2</text><text fill="#000000" font-family="sans-serif" font-size="13" lengthAdjust="spacingAndGlyphs" textLength="88" x="187" y="171.7935">crearPartida()</text><polygon fill="#A80036" points="423,201.9922,433,205.9922,423,209.9922,427,205.9922" style="stroke: #A80036; stroke-width: 1.0;"/><line style="stroke: #A80036; stroke-width: 1.0;" x1="297" x2="429" y1="205.9922" y2="205.9922"/><text fill="#000000" font-family="sans-serif" font-size="13" font-weight="bold" lengthAdjust="spacingAndGlyphs" textLength="9" x="304" y="200.9263">3</text><text fill="#000000" font-family="sans-serif" font-size="13" lengthAdjust="spacingAndGlyphs" textLength="106" x="317" y="200.9263">eliminarPartida()</text><polygon fill="#A80036" points="308,231.125,298,235.125,308,239.125,304,235.125" style="stroke: #A80036; stroke-width: 1.0;"/><line style="stroke: #A80036; stroke-width: 1.0;" x1="302" x2="434" y1="235.125" y2="235.125"/><text fill="#000000" font-family="sans-serif" font-size="13" font-weight="bold" lengthAdjust="spacingAndGlyphs" textLength="9" x="314" y="230.0591">4</text><text fill="#000000" font-family="sans-serif" font-size="13" lengthAdjust="spacingAndGlyphs" textLength="92" x="327" y="230.0591">confirmación()</text><polygon fill="#A80036" points="428,260.2578,438,264.2578,428,268.2578,432,264.2578" style="stroke: #A80036; stroke-width: 1.0;"/><line style="stroke: #A80036; stroke-width: 1.0;" x1="292" x2="434" y1="264.2578" y2="264.2578"/><text fill="#000000" font-family="sans-serif" font-size="13" font-weight="bold" lengthAdjust="spacingAndGlyphs" textLength="9" x="299" y="259.1919">5</text><text fill="#000000" font-family="sans-serif" font-size="13" lengthAdjust="spacingAndGlyphs" textLength="88" x="312" y="259.1919">crearPartida()</text><!--
@startuml
title Diagrama de secuencia - Empezar partida
autonumber
actor Jugador
boundary InterfMenúUsuario
control Sistema
entity Partida

Jugador -> InterfMenúUsuario : crearPartida()
activate InterfMenúUsuario
InterfMenúUsuario -> Sistema : crearPartida()
activate Sistema
Sistema -> Partida : eliminarPartida()
activate Partida
Partida -> Sistema : confirmación()
Sistema -> Partida : crearPartida()
deactivate Partida
deactivate Sistema
deactivate InterfMenúUsuario
@enduml

PlantUML version 1.2019.05(Sat Apr 20 16:45:36 UTC 2019)
(GPL source distribution)
Java Runtime: Java(TM) SE Runtime Environment
JVM: Java HotSpot(TM) 64-Bit Server VM
Java Version: 1.7.0_25-b15
Operating System: Linux
Default Encoding: UTF-8
Language: en
Country: US
--></g></svg>