<?xml version="1.0" encoding="UTF-8" standalone="no"?><svg xmlns="http://www.w3.org/2000/svg" xmlns:xlink="http://www.w3.org/1999/xlink" contentScriptType="application/ecmascript" contentStyleType="text/css" height="501px" preserveAspectRatio="none" style="width:785px;height:501px;" version="1.1" viewBox="0 0 785 501" width="785px" zoomAndPan="magnify"><defs><filter height="300%" id="f1576m765y40wk" width="300%" x="-1" y="-1"><feGaussianBlur result="blurOut" stdDeviation="2.0"/><feColorMatrix in="blurOut" result="blurOut2" type="matrix" values="0 0 0 0 0 0 0 0 0 0 0 0 0 0 0 0 0 0 .4 0"/><feOffset dx="4.0" dy="4.0" in="blurOut2" result="blurOut3"/><feBlend in="SourceGraphic" in2="blurOut3" mode="normal"/></filter></defs><g><rect fill="#FEFECE" filter="url(#f1576m765y40wk)" height="50" rx="12.5" ry="12.5" style="stroke: #A80036; stroke-width: 1.5;" width="152" x="350.5" y="89"/><line style="stroke: #A80036; stroke-width: 1.5;" x1="350.5" x2="502.5" y1="115.2969" y2="115.2969"/><text fill="#000000" font-family="sans-serif" font-size="14" lengthAdjust="spacingAndGlyphs" textLength="132" x="360.5" y="106.9951">Juego en ejecución</text><rect fill="#FEFECE" filter="url(#f1576m765y40wk)" height="50" rx="12.5" ry="12.5" style="stroke: #A80036; stroke-width: 1.5;" width="193" x="6" y="89"/><line style="stroke: #A80036; stroke-width: 1.5;" x1="6" x2="199" y1="115.2969" y2="115.2969"/><text fill="#000000" font-family="sans-serif" font-size="14" lengthAdjust="spacingAndGlyphs" textLength="173" x="16" y="106.9951">Partida anterior guardada</text><rect fill="#FEFECE" filter="url(#f1576m765y40wk)" height="50" rx="12.5" ry="12.5" style="stroke: #A80036; stroke-width: 1.5;" width="113" x="627" y="89"/><line style="stroke: #A80036; stroke-width: 1.5;" x1="627" x2="740" y1="115.2969" y2="115.2969"/><text fill="#000000" font-family="sans-serif" font-size="14" lengthAdjust="spacingAndGlyphs" textLength="93" x="637" y="106.9951">Partida nueva</text><rect fill="#FEFECE" filter="url(#f1576m765y40wk)" height="50" rx="12.5" ry="12.5" style="stroke: #A80036; stroke-width: 1.5;" width="132" x="300.5" y="216"/><line style="stroke: #A80036; stroke-width: 1.5;" x1="300.5" x2="432.5" y1="242.2969" y2="242.2969"/><text fill="#000000" font-family="sans-serif" font-size="14" lengthAdjust="spacingAndGlyphs" textLength="112" x="310.5" y="233.9951">Partida en curso</text><rect fill="#FEFECE" filter="url(#f1576m765y40wk)" height="50" rx="12.5" ry="12.5" style="stroke: #A80036; stroke-width: 1.5;" width="135" x="468" y="216"/><line style="stroke: #A80036; stroke-width: 1.5;" x1="468" x2="603" y1="242.2969" y2="242.2969"/><text fill="#000000" font-family="sans-serif" font-size="14" lengthAdjust="spacingAndGlyphs" textLength="115" x="478" y="233.9951">Tiempo acabado</text><rect fill="#FEFECE" filter="url(#f1576m765y40wk)" height="50" rx="12.5" ry="12.5" style="stroke: #A80036; stroke-width: 1.5;" width="116" x="308.5" y="343"/><line style="stroke: #A80036; stroke-width: 1.5;" x1="308.5" x2="424.5" y1="369.2969" y2="369.2969"/><text fill="#000000" font-family="sans-serif" font-size="14" lengthAdjust="spacingAndGlyphs" textLength="96" x="318.5" y="360.9951">Salir del juego</text><rect fill="#FEFECE" filter="url(#f1576m765y40wk)" height="50" rx="12.5" ry="12.5" style="stroke: #A80036; stroke-width: 1.5;" width="141" x="539" y="343"/><line style="stroke: #A80036; stroke-width: 1.5;" x1="539" x2="680" y1="369.2969" y2="369.2969"/><text fill="#000000" font-family="sans-serif" font-size="14" lengthAdjust="spacingAndGlyphs" textLength="121" x="549" y="360.9951">Actualizar ranking</text><ellipse cx="426.5" cy="18" fill="#000000" filter="url(#f1576m765y40wk)" rx="10" ry="10" style="stroke: none; stroke-width: 1.0;"/><ellipse cx="366.5" cy="480" fill="none" filter="url(#f1576m765y40wk)" rx="10" ry="10" style="stroke: #000000; stroke-width: 1.0;"/><ellipse cx="367" cy="480.5" fill="#000000" rx="6" ry="6" style="stroke: none; stroke-width: 1.0;"/><!--link *start to JuegoEnEjecucion--><path d="M426.5,28.013 C426.5,40.698 426.5,64.409 426.5,83.57 " fill="none" id="*start-JuegoEnEjecucion" style="stroke: #A80036; stroke-width: 1.0;"/><polygon fill="#A80036" points="426.5,88.84,430.5,79.84,426.5,83.84,422.5,79.84,426.5,88.84" style="stroke: #A80036; stroke-width: 1.0;"/><!--link PartidaGuardada to JuegoEnEjecucion--><path d="M204.399,114 C251.6,114 306.733,114 350.26,114 " fill="none" id="PartidaGuardada-JuegoEnEjecucion" style="stroke: #A80036; stroke-width: 1.0;"/><polygon fill="#A80036" points="199.272,114,208.272,118,204.272,114,208.272,110,199.272,114" style="stroke: #A80036; stroke-width: 1.0;"/><text fill="#000000" font-family="sans-serif" font-size="13" lengthAdjust="spacingAndGlyphs" textLength="115" x="217.25" y="107.0669">continuarPartida()</text><!--link JuegoEnEjecucion to PartidaNueva--><path d="M502.565,114 C540.515,114 585.829,114 621.615,114 " fill="none" id="JuegoEnEjecucion-PartidaNueva" style="stroke: #A80036; stroke-width: 1.0;"/><polygon fill="#A80036" points="626.824,114,617.824,110,621.824,114,617.824,118,626.824,114" style="stroke: #A80036; stroke-width: 1.0;"/><text fill="#000000" font-family="sans-serif" font-size="13" lengthAdjust="spacingAndGlyphs" textLength="88" x="520.75" y="107.0669">crearPartida()</text><!--link PartidaGuardada to PartidaEnCurso--><path d="M153.402,139.101 C198.598,160.501 264.504,191.707 311.031,213.736 " fill="none" id="PartidaGuardada-PartidaEnCurso" style="stroke: #A80036; stroke-width: 1.0;"/><polygon fill="#A80036" points="315.754,215.973,309.3313,208.5065,311.2349,213.8334,305.908,215.737,315.754,215.973" style="stroke: #A80036; stroke-width: 1.0;"/><text fill="#000000" font-family="sans-serif" font-size="13" lengthAdjust="spacingAndGlyphs" textLength="36" x="251.5" y="182.0669">Play()</text><!--link PartidaNueva to PartidaEnCurso--><path d="M626.827,137.347 C572.263,158.863 489.781,191.388 432.332,214.041 " fill="none" id="PartidaNueva-PartidaEnCurso" style="stroke: #A80036; stroke-width: 1.0;"/><polygon fill="#A80036" points="427.547,215.928,437.3869,216.3474,432.1984,214.0937,434.4521,208.9052,427.547,215.928" style="stroke: #A80036; stroke-width: 1.0;"/><text fill="#000000" font-family="sans-serif" font-size="13" lengthAdjust="spacingAndGlyphs" textLength="36" x="544.5" y="182.0669">Play()</text><!--link PartidaEnCurso to TiempoAcabado--><path d="M432.516,241 C442.564,241 452.613,241 462.662,241 " fill="none" id="PartidaEnCurso-TiempoAcabado" style="stroke: #A80036; stroke-width: 1.0;"/><polygon fill="#A80036" points="467.917,241,458.917,237,462.917,241,458.917,245,467.917,241" style="stroke: #A80036; stroke-width: 1.0;"/><!--link TiempoAcabado to Actualizar--><path d="M528.657,266.327 C525.989,280.684 525.099,298.771 532.5,313 C537.972,323.52 546.536,332.417 555.997,339.766 " fill="none" id="TiempoAcabado-Actualizar" style="stroke: #A80036; stroke-width: 1.0;"/><polygon fill="#A80036" points="560.101,342.82,555.2696,334.2376,556.0901,339.8346,550.493,340.6551,560.101,342.82" style="stroke: #A80036; stroke-width: 1.0;"/><text fill="#000000" font-family="sans-serif" font-size="13" lengthAdjust="spacingAndGlyphs" textLength="123" x="533.5" y="309.0669">ActualizarRanking()</text><!--link Actualizar to PartidaNueva--><path d="M639.374,342.802 C647.914,334.299 656.305,324.076 661.5,313 C687.435,257.71 688.059,184.495 685.95,144.386 " fill="none" id="Actualizar-PartidaNueva" style="stroke: #A80036; stroke-width: 1.0;"/><polygon fill="#A80036" points="685.652,139.188,682.1755,148.4029,685.9392,144.1797,690.1623,147.9434,685.652,139.188" style="stroke: #A80036; stroke-width: 1.0;"/><text fill="#000000" font-family="sans-serif" font-size="13" lengthAdjust="spacingAndGlyphs" textLength="88" x="685.5" y="245.5669">crearPartida()</text><!--link PartidaEnCurso to SalirDelJuego--><path d="M366.5,266.101 C366.5,286.593 366.5,316.076 366.5,337.884 " fill="none" id="PartidaEnCurso-SalirDelJuego" style="stroke: #A80036; stroke-width: 1.0;"/><polygon fill="#A80036" points="366.5,342.973,370.5,333.973,366.5,337.973,362.5,333.973,366.5,342.973" style="stroke: #A80036; stroke-width: 1.0;"/><!--link SalirDelJuego to *end--><path d="M366.5,393.14 C366.5,415.0338 366.5,446.5738 366.5,464.7062 " fill="none" id="SalirDelJuego-*end" style="stroke: #A80036; stroke-width: 1.0;"/><polygon fill="#A80036" points="366.5,469.8775,370.5,460.8775,366.5,464.8775,362.5,460.8775,366.5,469.8775" style="stroke: #A80036; stroke-width: 1.0;"/><text fill="#000000" font-family="sans-serif" font-size="13" lengthAdjust="spacingAndGlyphs" textLength="71" x="367.5" y="436.0669">salirJuego()</text><!--
@startuml
state "Juego en ejecución" as JuegoEnEjecucion
state "Partida anterior guardada" as PartidaGuardada
state "Partida nueva" as PartidaNueva
state "Partida en curso" as PartidaEnCurso
state "Tiempo acabado" as TiempoAcabado
state "Salir del juego" as SalirDelJuego
state "Actualizar ranking" as Actualizar

[*] - -> JuegoEnEjecucion
JuegoEnEjecucion -left-> PartidaGuardada : continuarPartida()
JuegoEnEjecucion -right-> PartidaNueva : crearPartida()
PartidaGuardada - -> PartidaEnCurso : Play()
PartidaNueva - -> PartidaEnCurso : Play()
PartidaEnCurso -right-> TiempoAcabado 
TiempoAcabado - -> Actualizar : ActualizarRanking()
Actualizar - -> PartidaNueva : crearPartida()
PartidaEnCurso - -> SalirDelJuego
SalirDelJuego - -> [*] : salirJuego()
@enduml

PlantUML version 1.2019.07beta1(Unknown compile time)
(GPL source distribution)
Java Runtime: Java(TM) SE Runtime Environment
JVM: Java HotSpot(TM) 64-Bit Server VM
Java Version: 1.7.0_25-b15
Operating System: Linux
Default Encoding: UTF-8
Language: en
Country: US
--></g></svg>