<?xml version="1.0" encoding="UTF-8" standalone="no"?><svg xmlns="http://www.w3.org/2000/svg" xmlns:xlink="http://www.w3.org/1999/xlink" contentScriptType="application/ecmascript" contentStyleType="text/css" height="485px" preserveAspectRatio="none" style="width:768px;height:485px;" version="1.1" viewBox="0 0 768 485" width="768px" zoomAndPan="magnify"><defs><filter height="300%" id="f1ea6e2nq7ij99" width="300%" x="-1" y="-1"><feGaussianBlur result="blurOut" stdDeviation="2.0"/><feColorMatrix in="blurOut" result="blurOut2" type="matrix" values="0 0 0 0 0 0 0 0 0 0 0 0 0 0 0 0 0 0 .4 0"/><feOffset dx="4.0" dy="4.0" in="blurOut2" result="blurOut3"/><feBlend in="SourceGraphic" in2="blurOut3" mode="normal"/></filter></defs><g><rect fill="#FEFECE" filter="url(#f1ea6e2nq7ij99)" height="50" rx="12.5" ry="12.5" style="stroke: #A80036; stroke-width: 1.5;" width="152" x="350.5" y="89"/><line style="stroke: #A80036; stroke-width: 1.5;" x1="350.5" x2="502.5" y1="115.2969" y2="115.2969"/><text fill="#000000" font-family="sans-serif" font-size="14" lengthAdjust="spacingAndGlyphs" textLength="132" x="360.5" y="106.9951">Juego en ejecuci贸n</text><rect fill="#FEFECE" filter="url(#f1ea6e2nq7ij99)" height="50" rx="12.5" ry="12.5" style="stroke: #A80036; stroke-width: 1.5;" width="193" x="6" y="89"/><line style="stroke: #A80036; stroke-width: 1.5;" x1="6" x2="199" y1="115.2969" y2="115.2969"/><text fill="#000000" font-family="sans-serif" font-size="14" lengthAdjust="spacingAndGlyphs" textLength="173" x="16" y="106.9951">Partida anterior guardada</text><rect fill="#FEFECE" filter="url(#f1ea6e2nq7ij99)" height="50" rx="12.5" ry="12.5" style="stroke: #A80036; stroke-width: 1.5;" width="113" x="627" y="89"/><line style="stroke: #A80036; stroke-width: 1.5;" x1="627" x2="740" y1="115.2969" y2="115.2969"/><text fill="#000000" font-family="sans-serif" font-size="14" lengthAdjust="spacingAndGlyphs" textLength="93" x="637" y="106.9951">Partida nueva</text><rect fill="#FEFECE" filter="url(#f1ea6e2nq7ij99)" height="50" rx="12.5" ry="12.5" style="stroke: #A80036; stroke-width: 1.5;" width="132" x="199.5" y="216"/><line style="stroke: #A80036; stroke-width: 1.5;" x1="199.5" x2="331.5" y1="242.2969" y2="242.2969"/><text fill="#000000" font-family="sans-serif" font-size="14" lengthAdjust="spacingAndGlyphs" textLength="112" x="209.5" y="233.9951">Partida en curso</text><rect fill="#FEFECE" filter="url(#f1ea6e2nq7ij99)" height="50" rx="12.5" ry="12.5" style="stroke: #A80036; stroke-width: 1.5;" width="135" x="478" y="216"/><line style="stroke: #A80036; stroke-width: 1.5;" x1="478" x2="613" y1="242.2969" y2="242.2969"/><text fill="#000000" font-family="sans-serif" font-size="14" lengthAdjust="spacingAndGlyphs" textLength="115" x="488" y="233.9951">Tiempo acabado</text><rect fill="#FEFECE" filter="url(#f1ea6e2nq7ij99)" height="50" rx="12.5" ry="12.5" style="stroke: #A80036; stroke-width: 1.5;" width="116" x="207.5" y="327"/><line style="stroke: #A80036; stroke-width: 1.5;" x1="207.5" x2="323.5" y1="353.2969" y2="353.2969"/><text fill="#000000" font-family="sans-serif" font-size="14" lengthAdjust="spacingAndGlyphs" textLength="96" x="217.5" y="344.9951">Salir del juego</text><rect fill="#FEFECE" filter="url(#f1ea6e2nq7ij99)" height="50" rx="12.5" ry="12.5" style="stroke: #A80036; stroke-width: 1.5;" width="141" x="578" y="327"/><line style="stroke: #A80036; stroke-width: 1.5;" x1="578" x2="719" y1="353.2969" y2="353.2969"/><text fill="#000000" font-family="sans-serif" font-size="14" lengthAdjust="spacingAndGlyphs" textLength="121" x="588" y="344.9951">Actualizar ranking</text><ellipse cx="426.5" cy="18" fill="#000000" filter="url(#f1ea6e2nq7ij99)" rx="10" ry="10" style="stroke: none; stroke-width: 1.0;"/><ellipse cx="265.5" cy="464" fill="none" filter="url(#f1ea6e2nq7ij99)" rx="10" ry="10" style="stroke: #000000; stroke-width: 1.0;"/><ellipse cx="266" cy="464.5" fill="#000000" rx="6" ry="6" style="stroke: none; stroke-width: 1.0;"/><!--link *start to JuegoEnEjecucion--><path d="M426.5,28.013 C426.5,40.698 426.5,64.409 426.5,83.57 " fill="none" id="*start-JuegoEnEjecucion" style="stroke: #A80036; stroke-width: 1.0;"/><polygon fill="#A80036" points="426.5,88.84,430.5,79.84,426.5,83.84,422.5,79.84,426.5,88.84" style="stroke: #A80036; stroke-width: 1.0;"/><!--link PartidaGuardada to JuegoEnEjecucion--><path d="M204.399,114 C251.6,114 306.733,114 350.26,114 " fill="none" id="PartidaGuardada-JuegoEnEjecucion" style="stroke: #A80036; stroke-width: 1.0;"/><polygon fill="#A80036" points="199.272,114,208.272,118,204.272,114,208.272,110,199.272,114" style="stroke: #A80036; stroke-width: 1.0;"/><text fill="#000000" font-family="sans-serif" font-size="13" lengthAdjust="spacingAndGlyphs" textLength="115" x="217.25" y="107.0669">continuarPartida()</text><!--link JuegoEnEjecucion to PartidaNueva--><path d="M502.565,114 C540.515,114 585.829,114 621.615,114 " fill="none" id="JuegoEnEjecucion-PartidaNueva" style="stroke: #A80036; stroke-width: 1.0;"/><polygon fill="#A80036" points="626.824,114,617.824,110,621.824,114,617.824,118,626.824,114" style="stroke: #A80036; stroke-width: 1.0;"/><text fill="#000000" font-family="sans-serif" font-size="13" lengthAdjust="spacingAndGlyphs" textLength="88" x="520.75" y="107.0669">crearPartida()</text><!--link PartidaGuardada to PartidaEnCurso--><path d="M133.928,139.101 C161.439,160.198 201.377,190.826 230.026,212.796 " fill="none" id="PartidaGuardada-PartidaEnCurso" style="stroke: #A80036; stroke-width: 1.0;"/><polygon fill="#A80036" points="234.168,215.973,229.4597,207.3225,230.2001,212.9307,224.5919,213.6711,234.168,215.973" style="stroke: #A80036; stroke-width: 1.0;"/><text fill="#000000" font-family="sans-serif" font-size="13" lengthAdjust="spacingAndGlyphs" textLength="152" x="195.5" y="182.0669">//Ejecuci贸n de la partida</text><!--link PartidaNueva to PartidaEnCurso--><path d="M626.692,131.988 C551.404,154.503 418.567,194.226 336.674,218.716 " fill="none" id="PartidaNueva-PartidaEnCurso" style="stroke: #A80036; stroke-width: 1.0;"/><polygon fill="#A80036" points="331.842,220.161,341.6105,221.4166,336.6327,218.7294,339.3199,213.7515,331.842,220.161" style="stroke: #A80036; stroke-width: 1.0;"/><!--link PartidaEnCurso to TiempoAcabado--><path d="M331.502,241 C374.002,241 429.271,241 472.994,241 " fill="none" id="PartidaEnCurso-TiempoAcabado" style="stroke: #A80036; stroke-width: 1.0;"/><polygon fill="#A80036" points="477.997,241,468.997,237,472.997,241,468.997,245,477.997,241" style="stroke: #A80036; stroke-width: 1.0;"/><text fill="#000000" font-family="sans-serif" font-size="13" lengthAdjust="spacingAndGlyphs" textLength="110" x="349.75" y="234.0669">//Fin de la partida</text><!--link TiempoAcabado to Actualizar--><path d="M568.359,266.191 C584.228,282.984 605.416,305.406 622.02,322.978 " fill="none" id="TiempoAcabado-Actualizar" style="stroke: #A80036; stroke-width: 1.0;"/><polygon fill="#A80036" points="625.705,326.877,622.4309,317.5883,622.2709,323.2429,616.6163,323.0829,625.705,326.877" style="stroke: #A80036; stroke-width: 1.0;"/><!--link Actualizar to PartidaNueva--><path d="M652.094,326.765 C658.568,283.115 672.162,191.452 679.149,144.336 " fill="none" id="Actualizar-PartidaNueva" style="stroke: #A80036; stroke-width: 1.0;"/><polygon fill="#A80036" points="679.886,139.367,674.6076,147.682,679.1517,144.3128,682.5209,148.8569,679.886,139.367" style="stroke: #A80036; stroke-width: 1.0;"/><text fill="#000000" font-family="sans-serif" font-size="13" lengthAdjust="spacingAndGlyphs" textLength="88" x="668.5" y="245.5669">crearPartida()</text><!--link PartidaEnCurso to SalirDelJuego--><path d="M265.5,266.191 C265.5,282.56 265.5,304.279 265.5,321.64 " fill="none" id="PartidaEnCurso-SalirDelJuego" style="stroke: #A80036; stroke-width: 1.0;"/><polygon fill="#A80036" points="265.5,326.877,269.5,317.877,265.5,321.877,261.5,317.877,265.5,326.877" style="stroke: #A80036; stroke-width: 1.0;"/><!--link SalirDelJuego to *end--><path d="M265.5,377.14 C265.5,399.0338 265.5,430.5738 265.5,448.7062 " fill="none" id="SalirDelJuego-*end" style="stroke: #A80036; stroke-width: 1.0;"/><polygon fill="#A80036" points="265.5,453.8775,269.5,444.8775,265.5,448.8775,261.5,444.8775,265.5,453.8775" style="stroke: #A80036; stroke-width: 1.0;"/><text fill="#000000" font-family="sans-serif" font-size="13" lengthAdjust="spacingAndGlyphs" textLength="71" x="266.5" y="420.0669">salirJuego()</text><!--
@startuml
state "Juego en ejecuci贸n" as JuegoEnEjecucion
state "Partida anterior guardada" as PartidaGuardada
state "Partida nueva" as PartidaNueva
state "Partida en curso" as PartidaEnCurso
state "Tiempo acabado" as TiempoAcabado
state "Salir del juego" as SalirDelJuego
state "Actualizar ranking" as Actualizar

[*] - -> JuegoEnEjecucion
JuegoEnEjecucion -left-> PartidaGuardada : continuarPartida()
JuegoEnEjecucion -right-> PartidaNueva : crearPartida()
PartidaGuardada - -> PartidaEnCurso : //Ejecuci贸n de la partida
PartidaNueva - -> PartidaEnCurso
PartidaEnCurso -right-> TiempoAcabado : //Fin de la partida
TiempoAcabado - -> Actualizar
Actualizar - -> PartidaNueva : crearPartida()
PartidaEnCurso - -> SalirDelJuego
SalirDelJuego - -> [*] : salirJuego()
@enduml

PlantUML version 1.2019.05(Sat Apr 20 16:45:36 UTC 2019)
(GPL source distribution)
Java Runtime: Java(TM) SE Runtime Environment
JVM: Java HotSpot(TM) 64-Bit Server VM
Java Version: 1.7.0_25-b15
Operating System: Linux
Default Encoding: UTF-8
Language: en
Country: US
--></g></svg>