<?xml version="1.0" encoding="UTF-8" standalone="no"?><svg xmlns="http://www.w3.org/2000/svg" xmlns:xlink="http://www.w3.org/1999/xlink" contentScriptType="application/ecmascript" contentStyleType="text/css" height="283px" preserveAspectRatio="none" style="width:430px;height:283px;" version="1.1" viewBox="0 0 430 283" width="430px" zoomAndPan="magnify"><defs><filter height="300%" id="fvsr2rm071sqi" width="300%" x="-1" y="-1"><feGaussianBlur result="blurOut" stdDeviation="2.0"/><feColorMatrix in="blurOut" result="blurOut2" type="matrix" values="0 0 0 0 0 0 0 0 0 0 0 0 0 0 0 0 0 0 .4 0"/><feOffset dx="4.0" dy="4.0" in="blurOut2" result="blurOut3"/><feBlend in="SourceGraphic" in2="blurOut3" mode="normal"/></filter></defs><g><text fill="#000000" font-family="sans-serif" font-size="14" font-weight="bold" lengthAdjust="spacingAndGlyphs" textLength="406" x="12" y="22.9951">Diagrama de secuencia - Ver menú de movimientos</text><rect fill="#FFFFFF" filter="url(#fvsr2rm071sqi)" height="30" style="stroke: #A80036; stroke-width: 1.0;" width="10" x="274" y="147.7266"/><line style="stroke: #A80036; stroke-width: 1.0; stroke-dasharray: 5.0,5.0;" x1="114" x2="114" y1="116.5938" y2="195.7266"/><line style="stroke: #A80036; stroke-width: 1.0; stroke-dasharray: 5.0,5.0;" x1="279" x2="279" y1="116.5938" y2="195.7266"/><text fill="#000000" font-family="sans-serif" font-size="14" lengthAdjust="spacingAndGlyphs" textLength="52" x="85" y="113.292">Jugador</text><ellipse cx="114" cy="43.2969" fill="#FEFECE" filter="url(#fvsr2rm071sqi)" rx="8" ry="8" style="stroke: #A80036; stroke-width: 2.0;"/><path d="M114,51.2969 L114,78.2969 M101,59.2969 L127,59.2969 M114,78.2969 L101,93.2969 M114,78.2969 L127,93.2969 " fill="none" filter="url(#fvsr2rm071sqi)" style="stroke: #A80036; stroke-width: 2.0;"/><text fill="#000000" font-family="sans-serif" font-size="14" lengthAdjust="spacingAndGlyphs" textLength="52" x="85" y="207.7217">Jugador</text><ellipse cx="114" cy="221.0234" fill="#FEFECE" filter="url(#fvsr2rm071sqi)" rx="8" ry="8" style="stroke: #A80036; stroke-width: 2.0;"/><path d="M114,229.0234 L114,256.0234 M101,237.0234 L127,237.0234 M114,256.0234 L101,271.0234 M114,256.0234 L127,271.0234 " fill="none" filter="url(#fvsr2rm071sqi)" style="stroke: #A80036; stroke-width: 2.0;"/><text fill="#000000" font-family="sans-serif" font-size="14" lengthAdjust="spacingAndGlyphs" textLength="126" x="213" y="113.292">InterfMenúUsuario</text><path d="M258.5,72.2969 L258.5,96.2969 M258.5,84.2969 L275.5,84.2969 " fill="none" filter="url(#fvsr2rm071sqi)" style="stroke: #A80036; stroke-width: 2.0;"/><ellipse cx="287.5" cy="84.2969" fill="#FEFECE" filter="url(#fvsr2rm071sqi)" rx="12" ry="12" style="stroke: #A80036; stroke-width: 2.0;"/><text fill="#000000" font-family="sans-serif" font-size="14" lengthAdjust="spacingAndGlyphs" textLength="126" x="213" y="207.7217">InterfMenúUsuario</text><path d="M258.5,215.0234 L258.5,239.0234 M258.5,227.0234 L275.5,227.0234 " fill="none" filter="url(#fvsr2rm071sqi)" style="stroke: #A80036; stroke-width: 2.0;"/><ellipse cx="287.5" cy="227.0234" fill="#FEFECE" filter="url(#fvsr2rm071sqi)" rx="12" ry="12" style="stroke: #A80036; stroke-width: 2.0;"/><rect fill="#FFFFFF" filter="url(#fvsr2rm071sqi)" height="30" style="stroke: #A80036; stroke-width: 1.0;" width="10" x="274" y="147.7266"/><polygon fill="#A80036" points="262,143.7266,272,147.7266,262,151.7266,266,147.7266" style="stroke: #A80036; stroke-width: 1.0;"/><line style="stroke: #A80036; stroke-width: 1.0;" x1="114" x2="268" y1="147.7266" y2="147.7266"/><text fill="#000000" font-family="sans-serif" font-size="13" font-weight="bold" lengthAdjust="spacingAndGlyphs" textLength="9" x="121" y="142.6606">1</text><text fill="#000000" font-family="sans-serif" font-size="13" lengthAdjust="spacingAndGlyphs" textLength="128" x="134" y="142.6606">menuMovimientos()</text><!--
@startuml
title Diagrama de secuencia - Ver menú de movimientos
autonumber
actor Jugador
boundary InterfMenúUsuario


Jugador -> InterfMenúUsuario : menuMovimientos()
activate InterfMenúUsuario
deactivate InterfMenúUsuario
@enduml

PlantUML version 1.2019.05(Sat Apr 20 16:45:36 UTC 2019)
(GPL source distribution)
Java Runtime: Java(TM) SE Runtime Environment
JVM: Java HotSpot(TM) 64-Bit Server VM
Java Version: 1.7.0_25-b15
Operating System: Linux
Default Encoding: UTF-8
Language: en
Country: US
--></g></svg>