<?xml version="1.0" encoding="UTF-8" standalone="no"?><svg xmlns="http://www.w3.org/2000/svg" xmlns:xlink="http://www.w3.org/1999/xlink" contentScriptType="application/ecmascript" contentStyleType="text/css" height="341px" preserveAspectRatio="none" style="width:498px;height:341px;" version="1.1" viewBox="0 0 498 341" width="498px" zoomAndPan="magnify"><defs><filter height="300%" id="f1f1atcd7zmmye" width="300%" x="-1" y="-1"><feGaussianBlur result="blurOut" stdDeviation="2.0"/><feColorMatrix in="blurOut" result="blurOut2" type="matrix" values="0 0 0 0 0 0 0 0 0 0 0 0 0 0 0 0 0 0 .4 0"/><feOffset dx="4.0" dy="4.0" in="blurOut2" result="blurOut3"/><feBlend in="SourceGraphic" in2="blurOut3" mode="normal"/></filter></defs><g><text fill="#000000" font-family="sans-serif" font-size="14" font-weight="bold" lengthAdjust="spacingAndGlyphs" textLength="323" x="88.75" y="22.9951">Diagrama de secuencia - Guardar partida</text><rect fill="#FFFFFF" filter="url(#f1f1atcd7zmmye)" height="88.2656" style="stroke: #A80036; stroke-width: 1.0;" width="10" x="174" y="147.7266"/><rect fill="#FFFFFF" filter="url(#f1f1atcd7zmmye)" height="59.1328" style="stroke: #A80036; stroke-width: 1.0;" width="10" x="321" y="176.8594"/><rect fill="#FFFFFF" filter="url(#f1f1atcd7zmmye)" height="30" style="stroke: #A80036; stroke-width: 1.0;" width="10" x="461" y="205.9922"/><line style="stroke: #A80036; stroke-width: 1.0; stroke-dasharray: 5.0,5.0;" x1="37" x2="37" y1="116.5938" y2="253.9922"/><line style="stroke: #A80036; stroke-width: 1.0; stroke-dasharray: 5.0,5.0;" x1="179" x2="179" y1="116.5938" y2="253.9922"/><line style="stroke: #A80036; stroke-width: 1.0; stroke-dasharray: 5.0,5.0;" x1="325.5" x2="325.5" y1="116.5938" y2="253.9922"/><line style="stroke: #A80036; stroke-width: 1.0; stroke-dasharray: 5.0,5.0;" x1="465.5" x2="465.5" y1="116.5938" y2="253.9922"/><text fill="#000000" font-family="sans-serif" font-size="14" lengthAdjust="spacingAndGlyphs" textLength="52" x="8" y="113.292">Jugador</text><ellipse cx="37" cy="43.2969" fill="#FEFECE" filter="url(#f1f1atcd7zmmye)" rx="8" ry="8" style="stroke: #A80036; stroke-width: 2.0;"/><path d="M37,51.2969 L37,78.2969 M24,59.2969 L50,59.2969 M37,78.2969 L24,93.2969 M37,78.2969 L50,93.2969 " fill="none" filter="url(#f1f1atcd7zmmye)" style="stroke: #A80036; stroke-width: 2.0;"/><text fill="#000000" font-family="sans-serif" font-size="14" lengthAdjust="spacingAndGlyphs" textLength="52" x="8" y="265.9873">Jugador</text><ellipse cx="37" cy="279.2891" fill="#FEFECE" filter="url(#f1f1atcd7zmmye)" rx="8" ry="8" style="stroke: #A80036; stroke-width: 2.0;"/><path d="M37,287.2891 L37,314.2891 M24,295.2891 L50,295.2891 M37,314.2891 L24,329.2891 M37,314.2891 L50,329.2891 " fill="none" filter="url(#f1f1atcd7zmmye)" style="stroke: #A80036; stroke-width: 2.0;"/><text fill="#000000" font-family="sans-serif" font-size="14" lengthAdjust="spacingAndGlyphs" textLength="126" x="113" y="113.292">InterfMenúUsuario</text><path d="M158.5,72.2969 L158.5,96.2969 M158.5,84.2969 L175.5,84.2969 " fill="none" filter="url(#f1f1atcd7zmmye)" style="stroke: #A80036; stroke-width: 2.0;"/><ellipse cx="187.5" cy="84.2969" fill="#FEFECE" filter="url(#f1f1atcd7zmmye)" rx="12" ry="12" style="stroke: #A80036; stroke-width: 2.0;"/><text fill="#000000" font-family="sans-serif" font-size="14" lengthAdjust="spacingAndGlyphs" textLength="126" x="113" y="265.9873">InterfMenúUsuario</text><path d="M158.5,273.2891 L158.5,297.2891 M158.5,285.2891 L175.5,285.2891 " fill="none" filter="url(#f1f1atcd7zmmye)" style="stroke: #A80036; stroke-width: 2.0;"/><ellipse cx="187.5" cy="285.2891" fill="#FEFECE" filter="url(#f1f1atcd7zmmye)" rx="12" ry="12" style="stroke: #A80036; stroke-width: 2.0;"/><text fill="#000000" font-family="sans-serif" font-size="14" lengthAdjust="spacingAndGlyphs" textLength="55" x="295.5" y="113.292">Sistema</text><ellipse cx="326" cy="84.2969" fill="#FEFECE" filter="url(#f1f1atcd7zmmye)" rx="12" ry="12" style="stroke: #A80036; stroke-width: 2.0;"/><polygon fill="#A80036" points="322,72.2969,328,67.2969,326,72.2969,328,77.2969,322,72.2969" style="stroke: #A80036; stroke-width: 1.0;"/><text fill="#000000" font-family="sans-serif" font-size="14" lengthAdjust="spacingAndGlyphs" textLength="55" x="295.5" y="265.9873">Sistema</text><ellipse cx="326" cy="285.2891" fill="#FEFECE" filter="url(#f1f1atcd7zmmye)" rx="12" ry="12" style="stroke: #A80036; stroke-width: 2.0;"/><polygon fill="#A80036" points="322,273.2891,328,268.2891,326,273.2891,328,278.2891,322,273.2891" style="stroke: #A80036; stroke-width: 1.0;"/><text fill="#000000" font-family="sans-serif" font-size="14" lengthAdjust="spacingAndGlyphs" textLength="47" x="439.5" y="113.292">Partida</text><ellipse cx="466" cy="84.2969" fill="#FEFECE" filter="url(#f1f1atcd7zmmye)" rx="12" ry="12" style="stroke: #A80036; stroke-width: 2.0;"/><line style="stroke: #A80036; stroke-width: 2.0;" x1="454" x2="478" y1="98.2969" y2="98.2969"/><text fill="#000000" font-family="sans-serif" font-size="14" lengthAdjust="spacingAndGlyphs" textLength="47" x="439.5" y="265.9873">Partida</text><ellipse cx="466" cy="285.2891" fill="#FEFECE" filter="url(#f1f1atcd7zmmye)" rx="12" ry="12" style="stroke: #A80036; stroke-width: 2.0;"/><line style="stroke: #A80036; stroke-width: 2.0;" x1="454" x2="478" y1="299.2891" y2="299.2891"/><rect fill="#FFFFFF" filter="url(#f1f1atcd7zmmye)" height="88.2656" style="stroke: #A80036; stroke-width: 1.0;" width="10" x="174" y="147.7266"/><rect fill="#FFFFFF" filter="url(#f1f1atcd7zmmye)" height="59.1328" style="stroke: #A80036; stroke-width: 1.0;" width="10" x="321" y="176.8594"/><rect fill="#FFFFFF" filter="url(#f1f1atcd7zmmye)" height="30" style="stroke: #A80036; stroke-width: 1.0;" width="10" x="461" y="205.9922"/><polygon fill="#A80036" points="162,143.7266,172,147.7266,162,151.7266,166,147.7266" style="stroke: #A80036; stroke-width: 1.0;"/><line style="stroke: #A80036; stroke-width: 1.0;" x1="37" x2="168" y1="147.7266" y2="147.7266"/><text fill="#000000" font-family="sans-serif" font-size="13" font-weight="bold" lengthAdjust="spacingAndGlyphs" textLength="9" x="44" y="142.6606">1</text><text fill="#000000" font-family="sans-serif" font-size="13" lengthAdjust="spacingAndGlyphs" textLength="105" x="57" y="142.6606">guardarPartida()</text><polygon fill="#A80036" points="309,172.8594,319,176.8594,309,180.8594,313,176.8594" style="stroke: #A80036; stroke-width: 1.0;"/><line style="stroke: #A80036; stroke-width: 1.0;" x1="184" x2="315" y1="176.8594" y2="176.8594"/><text fill="#000000" font-family="sans-serif" font-size="13" font-weight="bold" lengthAdjust="spacingAndGlyphs" textLength="9" x="191" y="171.7935">2</text><text fill="#000000" font-family="sans-serif" font-size="13" lengthAdjust="spacingAndGlyphs" textLength="105" x="204" y="171.7935">guardarPartida()</text><polygon fill="#A80036" points="449,201.9922,459,205.9922,449,209.9922,453,205.9922" style="stroke: #A80036; stroke-width: 1.0;"/><line style="stroke: #A80036; stroke-width: 1.0;" x1="331" x2="455" y1="205.9922" y2="205.9922"/><text fill="#000000" font-family="sans-serif" font-size="13" font-weight="bold" lengthAdjust="spacingAndGlyphs" textLength="9" x="338" y="200.9263">3</text><text fill="#000000" font-family="sans-serif" font-size="13" lengthAdjust="spacingAndGlyphs" textLength="98" x="351" y="200.9263">guardarDatos()</text><!--
@startuml
title Diagrama de secuencia - Guardar partida
autonumber
actor Jugador
boundary InterfMenúUsuario
control Sistema
entity Partida

Jugador -> InterfMenúUsuario : guardarPartida()
activate InterfMenúUsuario
InterfMenúUsuario -> Sistema : guardarPartida()
activate Sistema
Sistema -> Partida : guardarDatos()
activate Partida
deactivate Partida
deactivate Sistema
deactivate InterfMenúUsuario
@enduml

PlantUML version 1.2019.05(Sat Apr 20 16:45:36 UTC 2019)
(GPL source distribution)
Java Runtime: Java(TM) SE Runtime Environment
JVM: Java HotSpot(TM) 64-Bit Server VM
Java Version: 1.7.0_25-b15
Operating System: Linux
Default Encoding: UTF-8
Language: en
Country: US
--></g></svg>