<?xml version="1.0" encoding="UTF-8" standalone="no"?><svg xmlns="http://www.w3.org/2000/svg" xmlns:xlink="http://www.w3.org/1999/xlink" contentScriptType="application/ecmascript" contentStyleType="text/css" height="499px" preserveAspectRatio="none" style="width:700px;height:499px;" version="1.1" viewBox="0 0 700 499" width="700px" zoomAndPan="magnify"><defs><filter height="300%" id="f5xztefkdrd15" width="300%" x="-1" y="-1"><feGaussianBlur result="blurOut" stdDeviation="2.0"/><feColorMatrix in="blurOut" result="blurOut2" type="matrix" values="0 0 0 0 0 0 0 0 0 0 0 0 0 0 0 0 0 0 .4 0"/><feOffset dx="4.0" dy="4.0" in="blurOut2" result="blurOut3"/><feBlend in="SourceGraphic" in2="blurOut3" mode="normal"/></filter></defs><g><text fill="#000000" font-family="sans-serif" font-size="14" font-weight="bold" lengthAdjust="spacingAndGlyphs" textLength="398" x="153.75" y="22.9951">Diagrama de secuencia - Borrar partida de usuario</text><rect fill="#FFFFFF" filter="url(#f5xztefkdrd15)" height="107.5313" style="stroke: #A80036; stroke-width: 1.0;" width="10" x="211.5" y="147.7266"/><rect fill="#FFFFFF" filter="url(#f5xztefkdrd15)" height="78.3984" style="stroke: #A80036; stroke-width: 1.0;" width="10" x="359.5" y="176.8594"/><rect fill="#FFFFFF" filter="url(#f5xztefkdrd15)" height="49.2656" style="stroke: #A80036; stroke-width: 1.0;" width="10" x="507.5" y="205.9922"/><rect fill="#FFFFFF" filter="url(#f5xztefkdrd15)" height="104.5313" style="stroke: #000000; stroke-width: 2.0;" width="538.5" x="13" y="290.3906"/><line style="stroke: #A80036; stroke-width: 1.0; stroke-dasharray: 5.0,5.0;" x1="73" x2="73" y1="116.5938" y2="411.9219"/><line style="stroke: #A80036; stroke-width: 1.0; stroke-dasharray: 5.0,5.0;" x1="216.5" x2="216.5" y1="116.5938" y2="411.9219"/><line style="stroke: #A80036; stroke-width: 1.0; stroke-dasharray: 5.0,5.0;" x1="364" x2="364" y1="116.5938" y2="411.9219"/><line style="stroke: #A80036; stroke-width: 1.0; stroke-dasharray: 5.0,5.0;" x1="512.5" x2="512.5" y1="116.5938" y2="411.9219"/><text fill="#000000" font-family="sans-serif" font-size="14" lengthAdjust="spacingAndGlyphs" textLength="95" x="23" y="113.292">Administrador</text><ellipse cx="73.5" cy="43.2969" fill="#FEFECE" filter="url(#f5xztefkdrd15)" rx="8" ry="8" style="stroke: #A80036; stroke-width: 2.0;"/><path d="M73.5,51.2969 L73.5,78.2969 M60.5,59.2969 L86.5,59.2969 M73.5,78.2969 L60.5,93.2969 M73.5,78.2969 L86.5,93.2969 " fill="none" filter="url(#f5xztefkdrd15)" style="stroke: #A80036; stroke-width: 2.0;"/><text fill="#000000" font-family="sans-serif" font-size="14" lengthAdjust="spacingAndGlyphs" textLength="95" x="23" y="423.917">Administrador</text><ellipse cx="73.5" cy="437.2188" fill="#FEFECE" filter="url(#f5xztefkdrd15)" rx="8" ry="8" style="stroke: #A80036; stroke-width: 2.0;"/><path d="M73.5,445.2188 L73.5,472.2188 M60.5,453.2188 L86.5,453.2188 M73.5,472.2188 L60.5,487.2188 M73.5,472.2188 L86.5,487.2188 " fill="none" filter="url(#f5xztefkdrd15)" style="stroke: #A80036; stroke-width: 2.0;"/><text fill="#000000" font-family="sans-serif" font-size="14" lengthAdjust="spacingAndGlyphs" textLength="126" x="150.5" y="113.292">InterfMenúUsuario</text><path d="M196,72.2969 L196,96.2969 M196,84.2969 L213,84.2969 " fill="none" filter="url(#f5xztefkdrd15)" style="stroke: #A80036; stroke-width: 2.0;"/><ellipse cx="225" cy="84.2969" fill="#FEFECE" filter="url(#f5xztefkdrd15)" rx="12" ry="12" style="stroke: #A80036; stroke-width: 2.0;"/><text fill="#000000" font-family="sans-serif" font-size="14" lengthAdjust="spacingAndGlyphs" textLength="126" x="150.5" y="423.917">InterfMenúUsuario</text><path d="M196,431.2188 L196,455.2188 M196,443.2188 L213,443.2188 " fill="none" filter="url(#f5xztefkdrd15)" style="stroke: #A80036; stroke-width: 2.0;"/><ellipse cx="225" cy="443.2188" fill="#FEFECE" filter="url(#f5xztefkdrd15)" rx="12" ry="12" style="stroke: #A80036; stroke-width: 2.0;"/><text fill="#000000" font-family="sans-serif" font-size="14" lengthAdjust="spacingAndGlyphs" textLength="55" x="334" y="113.292">Sistema</text><ellipse cx="364.5" cy="84.2969" fill="#FEFECE" filter="url(#f5xztefkdrd15)" rx="12" ry="12" style="stroke: #A80036; stroke-width: 2.0;"/><polygon fill="#A80036" points="360.5,72.2969,366.5,67.2969,364.5,72.2969,366.5,77.2969,360.5,72.2969" style="stroke: #A80036; stroke-width: 1.0;"/><text fill="#000000" font-family="sans-serif" font-size="14" lengthAdjust="spacingAndGlyphs" textLength="55" x="334" y="423.917">Sistema</text><ellipse cx="364.5" cy="443.2188" fill="#FEFECE" filter="url(#f5xztefkdrd15)" rx="12" ry="12" style="stroke: #A80036; stroke-width: 2.0;"/><polygon fill="#A80036" points="360.5,431.2188,366.5,426.2188,364.5,431.2188,366.5,436.2188,360.5,431.2188" style="stroke: #A80036; stroke-width: 1.0;"/><text fill="#000000" font-family="sans-serif" font-size="14" lengthAdjust="spacingAndGlyphs" textLength="52" x="483.5" y="113.292">Jugador</text><ellipse cx="512.5" cy="84.2969" fill="#FEFECE" filter="url(#f5xztefkdrd15)" rx="12" ry="12" style="stroke: #A80036; stroke-width: 2.0;"/><line style="stroke: #A80036; stroke-width: 2.0;" x1="500.5" x2="524.5" y1="98.2969" y2="98.2969"/><text fill="#000000" font-family="sans-serif" font-size="14" lengthAdjust="spacingAndGlyphs" textLength="52" x="483.5" y="423.917">Jugador</text><ellipse cx="512.5" cy="443.2188" fill="#FEFECE" filter="url(#f5xztefkdrd15)" rx="12" ry="12" style="stroke: #A80036; stroke-width: 2.0;"/><line style="stroke: #A80036; stroke-width: 2.0;" x1="500.5" x2="524.5" y1="457.2188" y2="457.2188"/><rect fill="#FFFFFF" filter="url(#f5xztefkdrd15)" height="107.5313" style="stroke: #A80036; stroke-width: 1.0;" width="10" x="211.5" y="147.7266"/><rect fill="#FFFFFF" filter="url(#f5xztefkdrd15)" height="78.3984" style="stroke: #A80036; stroke-width: 1.0;" width="10" x="359.5" y="176.8594"/><rect fill="#FFFFFF" filter="url(#f5xztefkdrd15)" height="49.2656" style="stroke: #A80036; stroke-width: 1.0;" width="10" x="507.5" y="205.9922"/><polygon fill="#A80036" points="199.5,143.7266,209.5,147.7266,199.5,151.7266,203.5,147.7266" style="stroke: #A80036; stroke-width: 1.0;"/><line style="stroke: #A80036; stroke-width: 1.0;" x1="73.5" x2="205.5" y1="147.7266" y2="147.7266"/><text fill="#000000" font-family="sans-serif" font-size="13" font-weight="bold" lengthAdjust="spacingAndGlyphs" textLength="9" x="80.5" y="142.6606">1</text><text fill="#000000" font-family="sans-serif" font-size="13" lengthAdjust="spacingAndGlyphs" textLength="106" x="93.5" y="142.6606">eliminarPartida()</text><polygon fill="#A80036" points="347.5,172.8594,357.5,176.8594,347.5,180.8594,351.5,176.8594" style="stroke: #A80036; stroke-width: 1.0;"/><line style="stroke: #A80036; stroke-width: 1.0;" x1="221.5" x2="353.5" y1="176.8594" y2="176.8594"/><text fill="#000000" font-family="sans-serif" font-size="13" font-weight="bold" lengthAdjust="spacingAndGlyphs" textLength="9" x="228.5" y="171.7935">2</text><text fill="#000000" font-family="sans-serif" font-size="13" lengthAdjust="spacingAndGlyphs" textLength="106" x="241.5" y="171.7935">eliminarPartida()</text><polygon fill="#A80036" points="495.5,201.9922,505.5,205.9922,495.5,209.9922,499.5,205.9922" style="stroke: #A80036; stroke-width: 1.0;"/><line style="stroke: #A80036; stroke-width: 1.0;" x1="369.5" x2="501.5" y1="205.9922" y2="205.9922"/><text fill="#000000" font-family="sans-serif" font-size="13" font-weight="bold" lengthAdjust="spacingAndGlyphs" textLength="9" x="376.5" y="200.9263">3</text><text fill="#000000" font-family="sans-serif" font-size="13" lengthAdjust="spacingAndGlyphs" textLength="106" x="389.5" y="200.9263">eliminarPartida()</text><polygon fill="#FF0000" points="375.5,251.2578,365.5,255.2578,375.5,259.2578,371.5,255.2578" style="stroke: #FF0000; stroke-width: 1.0;"/><line style="stroke: #FF0000; stroke-width: 1.0;" x1="369.5" x2="511.5" y1="255.2578" y2="255.2578"/><text fill="#000000" font-family="sans-serif" font-size="13" font-weight="bold" lengthAdjust="spacingAndGlyphs" textLength="9" x="381.5" y="250.1919">4</text><text fill="#000000" font-family="sans-serif" font-size="13" lengthAdjust="spacingAndGlyphs" textLength="92" x="394.5" y="250.1919">confirmacion()</text><path d="M522,218.9922 L522,273.9922 L688,273.9922 L688,228.9922 L678,218.9922 L522,218.9922 " fill="#FBFB77" filter="url(#f5xztefkdrd15)" style="stroke: #A80036; stroke-width: 1.0;"/><path d="M678,218.9922 L678,228.9922 L688,228.9922 L678,218.9922 " fill="#FBFB77" style="stroke: #A80036; stroke-width: 1.0;"/><text fill="#000000" font-family="sans-serif" font-size="13" lengthAdjust="spacingAndGlyphs" textLength="145" x="528" y="236.0591">Comprueba que existe</text><text fill="#000000" font-family="sans-serif" font-size="13" lengthAdjust="spacingAndGlyphs" textLength="132" x="528" y="251.1919">la partida y devuelve</text><text fill="#000000" font-family="sans-serif" font-size="13" lengthAdjust="spacingAndGlyphs" textLength="77" x="528" y="266.3247">True o False</text><path d="M13,290.3906 L77,290.3906 L77,297.3906 L67,307.3906 L13,307.3906 L13,290.3906 " fill="#EEEEEE" style="stroke: #000000; stroke-width: 1.0;"/><rect fill="none" height="104.5313" style="stroke: #000000; stroke-width: 2.0;" width="538.5" x="13" y="290.3906"/><text fill="#000000" font-family="sans-serif" font-size="13" font-weight="bold" lengthAdjust="spacingAndGlyphs" textLength="19" x="28" y="303.4575">alt</text><text fill="#000000" font-family="sans-serif" font-size="11" font-weight="bold" lengthAdjust="spacingAndGlyphs" textLength="112" x="92" y="302.6011">[NoExistePartida]</text><polygon fill="#008000" points="375.5,324.6563,365.5,328.6563,375.5,332.6563,371.5,328.6563" style="stroke: #008000; stroke-width: 1.0;"/><line style="stroke: #008000; stroke-width: 1.0;" x1="369.5" x2="511.5" y1="328.6563" y2="328.6563"/><text fill="#000000" font-family="sans-serif" font-size="13" font-weight="bold" lengthAdjust="spacingAndGlyphs" textLength="9" x="381.5" y="323.5903">5</text><text fill="#000000" font-family="sans-serif" font-size="13" lengthAdjust="spacingAndGlyphs" textLength="92" x="394.5" y="323.5903">confirmacion()</text><polygon fill="#008000" points="227.5,353.7891,217.5,357.7891,227.5,361.7891,223.5,357.7891" style="stroke: #008000; stroke-width: 1.0;"/><line style="stroke: #008000; stroke-width: 1.0;" x1="221.5" x2="363.5" y1="357.7891" y2="357.7891"/><text fill="#000000" font-family="sans-serif" font-size="13" font-weight="bold" lengthAdjust="spacingAndGlyphs" textLength="9" x="233.5" y="352.7231">6</text><text fill="#000000" font-family="sans-serif" font-size="13" lengthAdjust="spacingAndGlyphs" textLength="41" x="246.5" y="352.7231">error()</text><polygon fill="#008000" points="84.5,382.9219,74.5,386.9219,84.5,390.9219,80.5,386.9219" style="stroke: #008000; stroke-width: 1.0;"/><line style="stroke: #008000; stroke-width: 1.0;" x1="78.5" x2="215.5" y1="386.9219" y2="386.9219"/><text fill="#000000" font-family="sans-serif" font-size="13" font-weight="bold" lengthAdjust="spacingAndGlyphs" textLength="9" x="90.5" y="381.856">7</text><text fill="#000000" font-family="sans-serif" font-size="13" lengthAdjust="spacingAndGlyphs" textLength="41" x="103.5" y="381.856">error()</text><!--
@startuml
title Diagrama de secuencia - Borrar partida de usuario
autonumber
actor Administrador
boundary InterfMenúUsuario
control Sistema
entity Jugador

Administrador -> InterfMenúUsuario : eliminarPartida()
activate InterfMenúUsuario
InterfMenúUsuario -> Sistema : eliminarPartida()
activate Sistema
Sistema -> Jugador : eliminarPartida()
activate Jugador
Jugador -[#red]> Sistema : confirmacion()
note right 
Comprueba que existe
la partida y devuelve
True o False
end note

deactivate Jugador
deactivate Sistema
deactivate InterfMenúUsuario

alt NoExistePartida
Jugador -[#green]> Sistema : confirmacion()
Sistema -[#green]> InterfMenúUsuario : error()
InterfMenúUsuario -[#green]> Administrador : error()
end
@enduml

PlantUML version 1.2019.05(Sat Apr 20 16:45:36 UTC 2019)
(GPL source distribution)
Java Runtime: Java(TM) SE Runtime Environment
JVM: Java HotSpot(TM) 64-Bit Server VM
Java Version: 1.7.0_25-b15
Operating System: Linux
Default Encoding: UTF-8
Language: en
Country: US
--></g></svg>