<?xml version="1.0" encoding="UTF-8" standalone="no"?>
<svg xmlns="http://www.w3.org/2000/svg" xmlns:xlink="http://www.w3.org/1999/xlink" contentScriptType="application/ecmascript" contentStyleType="text/css" height="308px" preserveAspectRatio="none" style="width:1305px;height:308px;" version="1.1" viewBox="0 0 1305 308" width="1305px" zoomAndPan="magnify"><defs><filter height="300%" id="f1wd8ndsfhlrwd" width="300%" x="-1" y="-1"><feGaussianBlur result="blurOut" stdDeviation="2.0"/><feColorMatrix in="blurOut" result="blurOut2" type="matrix" values="0 0 0 0 0 0 0 0 0 0 0 0 0 0 0 0 0 0 .4 0"/><feOffset dx="4.0" dy="4.0" in="blurOut2" result="blurOut3"/><feBlend in="SourceGraphic" in2="blurOut3" mode="normal"/></filter></defs><g><!--entity Jugador--><ellipse cx="660.5" cy="18" fill="#FEFECE" filter="url(#f1wd8ndsfhlrwd)" rx="8" ry="8" style="stroke: #A80036; stroke-width: 2.0;"/><path d="M660.5,26 L660.5,53 M647.5,34 L673.5,34 M660.5,53 L647.5,68 M660.5,53 L673.5,68 " fill="none" filter="url(#f1wd8ndsfhlrwd)" style="stroke: #A80036; stroke-width: 2.0;"/><text fill="#000000" font-family="sans-serif" font-size="14" lengthAdjust="spacingAndGlyphs" textLength="52" x="634.5" y="87.9951">Jugador</text><ellipse cx="69.3339" cy="171.5668" fill="#FEFECE" filter="url(#f1wd8ndsfhlrwd)" rx="63.3339" ry="15.0668" style="stroke: #A80036; stroke-width: 1.5;"/><text fill="#000000" font-family="sans-serif" font-size="14" lengthAdjust="spacingAndGlyphs" textLength="89" x="24.8339" y="176.2152">Crear cuenta</text><ellipse cx="259.4996" cy="171.5999" fill="#FEFECE" filter="url(#f1wd8ndsfhlrwd)" rx="90.9996" ry="20.5999" style="stroke: #A80036; stroke-width: 1.5;"/><text fill="#000000" font-family="sans-serif" font-size="14" lengthAdjust="spacingAndGlyphs" textLength="156" x="181.4996" y="176.2484">Modificar datos cuenta</text><ellipse cx="443.4472" cy="171.5236" fill="#FEFECE" filter="url(#f1wd8ndsfhlrwd)" rx="57.4472" ry="14.5236" style="stroke: #A80036; stroke-width: 1.5;"/><text fill="#000000" font-family="sans-serif" font-size="14" lengthAdjust="spacingAndGlyphs" textLength="77" x="404.9472" y="176.1721">Hacer login</text><ellipse cx="426.2526" cy="274.8505" fill="#FEFECE" filter="url(#f1wd8ndsfhlrwd)" rx="72.2526" ry="16.8505" style="stroke: #A80036; stroke-width: 1.5;"/><text fill="#000000" font-family="sans-serif" font-size="14" lengthAdjust="spacingAndGlyphs" textLength="112" x="370.2526" y="279.499">Empezar partida</text><ellipse cx="608.7002" cy="274.84" fill="#FEFECE" filter="url(#f1wd8ndsfhlrwd)" rx="74.7002" ry="17.34" style="stroke: #A80036; stroke-width: 1.5;"/><text fill="#000000" font-family="sans-serif" font-size="14" lengthAdjust="spacingAndGlyphs" textLength="118" x="549.7002" y="279.4885">Continuar partida</text><ellipse cx="791.5637" cy="275.0127" fill="#FEFECE" filter="url(#f1wd8ndsfhlrwd)" rx="73.0637" ry="17.0127" style="stroke: #A80036; stroke-width: 1.5;"/><text fill="#000000" font-family="sans-serif" font-size="14" lengthAdjust="spacingAndGlyphs" textLength="114" x="734.5637" y="279.6612">Borrar su partida</text><ellipse cx="825.4395" cy="171.5879" fill="#FEFECE" filter="url(#f1wd8ndsfhlrwd)" rx="75.9395" ry="17.5879" style="stroke: #A80036; stroke-width: 1.5;"/><text fill="#000000" font-family="sans-serif" font-size="14" lengthAdjust="spacingAndGlyphs" textLength="121" x="764.9395" y="176.2363">Consultar ranking</text><ellipse cx="969.35" cy="274.87" fill="#FEFECE" filter="url(#f1wd8ndsfhlrwd)" rx="69.85" ry="16.37" style="stroke: #A80036; stroke-width: 1.5;"/><text fill="#000000" font-family="sans-serif" font-size="14" lengthAdjust="spacingAndGlyphs" textLength="106" x="916.35" y="279.5184">Guardar partida</text><ellipse cx="1073.4597" cy="171.5919" fill="#FEFECE" filter="url(#f1wd8ndsfhlrwd)" rx="65.9597" ry="15.5919" style="stroke: #A80036; stroke-width: 1.5;"/><text fill="#000000" font-family="sans-serif" font-size="14" lengthAdjust="spacingAndGlyphs" textLength="96" x="1025.4597" y="176.2404">Salir del juego</text><ellipse cx="1192.7481" cy="274.8496" fill="#FEFECE" filter="url(#f1wd8ndsfhlrwd)" rx="102.2481" ry="22.8496" style="stroke: #A80036; stroke-width: 1.5;"/><text fill="#000000" font-family="sans-serif" font-size="14" lengthAdjust="spacingAndGlyphs" textLength="181" x="1102.2481" y="279.498">Ver menú de movimientos</text><!--link Jugador to Crear cuenta--><path d="M634.414,55.243 C559.149,69.013 335.193,110.589 150.5,151 C139.349,153.44 127.377,156.228 116.148,158.919 " fill="none" id="Jugador-Crear cuenta" style="stroke: #A80036; stroke-width: 1.0;"/><polygon fill="#A80036" points="111.047,160.146,120.7331,161.9291,115.9082,158.9761,118.8612,154.1511,111.047,160.146" style="stroke: #A80036; stroke-width: 1.0;"/><!--link Jugador to Modificar datos cuenta--><path d="M634.498,58.281 C570.794,77.345 405.694,126.751 317.324,153.196 " fill="none" id="Jugador-Modificar datos cuenta" style="stroke: #A80036; stroke-width: 1.0;"/><polygon fill="#A80036" points="312.396,154.671,322.1652,155.9213,317.1859,153.2368,319.8704,148.2574,312.396,154.671" style="stroke: #A80036; stroke-width: 1.0;"/><!--link Jugador to Hacer login--><path d="M634.325,64.975 C592.886,87.89 512.583,132.298 470.584,155.523 " fill="none" id="Jugador-Hacer login" style="stroke: #A80036; stroke-width: 1.0;"/><polygon fill="#A80036" points="466.149,157.975,475.9606,157.1196,470.5244,155.5552,472.0889,150.1189,466.149,157.975" style="stroke: #A80036; stroke-width: 1.0;"/><!--link Jugador to Empezar partida--><path d="M634.499,77.285 C606.347,106.078 559.909,152.971 518.5,192 C495.195,213.9654 467.691,238.2774 448.866,254.6829 " fill="none" id="Jugador-Empezar partida" style="stroke: #A80036; stroke-width: 1.0;"/><polygon fill="#A80036" points="444.749,258.2651,454.1639,255.3739,448.5206,254.9826,448.9119,249.3393,444.749,258.2651" style="stroke: #A80036; stroke-width: 1.0;"/><!--link Jugador to Continuar partida--><path d="M651.023,91.233 C639.994,138.636 622.193,215.1477 613.542,252.329 " fill="none" id="Jugador-Continuar partida" style="stroke: #A80036; stroke-width: 1.0;"/><polygon fill="#A80036" points="612.334,257.5212,618.2695,249.6619,613.4671,252.6513,610.4777,247.8489,612.334,257.5212" style="stroke: #A80036; stroke-width: 1.0;"/><!--link Jugador to Borrar su partida--><path d="M679.085,91.031 C692.772,119.817 712.423,159.046 732.5,192 C745.959,214.0916 763.495,237.948 775.942,254.2016 " fill="none" id="Jugador-Borrar su partida" style="stroke: #A80036; stroke-width: 1.0;"/><polygon fill="#A80036" points="778.991,258.1644,776.6729,248.5922,775.9419,254.2017,770.3325,253.4707,778.991,258.1644" style="stroke: #A80036; stroke-width: 1.0;"/><!--link Jugador to Consultar ranking--><path d="M686.645,69.514 C717.478,91.939 768.429,128.994 799.29,151.438 " fill="none" id="Jugador-Consultar ranking" style="stroke: #A80036; stroke-width: 1.0;"/><polygon fill="#A80036" points="803.693,154.64,798.7672,146.1114,799.6494,151.6991,794.0617,152.5812,803.693,154.64" style="stroke: #A80036; stroke-width: 1.0;"/><!--link Jugador to Guardar partida--><path d="M686.585,53.721 C737.869,61.371 852.639,85.197 919.5,151 C948.148,179.195 960.967,226.0478 966.229,253.0594 " fill="none" id="Jugador-Guardar partida" style="stroke: #A80036; stroke-width: 1.0;"/><polygon fill="#A80036" points="967.184,258.1857,969.4695,248.6057,966.269,253.2701,961.6046,250.0697,967.184,258.1857" style="stroke: #A80036; stroke-width: 1.0;"/><!--link Jugador to Salir del juego--><path d="M686.648,58.098 C755.581,78.126 942.862,132.542 1029.03,157.579 " fill="none" id="Jugador-Salir del juego" style="stroke: #A80036; stroke-width: 1.0;"/><polygon fill="#A80036" points="1034.06,159.039,1026.5221,152.7003,1029.2561,157.6526,1024.3038,160.3866,1034.06,159.039" style="stroke: #A80036; stroke-width: 1.0;"/><!--link Jugador to Ver menú de movimientos--><path d="M686.708,52.271 C779.033,59.025 1087.39,86.136 1157.5,151 C1184.04,175.556 1190.98,218.6494 1192.51,246.7554 " fill="none" id="Jugador-Ver menú de movimientos" style="stroke: #A80036; stroke-width: 1.0;"/><polygon fill="#A80036" points="1192.74,251.8212,1196.332,242.6507,1192.5156,246.8262,1188.3401,243.0098,1192.74,251.8212" style="stroke: #A80036; stroke-width: 1.0;"/><!--
@startuml
:Jugador: - -> (Crear cuenta)
:Jugador: - -> (Modificar datos cuenta)
:Jugador: - -> (Hacer login)
:Jugador: - - -> (Empezar partida)
:Jugador: - - -> (Continuar partida)
:Jugador: - - -> (Borrar su partida)
:Jugador: - -> (Consultar ranking)
:Jugador: - - -> (Guardar partida)
:Jugador: - -> (Salir del juego)
:Jugador: - - -> (Ver menú de movimientos)
@enduml

PlantUML version 1.2019.05beta2(Unknown compile time)
(GPL source distribution)
Java Runtime: Java(TM) SE Runtime Environment
JVM: Java HotSpot(TM) 64-Bit Server VM
Java Version: 1.7.0_25-b15
Operating System: Linux
Default Encoding: UTF-8
Language: en
Country: US
--></g></svg>