<?xml version="1.0" encoding="UTF-8" standalone="no"?><svg xmlns="http://www.w3.org/2000/svg" xmlns:xlink="http://www.w3.org/1999/xlink" contentScriptType="application/ecmascript" contentStyleType="text/css" height="586px" preserveAspectRatio="none" style="width:722px;height:586px;" version="1.1" viewBox="0 0 722 586" width="722px" zoomAndPan="magnify"><defs><filter height="300%" id="fz295c58g3m9u" width="300%" x="-1" y="-1"><feGaussianBlur result="blurOut" stdDeviation="2.0"/><feColorMatrix in="blurOut" result="blurOut2" type="matrix" values="0 0 0 0 0 0 0 0 0 0 0 0 0 0 0 0 0 0 .4 0"/><feOffset dx="4.0" dy="4.0" in="blurOut2" result="blurOut3"/><feBlend in="SourceGraphic" in2="blurOut3" mode="normal"/></filter></defs><g><text fill="#000000" font-family="sans-serif" font-size="14" font-weight="bold" lengthAdjust="spacingAndGlyphs" textLength="336" x="193" y="22.9951">Diagrama de secuencia - Crear una cuenta</text><rect fill="#FFFFFF" filter="url(#fz295c58g3m9u)" height="215.0625" style="stroke: #A80036; stroke-width: 1.0;" width="10" x="187" y="147.7266"/><rect fill="#FFFFFF" filter="url(#fz295c58g3m9u)" height="185.9297" style="stroke: #A80036; stroke-width: 1.0;" width="10" x="345" y="176.8594"/><rect fill="#FFFFFF" filter="url(#fz295c58g3m9u)" height="156.7969" style="stroke: #A80036; stroke-width: 1.0;" width="10" x="501" y="205.9922"/><rect fill="#FFFFFF" filter="url(#fz295c58g3m9u)" height="104.5313" style="stroke: #000000; stroke-width: 2.0;" width="554.5" x="13" y="377.7891"/><line style="stroke: #A80036; stroke-width: 1.0; stroke-dasharray: 5.0,5.0;" x1="52" x2="52" y1="116.5938" y2="499.3203"/><line style="stroke: #A80036; stroke-width: 1.0; stroke-dasharray: 5.0,5.0;" x1="192" x2="192" y1="116.5938" y2="499.3203"/><line style="stroke: #A80036; stroke-width: 1.0; stroke-dasharray: 5.0,5.0;" x1="349.5" x2="349.5" y1="116.5938" y2="499.3203"/><line style="stroke: #A80036; stroke-width: 1.0; stroke-dasharray: 5.0,5.0;" x1="505.5" x2="505.5" y1="116.5938" y2="499.3203"/><text fill="#000000" font-family="sans-serif" font-size="14" lengthAdjust="spacingAndGlyphs" textLength="52" x="23" y="113.292">Jugador</text><ellipse cx="52" cy="43.2969" fill="#FEFECE" filter="url(#fz295c58g3m9u)" rx="8" ry="8" style="stroke: #A80036; stroke-width: 2.0;"/><path d="M52,51.2969 L52,78.2969 M39,59.2969 L65,59.2969 M52,78.2969 L39,93.2969 M52,78.2969 L65,93.2969 " fill="none" filter="url(#fz295c58g3m9u)" style="stroke: #A80036; stroke-width: 2.0;"/><text fill="#000000" font-family="sans-serif" font-size="14" lengthAdjust="spacingAndGlyphs" textLength="52" x="23" y="511.3154">Jugador</text><ellipse cx="52" cy="524.6172" fill="#FEFECE" filter="url(#fz295c58g3m9u)" rx="8" ry="8" style="stroke: #A80036; stroke-width: 2.0;"/><path d="M52,532.6172 L52,559.6172 M39,540.6172 L65,540.6172 M52,559.6172 L39,574.6172 M52,559.6172 L65,574.6172 " fill="none" filter="url(#fz295c58g3m9u)" style="stroke: #A80036; stroke-width: 2.0;"/><text fill="#000000" font-family="sans-serif" font-size="14" lengthAdjust="spacingAndGlyphs" textLength="126" x="126" y="113.292">InterfMenúUsuario</text><path d="M171.5,72.2969 L171.5,96.2969 M171.5,84.2969 L188.5,84.2969 " fill="none" filter="url(#fz295c58g3m9u)" style="stroke: #A80036; stroke-width: 2.0;"/><ellipse cx="200.5" cy="84.2969" fill="#FEFECE" filter="url(#fz295c58g3m9u)" rx="12" ry="12" style="stroke: #A80036; stroke-width: 2.0;"/><text fill="#000000" font-family="sans-serif" font-size="14" lengthAdjust="spacingAndGlyphs" textLength="126" x="126" y="511.3154">InterfMenúUsuario</text><path d="M171.5,518.6172 L171.5,542.6172 M171.5,530.6172 L188.5,530.6172 " fill="none" filter="url(#fz295c58g3m9u)" style="stroke: #A80036; stroke-width: 2.0;"/><ellipse cx="200.5" cy="530.6172" fill="#FEFECE" filter="url(#fz295c58g3m9u)" rx="12" ry="12" style="stroke: #A80036; stroke-width: 2.0;"/><text fill="#000000" font-family="sans-serif" font-size="14" lengthAdjust="spacingAndGlyphs" textLength="55" x="319.5" y="113.292">Sistema</text><ellipse cx="350" cy="84.2969" fill="#FEFECE" filter="url(#fz295c58g3m9u)" rx="12" ry="12" style="stroke: #A80036; stroke-width: 2.0;"/><polygon fill="#A80036" points="346,72.2969,352,67.2969,350,72.2969,352,77.2969,346,72.2969" style="stroke: #A80036; stroke-width: 1.0;"/><text fill="#000000" font-family="sans-serif" font-size="14" lengthAdjust="spacingAndGlyphs" textLength="55" x="319.5" y="511.3154">Sistema</text><ellipse cx="350" cy="530.6172" fill="#FEFECE" filter="url(#fz295c58g3m9u)" rx="12" ry="12" style="stroke: #A80036; stroke-width: 2.0;"/><polygon fill="#A80036" points="346,518.6172,352,513.6172,350,518.6172,352,523.6172,346,518.6172" style="stroke: #A80036; stroke-width: 1.0;"/><text fill="#000000" font-family="sans-serif" font-size="14" lengthAdjust="spacingAndGlyphs" textLength="97" x="454.5" y="113.292">entity_Jugador</text><ellipse cx="506" cy="84.2969" fill="#FEFECE" filter="url(#fz295c58g3m9u)" rx="12" ry="12" style="stroke: #A80036; stroke-width: 2.0;"/><line style="stroke: #A80036; stroke-width: 2.0;" x1="494" x2="518" y1="98.2969" y2="98.2969"/><text fill="#000000" font-family="sans-serif" font-size="14" lengthAdjust="spacingAndGlyphs" textLength="97" x="454.5" y="511.3154">entity_Jugador</text><ellipse cx="506" cy="530.6172" fill="#FEFECE" filter="url(#fz295c58g3m9u)" rx="12" ry="12" style="stroke: #A80036; stroke-width: 2.0;"/><line style="stroke: #A80036; stroke-width: 2.0;" x1="494" x2="518" y1="544.6172" y2="544.6172"/><rect fill="#FFFFFF" filter="url(#fz295c58g3m9u)" height="215.0625" style="stroke: #A80036; stroke-width: 1.0;" width="10" x="187" y="147.7266"/><rect fill="#FFFFFF" filter="url(#fz295c58g3m9u)" height="185.9297" style="stroke: #A80036; stroke-width: 1.0;" width="10" x="345" y="176.8594"/><rect fill="#FFFFFF" filter="url(#fz295c58g3m9u)" height="156.7969" style="stroke: #A80036; stroke-width: 1.0;" width="10" x="501" y="205.9922"/><polygon fill="#A80036" points="175,143.7266,185,147.7266,175,151.7266,179,147.7266" style="stroke: #A80036; stroke-width: 1.0;"/><line style="stroke: #A80036; stroke-width: 1.0;" x1="52" x2="181" y1="147.7266" y2="147.7266"/><text fill="#000000" font-family="sans-serif" font-size="13" font-weight="bold" lengthAdjust="spacingAndGlyphs" textLength="9" x="59" y="142.6606">1</text><text fill="#000000" font-family="sans-serif" font-size="13" lengthAdjust="spacingAndGlyphs" textLength="91" x="72" y="142.6606">CrearCuenta()</text><polygon fill="#A80036" points="333,172.8594,343,176.8594,333,180.8594,337,176.8594" style="stroke: #A80036; stroke-width: 1.0;"/><line style="stroke: #A80036; stroke-width: 1.0;" x1="197" x2="339" y1="176.8594" y2="176.8594"/><text fill="#000000" font-family="sans-serif" font-size="13" font-weight="bold" lengthAdjust="spacingAndGlyphs" textLength="9" x="204" y="171.7935">2</text><text fill="#000000" font-family="sans-serif" font-size="13" lengthAdjust="spacingAndGlyphs" textLength="116" x="217" y="171.7935">comprobarDispo()</text><polygon fill="#A80036" points="489,201.9922,499,205.9922,489,209.9922,493,205.9922" style="stroke: #A80036; stroke-width: 1.0;"/><line style="stroke: #A80036; stroke-width: 1.0;" x1="355" x2="495" y1="205.9922" y2="205.9922"/><text fill="#000000" font-family="sans-serif" font-size="13" font-weight="bold" lengthAdjust="spacingAndGlyphs" textLength="9" x="362" y="200.9263">3</text><text fill="#000000" font-family="sans-serif" font-size="13" lengthAdjust="spacingAndGlyphs" textLength="113" x="375" y="200.9263">realizarConsulta()</text><polygon fill="#FF0000" points="366,251.2578,356,255.2578,366,259.2578,362,255.2578" style="stroke: #FF0000; stroke-width: 1.0;"/><line style="stroke: #FF0000; stroke-width: 1.0;" x1="360" x2="500" y1="255.2578" y2="255.2578"/><text fill="#000000" font-family="sans-serif" font-size="13" font-weight="bold" lengthAdjust="spacingAndGlyphs" textLength="9" x="372" y="250.1919">4</text><text fill="#000000" font-family="sans-serif" font-size="13" lengthAdjust="spacingAndGlyphs" textLength="92" x="385" y="250.1919">confirmacion()</text><path d="M516,218.9922 L516,273.9922 L710,273.9922 L710,228.9922 L700,218.9922 L516,218.9922 " fill="#FBFB77" filter="url(#fz295c58g3m9u)" style="stroke: #A80036; stroke-width: 1.0;"/><path d="M700,218.9922 L700,228.9922 L710,228.9922 L700,218.9922 " fill="#FBFB77" style="stroke: #A80036; stroke-width: 1.0;"/><text fill="#000000" font-family="sans-serif" font-size="13" lengthAdjust="spacingAndGlyphs" textLength="169" x="522" y="236.0591">Comprueba que el usuario</text><text fill="#000000" font-family="sans-serif" font-size="13" lengthAdjust="spacingAndGlyphs" textLength="130" x="522" y="251.1919">no existe y devuelve</text><text fill="#000000" font-family="sans-serif" font-size="13" lengthAdjust="spacingAndGlyphs" textLength="77" x="522" y="266.3247">True o False</text><polygon fill="#A80036" points="175,300.5234,185,304.5234,175,308.5234,179,304.5234" style="stroke: #A80036; stroke-width: 1.0;"/><line style="stroke: #A80036; stroke-width: 1.0;" x1="52" x2="181" y1="304.5234" y2="304.5234"/><text fill="#000000" font-family="sans-serif" font-size="13" font-weight="bold" lengthAdjust="spacingAndGlyphs" textLength="9" x="59" y="299.4575">5</text><text fill="#000000" font-family="sans-serif" font-size="13" lengthAdjust="spacingAndGlyphs" textLength="98" x="72" y="299.4575">datosRegistro()</text><polygon fill="#A80036" points="333,329.6563,343,333.6563,333,337.6563,337,333.6563" style="stroke: #A80036; stroke-width: 1.0;"/><line style="stroke: #A80036; stroke-width: 1.0;" x1="197" x2="339" y1="333.6563" y2="333.6563"/><text fill="#000000" font-family="sans-serif" font-size="13" font-weight="bold" lengthAdjust="spacingAndGlyphs" textLength="9" x="204" y="328.5903">6</text><text fill="#000000" font-family="sans-serif" font-size="13" lengthAdjust="spacingAndGlyphs" textLength="98" x="217" y="328.5903">datosRegistro()</text><polygon fill="#A80036" points="494,358.7891,504,362.7891,494,366.7891,498,362.7891" style="stroke: #A80036; stroke-width: 1.0;"/><line style="stroke: #A80036; stroke-width: 1.0;" x1="350" x2="500" y1="362.7891" y2="362.7891"/><text fill="#000000" font-family="sans-serif" font-size="13" font-weight="bold" lengthAdjust="spacingAndGlyphs" textLength="9" x="357" y="357.7231">7</text><text fill="#000000" font-family="sans-serif" font-size="13" lengthAdjust="spacingAndGlyphs" textLength="109" x="370" y="357.7231">realizarRegistro()</text><path d="M13,377.7891 L77,377.7891 L77,384.7891 L67,394.7891 L13,394.7891 L13,377.7891 " fill="#EEEEEE" style="stroke: #000000; stroke-width: 1.0;"/><rect fill="none" height="104.5313" style="stroke: #000000; stroke-width: 2.0;" width="554.5" x="13" y="377.7891"/><text fill="#000000" font-family="sans-serif" font-size="13" font-weight="bold" lengthAdjust="spacingAndGlyphs" textLength="19" x="28" y="390.856">alt</text><text fill="#000000" font-family="sans-serif" font-size="11" font-weight="bold" lengthAdjust="spacingAndGlyphs" textLength="98" x="92" y="389.9995">[UsuarioExiste]</text><polygon fill="#008000" points="361,412.0547,351,416.0547,361,420.0547,357,416.0547" style="stroke: #008000; stroke-width: 1.0;"/><line style="stroke: #008000; stroke-width: 1.0;" x1="355" x2="505" y1="416.0547" y2="416.0547"/><text fill="#000000" font-family="sans-serif" font-size="13" font-weight="bold" lengthAdjust="spacingAndGlyphs" textLength="9" x="367" y="410.9888">8</text><text fill="#000000" font-family="sans-serif" font-size="13" lengthAdjust="spacingAndGlyphs" textLength="92" x="380" y="410.9888">confirmacion()</text><polygon fill="#008000" points="203,441.1875,193,445.1875,203,449.1875,199,445.1875" style="stroke: #008000; stroke-width: 1.0;"/><line style="stroke: #008000; stroke-width: 1.0;" x1="197" x2="349" y1="445.1875" y2="445.1875"/><text fill="#000000" font-family="sans-serif" font-size="13" font-weight="bold" lengthAdjust="spacingAndGlyphs" textLength="9" x="209" y="440.1216">9</text><text fill="#000000" font-family="sans-serif" font-size="13" lengthAdjust="spacingAndGlyphs" textLength="41" x="222" y="440.1216">error()</text><polygon fill="#008000" points="63,470.3203,53,474.3203,63,478.3203,59,474.3203" style="stroke: #008000; stroke-width: 1.0;"/><line style="stroke: #008000; stroke-width: 1.0;" x1="57" x2="191" y1="474.3203" y2="474.3203"/><text fill="#000000" font-family="sans-serif" font-size="13" font-weight="bold" lengthAdjust="spacingAndGlyphs" textLength="18" x="69" y="469.2544">10</text><text fill="#000000" font-family="sans-serif" font-size="13" lengthAdjust="spacingAndGlyphs" textLength="41" x="91" y="469.2544">error()</text><!--
@startuml
title Diagrama de secuencia - Crear una cuenta
autonumber
actor Jugador
boundary InterfMenúUsuario
control Sistema
entity entity_Jugador

Jugador -> InterfMenúUsuario : CrearCuenta()
activate InterfMenúUsuario
InterfMenúUsuario -> Sistema : comprobarDispo()
activate Sistema
Sistema -> entity_Jugador : realizarConsulta()
activate entity_Jugador
entity_Jugador -[#red]> Sistema : confirmacion()
note right 
Comprueba que el usuario 
no existe y devuelve 
True o False
end note

Jugador -> InterfMenúUsuario : datosRegistro()
InterfMenúUsuario -> Sistema : datosRegistro()
Sistema -> entity_Jugador : realizarRegistro()
deactivate entity_Jugador
deactivate Sistema
deactivate InterfMenúUsuario
alt UsuarioExiste
entity_Jugador -[#green]> Sistema : confirmacion()
Sistema -[#green]> InterfMenúUsuario : error()
InterfMenúUsuario -[#green]> Jugador : error()
end
@enduml

PlantUML version 1.2019.05(Sat Apr 20 16:45:36 UTC 2019)
(GPL source distribution)
Java Runtime: Java(TM) SE Runtime Environment
JVM: Java HotSpot(TM) 64-Bit Server VM
Java Version: 1.7.0_25-b15
Operating System: Linux
Default Encoding: UTF-8
Language: en
Country: US
--></g></svg>