<?xml version="1.0" encoding="UTF-8" standalone="no"?><svg xmlns="http://www.w3.org/2000/svg" xmlns:xlink="http://www.w3.org/1999/xlink" contentScriptType="application/ecmascript" contentStyleType="text/css" height="600px" preserveAspectRatio="none" style="width:701px;height:600px;" version="1.1" viewBox="0 0 701 600" width="701px" zoomAndPan="magnify"><defs><filter height="300%" id="f1u4ru5evjcham" width="300%" x="-1" y="-1"><feGaussianBlur result="blurOut" stdDeviation="2.0"/><feColorMatrix in="blurOut" result="blurOut2" type="matrix" values="0 0 0 0 0 0 0 0 0 0 0 0 0 0 0 0 0 0 .4 0"/><feOffset dx="4.0" dy="4.0" in="blurOut2" result="blurOut3"/><feBlend in="SourceGraphic" in2="blurOut3" mode="normal"/></filter></defs><g><text fill="#000000" font-family="sans-serif" font-size="14" font-weight="bold" lengthAdjust="spacingAndGlyphs" textLength="404" x="151.25" y="22.9951">Diagrama de secuencia - Modificar datos de cuenta</text><rect fill="#FFFFFF" filter="url(#f1u4ru5evjcham)" height="122.6641" style="stroke: #A80036; stroke-width: 1.0;" width="10" x="220.5" y="147.7266"/><rect fill="#FFFFFF" filter="url(#f1u4ru5evjcham)" height="93.5313" style="stroke: #A80036; stroke-width: 1.0;" width="10" x="377.5" y="176.8594"/><rect fill="#FFFFFF" filter="url(#f1u4ru5evjcham)" height="64.3984" style="stroke: #A80036; stroke-width: 1.0;" width="10" x="534.5" y="205.9922"/><rect fill="#FFFFFF" filter="url(#f1u4ru5evjcham)" height="175.0625" style="stroke: #000000; stroke-width: 2.0;" width="565.5" x="13" y="320.6563"/><line style="stroke: #A80036; stroke-width: 1.0; stroke-dasharray: 5.0,5.0;" x1="73" x2="73" y1="116.5938" y2="512.7188"/><line style="stroke: #A80036; stroke-width: 1.0; stroke-dasharray: 5.0,5.0;" x1="225.5" x2="225.5" y1="116.5938" y2="512.7188"/><line style="stroke: #A80036; stroke-width: 1.0; stroke-dasharray: 5.0,5.0;" x1="382" x2="382" y1="116.5938" y2="512.7188"/><line style="stroke: #A80036; stroke-width: 1.0; stroke-dasharray: 5.0,5.0;" x1="539.5" x2="539.5" y1="116.5938" y2="512.7188"/><text fill="#000000" font-family="sans-serif" font-size="14" lengthAdjust="spacingAndGlyphs" textLength="95" x="23" y="113.292">Administrador</text><ellipse cx="73.5" cy="43.2969" fill="#FEFECE" filter="url(#f1u4ru5evjcham)" rx="8" ry="8" style="stroke: #A80036; stroke-width: 2.0;"/><path d="M73.5,51.2969 L73.5,78.2969 M60.5,59.2969 L86.5,59.2969 M73.5,78.2969 L60.5,93.2969 M73.5,78.2969 L86.5,93.2969 " fill="none" filter="url(#f1u4ru5evjcham)" style="stroke: #A80036; stroke-width: 2.0;"/><text fill="#000000" font-family="sans-serif" font-size="14" lengthAdjust="spacingAndGlyphs" textLength="95" x="23" y="524.7139">Administrador</text><ellipse cx="73.5" cy="538.0156" fill="#FEFECE" filter="url(#f1u4ru5evjcham)" rx="8" ry="8" style="stroke: #A80036; stroke-width: 2.0;"/><path d="M73.5,546.0156 L73.5,573.0156 M60.5,554.0156 L86.5,554.0156 M73.5,573.0156 L60.5,588.0156 M73.5,573.0156 L86.5,588.0156 " fill="none" filter="url(#f1u4ru5evjcham)" style="stroke: #A80036; stroke-width: 2.0;"/><text fill="#000000" font-family="sans-serif" font-size="14" lengthAdjust="spacingAndGlyphs" textLength="126" x="159.5" y="113.292">InterfMenúUsuario</text><path d="M205,72.2969 L205,96.2969 M205,84.2969 L222,84.2969 " fill="none" filter="url(#f1u4ru5evjcham)" style="stroke: #A80036; stroke-width: 2.0;"/><ellipse cx="234" cy="84.2969" fill="#FEFECE" filter="url(#f1u4ru5evjcham)" rx="12" ry="12" style="stroke: #A80036; stroke-width: 2.0;"/><text fill="#000000" font-family="sans-serif" font-size="14" lengthAdjust="spacingAndGlyphs" textLength="126" x="159.5" y="524.7139">InterfMenúUsuario</text><path d="M205,532.0156 L205,556.0156 M205,544.0156 L222,544.0156 " fill="none" filter="url(#f1u4ru5evjcham)" style="stroke: #A80036; stroke-width: 2.0;"/><ellipse cx="234" cy="544.0156" fill="#FEFECE" filter="url(#f1u4ru5evjcham)" rx="12" ry="12" style="stroke: #A80036; stroke-width: 2.0;"/><text fill="#000000" font-family="sans-serif" font-size="14" lengthAdjust="spacingAndGlyphs" textLength="55" x="352" y="113.292">Sistema</text><ellipse cx="382.5" cy="84.2969" fill="#FEFECE" filter="url(#f1u4ru5evjcham)" rx="12" ry="12" style="stroke: #A80036; stroke-width: 2.0;"/><polygon fill="#A80036" points="378.5,72.2969,384.5,67.2969,382.5,72.2969,384.5,77.2969,378.5,72.2969" style="stroke: #A80036; stroke-width: 1.0;"/><text fill="#000000" font-family="sans-serif" font-size="14" lengthAdjust="spacingAndGlyphs" textLength="55" x="352" y="524.7139">Sistema</text><ellipse cx="382.5" cy="544.0156" fill="#FEFECE" filter="url(#f1u4ru5evjcham)" rx="12" ry="12" style="stroke: #A80036; stroke-width: 2.0;"/><polygon fill="#A80036" points="378.5,532.0156,384.5,527.0156,382.5,532.0156,384.5,537.0156,378.5,532.0156" style="stroke: #A80036; stroke-width: 1.0;"/><text fill="#000000" font-family="sans-serif" font-size="14" lengthAdjust="spacingAndGlyphs" textLength="52" x="510.5" y="113.292">Jugador</text><ellipse cx="539.5" cy="84.2969" fill="#FEFECE" filter="url(#f1u4ru5evjcham)" rx="12" ry="12" style="stroke: #A80036; stroke-width: 2.0;"/><line style="stroke: #A80036; stroke-width: 2.0;" x1="527.5" x2="551.5" y1="98.2969" y2="98.2969"/><text fill="#000000" font-family="sans-serif" font-size="14" lengthAdjust="spacingAndGlyphs" textLength="52" x="510.5" y="524.7139">Jugador</text><ellipse cx="539.5" cy="544.0156" fill="#FEFECE" filter="url(#f1u4ru5evjcham)" rx="12" ry="12" style="stroke: #A80036; stroke-width: 2.0;"/><line style="stroke: #A80036; stroke-width: 2.0;" x1="527.5" x2="551.5" y1="558.0156" y2="558.0156"/><rect fill="#FFFFFF" filter="url(#f1u4ru5evjcham)" height="122.6641" style="stroke: #A80036; stroke-width: 1.0;" width="10" x="220.5" y="147.7266"/><rect fill="#FFFFFF" filter="url(#f1u4ru5evjcham)" height="93.5313" style="stroke: #A80036; stroke-width: 1.0;" width="10" x="377.5" y="176.8594"/><rect fill="#FFFFFF" filter="url(#f1u4ru5evjcham)" height="64.3984" style="stroke: #A80036; stroke-width: 1.0;" width="10" x="534.5" y="205.9922"/><polygon fill="#A80036" points="208.5,143.7266,218.5,147.7266,208.5,151.7266,212.5,147.7266" style="stroke: #A80036; stroke-width: 1.0;"/><line style="stroke: #A80036; stroke-width: 1.0;" x1="73.5" x2="214.5" y1="147.7266" y2="147.7266"/><text fill="#000000" font-family="sans-serif" font-size="13" font-weight="bold" lengthAdjust="spacingAndGlyphs" textLength="9" x="80.5" y="142.6606">1</text><text fill="#000000" font-family="sans-serif" font-size="13" lengthAdjust="spacingAndGlyphs" textLength="115" x="93.5" y="142.6606">modificarCuenta()</text><polygon fill="#A80036" points="365.5,172.8594,375.5,176.8594,365.5,180.8594,369.5,176.8594" style="stroke: #A80036; stroke-width: 1.0;"/><line style="stroke: #A80036; stroke-width: 1.0;" x1="230.5" x2="371.5" y1="176.8594" y2="176.8594"/><text fill="#000000" font-family="sans-serif" font-size="13" font-weight="bold" lengthAdjust="spacingAndGlyphs" textLength="9" x="237.5" y="171.7935">2</text><text fill="#000000" font-family="sans-serif" font-size="13" lengthAdjust="spacingAndGlyphs" textLength="115" x="250.5" y="171.7935">modificarCuenta()</text><polygon fill="#A80036" points="522.5,201.9922,532.5,205.9922,522.5,209.9922,526.5,205.9922" style="stroke: #A80036; stroke-width: 1.0;"/><line style="stroke: #A80036; stroke-width: 1.0;" x1="387.5" x2="528.5" y1="205.9922" y2="205.9922"/><text fill="#000000" font-family="sans-serif" font-size="13" font-weight="bold" lengthAdjust="spacingAndGlyphs" textLength="9" x="394.5" y="200.9263">3</text><text fill="#000000" font-family="sans-serif" font-size="13" lengthAdjust="spacingAndGlyphs" textLength="115" x="407.5" y="200.9263">modificarCuenta()</text><polygon fill="#FF0000" points="393.5,266.3906,383.5,270.3906,393.5,274.3906,389.5,270.3906" style="stroke: #FF0000; stroke-width: 1.0;"/><line style="stroke: #FF0000; stroke-width: 1.0;" x1="387.5" x2="538.5" y1="270.3906" y2="270.3906"/><text fill="#000000" font-family="sans-serif" font-size="13" font-weight="bold" lengthAdjust="spacingAndGlyphs" textLength="9" x="399.5" y="265.3247">4</text><text fill="#000000" font-family="sans-serif" font-size="13" lengthAdjust="spacingAndGlyphs" textLength="92" x="412.5" y="265.3247">confirmacion()</text><path d="M549,218.9922 L549,303.9922 L689,303.9922 L689,228.9922 L679,218.9922 L549,218.9922 " fill="#FBFB77" filter="url(#f1u4ru5evjcham)" style="stroke: #A80036; stroke-width: 1.0;"/><path d="M679,218.9922 L679,228.9922 L689,228.9922 L679,218.9922 " fill="#FBFB77" style="stroke: #A80036; stroke-width: 1.0;"/><text fill="#000000" font-family="sans-serif" font-size="13" lengthAdjust="spacingAndGlyphs" textLength="114" x="555" y="236.0591">El sistema recoge</text><text fill="#000000" font-family="sans-serif" font-size="13" lengthAdjust="spacingAndGlyphs" textLength="119" x="555" y="251.1919">los datos recibidos</text><text fill="#000000" font-family="sans-serif" font-size="13" lengthAdjust="spacingAndGlyphs" textLength="73" x="555" y="266.3247">y los añade</text><text fill="#000000" font-family="sans-serif" font-size="13" lengthAdjust="spacingAndGlyphs" textLength="104" x="555" y="281.4575">sustituyendo los</text><text fill="#000000" font-family="sans-serif" font-size="13" lengthAdjust="spacingAndGlyphs" textLength="65" x="555" y="296.5903">anteriores</text><path d="M13,320.6563 L77,320.6563 L77,327.6563 L67,337.6563 L13,337.6563 L13,320.6563 " fill="#EEEEEE" style="stroke: #000000; stroke-width: 1.0;"/><rect fill="none" height="175.0625" style="stroke: #000000; stroke-width: 2.0;" width="565.5" x="13" y="320.6563"/><text fill="#000000" font-family="sans-serif" font-size="13" font-weight="bold" lengthAdjust="spacingAndGlyphs" textLength="19" x="28" y="333.7231">alt</text><text fill="#000000" font-family="sans-serif" font-size="11" font-weight="bold" lengthAdjust="spacingAndGlyphs" textLength="88" x="92" y="332.8667">[NoPermitido]</text><polygon fill="#008000" points="393.5,354.9219,383.5,358.9219,393.5,362.9219,389.5,358.9219" style="stroke: #008000; stroke-width: 1.0;"/><line style="stroke: #008000; stroke-width: 1.0;" x1="387.5" x2="538.5" y1="358.9219" y2="358.9219"/><text fill="#000000" font-family="sans-serif" font-size="13" font-weight="bold" lengthAdjust="spacingAndGlyphs" textLength="9" x="399.5" y="353.856">5</text><text fill="#000000" font-family="sans-serif" font-size="13" lengthAdjust="spacingAndGlyphs" textLength="92" x="412.5" y="353.856">confirmacion()</text><polygon fill="#008000" points="236.5,419.3203,226.5,423.3203,236.5,427.3203,232.5,423.3203" style="stroke: #008000; stroke-width: 1.0;"/><line style="stroke: #008000; stroke-width: 1.0;" x1="230.5" x2="381.5" y1="423.3203" y2="423.3203"/><text fill="#000000" font-family="sans-serif" font-size="13" font-weight="bold" lengthAdjust="spacingAndGlyphs" textLength="9" x="242.5" y="418.2544">6</text><text fill="#000000" font-family="sans-serif" font-size="13" lengthAdjust="spacingAndGlyphs" textLength="41" x="255.5" y="418.2544">error()</text><path d="M387,371.9219 L387,456.9219 L519,456.9219 L519,381.9219 L509,371.9219 L387,371.9219 " fill="#FBFB77" filter="url(#f1u4ru5evjcham)" style="stroke: #A80036; stroke-width: 1.0;"/><path d="M509,371.9219 L509,381.9219 L519,381.9219 L509,371.9219 " fill="#FBFB77" style="stroke: #A80036; stroke-width: 1.0;"/><text fill="#000000" font-family="sans-serif" font-size="13" lengthAdjust="spacingAndGlyphs" textLength="90" x="393" y="388.9888">En caso de no</text><text fill="#000000" font-family="sans-serif" font-size="13" lengthAdjust="spacingAndGlyphs" textLength="97" x="393" y="404.1216">tener permisos</text><text fill="#000000" font-family="sans-serif" font-size="13" lengthAdjust="spacingAndGlyphs" textLength="111" x="393" y="419.2544">para un apartado</text><text fill="#000000" font-family="sans-serif" font-size="13" lengthAdjust="spacingAndGlyphs" textLength="67" x="393" y="434.3872">específico,</text><text fill="#000000" font-family="sans-serif" font-size="13" lengthAdjust="spacingAndGlyphs" textLength="107" x="393" y="449.52">devuelve el error</text><polygon fill="#008000" points="84.5,483.7188,74.5,487.7188,84.5,491.7188,80.5,487.7188" style="stroke: #008000; stroke-width: 1.0;"/><line style="stroke: #008000; stroke-width: 1.0;" x1="78.5" x2="224.5" y1="487.7188" y2="487.7188"/><text fill="#000000" font-family="sans-serif" font-size="13" font-weight="bold" lengthAdjust="spacingAndGlyphs" textLength="9" x="90.5" y="482.6528">7</text><text fill="#000000" font-family="sans-serif" font-size="13" lengthAdjust="spacingAndGlyphs" textLength="41" x="103.5" y="482.6528">error()</text><!--
@startuml
title Diagrama de secuencia - Modificar datos de cuenta
autonumber
actor Administrador
boundary InterfMenúUsuario
control Sistema
entity Jugador

Administrador -> InterfMenúUsuario : modificarCuenta()
activate InterfMenúUsuario
InterfMenúUsuario -> Sistema : modificarCuenta()
activate Sistema
Sistema -> Jugador : modificarCuenta()
activate Jugador
Jugador -[#red]> Sistema : confirmacion()
note right 
El sistema recoge 
los datos recibidos
y los añade 
sustituyendo los 
anteriores
end note


deactivate Jugador
deactivate Sistema
deactivate InterfMenúUsuario
alt NoPermitido
Jugador -[#green]> Sistema : confirmacion()
Sistema -[#green]> InterfMenúUsuario : error()
note right 
En caso de no
tener permisos
para un apartado
específico,
devuelve el error
end note
InterfMenúUsuario -[#green]> Administrador : error()
end
@enduml

PlantUML version 1.2019.05(Sat Apr 20 16:45:36 UTC 2019)
(GPL source distribution)
Java Runtime: Java(TM) SE Runtime Environment
JVM: Java HotSpot(TM) 64-Bit Server VM
Java Version: 1.7.0_25-b15
Operating System: Linux
Default Encoding: UTF-8
Language: en
Country: US
--></g></svg>