<?xml version="1.0" encoding="UTF-8" standalone="no"?><svg xmlns="http://www.w3.org/2000/svg" xmlns:xlink="http://www.w3.org/1999/xlink" contentScriptType="application/ecmascript" contentStyleType="text/css" height="340px" preserveAspectRatio="none" style="width:586px;height:340px;" version="1.1" viewBox="0 0 586 340" width="586px" zoomAndPan="magnify"><defs><filter height="300%" id="f1lzqhgg3k0nhb" width="300%" x="-1" y="-1"><feGaussianBlur result="blurOut" stdDeviation="2.0"/><feColorMatrix in="blurOut" result="blurOut2" type="matrix" values="0 0 0 0 0 0 0 0 0 0 0 0 0 0 0 0 0 0 .4 0"/><feOffset dx="4.0" dy="4.0" in="blurOut2" result="blurOut3"/><feBlend in="SourceGraphic" in2="blurOut3" mode="normal"/></filter></defs><g><text fill="#000000" font-family="sans-serif" font-size="14" font-weight="bold" lengthAdjust="spacingAndGlyphs" textLength="339" x="124.5" y="22.9951">Diagrama de secuencia - Consultar ranking</text><rect fill="#FFFFFF" filter="url(#f1lzqhgg3k0nhb)" height="87.3984" style="stroke: #A80036; stroke-width: 1.0;" width="10" x="188" y="147.7266"/><rect fill="#FFFFFF" filter="url(#f1lzqhgg3k0nhb)" height="58.2656" style="stroke: #A80036; stroke-width: 1.0;" width="10" x="349" y="176.8594"/><rect fill="#FFFFFF" filter="url(#f1lzqhgg3k0nhb)" height="29.1328" style="stroke: #A80036; stroke-width: 1.0;" width="10" x="544" y="205.9922"/><line style="stroke: #A80036; stroke-width: 1.0; stroke-dasharray: 5.0,5.0;" x1="37" x2="37" y1="116.5938" y2="253.125"/><line style="stroke: #A80036; stroke-width: 1.0; stroke-dasharray: 5.0,5.0;" x1="193" x2="193" y1="116.5938" y2="253.125"/><line style="stroke: #A80036; stroke-width: 1.0; stroke-dasharray: 5.0,5.0;" x1="353.5" x2="353.5" y1="116.5938" y2="253.125"/><line style="stroke: #A80036; stroke-width: 1.0; stroke-dasharray: 5.0,5.0;" x1="549" x2="549" y1="116.5938" y2="253.125"/><text fill="#000000" font-family="sans-serif" font-size="14" lengthAdjust="spacingAndGlyphs" textLength="52" x="8" y="113.292">Jugador</text><ellipse cx="37" cy="43.2969" fill="#FEFECE" filter="url(#f1lzqhgg3k0nhb)" rx="8" ry="8" style="stroke: #A80036; stroke-width: 2.0;"/><path d="M37,51.2969 L37,78.2969 M24,59.2969 L50,59.2969 M37,78.2969 L24,93.2969 M37,78.2969 L50,93.2969 " fill="none" filter="url(#f1lzqhgg3k0nhb)" style="stroke: #A80036; stroke-width: 2.0;"/><text fill="#000000" font-family="sans-serif" font-size="14" lengthAdjust="spacingAndGlyphs" textLength="52" x="8" y="265.1201">Jugador</text><ellipse cx="37" cy="278.4219" fill="#FEFECE" filter="url(#f1lzqhgg3k0nhb)" rx="8" ry="8" style="stroke: #A80036; stroke-width: 2.0;"/><path d="M37,286.4219 L37,313.4219 M24,294.4219 L50,294.4219 M37,313.4219 L24,328.4219 M37,313.4219 L50,328.4219 " fill="none" filter="url(#f1lzqhgg3k0nhb)" style="stroke: #A80036; stroke-width: 2.0;"/><text fill="#000000" font-family="sans-serif" font-size="14" lengthAdjust="spacingAndGlyphs" textLength="126" x="127" y="113.292">InterfMenúUsuario</text><path d="M172.5,72.2969 L172.5,96.2969 M172.5,84.2969 L189.5,84.2969 " fill="none" filter="url(#f1lzqhgg3k0nhb)" style="stroke: #A80036; stroke-width: 2.0;"/><ellipse cx="201.5" cy="84.2969" fill="#FEFECE" filter="url(#f1lzqhgg3k0nhb)" rx="12" ry="12" style="stroke: #A80036; stroke-width: 2.0;"/><text fill="#000000" font-family="sans-serif" font-size="14" lengthAdjust="spacingAndGlyphs" textLength="126" x="127" y="265.1201">InterfMenúUsuario</text><path d="M172.5,272.4219 L172.5,296.4219 M172.5,284.4219 L189.5,284.4219 " fill="none" filter="url(#f1lzqhgg3k0nhb)" style="stroke: #A80036; stroke-width: 2.0;"/><ellipse cx="201.5" cy="284.4219" fill="#FEFECE" filter="url(#f1lzqhgg3k0nhb)" rx="12" ry="12" style="stroke: #A80036; stroke-width: 2.0;"/><text fill="#000000" font-family="sans-serif" font-size="14" lengthAdjust="spacingAndGlyphs" textLength="55" x="323.5" y="113.292">Sistema</text><ellipse cx="354" cy="84.2969" fill="#FEFECE" filter="url(#f1lzqhgg3k0nhb)" rx="12" ry="12" style="stroke: #A80036; stroke-width: 2.0;"/><polygon fill="#A80036" points="350,72.2969,356,67.2969,354,72.2969,356,77.2969,350,72.2969" style="stroke: #A80036; stroke-width: 1.0;"/><text fill="#000000" font-family="sans-serif" font-size="14" lengthAdjust="spacingAndGlyphs" textLength="55" x="323.5" y="265.1201">Sistema</text><ellipse cx="354" cy="284.4219" fill="#FEFECE" filter="url(#f1lzqhgg3k0nhb)" rx="12" ry="12" style="stroke: #A80036; stroke-width: 2.0;"/><polygon fill="#A80036" points="350,272.4219,356,267.4219,354,272.4219,356,277.4219,350,272.4219" style="stroke: #A80036; stroke-width: 1.0;"/><text fill="#000000" font-family="sans-serif" font-size="14" lengthAdjust="spacingAndGlyphs" textLength="56" x="518" y="113.292">Ranking</text><ellipse cx="549" cy="84.2969" fill="#FEFECE" filter="url(#f1lzqhgg3k0nhb)" rx="12" ry="12" style="stroke: #A80036; stroke-width: 2.0;"/><line style="stroke: #A80036; stroke-width: 2.0;" x1="537" x2="561" y1="98.2969" y2="98.2969"/><text fill="#000000" font-family="sans-serif" font-size="14" lengthAdjust="spacingAndGlyphs" textLength="56" x="518" y="265.1201">Ranking</text><ellipse cx="549" cy="284.4219" fill="#FEFECE" filter="url(#f1lzqhgg3k0nhb)" rx="12" ry="12" style="stroke: #A80036; stroke-width: 2.0;"/><line style="stroke: #A80036; stroke-width: 2.0;" x1="537" x2="561" y1="298.4219" y2="298.4219"/><rect fill="#FFFFFF" filter="url(#f1lzqhgg3k0nhb)" height="87.3984" style="stroke: #A80036; stroke-width: 1.0;" width="10" x="188" y="147.7266"/><rect fill="#FFFFFF" filter="url(#f1lzqhgg3k0nhb)" height="58.2656" style="stroke: #A80036; stroke-width: 1.0;" width="10" x="349" y="176.8594"/><rect fill="#FFFFFF" filter="url(#f1lzqhgg3k0nhb)" height="29.1328" style="stroke: #A80036; stroke-width: 1.0;" width="10" x="544" y="205.9922"/><polygon fill="#A80036" points="176,143.7266,186,147.7266,176,151.7266,180,147.7266" style="stroke: #A80036; stroke-width: 1.0;"/><line style="stroke: #A80036; stroke-width: 1.0;" x1="37" x2="182" y1="147.7266" y2="147.7266"/><text fill="#000000" font-family="sans-serif" font-size="13" font-weight="bold" lengthAdjust="spacingAndGlyphs" textLength="9" x="44" y="142.6606">1</text><text fill="#000000" font-family="sans-serif" font-size="13" lengthAdjust="spacingAndGlyphs" textLength="119" x="57" y="142.6606">consultarRanking()</text><polygon fill="#A80036" points="337,172.8594,347,176.8594,337,180.8594,341,176.8594" style="stroke: #A80036; stroke-width: 1.0;"/><line style="stroke: #A80036; stroke-width: 1.0;" x1="198" x2="343" y1="176.8594" y2="176.8594"/><text fill="#000000" font-family="sans-serif" font-size="13" font-weight="bold" lengthAdjust="spacingAndGlyphs" textLength="9" x="205" y="171.7935">2</text><text fill="#000000" font-family="sans-serif" font-size="13" lengthAdjust="spacingAndGlyphs" textLength="119" x="218" y="171.7935">consultarRanking()</text><polygon fill="#A80036" points="532,201.9922,542,205.9922,532,209.9922,536,205.9922" style="stroke: #A80036; stroke-width: 1.0;"/><line style="stroke: #A80036; stroke-width: 1.0;" x1="359" x2="538" y1="205.9922" y2="205.9922"/><text fill="#000000" font-family="sans-serif" font-size="13" font-weight="bold" lengthAdjust="spacingAndGlyphs" textLength="9" x="366" y="200.9263">3</text><text fill="#000000" font-family="sans-serif" font-size="13" lengthAdjust="spacingAndGlyphs" textLength="153" x="379" y="200.9263">recopilarDatosRanking()</text><polygon fill="#A80036" points="365,231.125,355,235.125,365,239.125,361,235.125" style="stroke: #A80036; stroke-width: 1.0;"/><line style="stroke: #A80036; stroke-width: 1.0;" x1="359" x2="548" y1="235.125" y2="235.125"/><text fill="#000000" font-family="sans-serif" font-size="13" font-weight="bold" lengthAdjust="spacingAndGlyphs" textLength="9" x="371" y="230.0591">4</text><text fill="#000000" font-family="sans-serif" font-size="13" lengthAdjust="spacingAndGlyphs" textLength="96" x="384" y="230.0591">datosRanking()</text><!--
@startuml
title Diagrama de secuencia - Consultar ranking
autonumber
actor Jugador
boundary InterfMenúUsuario
control Sistema
entity Ranking

Jugador -> InterfMenúUsuario : consultarRanking()
activate InterfMenúUsuario
InterfMenúUsuario -> Sistema : consultarRanking()
activate Sistema
Sistema -> Ranking : recopilarDatosRanking()
activate Ranking
Ranking -> Sistema : datosRanking()
deactivate Ranking
deactivate Sistema
deactivate InterfMenúUsuario
@enduml

PlantUML version 1.2019.05(Sat Apr 20 16:45:36 UTC 2019)
(GPL source distribution)
Java Runtime: Java(TM) SE Runtime Environment
JVM: Java HotSpot(TM) 64-Bit Server VM
Java Version: 1.7.0_25-b15
Operating System: Linux
Default Encoding: UTF-8
Language: en
Country: US
--></g></svg>