<?xml version="1.0" encoding="UTF-8" standalone="no"?><svg xmlns="http://www.w3.org/2000/svg" xmlns:xlink="http://www.w3.org/1999/xlink" contentScriptType="application/ecmascript" contentStyleType="text/css" height="499px" preserveAspectRatio="none" style="width:674px;height:499px;" version="1.1" viewBox="0 0 674 499" width="674px" zoomAndPan="magnify"><defs><filter height="300%" id="f136902idk53mf" width="300%" x="-1" y="-1"><feGaussianBlur result="blurOut" stdDeviation="2.0"/><feColorMatrix in="blurOut" result="blurOut2" type="matrix" values="0 0 0 0 0 0 0 0 0 0 0 0 0 0 0 0 0 0 .4 0"/><feOffset dx="4.0" dy="4.0" in="blurOut2" result="blurOut3"/><feBlend in="SourceGraphic" in2="blurOut3" mode="normal"/></filter></defs><g><text fill="#000000" font-family="sans-serif" font-size="14" font-weight="bold" lengthAdjust="spacingAndGlyphs" textLength="309" x="185" y="22.9951">Diagrama de secuencia - Borrar partida</text><rect fill="#FFFFFF" filter="url(#f136902idk53mf)" height="107.5313" style="stroke: #A80036; stroke-width: 1.0;" width="10" x="190" y="147.7266"/><rect fill="#FFFFFF" filter="url(#f136902idk53mf)" height="78.3984" style="stroke: #A80036; stroke-width: 1.0;" width="10" x="338" y="176.8594"/><rect fill="#FFFFFF" filter="url(#f136902idk53mf)" height="49.2656" style="stroke: #A80036; stroke-width: 1.0;" width="10" x="486" y="205.9922"/><rect fill="#FFFFFF" filter="url(#f136902idk53mf)" height="104.5313" style="stroke: #000000; stroke-width: 2.0;" width="514.5" x="13" y="290.3906"/><line style="stroke: #A80036; stroke-width: 1.0; stroke-dasharray: 5.0,5.0;" x1="52" x2="52" y1="116.5938" y2="411.9219"/><line style="stroke: #A80036; stroke-width: 1.0; stroke-dasharray: 5.0,5.0;" x1="195" x2="195" y1="116.5938" y2="411.9219"/><line style="stroke: #A80036; stroke-width: 1.0; stroke-dasharray: 5.0,5.0;" x1="342.5" x2="342.5" y1="116.5938" y2="411.9219"/><line style="stroke: #A80036; stroke-width: 1.0; stroke-dasharray: 5.0,5.0;" x1="490.5" x2="490.5" y1="116.5938" y2="411.9219"/><text fill="#000000" font-family="sans-serif" font-size="14" lengthAdjust="spacingAndGlyphs" textLength="52" x="23" y="113.292">Jugador</text><ellipse cx="52" cy="43.2969" fill="#FEFECE" filter="url(#f136902idk53mf)" rx="8" ry="8" style="stroke: #A80036; stroke-width: 2.0;"/><path d="M52,51.2969 L52,78.2969 M39,59.2969 L65,59.2969 M52,78.2969 L39,93.2969 M52,78.2969 L65,93.2969 " fill="none" filter="url(#f136902idk53mf)" style="stroke: #A80036; stroke-width: 2.0;"/><text fill="#000000" font-family="sans-serif" font-size="14" lengthAdjust="spacingAndGlyphs" textLength="52" x="23" y="423.917">Jugador</text><ellipse cx="52" cy="437.2188" fill="#FEFECE" filter="url(#f136902idk53mf)" rx="8" ry="8" style="stroke: #A80036; stroke-width: 2.0;"/><path d="M52,445.2188 L52,472.2188 M39,453.2188 L65,453.2188 M52,472.2188 L39,487.2188 M52,472.2188 L65,487.2188 " fill="none" filter="url(#f136902idk53mf)" style="stroke: #A80036; stroke-width: 2.0;"/><text fill="#000000" font-family="sans-serif" font-size="14" lengthAdjust="spacingAndGlyphs" textLength="126" x="129" y="113.292">InterfMenúUsuario</text><path d="M174.5,72.2969 L174.5,96.2969 M174.5,84.2969 L191.5,84.2969 " fill="none" filter="url(#f136902idk53mf)" style="stroke: #A80036; stroke-width: 2.0;"/><ellipse cx="203.5" cy="84.2969" fill="#FEFECE" filter="url(#f136902idk53mf)" rx="12" ry="12" style="stroke: #A80036; stroke-width: 2.0;"/><text fill="#000000" font-family="sans-serif" font-size="14" lengthAdjust="spacingAndGlyphs" textLength="126" x="129" y="423.917">InterfMenúUsuario</text><path d="M174.5,431.2188 L174.5,455.2188 M174.5,443.2188 L191.5,443.2188 " fill="none" filter="url(#f136902idk53mf)" style="stroke: #A80036; stroke-width: 2.0;"/><ellipse cx="203.5" cy="443.2188" fill="#FEFECE" filter="url(#f136902idk53mf)" rx="12" ry="12" style="stroke: #A80036; stroke-width: 2.0;"/><text fill="#000000" font-family="sans-serif" font-size="14" lengthAdjust="spacingAndGlyphs" textLength="55" x="312.5" y="113.292">Sistema</text><ellipse cx="343" cy="84.2969" fill="#FEFECE" filter="url(#f136902idk53mf)" rx="12" ry="12" style="stroke: #A80036; stroke-width: 2.0;"/><polygon fill="#A80036" points="339,72.2969,345,67.2969,343,72.2969,345,77.2969,339,72.2969" style="stroke: #A80036; stroke-width: 1.0;"/><text fill="#000000" font-family="sans-serif" font-size="14" lengthAdjust="spacingAndGlyphs" textLength="55" x="312.5" y="423.917">Sistema</text><ellipse cx="343" cy="443.2188" fill="#FEFECE" filter="url(#f136902idk53mf)" rx="12" ry="12" style="stroke: #A80036; stroke-width: 2.0;"/><polygon fill="#A80036" points="339,431.2188,345,426.2188,343,431.2188,345,436.2188,339,431.2188" style="stroke: #A80036; stroke-width: 1.0;"/><text fill="#000000" font-family="sans-serif" font-size="14" lengthAdjust="spacingAndGlyphs" textLength="47" x="464.5" y="113.292">Partida</text><ellipse cx="491" cy="84.2969" fill="#FEFECE" filter="url(#f136902idk53mf)" rx="12" ry="12" style="stroke: #A80036; stroke-width: 2.0;"/><line style="stroke: #A80036; stroke-width: 2.0;" x1="479" x2="503" y1="98.2969" y2="98.2969"/><text fill="#000000" font-family="sans-serif" font-size="14" lengthAdjust="spacingAndGlyphs" textLength="47" x="464.5" y="423.917">Partida</text><ellipse cx="491" cy="443.2188" fill="#FEFECE" filter="url(#f136902idk53mf)" rx="12" ry="12" style="stroke: #A80036; stroke-width: 2.0;"/><line style="stroke: #A80036; stroke-width: 2.0;" x1="479" x2="503" y1="457.2188" y2="457.2188"/><rect fill="#FFFFFF" filter="url(#f136902idk53mf)" height="107.5313" style="stroke: #A80036; stroke-width: 1.0;" width="10" x="190" y="147.7266"/><rect fill="#FFFFFF" filter="url(#f136902idk53mf)" height="78.3984" style="stroke: #A80036; stroke-width: 1.0;" width="10" x="338" y="176.8594"/><rect fill="#FFFFFF" filter="url(#f136902idk53mf)" height="49.2656" style="stroke: #A80036; stroke-width: 1.0;" width="10" x="486" y="205.9922"/><polygon fill="#A80036" points="178,143.7266,188,147.7266,178,151.7266,182,147.7266" style="stroke: #A80036; stroke-width: 1.0;"/><line style="stroke: #A80036; stroke-width: 1.0;" x1="52" x2="184" y1="147.7266" y2="147.7266"/><text fill="#000000" font-family="sans-serif" font-size="13" font-weight="bold" lengthAdjust="spacingAndGlyphs" textLength="9" x="59" y="142.6606">1</text><text fill="#000000" font-family="sans-serif" font-size="13" lengthAdjust="spacingAndGlyphs" textLength="106" x="72" y="142.6606">eliminarPartida()</text><polygon fill="#A80036" points="326,172.8594,336,176.8594,326,180.8594,330,176.8594" style="stroke: #A80036; stroke-width: 1.0;"/><line style="stroke: #A80036; stroke-width: 1.0;" x1="200" x2="332" y1="176.8594" y2="176.8594"/><text fill="#000000" font-family="sans-serif" font-size="13" font-weight="bold" lengthAdjust="spacingAndGlyphs" textLength="9" x="207" y="171.7935">2</text><text fill="#000000" font-family="sans-serif" font-size="13" lengthAdjust="spacingAndGlyphs" textLength="106" x="220" y="171.7935">eliminarPartida()</text><polygon fill="#A80036" points="474,201.9922,484,205.9922,474,209.9922,478,205.9922" style="stroke: #A80036; stroke-width: 1.0;"/><line style="stroke: #A80036; stroke-width: 1.0;" x1="348" x2="480" y1="205.9922" y2="205.9922"/><text fill="#000000" font-family="sans-serif" font-size="13" font-weight="bold" lengthAdjust="spacingAndGlyphs" textLength="9" x="355" y="200.9263">3</text><text fill="#000000" font-family="sans-serif" font-size="13" lengthAdjust="spacingAndGlyphs" textLength="106" x="368" y="200.9263">eliminarPartida()</text><polygon fill="#FF0000" points="354,251.2578,344,255.2578,354,259.2578,350,255.2578" style="stroke: #FF0000; stroke-width: 1.0;"/><line style="stroke: #FF0000; stroke-width: 1.0;" x1="348" x2="490" y1="255.2578" y2="255.2578"/><text fill="#000000" font-family="sans-serif" font-size="13" font-weight="bold" lengthAdjust="spacingAndGlyphs" textLength="9" x="360" y="250.1919">4</text><text fill="#000000" font-family="sans-serif" font-size="13" lengthAdjust="spacingAndGlyphs" textLength="92" x="373" y="250.1919">confirmacion()</text><path d="M501,218.9922 L501,273.9922 L662,273.9922 L662,228.9922 L652,218.9922 L501,218.9922 " fill="#FBFB77" filter="url(#f136902idk53mf)" style="stroke: #A80036; stroke-width: 1.0;"/><path d="M652,218.9922 L652,228.9922 L662,228.9922 L652,218.9922 " fill="#FBFB77" style="stroke: #A80036; stroke-width: 1.0;"/><text fill="#000000" font-family="sans-serif" font-size="13" lengthAdjust="spacingAndGlyphs" textLength="110" x="507" y="236.0591">Elimina la partida</text><text fill="#000000" font-family="sans-serif" font-size="13" lengthAdjust="spacingAndGlyphs" textLength="140" x="507" y="251.1919">empezada y devuelve</text><text fill="#000000" font-family="sans-serif" font-size="13" lengthAdjust="spacingAndGlyphs" textLength="97" x="507" y="266.3247">la confirmación</text><path d="M13,290.3906 L77,290.3906 L77,297.3906 L67,307.3906 L13,307.3906 L13,290.3906 " fill="#EEEEEE" style="stroke: #000000; stroke-width: 1.0;"/><rect fill="none" height="104.5313" style="stroke: #000000; stroke-width: 2.0;" width="514.5" x="13" y="290.3906"/><text fill="#000000" font-family="sans-serif" font-size="13" font-weight="bold" lengthAdjust="spacingAndGlyphs" textLength="19" x="28" y="303.4575">alt</text><text fill="#000000" font-family="sans-serif" font-size="11" font-weight="bold" lengthAdjust="spacingAndGlyphs" textLength="112" x="92" y="302.6011">[NoExistePartida]</text><polygon fill="#008000" points="354,324.6563,344,328.6563,354,332.6563,350,328.6563" style="stroke: #008000; stroke-width: 1.0;"/><line style="stroke: #008000; stroke-width: 1.0;" x1="348" x2="490" y1="328.6563" y2="328.6563"/><text fill="#000000" font-family="sans-serif" font-size="13" font-weight="bold" lengthAdjust="spacingAndGlyphs" textLength="9" x="360" y="323.5903">5</text><text fill="#000000" font-family="sans-serif" font-size="13" lengthAdjust="spacingAndGlyphs" textLength="92" x="373" y="323.5903">confirmacion()</text><polygon fill="#008000" points="206,353.7891,196,357.7891,206,361.7891,202,357.7891" style="stroke: #008000; stroke-width: 1.0;"/><line style="stroke: #008000; stroke-width: 1.0;" x1="200" x2="342" y1="357.7891" y2="357.7891"/><text fill="#000000" font-family="sans-serif" font-size="13" font-weight="bold" lengthAdjust="spacingAndGlyphs" textLength="9" x="212" y="352.7231">6</text><text fill="#000000" font-family="sans-serif" font-size="13" lengthAdjust="spacingAndGlyphs" textLength="41" x="225" y="352.7231">error()</text><polygon fill="#008000" points="63,382.9219,53,386.9219,63,390.9219,59,386.9219" style="stroke: #008000; stroke-width: 1.0;"/><line style="stroke: #008000; stroke-width: 1.0;" x1="57" x2="194" y1="386.9219" y2="386.9219"/><text fill="#000000" font-family="sans-serif" font-size="13" font-weight="bold" lengthAdjust="spacingAndGlyphs" textLength="9" x="69" y="381.856">7</text><text fill="#000000" font-family="sans-serif" font-size="13" lengthAdjust="spacingAndGlyphs" textLength="41" x="82" y="381.856">error()</text><!--
@startuml
title Diagrama de secuencia - Borrar partida
autonumber
actor Jugador
boundary InterfMenúUsuario
control Sistema
entity Partida

Jugador -> InterfMenúUsuario : eliminarPartida()
activate InterfMenúUsuario
InterfMenúUsuario -> Sistema : eliminarPartida()
activate Sistema
Sistema -> Partida : eliminarPartida()
activate Partida
Partida -[#red]> Sistema : confirmacion()
note right 
Elimina la partida
empezada y devuelve
la confirmación
end note


deactivate Partida
deactivate Sistema
deactivate InterfMenúUsuario
alt NoExistePartida
Partida -[#green]> Sistema : confirmacion()
Sistema -[#green]> InterfMenúUsuario : error()
InterfMenúUsuario -[#green]> Jugador : error()
end
@enduml

PlantUML version 1.2019.05(Sat Apr 20 16:45:36 UTC 2019)
(GPL source distribution)
Java Runtime: Java(TM) SE Runtime Environment
JVM: Java HotSpot(TM) 64-Bit Server VM
Java Version: 1.7.0_25-b15
Operating System: Linux
Default Encoding: UTF-8
Language: en
Country: US
--></g></svg>