<?xml version="1.0" encoding="UTF-8" standalone="no"?><svg xmlns="http://www.w3.org/2000/svg" xmlns:xlink="http://www.w3.org/1999/xlink" contentScriptType="application/ecmascript" contentStyleType="text/css" height="365px" preserveAspectRatio="none" style="width:590px;height:365px;" version="1.1" viewBox="0 0 590 365" width="590px" zoomAndPan="magnify"><defs><filter height="300%" id="f2p5v8n01e7i0" width="300%" x="-1" y="-1"><feGaussianBlur result="blurOut" stdDeviation="2.0"/><feColorMatrix in="blurOut" result="blurOut2" type="matrix" values="0 0 0 0 0 0 0 0 0 0 0 0 0 0 0 0 0 0 .4 0"/><feOffset dx="4.0" dy="4.0" in="blurOut2" result="blurOut3"/><feBlend in="SourceGraphic" in2="blurOut3" mode="normal"/></filter></defs><g><text fill="#000000" font-family="sans-serif" font-size="14" font-weight="bold" lengthAdjust="spacingAndGlyphs" textLength="378" x="103.75" y="22.9951">Diagrama de secuencia - Ver jugadores en línea</text><rect fill="#FFFFFF" filter="url(#f2p5v8n01e7i0)" height="112.5313" style="stroke: #A80036; stroke-width: 1.0;" width="10" x="180" y="147.7266"/><rect fill="#FFFFFF" filter="url(#f2p5v8n01e7i0)" height="83.3984" style="stroke: #A80036; stroke-width: 1.0;" width="10" x="286.5" y="176.8594"/><rect fill="#FFFFFF" filter="url(#f2p5v8n01e7i0)" height="41.6992" style="stroke: #A80036; stroke-width: 1.0;" width="10" x="425.5" y="218.5586"/><line style="stroke: #A80036; stroke-width: 1.0; stroke-dasharray: 5.0,5.0;" x1="58" x2="58" y1="116.5938" y2="278.2578"/><line style="stroke: #A80036; stroke-width: 1.0; stroke-dasharray: 5.0,5.0;" x1="185" x2="185" y1="116.5938" y2="278.2578"/><line style="stroke: #A80036; stroke-width: 1.0; stroke-dasharray: 5.0,5.0;" x1="291" x2="291" y1="116.5938" y2="278.2578"/><line style="stroke: #A80036; stroke-width: 1.0; stroke-dasharray: 5.0,5.0;" x1="430" x2="430" y1="116.5938" y2="278.2578"/><text fill="#000000" font-family="sans-serif" font-size="14" lengthAdjust="spacingAndGlyphs" textLength="95" x="8" y="113.292">Administrador</text><ellipse cx="58.5" cy="43.2969" fill="#FEFECE" filter="url(#f2p5v8n01e7i0)" rx="8" ry="8" style="stroke: #A80036; stroke-width: 2.0;"/><path d="M58.5,51.2969 L58.5,78.2969 M45.5,59.2969 L71.5,59.2969 M58.5,78.2969 L45.5,93.2969 M58.5,78.2969 L71.5,93.2969 " fill="none" filter="url(#f2p5v8n01e7i0)" style="stroke: #A80036; stroke-width: 2.0;"/><text fill="#000000" font-family="sans-serif" font-size="14" lengthAdjust="spacingAndGlyphs" textLength="95" x="8" y="290.2529">Administrador</text><ellipse cx="58.5" cy="303.5547" fill="#FEFECE" filter="url(#f2p5v8n01e7i0)" rx="8" ry="8" style="stroke: #A80036; stroke-width: 2.0;"/><path d="M58.5,311.5547 L58.5,338.5547 M45.5,319.5547 L71.5,319.5547 M58.5,338.5547 L45.5,353.5547 M58.5,338.5547 L71.5,353.5547 " fill="none" filter="url(#f2p5v8n01e7i0)" style="stroke: #A80036; stroke-width: 2.0;"/><text fill="#000000" font-family="sans-serif" font-size="14" lengthAdjust="spacingAndGlyphs" textLength="126" x="119" y="113.292">InterfMenúUsuario</text><path d="M164.5,72.2969 L164.5,96.2969 M164.5,84.2969 L181.5,84.2969 " fill="none" filter="url(#f2p5v8n01e7i0)" style="stroke: #A80036; stroke-width: 2.0;"/><ellipse cx="193.5" cy="84.2969" fill="#FEFECE" filter="url(#f2p5v8n01e7i0)" rx="12" ry="12" style="stroke: #A80036; stroke-width: 2.0;"/><text fill="#000000" font-family="sans-serif" font-size="14" lengthAdjust="spacingAndGlyphs" textLength="126" x="119" y="290.2529">InterfMenúUsuario</text><path d="M164.5,297.5547 L164.5,321.5547 M164.5,309.5547 L181.5,309.5547 " fill="none" filter="url(#f2p5v8n01e7i0)" style="stroke: #A80036; stroke-width: 2.0;"/><ellipse cx="193.5" cy="309.5547" fill="#FEFECE" filter="url(#f2p5v8n01e7i0)" rx="12" ry="12" style="stroke: #A80036; stroke-width: 2.0;"/><text fill="#000000" font-family="sans-serif" font-size="14" lengthAdjust="spacingAndGlyphs" textLength="55" x="261" y="113.292">Sistema</text><ellipse cx="291.5" cy="84.2969" fill="#FEFECE" filter="url(#f2p5v8n01e7i0)" rx="12" ry="12" style="stroke: #A80036; stroke-width: 2.0;"/><polygon fill="#A80036" points="287.5,72.2969,293.5,67.2969,291.5,72.2969,293.5,77.2969,287.5,72.2969" style="stroke: #A80036; stroke-width: 1.0;"/><text fill="#000000" font-family="sans-serif" font-size="14" lengthAdjust="spacingAndGlyphs" textLength="55" x="261" y="290.2529">Sistema</text><ellipse cx="291.5" cy="309.5547" fill="#FEFECE" filter="url(#f2p5v8n01e7i0)" rx="12" ry="12" style="stroke: #A80036; stroke-width: 2.0;"/><polygon fill="#A80036" points="287.5,297.5547,293.5,292.5547,291.5,297.5547,293.5,302.5547,287.5,297.5547" style="stroke: #A80036; stroke-width: 1.0;"/><text fill="#000000" font-family="sans-serif" font-size="14" lengthAdjust="spacingAndGlyphs" textLength="69" x="393" y="113.292">Jugadores</text><ellipse cx="430.5" cy="84.2969" fill="#FEFECE" filter="url(#f2p5v8n01e7i0)" rx="12" ry="12" style="stroke: #A80036; stroke-width: 2.0;"/><line style="stroke: #A80036; stroke-width: 2.0;" x1="418.5" x2="442.5" y1="98.2969" y2="98.2969"/><text fill="#000000" font-family="sans-serif" font-size="14" lengthAdjust="spacingAndGlyphs" textLength="69" x="393" y="290.2529">Jugadores</text><ellipse cx="430.5" cy="309.5547" fill="#FEFECE" filter="url(#f2p5v8n01e7i0)" rx="12" ry="12" style="stroke: #A80036; stroke-width: 2.0;"/><line style="stroke: #A80036; stroke-width: 2.0;" x1="418.5" x2="442.5" y1="323.5547" y2="323.5547"/><rect fill="#FFFFFF" filter="url(#f2p5v8n01e7i0)" height="112.5313" style="stroke: #A80036; stroke-width: 1.0;" width="10" x="180" y="147.7266"/><rect fill="#FFFFFF" filter="url(#f2p5v8n01e7i0)" height="83.3984" style="stroke: #A80036; stroke-width: 1.0;" width="10" x="286.5" y="176.8594"/><rect fill="#FFFFFF" filter="url(#f2p5v8n01e7i0)" height="41.6992" style="stroke: #A80036; stroke-width: 1.0;" width="10" x="425.5" y="218.5586"/><polygon fill="#A80036" points="168,143.7266,178,147.7266,168,151.7266,172,147.7266" style="stroke: #A80036; stroke-width: 1.0;"/><line style="stroke: #A80036; stroke-width: 1.0;" x1="58.5" x2="174" y1="147.7266" y2="147.7266"/><text fill="#000000" font-family="sans-serif" font-size="13" font-weight="bold" lengthAdjust="spacingAndGlyphs" textLength="9" x="65.5" y="142.6606">1</text><text fill="#000000" font-family="sans-serif" font-size="13" lengthAdjust="spacingAndGlyphs" textLength="60" x="78.5" y="142.6606">enLinea()</text><polygon fill="#A80036" points="274.5,172.8594,284.5,176.8594,274.5,180.8594,278.5,176.8594" style="stroke: #A80036; stroke-width: 1.0;"/><line style="stroke: #A80036; stroke-width: 1.0;" x1="190" x2="280.5" y1="176.8594" y2="176.8594"/><text fill="#000000" font-family="sans-serif" font-size="13" font-weight="bold" lengthAdjust="spacingAndGlyphs" textLength="9" x="197" y="171.7935">2</text><text fill="#000000" font-family="sans-serif" font-size="13" lengthAdjust="spacingAndGlyphs" textLength="60" x="210" y="171.7935">enLinea()</text><polygon fill="#A80036" points="413.5,214.5586,423.5,218.5586,413.5,222.5586,417.5,218.5586" style="stroke: #A80036; stroke-width: 1.0;"/><line style="stroke: #A80036; stroke-width: 1.0;" x1="296.5" x2="419.5" y1="218.5586" y2="218.5586"/><text fill="#000000" font-family="sans-serif" font-size="13" font-weight="bold" lengthAdjust="spacingAndGlyphs" textLength="9" x="303.5" y="213.4927">3</text><text fill="#000000" font-family="sans-serif" font-size="13" lengthAdjust="spacingAndGlyphs" textLength="60" x="316.5" y="213.4927">enLinea()</text><path d="M440,189.8594 L440,229.8594 L578,229.8594 L578,199.8594 L568,189.8594 L440,189.8594 " fill="#FBFB77" filter="url(#f2p5v8n01e7i0)" style="stroke: #A80036; stroke-width: 1.0;"/><path d="M568,189.8594 L568,199.8594 L578,199.8594 L568,189.8594 " fill="#FBFB77" style="stroke: #A80036; stroke-width: 1.0;"/><text fill="#000000" font-family="sans-serif" font-size="13" lengthAdjust="spacingAndGlyphs" textLength="92" x="446" y="206.9263">Contabiliza los</text><text fill="#000000" font-family="sans-serif" font-size="13" lengthAdjust="spacingAndGlyphs" textLength="117" x="446" y="222.0591">jugadores en línea</text><polygon fill="#FF0000" points="302.5,256.2578,292.5,260.2578,302.5,264.2578,298.5,260.2578" style="stroke: #FF0000; stroke-width: 1.0;"/><line style="stroke: #FF0000; stroke-width: 1.0;" x1="296.5" x2="429.5" y1="260.2578" y2="260.2578"/><text fill="#000000" font-family="sans-serif" font-size="13" font-weight="bold" lengthAdjust="spacingAndGlyphs" textLength="9" x="308.5" y="255.1919">4</text><text fill="#000000" font-family="sans-serif" font-size="13" lengthAdjust="spacingAndGlyphs" textLength="92" x="321.5" y="255.1919">confirmacion()</text><!--
@startuml
title Diagrama de secuencia - Ver jugadores en línea
autonumber
actor Administrador
boundary InterfMenúUsuario
control Sistema
entity Jugadores

Administrador -> InterfMenúUsuario : enLinea()
activate InterfMenúUsuario
InterfMenúUsuario -> Sistema : enLinea()
activate Sistema
Sistema -> Jugadores : enLinea()
note right 
Contabiliza los
jugadores en línea
end note
activate Jugadores
Jugadores -[#red]> Sistema : confirmacion()

deactivate Jugadores
deactivate Sistema
deactivate InterfMenúUsuario
@enduml

PlantUML version 1.2019.05(Sat Apr 20 16:45:36 UTC 2019)
(GPL source distribution)
Java Runtime: Java(TM) SE Runtime Environment
JVM: Java HotSpot(TM) 64-Bit Server VM
Java Version: 1.7.0_25-b15
Operating System: Linux
Default Encoding: UTF-8
Language: en
Country: US
--></g></svg>