<?xml version="1.0" encoding="UTF-8" standalone="no"?>
<svg xmlns="http://www.w3.org/2000/svg" xmlns:xlink="http://www.w3.org/1999/xlink" contentScriptType="application/ecmascript" contentStyleType="text/css" height="308px" preserveAspectRatio="none" style="width:1072px;height:308px;" version="1.1" viewBox="0 0 1072 308" width="1072px" zoomAndPan="magnify"><defs><filter height="300%" id="fgc68qqjvhxh2" width="300%" x="-1" y="-1"><feGaussianBlur result="blurOut" stdDeviation="2.0"/><feColorMatrix in="blurOut" result="blurOut2" type="matrix" values="0 0 0 0 0 0 0 0 0 0 0 0 0 0 0 0 0 0 .4 0"/><feOffset dx="4.0" dy="4.0" in="blurOut2" result="blurOut3"/><feBlend in="SourceGraphic" in2="blurOut3" mode="normal"/></filter></defs><g><!--entity Administrador--><ellipse cx="547" cy="18" fill="#FEFECE" filter="url(#fgc68qqjvhxh2)" rx="8" ry="8" style="stroke: #A80036; stroke-width: 2.0;"/><path d="M547,26 L547,53 M534,34 L560,34 M547,53 L534,68 M547,53 L560,68 " fill="none" filter="url(#fgc68qqjvhxh2)" style="stroke: #A80036; stroke-width: 2.0;"/><text fill="#000000" font-family="sans-serif" font-size="14" lengthAdjust="spacingAndGlyphs" textLength="95" x="499.5" y="87.9951">Administrador</text><ellipse cx="64.8614" cy="170.5236" fill="#FEFECE" filter="url(#fgc68qqjvhxh2)" rx="58.8614" ry="14.5236" style="stroke: #A80036; stroke-width: 1.5;"/><text fill="#000000" font-family="sans-serif" font-size="14" lengthAdjust="spacingAndGlyphs" textLength="79" x="25.3614" y="175.1721">Crear mapa</text><ellipse cx="222.8339" cy="170.5668" fill="#FEFECE" filter="url(#fgc68qqjvhxh2)" rx="63.3339" ry="15.0668" style="stroke: #A80036; stroke-width: 1.5;"/><text fill="#000000" font-family="sans-serif" font-size="14" lengthAdjust="spacingAndGlyphs" textLength="89" x="178.3339" y="175.2152">Crear cuenta</text><ellipse cx="390.1672" cy="170.6334" fill="#FEFECE" filter="url(#fgc68qqjvhxh2)" rx="68.6672" ry="16.1334" style="stroke: #A80036; stroke-width: 1.5;"/><text fill="#000000" font-family="sans-serif" font-size="14" lengthAdjust="spacingAndGlyphs" textLength="103" x="338.6672" y="175.2819">Modificar mapa</text><ellipse cx="343.7599" cy="273.352" fill="#FEFECE" filter="url(#fgc68qqjvhxh2)" rx="97.2599" ry="21.852" style="stroke: #A80036; stroke-width: 1.5;"/><text fill="#000000" font-family="sans-serif" font-size="14" lengthAdjust="spacingAndGlyphs" textLength="170" x="258.7599" y="278.0004">Borrar partida de usuario</text><ellipse cx="582.8679" cy="273.6736" fill="#FEFECE" filter="url(#fgc68qqjvhxh2)" rx="106.3679" ry="23.6736" style="stroke: #A80036; stroke-width: 1.5;"/><text fill="#000000" font-family="sans-serif" font-size="14" lengthAdjust="spacingAndGlyphs" textLength="190" x="487.8679" y="278.322">Modificar cuenta de usuario</text><ellipse cx="827.2042" cy="273.4408" fill="#FEFECE" filter="url(#fgc68qqjvhxh2)" rx="102.7042" ry="22.9408" style="stroke: #A80036; stroke-width: 1.5;"/><text fill="#000000" font-family="sans-serif" font-size="14" lengthAdjust="spacingAndGlyphs" textLength="182" x="736.2042" y="278.0893">Eliminar cuenta de usuario</text><ellipse cx="780.8797" cy="170.6759" fill="#FEFECE" filter="url(#fgc68qqjvhxh2)" rx="73.8797" ry="17.1759" style="stroke: #A80036; stroke-width: 1.5;"/><text fill="#000000" font-family="sans-serif" font-size="14" lengthAdjust="spacingAndGlyphs" textLength="116" x="722.8797" y="175.3244">Modificar ranking</text><ellipse cx="976.228" cy="170.5456" fill="#FEFECE" filter="url(#fgc68qqjvhxh2)" rx="85.728" ry="19.5456" style="stroke: #A80036; stroke-width: 1.5;"/><text fill="#000000" font-family="sans-serif" font-size="14" lengthAdjust="spacingAndGlyphs" textLength="144" x="904.228" y="175.194">Ver usuarios en línea</text><!--link Administrador to Crear mapa--><path d="M499.465,62.236 C406.227,85.255 200.543,136.036 109.666,158.473 " fill="none" id="Administrador-Crear mapa" style="stroke: #A80036; stroke-width: 1.0;"/><polygon fill="#A80036" points="104.6361,159.714,114.3325,161.44,109.4903,158.5154,112.4149,153.6732,104.6361,159.714" style="stroke: #A80036; stroke-width: 1.0;"/><!--link Administrador to Crear cuenta--><path d="M499.193,68.059 C434.303,91.892 319.678,133.992 260.574,155.7 " fill="none" id="Administrador-Crear cuenta" style="stroke: #A80036; stroke-width: 1.0;"/><polygon fill="#A80036" points="255.723,157.481,265.5503,158.1316,260.4162,155.7566,262.7913,150.6225,255.723,157.481" style="stroke: #A80036; stroke-width: 1.0;"/><!--link Administrador to Modificar mapa--><path d="M499.469,86.527 C470.921,108.165 435.865,134.736 413.239,151.886 " fill="none" id="Administrador-Modificar mapa" style="stroke: #A80036; stroke-width: 1.0;"/><polygon fill="#A80036" points="409.163,154.975,418.7521,152.7279,413.1482,151.9554,413.9207,146.3515,409.163,154.975" style="stroke: #A80036; stroke-width: 1.0;"/><!--link Administrador to Borrar partida de usuario--><path d="M533.053,91.294 C521.324,121.173 502.246,161.342 476,190 C452.19,215.9986 418.369,236.9235 390.923,251.1944 " fill="none" id="Administrador-Borrar partida de usuario" style="stroke: #A80036; stroke-width: 1.0;"/><polygon fill="#A80036" points="386.227,253.6041,396.0606,253.0563,390.676,251.3224,392.4099,245.9379,386.227,253.6041" style="stroke: #A80036; stroke-width: 1.0;"/><!--link Administrador to Modificar cuenta de usuario--><path d="M553.603,91.218 C560.849,135.902 572.281,206.3997 578.54,244.9946 " fill="none" id="Administrador-Modificar cuenta de usuario" style="stroke: #A80036; stroke-width: 1.0;"/><polygon fill="#A80036" points="579.351,249.995,581.8587,240.4707,578.5506,245.0595,573.9619,241.7514,579.351,249.995" style="stroke: #A80036; stroke-width: 1.0;"/><!--link Administrador to Eliminar cuenta de usuario--><path d="M583.918,91.256 C611.564,120.551 651.156,160.007 690,190 C719.517,212.7909 755.773,234.3767 783.572,249.7482 " fill="none" id="Administrador-Eliminar cuenta de usuario" style="stroke: #A80036; stroke-width: 1.0;"/><polygon fill="#A80036" points="787.959,252.1611,782.0014,244.3185,783.5781,249.7512,778.1454,251.3279,787.959,252.1611" style="stroke: #A80036; stroke-width: 1.0;"/><!--link Administrador to Modificar ranking--><path d="M594.635,74.725 C639.964,97.777 707.032,131.884 747.138,152.279 " fill="none" id="Administrador-Modificar ranking" style="stroke: #A80036; stroke-width: 1.0;"/><polygon fill="#A80036" points="751.892,154.697,745.6827,147.0521,747.4351,152.4307,742.0566,154.1832,751.892,154.697" style="stroke: #A80036; stroke-width: 1.0;"/><!--link Administrador to Ver usuarios en línea--><path d="M594.55,63.69 C673.904,85.702 833.04,129.844 918.54,153.561 " fill="none" id="Administrador-Ver usuarios en línea" style="stroke: #A80036; stroke-width: 1.0;"/><polygon fill="#A80036" points="923.561,154.954,915.9566,148.6952,918.7427,153.6184,913.8195,156.4045,923.561,154.954" style="stroke: #A80036; stroke-width: 1.0;"/><!--
@startuml
:Administrador: - -> (Crear mapa)
:Administrador: - -> (Crear cuenta)
:Administrador: - -> (Modificar mapa)
:Administrador: - - -> (Borrar partida de usuario)
:Administrador: - - -> (Modificar cuenta de usuario)
:Administrador: - - -> (Eliminar cuenta de usuario)
:Administrador: - -> (Modificar ranking)
:Administrador: - -> (Ver usuarios en línea)
@enduml

PlantUML version 1.2019.05beta2(Unknown compile time)
(GPL source distribution)
Java Runtime: Java(TM) SE Runtime Environment
JVM: Java HotSpot(TM) 64-Bit Server VM
Java Version: 1.7.0_25-b15
Operating System: Linux
Default Encoding: UTF-8
Language: en
Country: US
--></g></svg>