<?xml version="1.0" encoding="UTF-8" standalone="no"?><svg xmlns="http://www.w3.org/2000/svg" xmlns:xlink="http://www.w3.org/1999/xlink" contentScriptType="application/ecmascript" contentStyleType="text/css" height="514px" preserveAspectRatio="none" style="width:699px;height:514px;" version="1.1" viewBox="0 0 699 514" width="699px" zoomAndPan="magnify"><defs><filter height="300%" id="f1u4cn6gvb8hzr" width="300%" x="-1" y="-1"><feGaussianBlur result="blurOut" stdDeviation="2.0"/><feColorMatrix in="blurOut" result="blurOut2" type="matrix" values="0 0 0 0 0 0 0 0 0 0 0 0 0 0 0 0 0 0 .4 0"/><feOffset dx="4.0" dy="4.0" in="blurOut2" result="blurOut3"/><feBlend in="SourceGraphic" in2="blurOut3" mode="normal"/></filter></defs><g><text fill="#000000" font-family="sans-serif" font-size="14" font-weight="bold" lengthAdjust="spacingAndGlyphs" textLength="318" x="193.25" y="22.9951">Diagrama de secuencia - Modificar mapa</text><rect fill="#FFFFFF" filter="url(#f1u4cn6gvb8hzr)" height="115.0977" style="stroke: #A80036; stroke-width: 1.0;" width="10" x="209.5" y="147.7266"/><rect fill="#FFFFFF" filter="url(#f1u4cn6gvb8hzr)" height="85.9648" style="stroke: #A80036; stroke-width: 1.0;" width="10" x="355.5" y="176.8594"/><rect fill="#FFFFFF" filter="url(#f1u4cn6gvb8hzr)" height="56.832" style="stroke: #A80036; stroke-width: 1.0;" width="10" x="494.5" y="205.9922"/><rect fill="#FFFFFF" filter="url(#f1u4cn6gvb8hzr)" height="104.5313" style="stroke: #000000; stroke-width: 2.0;" width="518" x="13" y="305.5234"/><line style="stroke: #A80036; stroke-width: 1.0; stroke-dasharray: 5.0,5.0;" x1="73" x2="73" y1="116.5938" y2="427.0547"/><line style="stroke: #A80036; stroke-width: 1.0; stroke-dasharray: 5.0,5.0;" x1="214.5" x2="214.5" y1="116.5938" y2="427.0547"/><line style="stroke: #A80036; stroke-width: 1.0; stroke-dasharray: 5.0,5.0;" x1="360" x2="360" y1="116.5938" y2="427.0547"/><line style="stroke: #A80036; stroke-width: 1.0; stroke-dasharray: 5.0,5.0;" x1="499" x2="499" y1="116.5938" y2="427.0547"/><text fill="#000000" font-family="sans-serif" font-size="14" lengthAdjust="spacingAndGlyphs" textLength="95" x="23" y="113.292">Administrador</text><ellipse cx="73.5" cy="43.2969" fill="#FEFECE" filter="url(#f1u4cn6gvb8hzr)" rx="8" ry="8" style="stroke: #A80036; stroke-width: 2.0;"/><path d="M73.5,51.2969 L73.5,78.2969 M60.5,59.2969 L86.5,59.2969 M73.5,78.2969 L60.5,93.2969 M73.5,78.2969 L86.5,93.2969 " fill="none" filter="url(#f1u4cn6gvb8hzr)" style="stroke: #A80036; stroke-width: 2.0;"/><text fill="#000000" font-family="sans-serif" font-size="14" lengthAdjust="spacingAndGlyphs" textLength="95" x="23" y="439.0498">Administrador</text><ellipse cx="73.5" cy="452.3516" fill="#FEFECE" filter="url(#f1u4cn6gvb8hzr)" rx="8" ry="8" style="stroke: #A80036; stroke-width: 2.0;"/><path d="M73.5,460.3516 L73.5,487.3516 M60.5,468.3516 L86.5,468.3516 M73.5,487.3516 L60.5,502.3516 M73.5,487.3516 L86.5,502.3516 " fill="none" filter="url(#f1u4cn6gvb8hzr)" style="stroke: #A80036; stroke-width: 2.0;"/><text fill="#000000" font-family="sans-serif" font-size="14" lengthAdjust="spacingAndGlyphs" textLength="126" x="148.5" y="113.292">InterfMenúUsuario</text><path d="M194,72.2969 L194,96.2969 M194,84.2969 L211,84.2969 " fill="none" filter="url(#f1u4cn6gvb8hzr)" style="stroke: #A80036; stroke-width: 2.0;"/><ellipse cx="223" cy="84.2969" fill="#FEFECE" filter="url(#f1u4cn6gvb8hzr)" rx="12" ry="12" style="stroke: #A80036; stroke-width: 2.0;"/><text fill="#000000" font-family="sans-serif" font-size="14" lengthAdjust="spacingAndGlyphs" textLength="126" x="148.5" y="439.0498">InterfMenúUsuario</text><path d="M194,446.3516 L194,470.3516 M194,458.3516 L211,458.3516 " fill="none" filter="url(#f1u4cn6gvb8hzr)" style="stroke: #A80036; stroke-width: 2.0;"/><ellipse cx="223" cy="458.3516" fill="#FEFECE" filter="url(#f1u4cn6gvb8hzr)" rx="12" ry="12" style="stroke: #A80036; stroke-width: 2.0;"/><text fill="#000000" font-family="sans-serif" font-size="14" lengthAdjust="spacingAndGlyphs" textLength="55" x="330" y="113.292">Sistema</text><ellipse cx="360.5" cy="84.2969" fill="#FEFECE" filter="url(#f1u4cn6gvb8hzr)" rx="12" ry="12" style="stroke: #A80036; stroke-width: 2.0;"/><polygon fill="#A80036" points="356.5,72.2969,362.5,67.2969,360.5,72.2969,362.5,77.2969,356.5,72.2969" style="stroke: #A80036; stroke-width: 1.0;"/><text fill="#000000" font-family="sans-serif" font-size="14" lengthAdjust="spacingAndGlyphs" textLength="55" x="330" y="439.0498">Sistema</text><ellipse cx="360.5" cy="458.3516" fill="#FEFECE" filter="url(#f1u4cn6gvb8hzr)" rx="12" ry="12" style="stroke: #A80036; stroke-width: 2.0;"/><polygon fill="#A80036" points="356.5,446.3516,362.5,441.3516,360.5,446.3516,362.5,451.3516,356.5,446.3516" style="stroke: #A80036; stroke-width: 1.0;"/><text fill="#000000" font-family="sans-serif" font-size="14" lengthAdjust="spacingAndGlyphs" textLength="37" x="478" y="113.292">Mapa</text><ellipse cx="499.5" cy="84.2969" fill="#FEFECE" filter="url(#f1u4cn6gvb8hzr)" rx="12" ry="12" style="stroke: #A80036; stroke-width: 2.0;"/><line style="stroke: #A80036; stroke-width: 2.0;" x1="487.5" x2="511.5" y1="98.2969" y2="98.2969"/><text fill="#000000" font-family="sans-serif" font-size="14" lengthAdjust="spacingAndGlyphs" textLength="37" x="478" y="439.0498">Mapa</text><ellipse cx="499.5" cy="458.3516" fill="#FEFECE" filter="url(#f1u4cn6gvb8hzr)" rx="12" ry="12" style="stroke: #A80036; stroke-width: 2.0;"/><line style="stroke: #A80036; stroke-width: 2.0;" x1="487.5" x2="511.5" y1="472.3516" y2="472.3516"/><rect fill="#FFFFFF" filter="url(#f1u4cn6gvb8hzr)" height="115.0977" style="stroke: #A80036; stroke-width: 1.0;" width="10" x="209.5" y="147.7266"/><rect fill="#FFFFFF" filter="url(#f1u4cn6gvb8hzr)" height="85.9648" style="stroke: #A80036; stroke-width: 1.0;" width="10" x="355.5" y="176.8594"/><rect fill="#FFFFFF" filter="url(#f1u4cn6gvb8hzr)" height="56.832" style="stroke: #A80036; stroke-width: 1.0;" width="10" x="494.5" y="205.9922"/><polygon fill="#A80036" points="197.5,143.7266,207.5,147.7266,197.5,151.7266,201.5,147.7266" style="stroke: #A80036; stroke-width: 1.0;"/><line style="stroke: #A80036; stroke-width: 1.0;" x1="73.5" x2="203.5" y1="147.7266" y2="147.7266"/><text fill="#000000" font-family="sans-serif" font-size="13" font-weight="bold" lengthAdjust="spacingAndGlyphs" textLength="9" x="80.5" y="142.6606">1</text><text fill="#000000" font-family="sans-serif" font-size="13" lengthAdjust="spacingAndGlyphs" textLength="104" x="93.5" y="142.6606">modificarMapa()</text><polygon fill="#A80036" points="343.5,172.8594,353.5,176.8594,343.5,180.8594,347.5,176.8594" style="stroke: #A80036; stroke-width: 1.0;"/><line style="stroke: #A80036; stroke-width: 1.0;" x1="219.5" x2="349.5" y1="176.8594" y2="176.8594"/><text fill="#000000" font-family="sans-serif" font-size="13" font-weight="bold" lengthAdjust="spacingAndGlyphs" textLength="9" x="226.5" y="171.7935">2</text><text fill="#000000" font-family="sans-serif" font-size="13" lengthAdjust="spacingAndGlyphs" textLength="104" x="239.5" y="171.7935">modificarMapa()</text><polygon fill="#A80036" points="482.5,201.9922,492.5,205.9922,482.5,209.9922,486.5,205.9922" style="stroke: #A80036; stroke-width: 1.0;"/><line style="stroke: #A80036; stroke-width: 1.0;" x1="365.5" x2="488.5" y1="205.9922" y2="205.9922"/><text fill="#000000" font-family="sans-serif" font-size="13" font-weight="bold" lengthAdjust="spacingAndGlyphs" textLength="9" x="372.5" y="200.9263">3</text><text fill="#000000" font-family="sans-serif" font-size="13" lengthAdjust="spacingAndGlyphs" textLength="79" x="385.5" y="200.9263">AñadirSala()</text><polygon fill="#FF0000" points="371.5,258.8242,361.5,262.8242,371.5,266.8242,367.5,262.8242" style="stroke: #FF0000; stroke-width: 1.0;"/><line style="stroke: #FF0000; stroke-width: 1.0;" x1="365.5" x2="498.5" y1="262.8242" y2="262.8242"/><text fill="#000000" font-family="sans-serif" font-size="13" font-weight="bold" lengthAdjust="spacingAndGlyphs" textLength="9" x="377.5" y="257.7583">4</text><text fill="#000000" font-family="sans-serif" font-size="13" lengthAdjust="spacingAndGlyphs" textLength="92" x="390.5" y="257.7583">confirmacion()</text><path d="M509,218.9922 L509,288.9922 L687,288.9922 L687,228.9922 L677,218.9922 L509,218.9922 " fill="#FBFB77" filter="url(#f1u4cn6gvb8hzr)" style="stroke: #A80036; stroke-width: 1.0;"/><path d="M677,218.9922 L677,228.9922 L687,228.9922 L677,218.9922 " fill="#FBFB77" style="stroke: #A80036; stroke-width: 1.0;"/><text fill="#000000" font-family="sans-serif" font-size="13" lengthAdjust="spacingAndGlyphs" textLength="148" x="515" y="236.0591">Comprueba que la sala</text><text fill="#000000" font-family="sans-serif" font-size="13" lengthAdjust="spacingAndGlyphs" textLength="103" x="515" y="251.1919">no está añadida</text><text fill="#000000" font-family="sans-serif" font-size="13" lengthAdjust="spacingAndGlyphs" textLength="153" x="515" y="266.3247">previamente y devuelve</text><text fill="#000000" font-family="sans-serif" font-size="13" lengthAdjust="spacingAndGlyphs" textLength="77" x="515" y="281.4575">True o False</text><path d="M13,305.5234 L77,305.5234 L77,312.5234 L67,322.5234 L13,322.5234 L13,305.5234 " fill="#EEEEEE" style="stroke: #000000; stroke-width: 1.0;"/><rect fill="none" height="104.5313" style="stroke: #000000; stroke-width: 2.0;" width="518" x="13" y="305.5234"/><text fill="#000000" font-family="sans-serif" font-size="13" font-weight="bold" lengthAdjust="spacingAndGlyphs" textLength="19" x="28" y="318.5903">alt</text><text fill="#000000" font-family="sans-serif" font-size="11" font-weight="bold" lengthAdjust="spacingAndGlyphs" textLength="106" x="92" y="317.7339">[SalaYaAñadida]</text><polygon fill="#008000" points="371.5,339.7891,361.5,343.7891,371.5,347.7891,367.5,343.7891" style="stroke: #008000; stroke-width: 1.0;"/><line style="stroke: #008000; stroke-width: 1.0;" x1="365.5" x2="498.5" y1="343.7891" y2="343.7891"/><text fill="#000000" font-family="sans-serif" font-size="13" font-weight="bold" lengthAdjust="spacingAndGlyphs" textLength="9" x="377.5" y="338.7231">5</text><text fill="#000000" font-family="sans-serif" font-size="13" lengthAdjust="spacingAndGlyphs" textLength="92" x="390.5" y="338.7231">confirmacion()</text><polygon fill="#008000" points="225.5,368.9219,215.5,372.9219,225.5,376.9219,221.5,372.9219" style="stroke: #008000; stroke-width: 1.0;"/><line style="stroke: #008000; stroke-width: 1.0;" x1="219.5" x2="359.5" y1="372.9219" y2="372.9219"/><text fill="#000000" font-family="sans-serif" font-size="13" font-weight="bold" lengthAdjust="spacingAndGlyphs" textLength="9" x="231.5" y="367.856">6</text><text fill="#000000" font-family="sans-serif" font-size="13" lengthAdjust="spacingAndGlyphs" textLength="41" x="244.5" y="367.856">error()</text><polygon fill="#008000" points="84.5,398.0547,74.5,402.0547,84.5,406.0547,80.5,402.0547" style="stroke: #008000; stroke-width: 1.0;"/><line style="stroke: #008000; stroke-width: 1.0;" x1="78.5" x2="213.5" y1="402.0547" y2="402.0547"/><text fill="#000000" font-family="sans-serif" font-size="13" font-weight="bold" lengthAdjust="spacingAndGlyphs" textLength="9" x="90.5" y="396.9888">7</text><text fill="#000000" font-family="sans-serif" font-size="13" lengthAdjust="spacingAndGlyphs" textLength="41" x="103.5" y="396.9888">error()</text><!--
@startuml
title Diagrama de secuencia - Modificar mapa
autonumber
actor Administrador
boundary InterfMenúUsuario
control Sistema
entity Mapa

Administrador -> InterfMenúUsuario : modificarMapa()
activate InterfMenúUsuario
InterfMenúUsuario -> Sistema : modificarMapa()
activate Sistema
Sistema -> Mapa : AñadirSala()
activate Mapa
Mapa -[#red]> Sistema : confirmacion()
note right 
Comprueba que la sala 
no está añadida
previamente y devuelve 
True o False
end note

deactivate Mapa
deactivate Sistema
deactivate InterfMenúUsuario

alt SalaYaAñadida
Mapa -[#green]> Sistema : confirmacion()
Sistema -[#green]> InterfMenúUsuario : error()
InterfMenúUsuario -[#green]> Administrador : error()
end
@enduml

PlantUML version 1.2019.05(Sat Apr 20 16:45:36 UTC 2019)
(GPL source distribution)
Java Runtime: Java(TM) SE Runtime Environment
JVM: Java HotSpot(TM) 64-Bit Server VM
Java Version: 1.7.0_25-b15
Operating System: Linux
Default Encoding: UTF-8
Language: en
Country: US
--></g></svg>