<?xml version="1.0" encoding="UTF-8" standalone="no"?><svg xmlns="http://www.w3.org/2000/svg" xmlns:xlink="http://www.w3.org/1999/xlink" contentScriptType="application/ecmascript" contentStyleType="text/css" height="745px" preserveAspectRatio="none" style="width:690px;height:745px;" version="1.1" viewBox="0 0 690 745" width="690px" zoomAndPan="magnify"><defs><filter height="300%" id="f12toatfn97edh" width="300%" x="-1" y="-1"><feGaussianBlur result="blurOut" stdDeviation="2.0"/><feColorMatrix in="blurOut" result="blurOut2" type="matrix" values="0 0 0 0 0 0 0 0 0 0 0 0 0 0 0 0 0 0 .4 0"/><feOffset dx="4.0" dy="4.0" in="blurOut2" result="blurOut3"/><feBlend in="SourceGraphic" in2="blurOut3" mode="normal"/></filter></defs><g><text fill="#000000" font-family="sans-serif" font-size="14" font-weight="bold" lengthAdjust="spacingAndGlyphs" textLength="335" x="177.75" y="22.9951">Diagrama de secuencia - Modificar ranking</text><rect fill="#FFFFFF" filter="url(#f12toatfn97edh)" height="288.4609" style="stroke: #A80036; stroke-width: 1.0;" width="10" x="229.5" y="147.7266"/><rect fill="#FFFFFF" filter="url(#f12toatfn97edh)" height="259.3281" style="stroke: #A80036; stroke-width: 1.0;" width="10" x="395.5" y="176.8594"/><rect fill="#FFFFFF" filter="url(#f12toatfn97edh)" height="202.4961" style="stroke: #A80036; stroke-width: 1.0;" width="10" x="556.5" y="233.6914"/><rect fill="#FFFFFF" filter="url(#f12toatfn97edh)" height="190.1953" style="stroke: #000000; stroke-width: 2.0;" width="589.5" x="13" y="451.1875"/><line style="stroke: #A80036; stroke-width: 1.0; stroke-dasharray: 5.0,5.0;" x1="73" x2="73" y1="116.5938" y2="658.3828"/><line style="stroke: #A80036; stroke-width: 1.0; stroke-dasharray: 5.0,5.0;" x1="234.5" x2="234.5" y1="116.5938" y2="658.3828"/><line style="stroke: #A80036; stroke-width: 1.0; stroke-dasharray: 5.0,5.0;" x1="400" x2="400" y1="116.5938" y2="658.3828"/><line style="stroke: #A80036; stroke-width: 1.0; stroke-dasharray: 5.0,5.0;" x1="561.5" x2="561.5" y1="116.5938" y2="658.3828"/><text fill="#000000" font-family="sans-serif" font-size="14" lengthAdjust="spacingAndGlyphs" textLength="95" x="23" y="113.292">Administrador</text><ellipse cx="73.5" cy="43.2969" fill="#FEFECE" filter="url(#f12toatfn97edh)" rx="8" ry="8" style="stroke: #A80036; stroke-width: 2.0;"/><path d="M73.5,51.2969 L73.5,78.2969 M60.5,59.2969 L86.5,59.2969 M73.5,78.2969 L60.5,93.2969 M73.5,78.2969 L86.5,93.2969 " fill="none" filter="url(#f12toatfn97edh)" style="stroke: #A80036; stroke-width: 2.0;"/><text fill="#000000" font-family="sans-serif" font-size="14" lengthAdjust="spacingAndGlyphs" textLength="95" x="23" y="670.3779">Administrador</text><ellipse cx="73.5" cy="683.6797" fill="#FEFECE" filter="url(#f12toatfn97edh)" rx="8" ry="8" style="stroke: #A80036; stroke-width: 2.0;"/><path d="M73.5,691.6797 L73.5,718.6797 M60.5,699.6797 L86.5,699.6797 M73.5,718.6797 L60.5,733.6797 M73.5,718.6797 L86.5,733.6797 " fill="none" filter="url(#f12toatfn97edh)" style="stroke: #A80036; stroke-width: 2.0;"/><text fill="#000000" font-family="sans-serif" font-size="14" lengthAdjust="spacingAndGlyphs" textLength="126" x="168.5" y="113.292">InterfMenúUsuario</text><path d="M214,72.2969 L214,96.2969 M214,84.2969 L231,84.2969 " fill="none" filter="url(#f12toatfn97edh)" style="stroke: #A80036; stroke-width: 2.0;"/><ellipse cx="243" cy="84.2969" fill="#FEFECE" filter="url(#f12toatfn97edh)" rx="12" ry="12" style="stroke: #A80036; stroke-width: 2.0;"/><text fill="#000000" font-family="sans-serif" font-size="14" lengthAdjust="spacingAndGlyphs" textLength="126" x="168.5" y="670.3779">InterfMenúUsuario</text><path d="M214,677.6797 L214,701.6797 M214,689.6797 L231,689.6797 " fill="none" filter="url(#f12toatfn97edh)" style="stroke: #A80036; stroke-width: 2.0;"/><ellipse cx="243" cy="689.6797" fill="#FEFECE" filter="url(#f12toatfn97edh)" rx="12" ry="12" style="stroke: #A80036; stroke-width: 2.0;"/><text fill="#000000" font-family="sans-serif" font-size="14" lengthAdjust="spacingAndGlyphs" textLength="55" x="370" y="113.292">Sistema</text><ellipse cx="400.5" cy="84.2969" fill="#FEFECE" filter="url(#f12toatfn97edh)" rx="12" ry="12" style="stroke: #A80036; stroke-width: 2.0;"/><polygon fill="#A80036" points="396.5,72.2969,402.5,67.2969,400.5,72.2969,402.5,77.2969,396.5,72.2969" style="stroke: #A80036; stroke-width: 1.0;"/><text fill="#000000" font-family="sans-serif" font-size="14" lengthAdjust="spacingAndGlyphs" textLength="55" x="370" y="670.3779">Sistema</text><ellipse cx="400.5" cy="689.6797" fill="#FEFECE" filter="url(#f12toatfn97edh)" rx="12" ry="12" style="stroke: #A80036; stroke-width: 2.0;"/><polygon fill="#A80036" points="396.5,677.6797,402.5,672.6797,400.5,677.6797,402.5,682.6797,396.5,677.6797" style="stroke: #A80036; stroke-width: 1.0;"/><text fill="#000000" font-family="sans-serif" font-size="14" lengthAdjust="spacingAndGlyphs" textLength="56" x="530.5" y="113.292">Ranking</text><ellipse cx="561.5" cy="84.2969" fill="#FEFECE" filter="url(#f12toatfn97edh)" rx="12" ry="12" style="stroke: #A80036; stroke-width: 2.0;"/><line style="stroke: #A80036; stroke-width: 2.0;" x1="549.5" x2="573.5" y1="98.2969" y2="98.2969"/><text fill="#000000" font-family="sans-serif" font-size="14" lengthAdjust="spacingAndGlyphs" textLength="56" x="530.5" y="670.3779">Ranking</text><ellipse cx="561.5" cy="689.6797" fill="#FEFECE" filter="url(#f12toatfn97edh)" rx="12" ry="12" style="stroke: #A80036; stroke-width: 2.0;"/><line style="stroke: #A80036; stroke-width: 2.0;" x1="549.5" x2="573.5" y1="703.6797" y2="703.6797"/><rect fill="#FFFFFF" filter="url(#f12toatfn97edh)" height="288.4609" style="stroke: #A80036; stroke-width: 1.0;" width="10" x="229.5" y="147.7266"/><rect fill="#FFFFFF" filter="url(#f12toatfn97edh)" height="259.3281" style="stroke: #A80036; stroke-width: 1.0;" width="10" x="395.5" y="176.8594"/><rect fill="#FFFFFF" filter="url(#f12toatfn97edh)" height="202.4961" style="stroke: #A80036; stroke-width: 1.0;" width="10" x="556.5" y="233.6914"/><polygon fill="#A80036" points="217.5,143.7266,227.5,147.7266,217.5,151.7266,221.5,147.7266" style="stroke: #A80036; stroke-width: 1.0;"/><line style="stroke: #A80036; stroke-width: 1.0;" x1="73.5" x2="223.5" y1="147.7266" y2="147.7266"/><text fill="#000000" font-family="sans-serif" font-size="13" font-weight="bold" lengthAdjust="spacingAndGlyphs" textLength="9" x="80.5" y="142.6606">1</text><text fill="#000000" font-family="sans-serif" font-size="13" lengthAdjust="spacingAndGlyphs" textLength="119" x="93.5" y="142.6606">modificarRanking()</text><polygon fill="#A80036" points="383.5,172.8594,393.5,176.8594,383.5,180.8594,387.5,176.8594" style="stroke: #A80036; stroke-width: 1.0;"/><line style="stroke: #A80036; stroke-width: 1.0;" x1="239.5" x2="389.5" y1="176.8594" y2="176.8594"/><text fill="#000000" font-family="sans-serif" font-size="13" font-weight="bold" lengthAdjust="spacingAndGlyphs" textLength="9" x="246.5" y="171.7935">2</text><text fill="#000000" font-family="sans-serif" font-size="13" lengthAdjust="spacingAndGlyphs" textLength="119" x="259.5" y="171.7935">modificarRanking()</text><polygon fill="#A80036" points="544.5,229.6914,554.5,233.6914,544.5,237.6914,548.5,233.6914" style="stroke: #A80036; stroke-width: 1.0;"/><line style="stroke: #A80036; stroke-width: 1.0;" x1="405.5" x2="550.5" y1="233.6914" y2="233.6914"/><text fill="#000000" font-family="sans-serif" font-size="13" font-weight="bold" lengthAdjust="spacingAndGlyphs" textLength="9" x="412.5" y="228.6255">3</text><text fill="#000000" font-family="sans-serif" font-size="13" lengthAdjust="spacingAndGlyphs" textLength="119" x="425.5" y="228.6255">modificarRanking()</text><path d="M571,189.8594 L571,259.8594 L678,259.8594 L678,199.8594 L668,189.8594 L571,189.8594 " fill="#FBFB77" filter="url(#f12toatfn97edh)" style="stroke: #A80036; stroke-width: 1.0;"/><path d="M668,189.8594 L668,199.8594 L678,199.8594 L668,189.8594 " fill="#FBFB77" style="stroke: #A80036; stroke-width: 1.0;"/><text fill="#000000" font-family="sans-serif" font-size="13" lengthAdjust="spacingAndGlyphs" textLength="86" x="577" y="206.9263">Se devuelven</text><text fill="#000000" font-family="sans-serif" font-size="13" lengthAdjust="spacingAndGlyphs" textLength="81" x="577" y="222.0591">los datos del</text><text fill="#000000" font-family="sans-serif" font-size="13" lengthAdjust="spacingAndGlyphs" textLength="80" x="577" y="237.1919">ranking para</text><text fill="#000000" font-family="sans-serif" font-size="13" lengthAdjust="spacingAndGlyphs" textLength="77" x="577" y="252.3247">modificarlos</text><polygon fill="#FF0000" points="416.5,286.5234,406.5,290.5234,416.5,294.5234,412.5,290.5234" style="stroke: #FF0000; stroke-width: 1.0;"/><line style="stroke: #FF0000; stroke-width: 1.0;" x1="410.5" x2="555.5" y1="290.5234" y2="290.5234"/><text fill="#000000" font-family="sans-serif" font-size="13" font-weight="bold" lengthAdjust="spacingAndGlyphs" textLength="9" x="422.5" y="285.4575">4</text><text fill="#000000" font-family="sans-serif" font-size="13" lengthAdjust="spacingAndGlyphs" textLength="92" x="435.5" y="285.4575">confirmacion()</text><polygon fill="#FF0000" points="250.5,315.6563,240.5,319.6563,250.5,323.6563,246.5,319.6563" style="stroke: #FF0000; stroke-width: 1.0;"/><line style="stroke: #FF0000; stroke-width: 1.0;" x1="244.5" x2="394.5" y1="319.6563" y2="319.6563"/><text fill="#000000" font-family="sans-serif" font-size="13" font-weight="bold" lengthAdjust="spacingAndGlyphs" textLength="9" x="256.5" y="314.5903">5</text><text fill="#000000" font-family="sans-serif" font-size="13" lengthAdjust="spacingAndGlyphs" textLength="96" x="269.5" y="314.5903">datosRanking()</text><polygon fill="#FF0000" points="84.5,344.7891,74.5,348.7891,84.5,352.7891,80.5,348.7891" style="stroke: #FF0000; stroke-width: 1.0;"/><line style="stroke: #FF0000; stroke-width: 1.0;" x1="78.5" x2="228.5" y1="348.7891" y2="348.7891"/><text fill="#000000" font-family="sans-serif" font-size="13" font-weight="bold" lengthAdjust="spacingAndGlyphs" textLength="9" x="90.5" y="343.7231">6</text><text fill="#000000" font-family="sans-serif" font-size="13" lengthAdjust="spacingAndGlyphs" textLength="96" x="103.5" y="343.7231">datosRanking()</text><polygon fill="#A80036" points="217.5,373.9219,227.5,377.9219,217.5,381.9219,221.5,377.9219" style="stroke: #A80036; stroke-width: 1.0;"/><line style="stroke: #A80036; stroke-width: 1.0;" x1="73.5" x2="223.5" y1="377.9219" y2="377.9219"/><text fill="#000000" font-family="sans-serif" font-size="13" font-weight="bold" lengthAdjust="spacingAndGlyphs" textLength="9" x="80.5" y="372.856">7</text><text fill="#000000" font-family="sans-serif" font-size="13" lengthAdjust="spacingAndGlyphs" textLength="119" x="93.5" y="372.856">modificarRanking()</text><polygon fill="#A80036" points="383.5,403.0547,393.5,407.0547,383.5,411.0547,387.5,407.0547" style="stroke: #A80036; stroke-width: 1.0;"/><line style="stroke: #A80036; stroke-width: 1.0;" x1="239.5" x2="389.5" y1="407.0547" y2="407.0547"/><text fill="#000000" font-family="sans-serif" font-size="13" font-weight="bold" lengthAdjust="spacingAndGlyphs" textLength="9" x="246.5" y="401.9888">8</text><text fill="#000000" font-family="sans-serif" font-size="13" lengthAdjust="spacingAndGlyphs" textLength="119" x="259.5" y="401.9888">modificarRanking()</text><polygon fill="#A80036" points="549.5,432.1875,559.5,436.1875,549.5,440.1875,553.5,436.1875" style="stroke: #A80036; stroke-width: 1.0;"/><line style="stroke: #A80036; stroke-width: 1.0;" x1="400.5" x2="555.5" y1="436.1875" y2="436.1875"/><text fill="#000000" font-family="sans-serif" font-size="13" font-weight="bold" lengthAdjust="spacingAndGlyphs" textLength="9" x="407.5" y="431.1216">9</text><text fill="#000000" font-family="sans-serif" font-size="13" lengthAdjust="spacingAndGlyphs" textLength="97" x="420.5" y="431.1216">insertarDatos()</text><path d="M13,451.1875 L77,451.1875 L77,458.1875 L67,468.1875 L13,468.1875 L13,451.1875 " fill="#EEEEEE" style="stroke: #000000; stroke-width: 1.0;"/><rect fill="none" height="190.1953" style="stroke: #000000; stroke-width: 2.0;" width="589.5" x="13" y="451.1875"/><text fill="#000000" font-family="sans-serif" font-size="13" font-weight="bold" lengthAdjust="spacingAndGlyphs" textLength="19" x="28" y="464.2544">alt</text><text fill="#000000" font-family="sans-serif" font-size="11" font-weight="bold" lengthAdjust="spacingAndGlyphs" textLength="148" x="92" y="463.3979">[NoPermitido/NoExiste]</text><polygon fill="#008000" points="411.5,485.4531,401.5,489.4531,411.5,493.4531,407.5,489.4531" style="stroke: #008000; stroke-width: 1.0;"/><line style="stroke: #008000; stroke-width: 1.0;" x1="405.5" x2="560.5" y1="489.4531" y2="489.4531"/><text fill="#000000" font-family="sans-serif" font-size="13" font-weight="bold" lengthAdjust="spacingAndGlyphs" textLength="18" x="417.5" y="484.3872">10</text><text fill="#000000" font-family="sans-serif" font-size="13" lengthAdjust="spacingAndGlyphs" textLength="92" x="439.5" y="484.3872">confirmacion()</text><polygon fill="#008000" points="245.5,557.418,235.5,561.418,245.5,565.418,241.5,561.418" style="stroke: #008000; stroke-width: 1.0;"/><line style="stroke: #008000; stroke-width: 1.0;" x1="239.5" x2="399.5" y1="561.418" y2="561.418"/><text fill="#000000" font-family="sans-serif" font-size="13" font-weight="bold" lengthAdjust="spacingAndGlyphs" textLength="18" x="251.5" y="556.3521">11</text><text fill="#000000" font-family="sans-serif" font-size="13" lengthAdjust="spacingAndGlyphs" textLength="41" x="273.5" y="556.3521">error()</text><path d="M405,502.4531 L405,602.4531 L537,602.4531 L537,512.4531 L527,502.4531 L405,502.4531 " fill="#FBFB77" filter="url(#f12toatfn97edh)" style="stroke: #A80036; stroke-width: 1.0;"/><path d="M527,502.4531 L527,512.4531 L537,512.4531 L527,502.4531 " fill="#FBFB77" style="stroke: #A80036; stroke-width: 1.0;"/><text fill="#000000" font-family="sans-serif" font-size="13" lengthAdjust="spacingAndGlyphs" textLength="90" x="411" y="519.52">En caso de no</text><text fill="#000000" font-family="sans-serif" font-size="13" lengthAdjust="spacingAndGlyphs" textLength="97" x="411" y="534.6528">tener permisos</text><text fill="#000000" font-family="sans-serif" font-size="13" lengthAdjust="spacingAndGlyphs" textLength="111" x="411" y="549.7856">para un apartado</text><text fill="#000000" font-family="sans-serif" font-size="13" lengthAdjust="spacingAndGlyphs" textLength="99" x="411" y="564.9185">específico, o no</text><text fill="#000000" font-family="sans-serif" font-size="13" lengthAdjust="spacingAndGlyphs" textLength="99" x="411" y="580.0513">existir devuelve</text><text fill="#000000" font-family="sans-serif" font-size="13" lengthAdjust="spacingAndGlyphs" textLength="46" x="411" y="595.1841">el error</text><polygon fill="#008000" points="84.5,629.3828,74.5,633.3828,84.5,637.3828,80.5,633.3828" style="stroke: #008000; stroke-width: 1.0;"/><line style="stroke: #008000; stroke-width: 1.0;" x1="78.5" x2="233.5" y1="633.3828" y2="633.3828"/><text fill="#000000" font-family="sans-serif" font-size="13" font-weight="bold" lengthAdjust="spacingAndGlyphs" textLength="18" x="90.5" y="628.3169">12</text><text fill="#000000" font-family="sans-serif" font-size="13" lengthAdjust="spacingAndGlyphs" textLength="41" x="112.5" y="628.3169">error()</text><!--
@startuml
title Diagrama de secuencia - Modificar ranking
autonumber
actor Administrador
boundary InterfMenúUsuario
control Sistema
entity Ranking

Administrador -> InterfMenúUsuario : modificarRanking()
activate InterfMenúUsuario
InterfMenúUsuario -> Sistema : modificarRanking()
activate Sistema
Sistema -> Ranking : modificarRanking()
note right 
Se devuelven
los datos del
ranking para
modificarlos
end note
activate Ranking
Ranking -[#red]> Sistema : confirmacion()
Sistema -[#red]> InterfMenúUsuario : datosRanking()
InterfMenúUsuario -[#red]> Administrador : datosRanking()
Administrador -> InterfMenúUsuario : modificarRanking()
InterfMenúUsuario -> Sistema : modificarRanking()
Sistema -> Ranking : insertarDatos()

deactivate Ranking
deactivate Sistema
deactivate InterfMenúUsuario
alt NoPermitido/NoExiste
Ranking -[#green]> Sistema : confirmacion()
Sistema -[#green]> InterfMenúUsuario : error()
note right 
En caso de no
tener permisos
para un apartado
específico, o no
existir devuelve 
el error
end note
InterfMenúUsuario -[#green]> Administrador : error()
end
@enduml

PlantUML version 1.2019.05(Sat Apr 20 16:45:36 UTC 2019)
(GPL source distribution)
Java Runtime: Java(TM) SE Runtime Environment
JVM: Java HotSpot(TM) 64-Bit Server VM
Java Version: 1.7.0_25-b15
Operating System: Linux
Default Encoding: UTF-8
Language: en
Country: US
--></g></svg>