<?xml version="1.0" encoding="UTF-8" standalone="no"?><svg xmlns="http://www.w3.org/2000/svg" xmlns:xlink="http://www.w3.org/1999/xlink" contentScriptType="application/ecmascript" contentStyleType="text/css" height="340px" preserveAspectRatio="none" style="width:459px;height:340px;" version="1.1" viewBox="0 0 459 340" width="459px" zoomAndPan="magnify"><defs><filter height="300%" id="f148nqnvxb3fge" width="300%" x="-1" y="-1"><feGaussianBlur result="blurOut" stdDeviation="2.0"/><feColorMatrix in="blurOut" result="blurOut2" type="matrix" values="0 0 0 0 0 0 0 0 0 0 0 0 0 0 0 0 0 0 .4 0"/><feOffset dx="4.0" dy="4.0" in="blurOut2" result="blurOut3"/><feBlend in="SourceGraphic" in2="blurOut3" mode="normal"/></filter></defs><g><text fill="#000000" font-family="sans-serif" font-size="14" font-weight="bold" lengthAdjust="spacingAndGlyphs" textLength="311" x="75.25" y="22.9951">Diagrama de secuencia - Salir del juego</text><rect fill="#FFFFFF" filter="url(#f148nqnvxb3fge)" height="87.3984" style="stroke: #A80036; stroke-width: 1.0;" width="10" x="142" y="147.7266"/><rect fill="#FFFFFF" filter="url(#f148nqnvxb3fge)" height="58.2656" style="stroke: #A80036; stroke-width: 1.0;" width="10" x="257" y="176.8594"/><rect fill="#FFFFFF" filter="url(#f148nqnvxb3fge)" height="29.1328" style="stroke: #A80036; stroke-width: 1.0;" width="10" x="397" y="205.9922"/><line style="stroke: #A80036; stroke-width: 1.0; stroke-dasharray: 5.0,5.0;" x1="37" x2="37" y1="116.5938" y2="253.125"/><line style="stroke: #A80036; stroke-width: 1.0; stroke-dasharray: 5.0,5.0;" x1="147" x2="147" y1="116.5938" y2="253.125"/><line style="stroke: #A80036; stroke-width: 1.0; stroke-dasharray: 5.0,5.0;" x1="261.5" x2="261.5" y1="116.5938" y2="253.125"/><line style="stroke: #A80036; stroke-width: 1.0; stroke-dasharray: 5.0,5.0;" x1="401.5" x2="401.5" y1="116.5938" y2="253.125"/><text fill="#000000" font-family="sans-serif" font-size="14" lengthAdjust="spacingAndGlyphs" textLength="52" x="8" y="113.292">Jugador</text><ellipse cx="37" cy="43.2969" fill="#FEFECE" filter="url(#f148nqnvxb3fge)" rx="8" ry="8" style="stroke: #A80036; stroke-width: 2.0;"/><path d="M37,51.2969 L37,78.2969 M24,59.2969 L50,59.2969 M37,78.2969 L24,93.2969 M37,78.2969 L50,93.2969 " fill="none" filter="url(#f148nqnvxb3fge)" style="stroke: #A80036; stroke-width: 2.0;"/><text fill="#000000" font-family="sans-serif" font-size="14" lengthAdjust="spacingAndGlyphs" textLength="52" x="8" y="265.1201">Jugador</text><ellipse cx="37" cy="278.4219" fill="#FEFECE" filter="url(#f148nqnvxb3fge)" rx="8" ry="8" style="stroke: #A80036; stroke-width: 2.0;"/><path d="M37,286.4219 L37,313.4219 M24,294.4219 L50,294.4219 M37,313.4219 L24,328.4219 M37,313.4219 L50,328.4219 " fill="none" filter="url(#f148nqnvxb3fge)" style="stroke: #A80036; stroke-width: 2.0;"/><text fill="#000000" font-family="sans-serif" font-size="14" lengthAdjust="spacingAndGlyphs" textLength="126" x="81" y="113.292">InterfMenúUsuario</text><path d="M126.5,72.2969 L126.5,96.2969 M126.5,84.2969 L143.5,84.2969 " fill="none" filter="url(#f148nqnvxb3fge)" style="stroke: #A80036; stroke-width: 2.0;"/><ellipse cx="155.5" cy="84.2969" fill="#FEFECE" filter="url(#f148nqnvxb3fge)" rx="12" ry="12" style="stroke: #A80036; stroke-width: 2.0;"/><text fill="#000000" font-family="sans-serif" font-size="14" lengthAdjust="spacingAndGlyphs" textLength="126" x="81" y="265.1201">InterfMenúUsuario</text><path d="M126.5,272.4219 L126.5,296.4219 M126.5,284.4219 L143.5,284.4219 " fill="none" filter="url(#f148nqnvxb3fge)" style="stroke: #A80036; stroke-width: 2.0;"/><ellipse cx="155.5" cy="284.4219" fill="#FEFECE" filter="url(#f148nqnvxb3fge)" rx="12" ry="12" style="stroke: #A80036; stroke-width: 2.0;"/><text fill="#000000" font-family="sans-serif" font-size="14" lengthAdjust="spacingAndGlyphs" textLength="55" x="231.5" y="113.292">Sistema</text><ellipse cx="262" cy="84.2969" fill="#FEFECE" filter="url(#f148nqnvxb3fge)" rx="12" ry="12" style="stroke: #A80036; stroke-width: 2.0;"/><polygon fill="#A80036" points="258,72.2969,264,67.2969,262,72.2969,264,77.2969,258,72.2969" style="stroke: #A80036; stroke-width: 1.0;"/><text fill="#000000" font-family="sans-serif" font-size="14" lengthAdjust="spacingAndGlyphs" textLength="55" x="231.5" y="265.1201">Sistema</text><ellipse cx="262" cy="284.4219" fill="#FEFECE" filter="url(#f148nqnvxb3fge)" rx="12" ry="12" style="stroke: #A80036; stroke-width: 2.0;"/><polygon fill="#A80036" points="258,272.4219,264,267.4219,262,272.4219,264,277.4219,258,272.4219" style="stroke: #A80036; stroke-width: 1.0;"/><text fill="#000000" font-family="sans-serif" font-size="14" lengthAdjust="spacingAndGlyphs" textLength="97" x="350.5" y="113.292">entity_Jugador</text><ellipse cx="402" cy="84.2969" fill="#FEFECE" filter="url(#f148nqnvxb3fge)" rx="12" ry="12" style="stroke: #A80036; stroke-width: 2.0;"/><line style="stroke: #A80036; stroke-width: 2.0;" x1="390" x2="414" y1="98.2969" y2="98.2969"/><text fill="#000000" font-family="sans-serif" font-size="14" lengthAdjust="spacingAndGlyphs" textLength="97" x="350.5" y="265.1201">entity_Jugador</text><ellipse cx="402" cy="284.4219" fill="#FEFECE" filter="url(#f148nqnvxb3fge)" rx="12" ry="12" style="stroke: #A80036; stroke-width: 2.0;"/><line style="stroke: #A80036; stroke-width: 2.0;" x1="390" x2="414" y1="298.4219" y2="298.4219"/><rect fill="#FFFFFF" filter="url(#f148nqnvxb3fge)" height="87.3984" style="stroke: #A80036; stroke-width: 1.0;" width="10" x="142" y="147.7266"/><rect fill="#FFFFFF" filter="url(#f148nqnvxb3fge)" height="58.2656" style="stroke: #A80036; stroke-width: 1.0;" width="10" x="257" y="176.8594"/><rect fill="#FFFFFF" filter="url(#f148nqnvxb3fge)" height="29.1328" style="stroke: #A80036; stroke-width: 1.0;" width="10" x="397" y="205.9922"/><polygon fill="#A80036" points="130,143.7266,140,147.7266,130,151.7266,134,147.7266" style="stroke: #A80036; stroke-width: 1.0;"/><line style="stroke: #A80036; stroke-width: 1.0;" x1="37" x2="136" y1="147.7266" y2="147.7266"/><text fill="#000000" font-family="sans-serif" font-size="13" font-weight="bold" lengthAdjust="spacingAndGlyphs" textLength="9" x="44" y="142.6606">1</text><text fill="#000000" font-family="sans-serif" font-size="13" lengthAdjust="spacingAndGlyphs" textLength="73" x="57" y="142.6606">SalirJuego()</text><polygon fill="#A80036" points="245,172.8594,255,176.8594,245,180.8594,249,176.8594" style="stroke: #A80036; stroke-width: 1.0;"/><line style="stroke: #A80036; stroke-width: 1.0;" x1="152" x2="251" y1="176.8594" y2="176.8594"/><text fill="#000000" font-family="sans-serif" font-size="13" font-weight="bold" lengthAdjust="spacingAndGlyphs" textLength="9" x="159" y="171.7935">2</text><text fill="#000000" font-family="sans-serif" font-size="13" lengthAdjust="spacingAndGlyphs" textLength="73" x="172" y="171.7935">SalirJuego()</text><polygon fill="#A80036" points="385,201.9922,395,205.9922,385,209.9922,389,205.9922" style="stroke: #A80036; stroke-width: 1.0;"/><line style="stroke: #A80036; stroke-width: 1.0;" x1="267" x2="391" y1="205.9922" y2="205.9922"/><text fill="#000000" font-family="sans-serif" font-size="13" font-weight="bold" lengthAdjust="spacingAndGlyphs" textLength="9" x="274" y="200.9263">3</text><text fill="#000000" font-family="sans-serif" font-size="13" lengthAdjust="spacingAndGlyphs" textLength="98" x="287" y="200.9263">guardarDatos()</text><polygon fill="#A80036" points="273,231.125,263,235.125,273,239.125,269,235.125" style="stroke: #A80036; stroke-width: 1.0;"/><line style="stroke: #A80036; stroke-width: 1.0;" x1="267" x2="401" y1="235.125" y2="235.125"/><text fill="#000000" font-family="sans-serif" font-size="13" font-weight="bold" lengthAdjust="spacingAndGlyphs" textLength="9" x="279" y="230.0591">4</text><text fill="#000000" font-family="sans-serif" font-size="13" lengthAdjust="spacingAndGlyphs" textLength="92" x="292" y="230.0591">confirmación()</text><!--
@startuml
title Diagrama de secuencia - Salir del juego
autonumber
actor Jugador
boundary InterfMenúUsuario
control Sistema
entity entity_Jugador

Jugador -> InterfMenúUsuario : SalirJuego()
activate InterfMenúUsuario
InterfMenúUsuario -> Sistema : SalirJuego()
activate Sistema
Sistema -> entity_Jugador : guardarDatos()
activate entity_Jugador
entity_Jugador -> Sistema : confirmación()
deactivate entity_Jugador
deactivate Sistema
deactivate InterfMenúUsuario
@enduml

PlantUML version 1.2019.05(Sat Apr 20 16:45:36 UTC 2019)
(GPL source distribution)
Java Runtime: Java(TM) SE Runtime Environment
JVM: Java HotSpot(TM) 64-Bit Server VM
Java Version: 1.7.0_25-b15
Operating System: Linux
Default Encoding: UTF-8
Language: en
Country: US
--></g></svg>