<?xml version="1.0" encoding="UTF-8" standalone="no"?><svg xmlns="http://www.w3.org/2000/svg" xmlns:xlink="http://www.w3.org/1999/xlink" contentScriptType="application/ecmascript" contentStyleType="text/css" height="340px" preserveAspectRatio="none" style="width:512px;height:340px;" version="1.1" viewBox="0 0 512 340" width="512px" zoomAndPan="magnify"><defs><filter height="300%" id="f1mlrobtq6y21b" width="300%" x="-1" y="-1"><feGaussianBlur result="blurOut" stdDeviation="2.0"/><feColorMatrix in="blurOut" result="blurOut2" type="matrix" values="0 0 0 0 0 0 0 0 0 0 0 0 0 0 0 0 0 0 .4 0"/><feOffset dx="4.0" dy="4.0" in="blurOut2" result="blurOut3"/><feBlend in="SourceGraphic" in2="blurOut3" mode="normal"/></filter></defs><g><text fill="#000000" font-family="sans-serif" font-size="14" font-weight="bold" lengthAdjust="spacingAndGlyphs" textLength="288" x="113.25" y="22.9951">Diagrama de secuencia - Hacer login</text><rect fill="#FFFFFF" filter="url(#f1mlrobtq6y21b)" height="87.3984" style="stroke: #A80036; stroke-width: 1.0;" width="10" x="137" y="147.7266"/><rect fill="#FFFFFF" filter="url(#f1mlrobtq6y21b)" height="58.2656" style="stroke: #A80036; stroke-width: 1.0;" width="10" x="295" y="176.8594"/><rect fill="#FFFFFF" filter="url(#f1mlrobtq6y21b)" height="29.1328" style="stroke: #A80036; stroke-width: 1.0;" width="10" x="450" y="205.9922"/><line style="stroke: #A80036; stroke-width: 1.0; stroke-dasharray: 5.0,5.0;" x1="37" x2="37" y1="116.5938" y2="253.125"/><line style="stroke: #A80036; stroke-width: 1.0; stroke-dasharray: 5.0,5.0;" x1="142" x2="142" y1="116.5938" y2="253.125"/><line style="stroke: #A80036; stroke-width: 1.0; stroke-dasharray: 5.0,5.0;" x1="299.5" x2="299.5" y1="116.5938" y2="253.125"/><line style="stroke: #A80036; stroke-width: 1.0; stroke-dasharray: 5.0,5.0;" x1="454.5" x2="454.5" y1="116.5938" y2="253.125"/><text fill="#000000" font-family="sans-serif" font-size="14" lengthAdjust="spacingAndGlyphs" textLength="52" x="8" y="113.292">Jugador</text><ellipse cx="37" cy="43.2969" fill="#FEFECE" filter="url(#f1mlrobtq6y21b)" rx="8" ry="8" style="stroke: #A80036; stroke-width: 2.0;"/><path d="M37,51.2969 L37,78.2969 M24,59.2969 L50,59.2969 M37,78.2969 L24,93.2969 M37,78.2969 L50,93.2969 " fill="none" filter="url(#f1mlrobtq6y21b)" style="stroke: #A80036; stroke-width: 2.0;"/><text fill="#000000" font-family="sans-serif" font-size="14" lengthAdjust="spacingAndGlyphs" textLength="52" x="8" y="265.1201">Jugador</text><ellipse cx="37" cy="278.4219" fill="#FEFECE" filter="url(#f1mlrobtq6y21b)" rx="8" ry="8" style="stroke: #A80036; stroke-width: 2.0;"/><path d="M37,286.4219 L37,313.4219 M24,294.4219 L50,294.4219 M37,313.4219 L24,328.4219 M37,313.4219 L50,328.4219 " fill="none" filter="url(#f1mlrobtq6y21b)" style="stroke: #A80036; stroke-width: 2.0;"/><text fill="#000000" font-family="sans-serif" font-size="14" lengthAdjust="spacingAndGlyphs" textLength="126" x="76" y="113.292">InterfMenúUsuario</text><path d="M121.5,72.2969 L121.5,96.2969 M121.5,84.2969 L138.5,84.2969 " fill="none" filter="url(#f1mlrobtq6y21b)" style="stroke: #A80036; stroke-width: 2.0;"/><ellipse cx="150.5" cy="84.2969" fill="#FEFECE" filter="url(#f1mlrobtq6y21b)" rx="12" ry="12" style="stroke: #A80036; stroke-width: 2.0;"/><text fill="#000000" font-family="sans-serif" font-size="14" lengthAdjust="spacingAndGlyphs" textLength="126" x="76" y="265.1201">InterfMenúUsuario</text><path d="M121.5,272.4219 L121.5,296.4219 M121.5,284.4219 L138.5,284.4219 " fill="none" filter="url(#f1mlrobtq6y21b)" style="stroke: #A80036; stroke-width: 2.0;"/><ellipse cx="150.5" cy="284.4219" fill="#FEFECE" filter="url(#f1mlrobtq6y21b)" rx="12" ry="12" style="stroke: #A80036; stroke-width: 2.0;"/><text fill="#000000" font-family="sans-serif" font-size="14" lengthAdjust="spacingAndGlyphs" textLength="55" x="269.5" y="113.292">Sistema</text><ellipse cx="300" cy="84.2969" fill="#FEFECE" filter="url(#f1mlrobtq6y21b)" rx="12" ry="12" style="stroke: #A80036; stroke-width: 2.0;"/><polygon fill="#A80036" points="296,72.2969,302,67.2969,300,72.2969,302,77.2969,296,72.2969" style="stroke: #A80036; stroke-width: 1.0;"/><text fill="#000000" font-family="sans-serif" font-size="14" lengthAdjust="spacingAndGlyphs" textLength="55" x="269.5" y="265.1201">Sistema</text><ellipse cx="300" cy="284.4219" fill="#FEFECE" filter="url(#f1mlrobtq6y21b)" rx="12" ry="12" style="stroke: #A80036; stroke-width: 2.0;"/><polygon fill="#A80036" points="296,272.4219,302,267.4219,300,272.4219,302,277.4219,296,272.4219" style="stroke: #A80036; stroke-width: 1.0;"/><text fill="#000000" font-family="sans-serif" font-size="14" lengthAdjust="spacingAndGlyphs" textLength="97" x="403.5" y="113.292">entity_jugador</text><ellipse cx="455" cy="84.2969" fill="#FEFECE" filter="url(#f1mlrobtq6y21b)" rx="12" ry="12" style="stroke: #A80036; stroke-width: 2.0;"/><line style="stroke: #A80036; stroke-width: 2.0;" x1="443" x2="467" y1="98.2969" y2="98.2969"/><text fill="#000000" font-family="sans-serif" font-size="14" lengthAdjust="spacingAndGlyphs" textLength="97" x="403.5" y="265.1201">entity_jugador</text><ellipse cx="455" cy="284.4219" fill="#FEFECE" filter="url(#f1mlrobtq6y21b)" rx="12" ry="12" style="stroke: #A80036; stroke-width: 2.0;"/><line style="stroke: #A80036; stroke-width: 2.0;" x1="443" x2="467" y1="298.4219" y2="298.4219"/><rect fill="#FFFFFF" filter="url(#f1mlrobtq6y21b)" height="87.3984" style="stroke: #A80036; stroke-width: 1.0;" width="10" x="137" y="147.7266"/><rect fill="#FFFFFF" filter="url(#f1mlrobtq6y21b)" height="58.2656" style="stroke: #A80036; stroke-width: 1.0;" width="10" x="295" y="176.8594"/><rect fill="#FFFFFF" filter="url(#f1mlrobtq6y21b)" height="29.1328" style="stroke: #A80036; stroke-width: 1.0;" width="10" x="450" y="205.9922"/><polygon fill="#A80036" points="125,143.7266,135,147.7266,125,151.7266,129,147.7266" style="stroke: #A80036; stroke-width: 1.0;"/><line style="stroke: #A80036; stroke-width: 1.0;" x1="37" x2="131" y1="147.7266" y2="147.7266"/><text fill="#000000" font-family="sans-serif" font-size="13" font-weight="bold" lengthAdjust="spacingAndGlyphs" textLength="9" x="44" y="142.6606">1</text><text fill="#000000" font-family="sans-serif" font-size="13" lengthAdjust="spacingAndGlyphs" textLength="44" x="57" y="142.6606">Login()</text><polygon fill="#A80036" points="283,172.8594,293,176.8594,283,180.8594,287,176.8594" style="stroke: #A80036; stroke-width: 1.0;"/><line style="stroke: #A80036; stroke-width: 1.0;" x1="147" x2="289" y1="176.8594" y2="176.8594"/><text fill="#000000" font-family="sans-serif" font-size="13" font-weight="bold" lengthAdjust="spacingAndGlyphs" textLength="9" x="154" y="171.7935">2</text><text fill="#000000" font-family="sans-serif" font-size="13" lengthAdjust="spacingAndGlyphs" textLength="116" x="167" y="171.7935">comprobarDispo()</text><polygon fill="#A80036" points="438,201.9922,448,205.9922,438,209.9922,442,205.9922" style="stroke: #A80036; stroke-width: 1.0;"/><line style="stroke: #A80036; stroke-width: 1.0;" x1="305" x2="444" y1="205.9922" y2="205.9922"/><text fill="#000000" font-family="sans-serif" font-size="13" font-weight="bold" lengthAdjust="spacingAndGlyphs" textLength="9" x="312" y="200.9263">3</text><text fill="#000000" font-family="sans-serif" font-size="13" lengthAdjust="spacingAndGlyphs" textLength="113" x="325" y="200.9263">realizarConsulta()</text><polygon fill="#A80036" points="311,231.125,301,235.125,311,239.125,307,235.125" style="stroke: #A80036; stroke-width: 1.0;"/><line style="stroke: #A80036; stroke-width: 1.0;" x1="305" x2="454" y1="235.125" y2="235.125"/><text fill="#000000" font-family="sans-serif" font-size="13" font-weight="bold" lengthAdjust="spacingAndGlyphs" textLength="9" x="317" y="230.0591">4</text><text fill="#000000" font-family="sans-serif" font-size="13" lengthAdjust="spacingAndGlyphs" textLength="92" x="330" y="230.0591">confirmación()</text><!--
@startuml
title Diagrama de secuencia - Hacer login
autonumber
actor Jugador
boundary InterfMenúUsuario
control Sistema
entity entity_jugador

Jugador -> InterfMenúUsuario : Login()
activate InterfMenúUsuario
InterfMenúUsuario -> Sistema : comprobarDispo()
activate Sistema
Sistema -> entity_jugador : realizarConsulta()
activate entity_jugador
entity_jugador -> Sistema : confirmación()
deactivate entity_jugador
deactivate Sistema
deactivate InterfMenúUsuario
@enduml

PlantUML version 1.2019.05(Sat Apr 20 16:45:36 UTC 2019)
(GPL source distribution)
Java Runtime: Java(TM) SE Runtime Environment
JVM: Java HotSpot(TM) 64-Bit Server VM
Java Version: 1.7.0_25-b15
Operating System: Linux
Default Encoding: UTF-8
Language: en
Country: US
--></g></svg>